<?xml version="1.0" standalone="no"?>
<!DOCTYPE svg PUBLIC "-//W3C//DTD SVG 1.1//EN" "http://www.w3.org/Graphics/SVG/1.1/DTD/svg11.dtd" >
<svg>
<metadata>
Created by FontForge 20090622 at Thu Mar 23 09:35:23 2017
 By deploy user
Copyright (c) 2013  by Leonard Posavec. All rights reserved.
</metadata>
<defs>
<font id="CampusA-Bold" horiz-adv-x="1096" >
  <font-face 
    font-family="Campus A"
    font-weight="700"
    font-stretch="normal"
    units-per-em="2048"
    panose-1="2 11 -30 0 0 0 0 0 0 0"
    ascent="1700"
    descent="-348"
    x-height="1400"
    cap-height="1400"
    bbox="-3 -255 2159 1705"
    underline-thickness="0"
    underline-position="0"
    unicode-range="U+0021-U+007A"
  />
<missing-glyph horiz-adv-x="1024" 
 />
    <glyph glyph-name=".notdef" horiz-adv-x="1024" 
 />
    <glyph glyph-name="quotedbl" unicode="&#x22;" horiz-adv-x="888" 
d="M127 622l170 208h-80l50 352h884l-42 -297l-216 -263h-361l168 208h-41l-169 -208h-363zM385 867l-171 -208h250l191 235l35 251h-379l-39 -278h113zM788 867l-171 -208h250l193 235l35 251h-380l-39 -278h112zM729 902l30 208h284l-30 -208l-171 -207h-142l171 207h-142
zM326 902l30 208h282l-30 -208l-170 -207h-141l170 207h-141z" />
    <glyph glyph-name="numbersign" unicode="#" horiz-adv-x="1460" 
d="M885 663h93l10 74h-93zM265 0l34 246h-155l59 417h155l10 74h-155l59 417h155l34 246h527l-34 -246h93l34 246h527l-34 -246h154l-59 -417h-154l-10 -74h154l-59 -417h-154l-34 -246h-527l34 246h-93l-34 -246h-527zM743 44l34 245h203l-34 -245h416l34 245h156l46 330
h-156l23 162h156l47 330h-156l34 245h-416l-34 -245h-203l34 245h-416l-34 -245h-155l-47 -330h155l-23 -162h-155l-46 -330h155l-34 -245h416zM846 781h203l-23 -162h-203zM386 86l34 246h-154l35 245h154l34 246h-154l35 245h154l34 246h310l-34 -246h309l34 246h311
l-34 -246h155l-35 -245h-155l-34 -246h155l-35 -245h-155l-34 -246h-311l34 246h-309l-34 -246h-310zM765 577h309l34 246h-309z" />
    <glyph glyph-name="dollar" unicode="$" 
d="M678 509l-11 -76h88l11 76h-88zM739 942h88l11 76h-88zM364 -255l36 257l-260 254l43 304h238l-209 205l60 430l331 254l36 256h502l-36 -256l259 -254l-42 -304h-238l209 -206l-61 -429l-330 -254l-36 -257h-502zM820 -209l36 254h29l298 230l55 392l-234 229h-325
l24 168h195l-18 -128h396l34 240l-234 229h-29l36 255h-396l-36 -255h-30l-297 -229l-55 -392l233 -229h325l-24 -168h-195l18 128h-395l-34 -240l233 -230h30l-36 -254h396zM480 -165l36 254h-59l-207 204l25 178h295l-18 -127h295l36 254h-354l-208 204l50 356l265 204h59
l36 254h295l-36 -254h59l208 -204l-25 -178h-296l18 127h-295l-36 -254h354l209 -204l-50 -356l-266 -204h-59l-36 -254h-295z" />
    <glyph glyph-name="quotesingle" unicode="'" horiz-adv-x="367" 
d="M118 622l134 208h-59l50 352h364l-42 -297l-173 -263h-274zM321 867l-137 -208h189l154 235l35 251h-288l-39 -278h86zM277 902l30 208h214l-30 -208l-135 -207h-108l137 207h-108z" />
    <glyph glyph-name="plus" unicode="+" 
d="M431 227l32 227h-295l55 386h295l31 227h502l-31 -227h295l-55 -386h-295l-32 -227h-502zM887 268l32 227h295l43 304h-295l32 227h-396l-32 -227h-295l-43 -304h295l-32 -227h396zM547 306l32 228h-295l31 227h295l32 227h295l-32 -227h296l-31 -227h-296l-32 -228h-295
z" />
    <glyph glyph-name="comma" unicode="," horiz-adv-x="367" 
d="M1 -207l135 207h-59l49 353h364l-42 -297l-173 -263h-274zM205 37l-137 -207h189l153 234l36 252h-288l-39 -279h86zM161 73l29 207h214l-29 -207l-135 -208h-108l137 208h-108z" />
    <glyph glyph-name="hyphen" unicode="-" 
d="M151 329l39 280h1092l-39 -280h-1092zM1195 359l31 221h-986l-31 -221h986zM263 387l23 165h886l-23 -165h-886z" />
    <glyph glyph-name="period" unicode="." horiz-adv-x="367" 
d="M77 0l39 280h364l-39 -280h-364zM406 29l31 222h-288l-31 -222h288zM159 58l23 164h214l-23 -164h-214z" />
    <glyph glyph-name="zero" unicode="0" 
d="M665 418h88l80 564h-88zM403 0l-264 247l128 906l332 247h497l263 -247l-128 -906l-331 -247h-497zM885 44l297 221l122 870l-235 221h-455l-296 -221l-122 -870l234 -221h455zM698 1026h195l-92 -652h-195zM457 86l-209 196l118 836l263 196h413l210 -196l-118 -836
l-264 -196h-413zM550 332h295l104 736h-295z" />
    <glyph glyph-name="one" unicode="1" horiz-adv-x="1001" 
d="M231 0l58 418h134l62 442h-134l42 298l212 242h415l-138 -982h135l-58 -418h-728zM917 44l46 330h-135l138 982h-341l-186 -211l-33 -241h136l-75 -530h-136l-46 -330h632zM337 86l34 246h135l86 614h-135l27 186l160 182h269l-138 -982h135l-34 -246h-539z" />
    <glyph glyph-name="two" unicode="2" 
d="M734 909h88l11 73h-88zM753 418l11 73h-88l-11 -73h88zM105 0l92 661l266 199h-238l42 293l332 247h497l263 -247l-59 -414l-266 -199h238l-75 -540h-1092zM1151 44l63 452h-396l-17 -122h-195l23 161h325l297 221l53 379l-235 221h-455l-296 -221l-32 -231h395l17 122
h195l-23 -161h-325l-296 -221l-84 -600h986zM221 86l75 540l264 197h354l35 245h-295l-18 -122h-295l25 172l263 196h413l210 -196l-49 -344l-264 -197h-354l-35 -245h295l17 122h296l-51 -368h-886z" />
    <glyph glyph-name="three" unicode="3" 
d="M676 491l-11 -73h88l11 73h-88zM734 909h88l11 73h-88zM180 540h444l45 320h-444l42 293l332 247h497l263 -247l-59 -414l-52 -39l41 -39l-58 -414l-331 -247h-497l-264 247zM681 904l17 122h195l-23 -161h-148l-46 -330h148l-23 -161h-195l17 122h-395l-32 -231
l234 -221h455l297 221l53 379l-59 56l75 56l53 379l-235 221h-455l-296 -221l-32 -231h395zM341 946l25 172l263 196h413l210 -196l-49 -344l-99 -74l78 -74l-48 -344l-264 -196h-413l-209 196l24 172h295l-17 -122h295l35 245h-148l34 246h148l35 245h-295l-18 -122h-295z
" />
    <glyph glyph-name="four" unicode="4" 
d="M400 0l51 368h-295l50 356l583 676h457l-86 -614h147l-110 -786h-797zM1151 44l46 330h-148l5 38h148l47 330h-148l86 614h-374l-555 -645l-42 -299h442l-5 -38h-147l-46 -330h691zM516 86l34 246h147l17 122h-442l35 246l528 614h295l-86 -614h149l-35 -246h-149
l-17 -122h149l-34 -246h-591zM623 700h126l24 175z" />
    <glyph glyph-name="five" unicode="5" 
d="M676 491l-11 -73h88l11 73h-88zM301 1400h1092l-58 -418h-590l-11 -73h293l262 -248l-58 -414l-331 -247h-497l-264 247l41 293h238l-210 199zM265 756l234 -221h325l-23 -161h-195l17 122h-395l-32 -231l234 -221h455l297 221l53 379l-235 221h-325l23 161h591l46 330
h-986zM393 1314h886l-34 -246h-591l-35 -245h354l209 -197l-48 -344l-264 -196h-413l-209 196l24 172h295l-17 -122h295l35 245h-354l-209 197z" />
    <glyph glyph-name="six" unicode="6" 
d="M665 418h88l11 73h-88zM734 909h88l11 73h-88zM1317 860h-238l210 -199l-58 -414l-331 -247h-497l-264 247l128 906l332 247h497l263 -247zM1304 1135l-235 221h-455l-296 -221l-122 -870l234 -221h455l297 221l53 379l-235 221h-325l23 161h195l-17 -122h396zM629 535
h195l-23 -161h-195zM1227 946h-296l18 122h-295l-35 -245h354l209 -197l-48 -344l-264 -196h-413l-209 196l118 836l263 196h413l210 -196zM550 332h295l35 245h-295z" />
    <glyph glyph-name="seven" unicode="7" 
d="M739 941l15.5 20l15.5 21h-25zM105 0l58 418h186l88.5 119.5l79.5 107.5l78 104l83 111h-453l76 540h1092l-49 -353l-467 -629h83l-58 -418h-797zM856 44l46 330h-117l508 685l42 297h-986l-63 -452h395l17 122h164l-125.5 -169l-118 -158.5l-117.5 -158l-124 -166.5
h-166l-46 -330h691zM221 86l34 246h147l547 736h-295l-18 -122h-295l52 368h886l-34 -246l-548 -736h148l-34 -246h-590z" />
    <glyph glyph-name="eight" unicode="8" 
d="M734 909h88l11 73h-88zM665 418h88l11 73h-88zM1300 739l-52 -39l41 -39l-58 -414l-331 -247h-497l-264 247l58 414l53 39l-42 39l59 414l332 247h497l263 -247zM1304 1135l-235 221h-455l-296 -221l-53 -379l59 -56l-75 -56l-53 -379l234 -221h455l297 221l53 379
l-59 56l75 56zM629 535h195l-23 -161h-195zM698 1026h195l-23 -161h-195zM1203 774l-99 -74l78 -74l-48 -344l-264 -196h-413l-209 196l48 344l100 74l-79 74l49 344l263 196h413l210 -196zM619 823h295l35 245h-295zM550 332h295l35 245h-295z" />
    <glyph glyph-name="nine" unicode="9" 
d="M676 491l-11 -73h88l11 73h-88zM833 982h-109l-11 -73h109zM180 540h238l-210 199l59 414l332 247h497l263 -247l-128 -906l-331 -247h-497l-264 247zM196 265l234 -221h455l297 221l122 870l-235 221h-455l-296 -221l-53 -379l234 -221h325l-23 -161h-195l17 122h-395z
M870 865h-216l23 161h216zM272 454h295l-17 -122h295l35 245h-354l-209 197l49 344l263 196h413l210 -196l-118 -836l-264 -196h-413l-209 196zM949 1068h-317l-35 -245h317z" />
    <glyph glyph-name="colon" unicode=":" horiz-adv-x="367" 
d="M177 715l57 405h364l-57 -405h-364zM77 0l56 405h364l-56 -405h-364zM408 43l45 320h-288l-45 -320h288zM508 757l45 320h-288l-45 -320h288zM263 798l33 239h214l-33 -239h-214zM162 83l34 239h214l-34 -239h-214z" />
    <glyph glyph-name="semicolon" unicode=";" horiz-adv-x="367" 
d="M180 737l59 417h364l-59 -417h-364zM-3 -246l139 246h-59l58 418h364l-49 -352l-180 -312h-273zM206 44l-143 -246h189l160 278l42 298h-288l-46 -330h86zM511 781l47 330h-288l-47 -330h288zM163 86l34 246h214l-34 -246l-141 -246h-108l143 246h-108zM266 823l35 245
h214l-35 -245h-214z" />
    <glyph glyph-name="equal" unicode="=" 
d="M200 681l54 386h1092l-54 -386h-1092zM136 227l55 386h1092l-55 -386h-1092zM1182 268l43 304h-986l-43 -304h986zM1246 722l43 304h-986l-43 -304h986zM315 761l32 227h886l-32 -227h-886zM252 306l32 228h886l-32 -228h-886z" />
    <glyph glyph-name="question" unicode="?" 
d="M225 860l42 293l332 247h497l263 -247l-59 -414l-329 -246l-69 -493h-502l92 661l330 246l11 75h-88l-18 -122h-502zM681 904l17 122h195l-23 -161h-30l-296 -221l-33 -232h396l18 123h29l297 221l53 379l-235 221h-455l-296 -221l-32 -231h395zM460 44h396l46 330h-396z
M341 946l25 172l263 196h413l210 -196l-49 -344l-264 -197h-59l-18 -123h-295l24 172l264 197h59l35 245h-295l-18 -122h-295zM550 332h295l-34 -246h-295z" />
    <glyph glyph-name="A" unicode="A" horiz-adv-x="1460" 
d="M110 0l58 418h179l110 243l114.5 251l114 249.5l108.5 238.5h481l170 -982h179l-58 -418h-1456zM1518 44l46 330h-167l-171 982h-394l-223.5 -490l-225.5 -492h-165l-46 -330h1346zM805 374q7 17 10.5 24t5.5 14h149q5 -25 6 -38h-171zM232 86l34 246h154l448 982h309
l173 -982h155l-34 -246h-598l34 246h132l-22 122h-231l-56 -122h132l-34 -246h-596zM953 823l-56 -123h78z" />
    <glyph glyph-name="B" unicode="B" horiz-adv-x="1278" 
d="M903 909h91l11 73h-91zM834 418h91l11 73h-91zM108 0l58 418h152l80 564h-152l58 418h968l272 -247l-64 -453h-51l25.5 -14l21.5 -11l-60 -428l-340 -247h-968zM1062 44l304 221l54 385l-46 23.5l-51 26.5l111 50l54 385l-242 221h-894l-46 -330h153l-92 -652h-153
l-46 -330h894zM796 535h199l-23 -161h-199zM865 1026h199l-23 -161h-199zM226 86l34 246h153l104 736h-153l34 246h819l217 -196l-49 -344l-163 -74l142 -74l-48 -344l-271 -196h-819zM784 823h303l35 245h-303zM715 332h303l35 245h-303z" />
    <glyph glyph-name="C" unicode="C" 
d="M403 0l-264 247l128 906l332 247h497l263 -247l-42 -293h-502l18 122h-88l-80 -564h88l17 122h502l-41 -293l-331 -247h-497zM885 44l297 221l32 231h-396l-17 -122h-195l92 652h195l-17 -122h396l32 231l-235 221h-455l-296 -221l-122 -870l234 -221h455zM457 86
l-209 196l118 836l263 196h413l210 -196l-25 -172h-296l18 122h-295l-104 -736h295l17 122h296l-24 -172l-264 -196h-413z" />
    <glyph glyph-name="D" unicode="D" horiz-adv-x="1278" 
d="M834 418h91l80 564h-91zM108 0l58 418h152l80 564h-152l58 418h968l272 -247l-128 -906l-340 -247h-968zM1062 44l304 221l122 870l-242 221h-894l-46 -330h153l-92 -652h-153l-46 -330h894zM865 1026h199l-92 -652h-199zM226 86l34 246h153l104 736h-153l34 246h819
l217 -196l-118 -836l-271 -196h-819zM715 332h303l104 736h-303z" />
    <glyph glyph-name="E" unicode="E" horiz-adv-x="1278" 
d="M903 909h91l11 73h-91zM925 418l11 73h-91l-11 -73h91zM108 0l58 418h152l80 564h-152l58 418h1274l-76 -540h-303l-45 -320h303l-75 -540h-1274zM1335 44l63 452h-409l-17 -122h-199l23 161h303l46 330h-303l23 161h199l-17 -122h409l63 452h-1167l-46 -330h153
l-92 -652h-153l-46 -330h1167zM226 86l34 246h153l104 736h-153l34 246h1063l-52 -368h-305l18 122h-303l-35 -245h303l-34 -246h-303l-35 -245h303l17 122h305l-51 -368h-1063z" />
    <glyph glyph-name="F" unicode="F" horiz-adv-x="1278" 
d="M903 909h91l11 73h-91zM108 0l58 418h152l80 564h-152l58 418h1274l-76 -540h-303l-51 -369h-303l-11 -73h151l-58 -418h-819zM880 44l46 330h-153l23 161h303l46 330h-303l23 161h199l-17 -122h409l63 452h-1167l-46 -330h153l-92 -652h-153l-46 -330h712zM226 86
l34 246h153l104 736h-153l34 246h1063l-52 -368h-305l18 122h-303l-35 -245h303l-34 -246h-303l-35 -245h153l-34 -246h-608z" />
    <glyph glyph-name="G" unicode="G" 
d="M734 909h88l11 73h-88zM676 491l-11 -73h88l11 73h-88zM403 0l-264 247l128 906l332 247h497l263 -247l-128 -906l-331 -247h-497zM885 44l297 221l84 600h-544l-46 -330h148l-23 -161h-195l92 652h195l-17 -122h396l32 231l-235 221h-455l-296 -221l-122 -870l234 -221
h455zM457 86l-209 196l118 836l263 196h413l210 -196l-25 -172h-296l18 122h-295l-104 -736h295l35 245h-148l34 246h444l-76 -541l-264 -196h-413z" />
    <glyph glyph-name="H" unicode="H" horiz-adv-x="1460" 
d="M930 982l-11 -73h93l11 73h-93zM850 418h93l11 73h-93zM110 0l58 418h155l80 564h-155l58 418h1456l-58 -418h-154l-80 -564h154l-58 -418h-1456zM1518 44l46 330h-156l92 652h156l46 330h-1346l-46 -330h155l-92 -652h-155l-46 -330h1346zM1084 1026l-23 -161h-203
l23 161h203zM812 535h203l-23 -161h-203zM232 86l34 246h154l104 736h-154l34 246h596l-34 -246h-132l-35 -245h309l35 245h-132l34 246h598l-34 -246h-155l-104 -736h155l-34 -246h-598l34 246h132l35 245h-309l-35 -245h132l-34 -246h-596z" />
    <glyph glyph-name="I" unicode="I" horiz-adv-x="706" 
d="M95 0l58 418h134l80 564h-134l58 418h702l-58 -418h-115l-80 -564h115l-58 -418h-702zM756 44l46 330h-114l92 652h114l46 330h-607l-46 -330h134l-92 -652h-134l-46 -330h607zM200 86l34 246h134l104 736h-134l34 246h515l-34 -246h-114l-104 -736h114l-34 -246h-515z
" />
    <glyph glyph-name="J" unicode="J" horiz-adv-x="1278" 
d="M699 540l-17 -122h91l80 564h-152l58 418h819l-58 -418h-151l-104 -735l-339 -247h-513l-271 247l41 293h516zM231 496l-32 -231l242 -221h468l304 221l107 761h153l46 330h-712l-46 -330h153l-92 -652h-201l17 122h-407zM580 454l-17 -122h305l104 736h-153l34 246h608
l-34 -246h-153l-111 -786l-270 -196h-423l-217 196l24 172h303z" />
    <glyph glyph-name="K" unicode="K" horiz-adv-x="1416" 
d="M110 0l58 418h155l80 564h-155l58 418h1456l-58 -418h-180l-81 -71.5l-73 -65l-74 -66.5l-85 -75l60 -72.5l55.5 -68.5l56.5 -69.5l63 -75.5h178l-58 -418h-1456zM1518 44l46 330h-151l-70.5 85l-66 79.5l-65.5 80l-69 84.5l93.5 83l88.5 79l88.5 78.5l92.5 82.5h151
l46 330h-1346l-46 -330h155l-92 -652h-155l-46 -330h1346zM1032 1026l-51.5 -46l-44 -40l-39.5 -36.5l-39 -35.5l23 158h151zM796 423q12 12 24 22.5t22 20.5l42.5 -51l34.5 -41h-130zM232 86l34 246h154l104 736h-154l34 246h596l-34 -246h-132l-46 -326l355 326h-132
l34 246h598l-34 -246h-125l-410 -364l306 -372h125l-34 -246h-598l34 246h115l-171 203l-106 -98l-15 -105h132l-34 -246h-596z" />
    <glyph glyph-name="L" unicode="L" horiz-adv-x="1278" 
d="M108 0l58 418h152l80 564h-152l58 418h819l-58 -418h-151l-80 -564h91l17 122h515l-75 -540h-1274zM1335 44l63 452h-409l-17 -122h-199l92 652h153l46 330h-712l-46 -330h153l-92 -652h-153l-46 -330h1167zM226 86l34 246h153l104 736h-153l34 246h608l-34 -246h-153
l-104 -736h303l17 122h305l-51 -368h-1063z" />
    <glyph glyph-name="M" unicode="M" horiz-adv-x="1799" 
d="M948 0h-834l58 418h159l80 565h-159l58 418h665l179 -456l79 116l79 117.5l77 114.5l73 108h642l-58 -418h-160l-80 -565h160l-58 -418h-802l-54.5 -80l-45.5 -70zM919 44l19 137l85 -214l60 90.5l65 98.5l-15 -112h724l46 330h-160l92 653h160l46 330h-547
l-176.5 -262.5l-179.5 -266.5l-208 529h-570l-46 -330h160l-92 -653h-160l-46 -330h743zM824 471l38 -97h-52zM1351 464l-13 -90h-47q14 23 29.5 45.5zM237 86l34 246h160l104 737h-160l34 246h478l235 -597l402 597h457l-34 -246h-160l-104 -737h160l-34 -246h-615l34 246
h158l49 351l-397 -604l-240 604l-49 -351h155l-34 -246h-633z" />
    <glyph glyph-name="N" unicode="N" horiz-adv-x="1642" 
d="M1181 982l11 -21l3 21h-14zM864 418h14l-11 21zM113 0l58 418h157l80 564h-157l58 418h650l109 -204l28 204h851l-58 -418h-159l-138 -982h-492l-109 204l-28 -204h-850zM912 44l46 330h-157l34 245l307 -575h401l138 982h157l46 330h-737l-46 -330h157l-35 -244
l-306 574h-558l-46 -330h157l-92 -652h-157l-46 -330h737zM234 86l34 246h158l104 736h-158l34 246h473l374 -702l64 456h-157l34 246h631l-34 -246h-158l-138 -982h-316l-374 702l-64 -456h158l-34 -246h-631z" />
    <glyph glyph-name="O" unicode="O" 
d="M665 418h88l80 564h-88zM403 0l-264 247l128 906l332 247h497l263 -247l-128 -906l-331 -247h-497zM885 44l297 221l122 870l-235 221h-455l-296 -221l-122 -870l234 -221h455zM698 1026h195l-92 -652h-195zM457 86l-209 196l118 836l263 196h413l210 -196l-118 -836
l-264 -196h-413zM550 332h295l104 736h-295z" />
    <glyph glyph-name="P" unicode="P" horiz-adv-x="1278" 
d="M903 909h91l11 73h-91zM108 0l58 418h152l80 564h-152l58 418h968l272 -247l-59 -414l-340 -248h-300l-11 -73h151l-58 -418h-819zM880 44l46 330h-153l23 161h335l304 221l53 379l-242 221h-894l-46 -330h153l-92 -652h-153l-46 -330h712zM865 1026h199l-23 -161h-199z
M226 86l34 246h153l104 736h-153l34 246h819l217 -196l-49 -344l-271 -197h-364l-35 -245h153l-34 -246h-608zM784 823h303l35 245h-303z" />
    <glyph glyph-name="Q" unicode="Q" 
d="M666 426h88l81 577h-88zM364 -251l36 253l-260 251l130 924l333 252h497l262 -252l-130 -924l-330 -251l-36 -253h-502zM460 45l-35 -251h396l35 251h29l297 225l125 889l-234 225h-455l-297 -225l-125 -889l234 -225h30zM701 1048h195l-94 -667h-195zM457 88l-208 200
l120 853l264 200h413l209 -200l-120 -853l-265 -200h-59l-35 -251h-295l35 251h-59zM551 339h295l106 752h-295z" />
    <glyph glyph-name="R" unicode="R" horiz-adv-x="1460" 
d="M919 909h93l11 73h-93zM850 418h93l11 73h-93zM110 0l58 418h155l80 564h-155l58 418h990l278 -247l-59 -414l-53 -39l42 -39l-34 -243h154l-58 -418h-1456zM1518 44l46 330h-156l38 270l-62 56l78 56l53 379l-247 221h-912l-46 -330h155l-92 -652h-155l-46 -330h1346z
M881 1026h203l-23 -161h-203zM789 374l23 161h203l-23 -161h-203zM232 86l34 246h154l104 736h-154l34 246h836l221 -196l-49 -344l-104 -74l83 -74l-41 -294h155l-34 -246h-598l34 246h132l35 245h-309l-35 -245h132l-34 -246h-596zM799 823h309l35 245h-309z" />
    <glyph glyph-name="S" unicode="S" 
d="M676 491l-11 -73h88l11 73h-88zM734 909h88l11 73h-88zM180 540h238l-210 199l59 414l332 247h497l263 -247l-42 -293h-242l215 -198l-59 -415l-331 -247h-497l-264 247zM196 265l234 -221h455l297 221l53 378l-240 222h-320l23 161h195l-17 -122h396l32 231l-235 221
h-455l-296 -221l-53 -379l234 -221h325l-23 -161h-195l17 122h-395zM272 454h295l-17 -122h295l35 245h-354l-209 197l49 344l263 196h413l210 -196l-25 -172h-296l18 122h-295l-35 -245h350l213 -197l-48 -344l-264 -196h-413l-209 196z" />
    <glyph glyph-name="T" unicode="T" horiz-adv-x="1460" 
d="M420 0l58 418h156l62 442h-466l76 540h1456l-76 -540h-464l-62 -442h155l-58 -418h-837zM1207 44l46 330h-155l92 652h50l-17 -122h416l63 452h-1346l-63 -452h416l17 122h48l-92 -652h-154l-46 -330h725zM541 86l34 246h155l104 736h-155l-18 -122h-309l52 368h1239
l-52 -368h-311l18 122h-155l-104 -736h155l-34 -246h-619z" />
    <glyph glyph-name="U" unicode="U" horiz-adv-x="1460" 
d="M930 982l-80 -564h93l80 564h-93zM306 1400h1456l-58 -418h-154l-104 -735l-346 -247h-523l-278 247l104 735h-155zM310 1026h155l-107 -761l247 -221h479l309 221l107 761h156l46 330h-1346zM1084 1026l-92 -652h-203l92 652h203zM404 1314h596l-34 -246h-132l-104 -736
h309l104 736h-132l34 246h598l-34 -246h-155l-111 -786l-275 -196h-435l-220 196l111 786h-154z" />
    <glyph glyph-name="V" unicode="V" horiz-adv-x="1460" 
d="M958 982l5 -21.5t5 -31.5l12.5 26t12.5 27h-35zM306 1400h1456l-58 -418h-178l-111 -243l-114 -251l-113.5 -249.5l-108.5 -238.5h-481l-171 982h-179zM310 1026h165l173 -982h394l222.5 490l224.5 492h167l46 330h-1346zM1068 1026l-64 -141.5l-61 -130.5l-15 86.5
l-11 60.5l-10 55l-12 70h173zM404 1314h596l-34 -246h-132l85 -491l224 491h-132l34 246h598l-34 -246h-155l-449 -982h-309l-172 982h-154z" />
    <glyph glyph-name="W" unicode="W" horiz-adv-x="1825" 
d="M1342 982l4 -6q0 4 2 6h-6zM976 982q-1 -1 0 -2.5t1 -3.5q0 3 3 6h-4zM252 982l58 418h862l-30 -212l31.5 40.5l27.5 34.5l38 -74l29 211h862l-58 -418h-175l-50.5 -139l-49.5 -135.5l-51 -139.5l-54 -150h140l-58 -418h-1500l58 418h139l-11.5 141l-10.5 135.5
l-10.5 138t-10.5 149.5h-176zM483 1026l12 -167t12.5 -160.5l13 -160t12.5 -164.5h-151l-46 -330h1387l46 330h-151l60.5 167.5l58 159.5l57 159l59.5 166h168l46 330h-749l-46 -330h150l-37 -101l-32 -91l-166 329l-56.5 -72l-66 -83.5l-69.5 -87.5l-66 -85q-3 39 -5.5 63
t-4 43t-3.5 38t-4 47h151l46 330h-747l-46 -330h167zM1091 482l18.5 -36l13.5 -26.5l12 -22l13 -23.5h-144l27.5 33.5l21 26.5l18.5 23.5zM376 1068l34 246h638l-34 -246h-159l29 -368l290 368l185 -368l134 368h-159l34 246h639l-34 -246h-160l-264 -736h160l-34 -246h-617
l34 246h138l-125 245l-195 -245h137l-34 -246h-616l34 246h160l-56 736h-159z" />
    <glyph glyph-name="X" unicode="X" horiz-adv-x="1460" 
d="M248 982l58 418h1456l-58 -418h-204l-71 -71.5l-66 -66.5l-67 -68l-74 -76l49 -70l48 -68l49 -69.5l52 -74.5h204l-58 -418h-1456l58 418h206l69.5 71.5l65.5 66.5l67.5 68l75.5 76l-49.5 70l-47.5 68l-49 69.5l-52 74.5h-206zM490 1026l114 -164l114 -162l-161.5 -165
l-158.5 -161h-180l-46 -330h1346l46 330h-180l-114.5 164l-113.5 162l320 326h180l46 330h-1346l-46 -330h180zM1040 1026l-40 -40t-27 -25l-25 36.5l-20 28.5h112zM899 439q17 -26 27.5 -38.5l21.5 -26.5h-113q15 15 23.5 24.5t15 15.5l12 11.5zM370 1068l34 246h596
l-34 -246h-132l128 -184l181 184h-132l34 246h598l-34 -246h-155l-363 -368l259 -368h155l-34 -246h-598l34 246h132l-129 184l-180 -184h132l-34 -246h-596l34 246h154l362 368l-258 368h-154z" />
    <glyph glyph-name="Y" unicode="Y" horiz-adv-x="1460" 
d="M248 982l58 418h1456l-58 -418h-204l-150.5 -153l-153.5 -155l-36 -256h155l-58 -418h-837l58 418h156l36 257l-56 79l-52 73l-52 74l-56 81h-206zM490 1026l60.5 -87l58 -83l57.5 -82.5l60 -86.5l-44 -313h-154l-46 -330h725l46 330h-155l44 313l167.5 170l166.5 169
h180l46 330h-1346l-46 -330h180zM1040 1026l-40 -40t-27 -25l-25 36.5l-20 28.5h112zM370 1068l34 246h596l-34 -246h-132l128 -184l181 184h-132l34 246h598l-34 -246h-155l-363 -368l-52 -368h155l-34 -246h-619l34 246h155l52 368l-258 368h-154z" />
    <glyph glyph-name="Z" unicode="Z" horiz-adv-x="1278" 
d="M925 418l11 73l-81 -73h70zM751 909l80 73h-69zM158 361l539 499h-469l76 540h1274l-50 -361l-540 -499h469l-75 -540h-1274zM696 904l17 122h233l-736 -680l-42 -302h1167l63 452h-409l-17 -122h-232l737 680l42 302h-1167l-63 -452h407zM346 946l52 368h1063l-34 -246
l-799 -736h390l17 122h305l-51 -368h-1063l34 246l797 736h-390l-18 -122h-303z" />
    <glyph glyph-name="a" unicode="a" horiz-adv-x="1278" 
d="M79 0l627 1400h470l236 -1400h-523l-41 246h-137l-110 -246h-522zM565 44l25.5 57.5l28 62.5l28.5 64l27 61h220l44 -245h411l-220 1312h-387l-589 -1312h412zM840 619h-18q3 9 6.5 16l7.5 15zM226 86l552 1228h303l208 -1228h-305l-41 246h-303l-111 -246h-303zM860 823
l-110 -246h153z" />
    <glyph glyph-name="b" unicode="b" 
d="M734 909h88l11 73h-88zM665 418h88l11 73h-88zM105 0l196 1400h795l263 -247l-59 -414l-52 -39l41 -39l-58 -414l-331 -247h-795zM885 44l297 221l53 379l-59 56l75 56l53 379l-235 221h-720l-184 -1312h720zM629 535h195l-23 -161h-195zM698 1026h195l-23 -161h-195z
M221 86l172 1228h649l210 -196l-49 -344l-99 -74l78 -74l-48 -344l-264 -196h-649zM619 823h295l35 245h-295zM550 332h295l35 245h-295z" />
    <glyph glyph-name="d" unicode="d" 
d="M665 418h88l80 564h-88zM105 0l196 1400h795l263 -247l-128 -906l-331 -247h-795zM885 44l297 221l122 870l-235 221h-720l-184 -1312h720zM698 1026h195l-92 -652h-195zM221 86l172 1228h649l210 -196l-118 -836l-264 -196h-649zM550 332h295l104 736h-295z" />
    <glyph glyph-name="e" unicode="e" 
d="M105 0l196 1400h1092l-58 -418h-590l-11 -73h443l-58 -418h-443l-11 -73h590l-58 -418h-1092zM1151 44l46 330h-591l23 161h443l46 330h-443l23 161h591l46 330h-986l-184 -1312h986zM221 86l172 1228h886l-34 -246h-591l-35 -245h442l-34 -246h-442l-35 -245h591
l-34 -246h-886z" />
    <glyph glyph-name="f" unicode="f" 
d="M105 0l196 1400h1092l-58 -418h-590l-11 -73h443l-58 -418h-443l-69 -491h-502zM560 44l69 491h443l46 330h-443l23 161h591l46 330h-986l-184 -1312h395zM221 86l172 1228h886l-34 -246h-591l-35 -245h442l-34 -246h-442l-69 -491h-295z" />
    <glyph glyph-name="h" unicode="h" 
d="M105 0l196 1400h502l-69 -491h88l69 491h502l-196 -1400h-502l69 491h-88l-69 -491h-502zM560 44l69 491h195l-69 -491h396l184 1312h-396l-69 -491h-195l69 491h-395l-184 -1312h395zM221 86l172 1228h295l-69 -491h295l69 491h296l-172 -1228h-296l69 491h-295
l-69 -491h-295z" />
    <glyph glyph-name="i" unicode="i" horiz-adv-x="367" 
d="M77 0l196 1400h364l-196 -1400h-364zM408 44l184 1312h-288l-184 -1312h288zM163 86l172 1228h214l-172 -1228h-214z" />
    <glyph glyph-name="j" unicode="j" 
d="M682 540l-17 -122h88l138 982h502l-162 -1153l-331 -247h-497l-264 247l41 293h502zM228 496l-32 -231l234 -221h455l297 221l153 1091h-396l-138 -982h-195l17 122h-395zM567 454l-17 -122h295l138 982h296l-145 -1032l-264 -196h-413l-209 196l24 172h295z" />
    <glyph glyph-name="k" unicode="k" horiz-adv-x="1278" 
d="M108 0l196 1400h516l-44 -318l174 162.5l166 155.5h571l-645 -594l99 -196l107.5 -212l107 -209.5l96.5 -188.5h-546l-215 478l-67 -478h-516zM575 44l65 467l35.5 31.5l32.5 28.5l238 -527h422l-94.5 187l-99.5 196l-99 197l-95 188l591 544h-435l-215 -200.5
l-219 -203.5l57 404h-407l-184 -1312h407zM226 86l172 1228h303l-68 -488l523 488h305l-544 -498l372 -730h-305l-253 565l-141 -126l-61 -439h-303z" />
    <glyph glyph-name="l" unicode="l" 
d="M105 0l196 1400h502l-138 -982h590l-58 -418h-1092zM1151 44l46 330h-591l138 982h-395l-184 -1312h986zM221 86l172 1228h295l-138 -982h591l-34 -246h-886z" />
    <glyph glyph-name="m" unicode="m" horiz-adv-x="1438" 
d="M110 0l196 1400h492l167 -444l158.5 227.5l150.5 216.5h488l-196 -1400h-526l35 254l-75.5 -108l-72 -104l-66 -94.5l-56.5 -81.5l-137 359l-31 -225h-527zM588 44l57 407l179 -472l75.5 109.5l85.5 122.5l89 127.5l87 124.5l-59 -419h416l184 1312h-398l-176.5 -254
l-181.5 -259l-192 513h-398l-184 -1312h416zM232 86l172 1228h309l218 -579l401 579h311l-172 -1228h-311l81 579l-401 -579l-219 575l-80 -575h-309z" />
    <glyph glyph-name="n" unicode="n" horiz-adv-x="1278" 
d="M108 0l196 1400h474l224 -439l61 439h515l-196 -1400h-475l-222 439l-61 -439h-516zM575 44l80 575l293 -575h387l184 1312h-409l-81 -574l-290 574h-387l-184 -1312h407zM226 86l172 1228h303l357 -702l98 702h305l-172 -1228h-305l-357 702l-98 -702h-303z" />
    <glyph glyph-name="p" unicode="p" 
d="M735 912h88l10 70h-88zM105 0l196 1400h795l263 -247l-59 -414l-331 -248h-293l-69 -491h-502zM560 44l69 491h325l297 221l53 379l-235 221h-720l-184 -1312h395zM698 1026h195l-23 -158h-195zM221 86l172 1228h649l210 -196l-49 -344l-264 -197h-354l-69 -491h-295z
M620 826h295l34 242h-295z" />
    <glyph glyph-name="r" unicode="r" 
d="M734 909h88l11 73h-88zM105 0l196 1400h795l263 -247l-59 -414l-52 -39l41 -39l-92 -661h-502l69 491h-88l-69 -491h-502zM560 44l69 491h195l-69 -491h396l84 600l-59 56l75 56l53 379l-235 221h-720l-184 -1312h395zM698 1026h195l-23 -161h-195zM221 86l172 1228h649
l210 -196l-49 -344l-99 -74l78 -74l-75 -540h-296l69 491h-295l-69 -491h-295zM619 823h295l35 245h-295z" />
    <glyph glyph-name="t" unicode="t" horiz-adv-x="1460" 
d="M576 0l138 982h-466l58 418h1456l-58 -418h-464l-138 -982h-526zM1052 44l138 982h466l46 330h-1346l-46 -330h464l-138 -982h416zM696 86l138 982h-464l34 246h1239l-34 -246h-466l-138 -982h-309z" />
    <glyph glyph-name="u" unicode="u" 
d="M301 1400h502l-138 -982h88l138 982h502l-162 -1153l-331 -247h-497l-264 247zM196 265l234 -221h455l297 221l153 1091h-396l-138 -982h-195l138 982h-395zM393 1314h295l-138 -982h295l138 982h296l-145 -1032l-264 -196h-413l-209 196z" />
    <glyph glyph-name="v" unicode="v" horiz-adv-x="1278" 
d="M275 1400h522l79 -467l107.5 240.5l101.5 226.5h523l-628 -1400h-470zM558 44h387l588 1312h-411l-133.5 -297.5l-138.5 -304.5l-101 602h-412zM398 1314h303l125 -737l330 737h305l-552 -1228h-303z" />
    <glyph glyph-name="w" unicode="w" horiz-adv-x="1825" 
d="M282 1400h550l55 -359l27 59t24 54h495l19 -115l82 187.5l75 173.5h550l-603 -1400h-499l-17 114l-25.5 -59l-23.5 -55h-500zM543 44h408l57 133.5l60 141.5l40 -275h409l563 1312h-431l-109 -249.5l-111 -256.5l-46 261h-405l-59.5 -126.5l-61.5 -133.5l-77 505h-433z
M410 1314h319l101 -649l184 403h320l71 -403l282 649h320l-529 -1228h-319l-63 428l-183 -428h-320z" />
    <glyph glyph-name="x" unicode="x" horiz-adv-x="1460" 
d="M223 1400h563l202 -329l153 169.5l143 159.5h562l-627 -700l104 -169.5l114 -186.5l113 -183.5l100 -160.5h-562l-204 329l-151.5 -169.5l-142.5 -159.5h-563l629 700zM719 700l-588 -656h434l163.5 183.5l167.5 186.5l228 -370h434l-97.5 157.5l-104 169l-104 169.5
l-97.5 160l587 656h-434l-163.5 -183.5l-168.5 -186.5l-227 370h-434zM404 1314h309l252 -410l367 410h311l-552 -614l380 -614h-311l-253 410l-366 -410h-309l550 614z" />
    <glyph glyph-name="y" unicode="y" horiz-adv-x="1460" 
d="M223 1400h563l202 -329l153 169.5l143 159.5h562l-650 -725l-94 -675h-526l95 676zM726 689l-90 -645h416l90 644l600 668h-434l-163.5 -183.5l-168.5 -186.5l-227 370h-434zM404 1314h309l252 -410l367 410h311l-552 -614l-86 -614h-309l86 614z" />
    <glyph glyph-name="z" unicode="z" 
d="M243 982l58 418h1092l-50 -356l-553 -626h465l-58 -418h-1092l50 356l554 626h-466zM810 1026l-603 -682l-42 -300h986l46 330h-508l604 682l42 300h-986l-46 -330h507zM359 1068l34 246h886l-34 -246l-653 -736h549l-34 -246h-886l34 246l652 736h-548z" />
    <glyph glyph-name="c" unicode="c" 
d="M403 0l-264 247l128 906l332 247h497l263 -247l-42 -293h-502l18 122h-88l-80 -564h88l17 122h502l-41 -293l-331 -247h-497zM885 44l297 221l32 231h-396l-17 -122h-195l92 652h195l-17 -122h396l32 231l-235 221h-455l-296 -221l-122 -870l234 -221h455zM457 86
l-209 196l118 836l263 196h413l210 -196l-25 -172h-296l18 122h-295l-104 -736h295l17 122h296l-24 -172l-264 -196h-413z" />
    <glyph glyph-name="g" unicode="g" 
d="M734 909h88l11 73h-88zM676 491l-11 -73h88l11 73h-88zM403 0l-264 247l128 906l332 247h497l263 -247l-128 -906l-331 -247h-497zM885 44l297 221l84 600h-544l-46 -330h148l-23 -161h-195l92 652h195l-17 -122h396l32 231l-235 221h-455l-296 -221l-122 -870l234 -221
h455zM457 86l-209 196l118 836l263 196h413l210 -196l-25 -172h-296l18 122h-295l-104 -736h295l35 245h-148l34 246h444l-76 -541l-264 -196h-413z" />
    <glyph glyph-name="o" unicode="o" 
d="M665 418h88l80 564h-88zM403 0l-264 247l128 906l332 247h497l263 -247l-128 -906l-331 -247h-497zM885 44l297 221l122 870l-235 221h-455l-296 -221l-122 -870l234 -221h455zM698 1026h195l-92 -652h-195zM457 86l-209 196l118 836l263 196h413l210 -196l-118 -836
l-264 -196h-413zM550 332h295l104 736h-295z" />
    <glyph glyph-name="q" unicode="q" 
d="M666 426h88l81 577h-88zM364 -251l36 253l-260 251l130 924l333 252h497l262 -252l-130 -924l-330 -251l-36 -253h-502zM460 45l-35 -251h396l35 251h29l297 225l125 889l-234 225h-455l-297 -225l-125 -889l234 -225h30zM701 1048h195l-94 -667h-195zM457 88l-208 200
l120 853l264 200h413l209 -200l-120 -853l-265 -200h-59l-35 -251h-295l35 251h-59zM551 339h295l106 752h-295z" />
    <glyph glyph-name="s" unicode="s" 
d="M676 491l-11 -73h88l11 73h-88zM734 909h88l11 73h-88zM180 540h238l-210 199l59 414l332 247h497l263 -247l-42 -293h-242l215 -198l-59 -415l-331 -247h-497l-264 247zM196 265l234 -221h455l297 221l53 378l-240 222h-320l23 161h195l-17 -122h396l32 231l-235 221
h-455l-296 -221l-53 -379l234 -221h325l-23 -161h-195l17 122h-395zM272 454h295l-17 -122h295l35 245h-354l-209 197l49 344l263 196h413l210 -196l-25 -172h-296l18 122h-295l-35 -245h350l213 -197l-48 -344l-264 -196h-413l-209 196z" />
    <glyph glyph-name="exclam" unicode="!" horiz-adv-x="367" 
d="M77 0l58 418h364l-58 -418h-364zM202 491l6 448l65 461h364l-65 -461l-118 -448h-252zM427 535l106 404l59 417h-288l-59 -417l-5 -404h187zM408 44l46 330h-288l-46 -330h288zM163 86l34 246h214l-34 -246h-214zM279 577l4 369l52 368h214l-52 -368l-96 -369h-122z" />
  </font>
</defs>
</svg>
