<?xml version="1.0" standalone="no"?>
<!DOCTYPE svg PUBLIC "-//W3C//DTD SVG 1.1//EN" "http://www.w3.org/Graphics/SVG/1.1/DTD/svg11.dtd" >
<svg>
<metadata>
Created by FontForge 20090622 at Tue Apr  4 21:50:53 2017
 By deploy user
Copyright (c) 2017 by M&#195;&#130;ns Greb&#226;&#128;&#176;ck. All rights reserved.
</metadata>
<defs>
<font id="FinitionPERSONALUSEONLY" horiz-adv-x="661" >
  <font-face 
    font-family="Finition PERSONAL USE ONLY"
    font-weight="400"
    font-stretch="normal"
    units-per-em="1000"
    panose-1="0 0 0 0 0 0 0 0 0 0"
    ascent="800"
    descent="-200"
    x-height="355"
    cap-height="618.5"
    bbox="-1630.53 -395.059 2308.35 1085.55"
    underline-thickness="50"
    underline-position="-50"
    unicode-range="U+000D-U+FB02"
  />
<missing-glyph horiz-adv-x="299" 
 />
    <glyph glyph-name="fi" unicode="fi" horiz-adv-x="453" 
d="M391 670q-11 -21 -37.5 -54.5l-56.5 -69l-58 -69t-42 -54.5l-104 -153q60 -8 116.5 15.5t116.5 70.5q13 10 26.5 11t22.5 -5t11.5 -17t-4.5 -24l-14.5 -24.5l-14 -25.5l-17 -32l-22.5 -43q-14 -25 -6.5 -32t28 1t51.5 31t66 58q12 12 23.5 13t18.5 -5t6 -18t-14 -25
l-26 -25.5l-35.5 -33t-40.5 -34t-40 -28.5q-31 -20 -56 -23.5t-39.5 7t-15.5 35.5t15 63q12 28 20.5 44t11 23t-3.5 6t-23 -8q-56 -30 -102.5 -38t-96.5 -3l-46.5 -87.5l-35.5 -72.5t-28 -64.5l-24 -62.5q-10 -29 -8.5 -43.5t11.5 -13t26 20t36 55.5q23 44 36 83.5t18 77.5
q1 7 8.5 8t9.5 -6q12 -38 10 -84.5t-19 -93.5q-24 -65 -52 -107.5t-55.5 -64.5t-52 -24t-40.5 13t-21.5 45.5t5.5 74.5q23 91 68 189.5t101 198.5q-6 13 -6 33q0 27 13.5 46t33.5 19q7 0 15 -3l70 111.5l70.5 107l65.5 92.5t55 69q21 24 39 26.5t29 -7.5t13 -29.5t-9 -40.5z
M469 565q9 5 19.5 3.5t18 -7.5t11 -16.5t-2.5 -22.5t-17 -26l-22.5 -27.5l-20.5 -24.5t-12 -18q-5 -14 -16.5 -13t-17.5 13q-3 6 -3 23.5t6 39t19.5 42.5t37.5 34z" />
    <glyph glyph-name="fl" unicode="fl" horiz-adv-x="497" 
d="M391 670q-11 -21 -37.5 -54.5l-56.5 -69l-58 -69t-42 -54.5q-18 -28 -32.5 -48l-26.5 -38l-24 -35.5t-25 -39.5q33 11 63 26t61 37.5t65.5 55t77.5 78.5l97 108.5l124 145.5q14 18 28 18.5t22 -9.5t8 -28t-14 -36q-47 -62 -95 -136.5t-88.5 -145.5t-71 -130t-42.5 -90
q-12 -32 -14 -47t3.5 -17t16.5 5.5t26 21.5l59 55.5l82 79.5q18 19 33 23t21.5 -2.5t3 -21.5t-22.5 -34l-114 -118l-114 -118q-29 -29 -49.5 -38.5t-33 -2.5t-15.5 29t4 57q7 34 24.5 80t39 92.5l42.5 89.5l36 72q18 35 16 32.5t-28 -29.5q-32 -32 -68 -60.5t-73.5 -50.5
t-75 -37t-72.5 -21l-33 -61t-35 -71l-33.5 -74.5t-28.5 -72.5q-10 -29 -8.5 -43.5t11.5 -13t26 20t36 55.5q23 44 36 83.5t18 77.5q1 7 8.5 8t9.5 -6q12 -38 10 -84.5t-19 -93.5q-24 -65 -52 -107.5t-55.5 -64.5t-52 -24t-40.5 13t-21.5 45.5t5.5 74.5q23 91 68 189.5
t101 198.5q-5 15 -5 31q0 27 13.5 46t33.5 19q7 0 13 -3l70 112.5l70.5 107l66 93t55.5 69.5q21 24 39 26.5t29 -7.5t13 -29.5t-9 -40.5z" />
    <glyph glyph-name="i_t" unicode="it" horiz-adv-x="503" 
d="M334 514q22 7 50 11.5t58 6.5q17 31 33.5 54.5t31.5 37.5q9 9 18.5 13t17.5 3q9 0 15.5 -7t8 -19.5t-3.5 -31t-20 -41.5q15 2 28.5 3.5t25.5 4.5q13 3 21 -8.5t9.5 -26.5t-5 -28.5t-22.5 -15.5q-36 -4 -63 -5t-51 -2l-33.5 -49t-27.5 -46q-14 -25 -26.5 -52t-23.5 -53.5
t-19.5 -50.5t-13.5 -42q-3 -11 -2 -20t6 -12.5t15.5 -1t27.5 15.5q19 15 49.5 42l64.5 60q15 15 29 18.5t21.5 -2.5t5 -19.5t-20.5 -31.5l-108 -106q-53 -51 -91 -64.5t-55 6.5t-9.5 73t45.5 136q-56 -57 -102.5 -100t-83.5 -66q-31 -20 -56 -23.5t-39.5 7t-16 35.5t15.5 63
l10.5 27t5 18.5t-3.5 5.5t-15 -12t-22 -11t-17.5 6.5t-6.5 17.5t11 22q23 24 55.5 52.5t59.5 49.5q13 10 26.5 11t22.5 -5t11.5 -17t-4.5 -24l-14.5 -24.5l-14 -25.5l-17 -32l-22.5 -43q-14 -26 -6 -33t31 4q31 15 64 42t65 59t62 66.5l56 63.5l14 31l14 30
q-14 -2 -29.5 -4.5t-33.5 -6.5q-13 -3 -19.5 5.5t-7 20.5t4.5 24t16 16zM238 557q9 5 19.5 3.5t18 -7.5t11 -16.5t-2.5 -22.5t-17 -26l-22.5 -27.5l-20.5 -24.5t-12 -18q-5 -14 -16.5 -13t-17.5 13q-3 6 -3 23.5t6 39t19.5 42.5t37.5 34z" />
    <glyph glyph-name="t_t" unicode="tt" horiz-adv-x="522" 
d="M89 476q19 6 42 11.5t50 10.5q23 42 44 75.5t40 50.5q9 9 18.5 13t17.5 3q9 0 16 -7.5t8 -21.5t-6 -34.5t-25 -45.5q-3 -5 -6 -9l-7 -9q45 6 90.5 11l90.5 10q17 30 33 53t31 37q9 9 18.5 13t17.5 3q9 0 15.5 -6.5t8.5 -18.5t-2.5 -29t-17.5 -38q17 2 31.5 5l28.5 6
q13 3 21 -8.5t9.5 -26.5t-5 -28.5t-22.5 -15.5q-26 -3 -56.5 -5.5t-63.5 -5.5l-36.5 -52t-28.5 -49q-14 -25 -26.5 -52t-23.5 -53.5t-19.5 -50.5t-13.5 -42q-3 -11 -2 -20t6 -12.5t15.5 -1t27.5 15.5q19 15 49.5 42l64.5 60q15 15 29 18.5t21.5 -2.5t5 -19.5t-20.5 -31.5
l-108 -106q-51 -48 -87.5 -63.5t-54.5 1.5q-20 18 -12 76.5t48 146.5q-14 -14 -24 -25.5l-25.5 -28l-39.5 -41.5l-66 -66q-53 -51 -91 -64.5t-55 6.5t-9.5 73t45.5 136l-44 -45q-12 -12 -23 -12t-17 6.5t-5.5 18t11.5 22.5l70 74l63 70l12 27l-50 -12q-13 -4 -19.5 4t-7 20
t4.5 23.5t16 15.5zM147 152q68 53 126.5 115l120.5 131l14 32t15 31l-99.5 -10t-96.5 -12l-24.5 -37t-19.5 -34q-14 -25 -26.5 -52t-23.5 -53.5t-19.5 -50.5t-13.5 -42q-3 -11 -2 -20t6 -12.5t15.5 -1t27.5 15.5z" />
    <glyph glyph-name="f_t" unicode="ft" horiz-adv-x="542" 
d="M325 507q26 8 68 13.5t87 10.5q17 31 34 55t32 38q9 9 18.5 13t17.5 3q9 0 15.5 -7t8 -20t-3.5 -31.5t-20 -41.5q16 2 29.5 4.5l24.5 4.5q13 3 21 -8.5t9.5 -26.5t-5 -28.5t-22.5 -15.5q-35 -4 -61.5 -4.5t-51.5 -0.5l-34.5 -50t-27.5 -47q-14 -25 -26.5 -52t-23.5 -53.5
t-19.5 -50.5t-13.5 -42q-3 -11 -2 -20t6 -12.5t15.5 -1t27.5 15.5q19 15 49.5 42l64.5 60q15 15 29 18.5t21.5 -2.5t5 -19.5t-20.5 -31.5l-108 -106q-75 -71 -118.5 -70t-38.5 68q1 14 6 34.5t12.5 44t17.5 49.5t21 50q-30 -31 -73 -59t-89 -47t-92 -25.5t-82 6.5
q-31 -55 -59 -116t-53 -131q-10 -29 -8.5 -43.5t11.5 -13t26 20t36 55.5q23 44 36 83.5t18 77.5q1 7 8.5 8t9.5 -6q12 -38 10 -84.5t-19 -93.5q-24 -65 -52 -107.5t-55.5 -64.5t-52 -24t-40.5 13t-21.5 45.5t5.5 74.5q20 83 60 173t91 181q-4 11 -4 27q0 24 13.5 45.5
t41.5 18.5l74 120.5l77 118t72.5 103t60.5 76.5q21 24 39 26.5t29 -7.5t13 -29.5t-9 -40.5t-37.5 -54.5l-56.5 -69l-58 -69t-42 -54.5l-69.5 -105t-59.5 -94q31 -8 72 -1.5t86.5 28t93.5 58t94 89.5l30 64q-23 -2 -50.5 -7.5t-62.5 -13.5q-13 -3 -19.5 5.5t-7 20.5t4.5 24
t16 16z" />
    <glyph glyph-name="j_t" unicode="jt" horiz-adv-x="532" 
d="M366 501q20 7 45.5 12l53.5 10q19 34 36.5 60t34.5 41q9 9 18.5 13t17.5 3q9 0 16 -7t8.5 -20t-4 -31.5t-21.5 -42.5q15 2 29 4.5t26 5.5q13 3 21 -8.5t9.5 -26.5t-5 -28.5t-22.5 -15.5q-44 -5 -68 -5.5t-46 -1.5l-33.5 -49.5t-27.5 -45.5q-14 -25 -26.5 -52t-23.5 -53.5
t-19.5 -50.5t-13.5 -42q-3 -11 -2 -20t6 -12.5t15.5 -1t27.5 15.5q19 15 49.5 42l64.5 60q15 15 29 18.5t21.5 -2.5t5 -19.5t-20.5 -31.5l-108 -106q-53 -51 -91 -64.5t-55 6.5t-9.5 73t45.5 136q-28 -28 -62 -66l-70 -80l-71.5 -84.5l-66.5 -81l-55 -70l-37 -49.5
q-26 -37 -49 -47t-37.5 0t-16.5 35.5t14 59.5q9 20 26 51l37.5 66.5l43.5 74.5l44.5 75.5l39.5 68t29 53.5q7 13 8 19.5t-8 2.5t-29.5 -21.5t-54.5 -51.5q-10 -10 -19.5 -9t-15.5 8.5t-6.5 17.5t7.5 18q7 8 23 24l34 33l36 32.5t31 23.5q14 9 29.5 6t26 -15.5t13 -32.5
t-8.5 -44q-8 -20 -24 -49.5l-33.5 -61l-34.5 -61l-27 -47.5q-21 -37 -18 -48.5t16 8.5q13 18 37.5 47t56 63l66.5 71l68.5 72.5l63 67.5l49.5 55q5 13 11 25.5l12 24.5q-12 -2 -25.5 -5.5l-29.5 -7.5q-13 -3 -19.5 5.5t-7 20.5t4.5 24t16 16zM245 514q13 11 24.5 9t18 -11
t7 -21t-9.5 -22q-10 -9 -16.5 -18.5t-11.5 -23.5q-6 -18 -19.5 -21.5t-24.5 22.5q-8 15 -1 39t33 47z" />
    <glyph glyph-name="l_t" unicode="lt" horiz-adv-x="587" 
d="M408 501q22 7 51.5 13t61.5 11q19 33 36.5 58.5t33.5 40.5q9 9 18.5 13t17.5 3q9 0 15.5 -7t8 -20t-4 -31.5t-20.5 -42.5q15 2 29 4.5t26 5.5q13 3 21 -8.5t9.5 -26.5t-5 -28.5t-22.5 -15.5q-41 -5 -66 -5.5t-48 -1.5l-33.5 -49t-27.5 -46q-14 -25 -26.5 -52t-23.5 -53.5
t-19.5 -50.5t-13.5 -42q-3 -11 -2 -20t6 -12.5t15.5 -1t27.5 15.5q19 15 49.5 42l64.5 60q15 15 29 18.5t21.5 -2.5t5 -19.5t-20.5 -31.5l-108 -106q-53 -51 -91 -64.5t-55 6.5t-9.5 73t45.5 136l-151.5 -157.5l-119.5 -123.5q-29 -29 -49.5 -38.5t-33 -2.5t-15.5 29t4 57
q7 34 24.5 80t39 92.5l42.5 89.5l36 72t9.5 26t-26.5 -27l-55 -62.5t-74 -79.5q-13 -13 -26 -14.5t-20 4.5t-5.5 18t16.5 27q68 69 132 143l116.5 139l88.5 113t49 64q14 18 28 18.5t22 -9.5t8 -28t-14 -36q-47 -62 -91.5 -136.5t-81.5 -145.5t-64.5 -130t-39.5 -90
q-12 -32 -14 -47t3.5 -17t16.5 5.5t26 21.5l137 134.5t137 144.5l12 27t13 26q-30 -6 -70 -16q-13 -3 -19.5 5.5t-7 20.5t4.5 24t16 16z" />
    <glyph glyph-name="underscore_underscore" unicode="__" horiz-adv-x="0" 
d="M-845 -230q41 24 130.5 44.5t211.5 38t268.5 31.5t301.5 24t311 16t297.5 7.5t259.5 -1.5t198 -11q30 -3 44.5 -22.5t17.5 -41.5t-4 -40t-21 -16q-68 9 -175 14.5t-238.5 7t-281.5 -1t-304 -9t-305 -17.5t-285 -26t-244 -35t-182 -44q-11 -5 -18 4.5t-8 24t5 30t21 23.5z
" />
    <glyph glyph-name="underscore_underscore_underscore" unicode="___" horiz-adv-x="0" 
d="M-1038 -207q15 12 91 24.5t196.5 25t277.5 24t335.5 22.5t370 19.5t381 14.5t369 9t333 2t274 -6.5t191.5 -16.5q33 -5 48.5 -26.5t17.5 -45.5t-7 -42t-24 -16q-45 9 -141 15.5t-229.5 10.5t-297 5.5t-343 0.5t-368 -4.5t-372 -9.5t-355 -15t-317 -21t-258 -26.5
t-178.5 -31.5q-13 -4 -19.5 5t-6 23.5t8 31t22.5 28.5z" />
    <glyph glyph-name="underscore_underscore_underscore_underscore" unicode="____" horiz-adv-x="0" 
d="M-1595 -260q76 28 216.5 51.5t327 42.5t410 33.5t465.5 25t493 16.5t493.5 8.5t466.5 1t411 -6.5t329 -13.5t219 -19.5q36 -5 53 -27.5t19 -47.5t-7.5 -44.5t-26.5 -17.5q-157 18 -347.5 31.5t-403 22t-441 13t-461.5 4t-464 -5.5t-449.5 -14.5t-418 -23t-369 -32
t-302.5 -41t-218 -49.5q-14 -4 -22 7.5t-8.5 28t8 33.5t27.5 24z" />
    <glyph glyph-name=".notdef" horiz-adv-x="299" 
 />
    <glyph glyph-name="NULL" horiz-adv-x="0" 
 />
    <glyph glyph-name="NULL" horiz-adv-x="0" 
 />
    <glyph glyph-name="nonmarkingreturn" unicode="&#xd;" horiz-adv-x="299" 
 />
    <glyph glyph-name="space" unicode=" " horiz-adv-x="299" 
 />
    <glyph glyph-name="zero" unicode="0" horiz-adv-x="1479" 
d="M165 201l-22 -125l-23 125h-33l-3 -201h31l1 82l16 -82h22l17 83v-83h31l-3 201h-34zM810 590q-20 0 -32.5 10.5t-15.5 29.5q-2 9 -2 18v18q0 19 -1 39.5t4 38.5q5 16 16.5 23.5t26.5 8.5q16 0 29.5 -5.5t19.5 -21.5q7 -17 6 -39t-1 -41q0 -10 -0.5 -20.5t-2.5 -20.5
q-8 -38 -47 -38zM762 382q-20 0 -32.5 10.5t-15.5 29.5q-2 9 -2 18.5v18.5q0 18 -0.5 39t4.5 38q9 32 43 32q16 0 29 -5.5t19 -21.5q7 -17 5.5 -39t-1.5 -40q0 -11 0.5 -21t-1.5 -21q-8 -38 -48 -38zM286 104l-33 97h-27v-201h32v99l34 -99h26v201h-32v-97zM538 76h21v-14
t-1.5 -17t-6 -13.5t-13.5 -2.5q-10 4 -10 19.5v24.5v47v22t3 21t14 9q8 -2 11 -12q2 -8 1.5 -15t-0.5 -15h33q0 17 -2 36.5t-19 29.5q-10 6 -22 6.5t-23 -2.5q-14 -5 -20 -16.5t-9 -25.5q-2 -14 -1.5 -28.5t0.5 -28.5t-0.5 -28t1.5 -28q2 -11 6 -22.5t15 -18.5t25 -7t24 10
v-7h27v104h-54v-28zM541 592v182q17 0 36.5 0.5t33.5 -7.5q10 -6 15.5 -18t5.5 -25.5t-6 -25t-18 -15.5l26 -91h-25l-23 86h-20v-86h-25zM455 104q-4 5 -8 9.5t-8 9.5l-10.5 10t-7.5 13q-3 7 -1 17t13 9q11 -2 11.5 -15.5t1.5 -21.5l31 1q0 17 -4.5 36t-21.5 27
q-21 10 -41 -1.5t-22 -34.5q-2 -12 0 -24t9 -22q3 -6 7.5 -10t8.5 -9l22 -23t11 -29q0 -5 -1.5 -10t-6.5 -7t-8 1t-6 7q-4 8 -4.5 17t-1.5 18l-31 -2q0 -12 1.5 -24.5t6.5 -23.5q7 -14 20 -20t29 -3q15 2 24 14t11 26q2 19 -4.5 35.5t-19.5 29.5zM341 592v182h39q14 0 26 -3
t19 -17q8 -15 7 -36t-15 -32q-11 -8 -24 -8.5t-26 -0.5v-85h-26zM885 592v182h17l51 -121v121h22v-182h-16l-53 124v-124h-21zM837 385v181h17l52 -120v120h21v-181h-17l-52 123v-123h-21zM993 592l39 182h24l39 -182h-24l-8 46h-38l-8 -46h-24zM411 386q-17 -7 -36 -2
t-26 25q-5 11 -5.5 21.5t-0.5 22.5v113h25v-120q0 -11 1.5 -24t14.5 -18q10 -4 16 -1t9.5 9t5 14t1.5 16q1 14 0.5 29t-0.5 29v66h24v-83q0 -12 1 -26.5t-1 -28.5t-8.5 -25.5t-20.5 -16.5zM510 382q-24 0 -35.5 15.5t-13.5 38.5l23 6q1 -8 2.5 -17.5t7.5 -15.5t14.5 -6.5
t15.5 4.5q7 6 6.5 17t-5.5 18q-4 6 -9.5 11l-10.5 10q-8 8 -19 16.5t-17 18.5q-5 9 -6.5 19t1 20t8.5 18t17 11t23 2t21 -7q9 -7 12.5 -18t4.5 -22l-21 -6q-1 10 -4 20.5t-15 12.5q-8 2 -15.5 -2t-9.5 -13q-3 -15 8 -25.5t22 -19.5q11 -10 22 -21.5t15 -27.5q5 -22 -7 -39.5
t-35 -17.5zM700 590q-23 0 -35 15.5t-13 37.5l22 6q1 -8 3 -17.5t8 -14.5q5 -6 14 -7t15 5q7 6 6.5 16.5t-5.5 18.5q-4 6 -9 11l-10 10q-9 8 -19.5 16t-17.5 18q-11 18 -5.5 40t26.5 28q10 3 22.5 2t20.5 -7q9 -6 13 -17.5t4 -22.5l-21 -6q-1 11 -4 21.5t-15 12.5
q-8 2 -15.5 -2.5t-9.5 -12.5q-2 -16 8.5 -26.5t21.5 -19.5l22 -21t15 -27q5 -23 -7 -40t-35 -17zM606 -25h30l55 251h-31zM450 592v182h70v-19h-45v-60h36v-18h-36v-66h46v-19h-71zM573 385v181h70v-19h-45v-60h37v-17h-37v-67h46v-18h-71zM750 404q5 -2 12 -2t12 2
q7 4 9 10.5t3 12.5q1 5 0.5 10.5t-0.5 10.5v64q0 8 -0.5 16.5t-6.5 13.5q-4 5 -10.5 6t-12.5 0q-13 -3 -16 -16q-4 -14 -3 -29t1 -29v-33q0 -10 1 -21t11 -16zM798 612q12 -5 24 0q7 4 9 10t2 12q1 6 1 11.5v10.5v63q0 8 -0.5 16.5t-6.5 14.5q-4 5 -10.5 6t-11.5 -1
q-15 -2 -18 -16q-3 -13 -2 -28t1 -29v-34q0 -9 0.5 -20t11.5 -16zM1072 385v38q0 6 1 13.5t-1 13.5q-2 9 -5.5 18l-6.5 17q-5 13 -8.5 25.5t-8.5 24.5q-2 8 -5 15.5t-5 15.5h24l28 -87l27 87h23q-5 -19 -11.5 -37t-12.5 -37l-13 -39q-2 -6 -2 -12v-11v-45h-24zM1113 592v182
h26v-163h46v-19h-72zM955 385v181h26v-163h46v-18h-72zM444 -145q-11 0 -16 5t-7.5 12.5t-2.5 16.5v17q0 16 3.5 30.5t25.5 13.5q9 -1 14 -6t7 -12t2 -15v-15v-16t-2.5 -15t-8 -11.5t-15.5 -4.5zM1149 -260q-11 0 -16.5 5t-7.5 12.5t-2 16.5v17q0 16 3.5 30.5t25.5 13.5
q10 -1 14.5 -6t6 -12t1.5 -15v-15v-16t-2.5 -15t-7.5 -11.5t-15 -4.5zM1094 -144v93q10 0 21 0.5t19 -5.5q8 -8 8 -20v-22v-22t-9 -19q-8 -6 -19 -5.5t-20 0.5zM365 -260q-11 0 -16 5t-7 12.5t-2 16.5v17q0 16 3.5 30.5t24.5 13.5q10 -1 14.5 -6t6 -12t1.5 -15v-15v-16
t-2.5 -15t-7.5 -11.5t-15 -4.5zM479 -259l2 93h13l16 -76l16 76h13l2 -93h-10l-2 67l-15 -67h-8l-15 67l-2 -67h-10zM403 -259l2 93h12l17 -76l16 76h13l2 -93h-10l-1 67l-16 -67h-8l-15 67l-1 -67h-11zM602 -259v93q8 0 17.5 0.5t17.5 -3.5q6 -3 8.5 -9t2.5 -13t-3 -13
t-9 -8l14 -47h-13l-12 44h-10v-44h-13zM983 -259v93q8 0 17.5 0.5t17.5 -3.5q5 -3 8 -9t3 -13t-2.5 -13t-8.5 -8l12 -47h-12l-12 44h-10v-44h-13zM483 -144v93q8 0 17.5 0.5t16.5 -3.5q6 -3 9 -9t3 -13t-3 -13.5t-9 -8.5l13 -46h-12l-13 44h-10v-44h-12zM492 247v93
q10 0 23.5 0.5t19.5 -10.5q4 -8 3 -18.5t-8 -16.5q-5 -5 -12 -5h-14v-43h-12zM1034 -144v93h8l26 -62v62h11v-93h-8l-26 63v-63h-11zM614 -144v93h13v-40h25v40h12v-93h-12v44h-25v-44h-13zM1188 -259v93h8l26 -62v62h11v-93h-8l-27 63v-63h-10zM634 247l20 93h13l19 -93
h-12l-5 24h-18l-4 -24h-13zM744 -259l20 93h13l19 -93h-12l-4 23h-19l-5 -23h-12zM972 -144l20 93h12l20 -93h-12l-4 23h-20l-4 -23h-12zM1157 424l-7 142h24l-8 -142h-9zM831 -143q-13 -5 -23 1t-12 20q-1 5 -0.5 11t0.5 11v49h12v-41q0 -5 -0.5 -12t0.5 -14t4 -12t9 -5
t9 5t3.5 12t0 14t-0.5 12v41h12v-43v-28t-14 -21zM367 695q6 0 12.5 -0.5t13.5 1.5q10 3 12 10.5t2 16.5q1 11 -1 20t-13 11q-7 2 -13.5 1.5t-12.5 -0.5v-60zM306 -260q-12 0 -17.5 6.5t-7.5 16.5t-1.5 21t0.5 19q0 14 6.5 23.5t21.5 8.5q15 -2 18 -12.5t3 -21.5h-12
q0 5 0.5 9t-1.5 8q-2 6 -9 6.5t-11 -4.5t-3 -15.5t1 -17.5q0 -6 -1 -16.5t4 -16.5q3 -5 10 -4t9 7q2 5 1.5 9t-0.5 9h12q0 -13 -3.5 -24t-19.5 -11zM566 695q7 0 13.5 0.5t12.5 2.5q9 4 12 12.5t2 16.5q0 8 -2.5 15.5t-11.5 11.5q-6 2 -12.5 1.5t-13.5 -0.5v-60zM685 -260
q-12 0 -17.5 6.5t-7 16.5t-1 21t0.5 19q0 14 6.5 23.5t21.5 8.5q14 -2 17 -12.5t3 -21.5h-12q0 5 0.5 9t-1.5 8q-2 6 -9 6.5t-11 -4.5t-3 -15.5t1 -17.5q0 -6 -1 -16.5t4 -16.5q3 -5 10 -4t10 7q1 5 0.5 9t-0.5 9h12q0 -13 -3 -24t-20 -11zM931 246q-12 0 -17.5 8t-6.5 19
l12 4q0 -5 1.5 -11.5t6.5 -8.5q7 -2 11 1.5t4 8.5q0 10 -8.5 17t-14.5 13q-8 7 -11.5 19.5t7.5 20.5q11 9 25 2q6 -2 9 -8.5t4 -13.5l-11 -3q-1 5 -2 9.5t-6 7.5q-4 2 -8.5 0.5t-5.5 -6.5q-4 -8 2 -13.5l11 -10.5q6 -5 12 -11t8 -14q3 -11 -3 -20.5t-19 -9.5zM718 246
q-12 0 -18 8t-7 19l11 4q1 -5 2.5 -11.5t6.5 -8.5q6 -2 10.5 1.5t4.5 8.5q0 10 -8.5 17t-14.5 13q-8 7 -11.5 19.5t7.5 20.5q11 9 25 2q6 -2 9 -8.5t4 -13.5l-11 -3q-1 5 -2 9.5t-6 7.5q-4 2 -8.5 0.5t-5.5 -6.5q-3 -8 2 -13.5l10 -10.5q7 -5 13 -11t8 -14q3 -11 -3 -20.5
t-18 -9.5zM1064 -260q-12 0 -17.5 8t-6.5 19l12 3q0 -5 1.5 -11t6.5 -8q6 -3 10 0.5t4 9.5q0 10 -8 17t-14 13q-8 7 -12 19t7 20q12 8 26 3q6 -3 9 -9.5t3 -12.5l-11 -4q0 5 -1 10t-6 7q-4 2 -8.5 0.5t-6.5 -6.5q-3 -8 2.5 -13l10.5 -10q7 -5 12.5 -11.5t7.5 -14.5
q4 -11 -2.5 -20t-18.5 -9zM894 -259l-21 93h12l15 -69l14 69h12l-21 -93h-11zM839 247l-20 93h12l14 -68l15 68h11l-21 -93h-11zM555 -259v93h37v-10h-24v-30h19v-9h-19v-35h24v-9h-37zM679 -144v93h36v-10h-23v-30h19v-9h-19v-35h23v-9h-36zM936 -259v93h36v-10h-23v-30h19
v-9h-19v-35h23v-9h-36zM592 247v93h37v-9h-24v-31h19v-9h-19v-35h24v-9h-37zM750 247v93h36v-9h-23v-31h19v-9h-19v-35h24v-9h-37zM359 -248q7 -4 11 -1t6 8.5t2 12v11.5q0 7 0.5 21.5t-6.5 19.5q-10 5 -14.5 -1.5t-4.5 -14.5q-1 -4 -0.5 -7t0.5 -7q0 -3 -0.5 -9.5t-0.5 -13
t1.5 -12.5t5.5 -7zM1143 -248q8 -4 11.5 -1t5 8.5t1.5 12v11.5q0 7 1 21.5t-6 19.5q-10 5 -14.5 -1.5t-4.5 -14.5v-14q0 -3 -0.5 -9.5t-0.5 -13t1.5 -12.5t5.5 -7zM438 -133q8 -4 11.5 -1t5 8.5t1.5 12v11.5q0 7 1 21.5t-7 19.5t-13 -1.5t-5 -14.5v-14q0 -3 -0.5 -9.5
t-0.5 -13t1.5 -12.5t5.5 -7zM375 -144v93h36v-10h-22v-30h17v-9h-17v-44h-14zM752 -144v93h36v-10h-23v-30h18v-9h-18v-44h-13zM578 -144v83h-17v10h47v-10h-17v-83h-13zM1107 -135q8 0 14 1.5t7 11.5q1 5 0.5 11.5t-0.5 12.5t0.5 12t-0.5 12q0 10 -6.5 11.5t-14.5 1.5v-74z
M806 -259v93h13v-84h24v-9h-37zM905 -144v93h13v-84h24v-9h-37zM1003 247v84h-17v9h45v-9h-16v-84h-12zM860 -144v93h12v-84h24v-9h-36zM547 247v93h12v-84h24v-9h-36zM1029 656h30l-15 82zM340 0h33v37h-33v-37zM964 247v93h13v-93h-13zM882 247v93h13v-93h-13zM1097 -259
v93h13v-93h-13zM722 -259v93h12v-93h-12zM504 300h8t7 1q5 2 6 7t1 10q-1 11 -7 12t-15 1v-31zM1150 385v25h24v-25h-24zM495 -91q9 0 15 2.5t6 12.5q0 11 -5.5 13t-15.5 2v-30zM615 -206q9 0 15 2.5t6 12.5q0 11 -6 13t-15 2v-30zM996 -206q9 0 14.5 2.5t5.5 12.5
q0 11 -5.5 13t-14.5 2v-30zM990 -111h16l-8 42zM652 280h16l-8 42zM762 -226h16l-7 42zM747 89h32v29h-32v53h40v30h-74v-201h34v89zM837 201h-34v-201h34v201zM919 104l-33 97h-27v-201h32v99l34 -99h26v201h-32v-97zM1005 201h-34v-201h34v201zM1086 171h32v30h-98v-30h32
v-171h34v171zM1165 201h-34v-201h34v201zM1261 196q-10 6 -22 6.5t-23 -2.5q-14 -5 -20 -16.5t-9 -25.5q-2 -14 -1.5 -28.5t0.5 -28.5v-34q0 -17 2.5 -35t19.5 -27q10 -6 22 -6.5t23 2.5q14 5 20 16.5t9 25.5q2 14 1.5 28.5t-0.5 28.5v36q0 16 -3 33.5t-19 26.5zM1220 120
v22t3 21t14 9q8 -2 11 -12q2 -8 1.5 -15t-0.5 -15v-49v-22t-3 -21q-4 -11 -14 -9q-8 2 -11 12q-2 8 -1.5 15t0.5 15v49zM1363 104l-33 97h-27v-201h32v99l34 -99h26v201h-32v-97z" />
    <glyph glyph-name="question" unicode="?" horiz-adv-x="510" 
d="M131 512q-12 -8 -21 -0.5t-13 22t-2 31t11 27.5q18 19 48.5 34.5t67.5 24.5t77 10.5t76.5 -6.5t66 -26t46.5 -49q25 -46 18.5 -79t-33 -59t-69 -47.5l-89.5 -43.5t-78.5 -42.5t-49.5 -39.5t-25 -36t-5 -32q1 -15 -5 -19.5t-14 0t-16 17t-11 31.5q-5 34 5.5 66.5t32.5 61
t55 51.5t73 40l83.5 33t55 25t26.5 25t-2 33q-7 16 -35 24t-70.5 3t-95 -24t-108.5 -56zM35 105q24 19 46 29t39.5 12t28.5 -3t13 -16q21 1 38.5 -8.5t24.5 -27t0.5 -41.5t-32.5 -52q-28 -30 -57 -39t-55 -4t-45.5 21.5t-28 38.5t-3 46t30.5 44zM128 82q-11 -11 -19 -6.5
t-10 14.5q-7 -3 -14.5 -8t-15.5 -16q-15 -19 -12 -34t18 -19.5t38 5.5t49 42q13 16 14 26t-5.5 13t-18 -1t-24.5 -16z" />
    <glyph glyph-name="exclam" unicode="!" horiz-adv-x="399" 
d="M197 225q-11 -12 -23 -17t-19.5 -3t-9 11t8.5 26q28 47 53.5 101t46.5 105.5t36.5 96t24.5 73.5q6 21 21.5 21t30 -12.5t24 -34.5t4.5 -44q-5 -21 -23.5 -60.5t-46.5 -86t-61.5 -93.5t-66.5 -83zM34 118q22 17 38.5 25.5t27.5 9.5t19 -4t14 -15q24 8 46.5 2.5t34.5 -21
t8 -40t-33 -53.5q-27 -27 -56 -35.5t-54.5 -3.5t-44.5 19.5t-27 34.5t-2.5 41.5t29.5 39.5zM134 105q-7 -2 -14.5 -1t-13.5 4q-6 -1 -16 -6t-23 -19q-15 -17 -12 -31t17.5 -17.5t37.5 5.5t48 37q10 12 11.5 19t-3 10.5t-13.5 3t-19 -4.5z" />
    <glyph glyph-name="one" unicode="1" horiz-adv-x="1479" 
d="M165 201l-22 -125l-23 125h-33l-3 -201h31l1 82l16 -82h22l17 83v-83h31l-3 201h-34zM810 590q-20 0 -32.5 10.5t-15.5 29.5q-2 9 -2 18v18q0 19 -1 39.5t4 38.5q5 16 16.5 23.5t26.5 8.5q16 0 29.5 -5.5t19.5 -21.5q7 -17 6 -39t-1 -41q0 -10 -0.5 -20.5t-2.5 -20.5
q-8 -38 -47 -38zM762 382q-20 0 -32.5 10.5t-15.5 29.5q-2 9 -2 18.5v18.5q0 18 -0.5 39t4.5 38q9 32 43 32q16 0 29 -5.5t19 -21.5q7 -17 5.5 -39t-1.5 -40q0 -11 0.5 -21t-1.5 -21q-8 -38 -48 -38zM286 104l-33 97h-27v-201h32v99l34 -99h26v201h-32v-97zM538 76h21v-14
t-1.5 -17t-6 -13.5t-13.5 -2.5q-10 4 -10 19.5v24.5v47v22t3 21t14 9q8 -2 11 -12q2 -8 1.5 -15t-0.5 -15h33q0 17 -2 36.5t-19 29.5q-10 6 -22 6.5t-23 -2.5q-14 -5 -20 -16.5t-9 -25.5q-2 -14 -1.5 -28.5t0.5 -28.5t-0.5 -28t1.5 -28q2 -11 6 -22.5t15 -18.5t25 -7t24 10
v-7h27v104h-54v-28zM541 592v182q17 0 36.5 0.5t33.5 -7.5q10 -6 15.5 -18t5.5 -25.5t-6 -25t-18 -15.5l26 -91h-25l-23 86h-20v-86h-25zM455 104q-4 5 -8 9.5t-8 9.5l-10.5 10t-7.5 13q-3 7 -1 17t13 9q11 -2 11.5 -15.5t1.5 -21.5l31 1q0 17 -4.5 36t-21.5 27
q-21 10 -41 -1.5t-22 -34.5q-2 -12 0 -24t9 -22q3 -6 7.5 -10t8.5 -9l22 -23t11 -29q0 -5 -1.5 -10t-6.5 -7t-8 1t-6 7q-4 8 -4.5 17t-1.5 18l-31 -2q0 -12 1.5 -24.5t6.5 -23.5q7 -14 20 -20t29 -3q15 2 24 14t11 26q2 19 -4.5 35.5t-19.5 29.5zM341 592v182h39q14 0 26 -3
t19 -17q8 -15 7 -36t-15 -32q-11 -8 -24 -8.5t-26 -0.5v-85h-26zM885 592v182h17l51 -121v121h22v-182h-16l-53 124v-124h-21zM837 385v181h17l52 -120v120h21v-181h-17l-52 123v-123h-21zM993 592l39 182h24l39 -182h-24l-8 46h-38l-8 -46h-24zM411 386q-17 -7 -36 -2
t-26 25q-5 11 -5.5 21.5t-0.5 22.5v113h25v-120q0 -11 1.5 -24t14.5 -18q10 -4 16 -1t9.5 9t5 14t1.5 16q1 14 0.5 29t-0.5 29v66h24v-83q0 -12 1 -26.5t-1 -28.5t-8.5 -25.5t-20.5 -16.5zM510 382q-24 0 -35.5 15.5t-13.5 38.5l23 6q1 -8 2.5 -17.5t7.5 -15.5t14.5 -6.5
t15.5 4.5q7 6 6.5 17t-5.5 18q-4 6 -9.5 11l-10.5 10q-8 8 -19 16.5t-17 18.5q-5 9 -6.5 19t1 20t8.5 18t17 11t23 2t21 -7q9 -7 12.5 -18t4.5 -22l-21 -6q-1 10 -4 20.5t-15 12.5q-8 2 -15.5 -2t-9.5 -13q-3 -15 8 -25.5t22 -19.5q11 -10 22 -21.5t15 -27.5q5 -22 -7 -39.5
t-35 -17.5zM700 590q-23 0 -35 15.5t-13 37.5l22 6q1 -8 3 -17.5t8 -14.5q5 -6 14 -7t15 5q7 6 6.5 16.5t-5.5 18.5q-4 6 -9 11l-10 10q-9 8 -19.5 16t-17.5 18q-11 18 -5.5 40t26.5 28q10 3 22.5 2t20.5 -7q9 -6 13 -17.5t4 -22.5l-21 -6q-1 11 -4 21.5t-15 12.5
q-8 2 -15.5 -2.5t-9.5 -12.5q-2 -16 8.5 -26.5t21.5 -19.5l22 -21t15 -27q5 -23 -7 -40t-35 -17zM606 -25h30l55 251h-31zM450 592v182h70v-19h-45v-60h36v-18h-36v-66h46v-19h-71zM573 385v181h70v-19h-45v-60h37v-17h-37v-67h46v-18h-71zM750 404q5 -2 12 -2t12 2
q7 4 9 10.5t3 12.5q1 5 0.5 10.5t-0.5 10.5v64q0 8 -0.5 16.5t-6.5 13.5q-4 5 -10.5 6t-12.5 0q-13 -3 -16 -16q-4 -14 -3 -29t1 -29v-33q0 -10 1 -21t11 -16zM798 612q12 -5 24 0q7 4 9 10t2 12q1 6 1 11.5v10.5v63q0 8 -0.5 16.5t-6.5 14.5q-4 5 -10.5 6t-11.5 -1
q-15 -2 -18 -16q-3 -13 -2 -28t1 -29v-34q0 -9 0.5 -20t11.5 -16zM1072 385v38q0 6 1 13.5t-1 13.5q-2 9 -5.5 18l-6.5 17q-5 13 -8.5 25.5t-8.5 24.5q-2 8 -5 15.5t-5 15.5h24l28 -87l27 87h23q-5 -19 -11.5 -37t-12.5 -37l-13 -39q-2 -6 -2 -12v-11v-45h-24zM1113 592v182
h26v-163h46v-19h-72zM955 385v181h26v-163h46v-18h-72zM444 -145q-11 0 -16 5t-7.5 12.5t-2.5 16.5v17q0 16 3.5 30.5t25.5 13.5q9 -1 14 -6t7 -12t2 -15v-15v-16t-2.5 -15t-8 -11.5t-15.5 -4.5zM1149 -260q-11 0 -16.5 5t-7.5 12.5t-2 16.5v17q0 16 3.5 30.5t25.5 13.5
q10 -1 14.5 -6t6 -12t1.5 -15v-15v-16t-2.5 -15t-7.5 -11.5t-15 -4.5zM1094 -144v93q10 0 21 0.5t19 -5.5q8 -8 8 -20v-22v-22t-9 -19q-8 -6 -19 -5.5t-20 0.5zM365 -260q-11 0 -16 5t-7 12.5t-2 16.5v17q0 16 3.5 30.5t24.5 13.5q10 -1 14.5 -6t6 -12t1.5 -15v-15v-16
t-2.5 -15t-7.5 -11.5t-15 -4.5zM479 -259l2 93h13l16 -76l16 76h13l2 -93h-10l-2 67l-15 -67h-8l-15 67l-2 -67h-10zM403 -259l2 93h12l17 -76l16 76h13l2 -93h-10l-1 67l-16 -67h-8l-15 67l-1 -67h-11zM602 -259v93q8 0 17.5 0.5t17.5 -3.5q6 -3 8.5 -9t2.5 -13t-3 -13
t-9 -8l14 -47h-13l-12 44h-10v-44h-13zM983 -259v93q8 0 17.5 0.5t17.5 -3.5q5 -3 8 -9t3 -13t-2.5 -13t-8.5 -8l12 -47h-12l-12 44h-10v-44h-13zM483 -144v93q8 0 17.5 0.5t16.5 -3.5q6 -3 9 -9t3 -13t-3 -13.5t-9 -8.5l13 -46h-12l-13 44h-10v-44h-12zM492 247v93
q10 0 23.5 0.5t19.5 -10.5q4 -8 3 -18.5t-8 -16.5q-5 -5 -12 -5h-14v-43h-12zM1034 -144v93h8l26 -62v62h11v-93h-8l-26 63v-63h-11zM614 -144v93h13v-40h25v40h12v-93h-12v44h-25v-44h-13zM1188 -259v93h8l26 -62v62h11v-93h-8l-27 63v-63h-10zM634 247l20 93h13l19 -93
h-12l-5 24h-18l-4 -24h-13zM744 -259l20 93h13l19 -93h-12l-4 23h-19l-5 -23h-12zM972 -144l20 93h12l20 -93h-12l-4 23h-20l-4 -23h-12zM1157 424l-7 142h24l-8 -142h-9zM831 -143q-13 -5 -23 1t-12 20q-1 5 -0.5 11t0.5 11v49h12v-41q0 -5 -0.5 -12t0.5 -14t4 -12t9 -5
t9 5t3.5 12t0 14t-0.5 12v41h12v-43v-28t-14 -21zM367 695q6 0 12.5 -0.5t13.5 1.5q10 3 12 10.5t2 16.5q1 11 -1 20t-13 11q-7 2 -13.5 1.5t-12.5 -0.5v-60zM306 -260q-12 0 -17.5 6.5t-7.5 16.5t-1.5 21t0.5 19q0 14 6.5 23.5t21.5 8.5q15 -2 18 -12.5t3 -21.5h-12
q0 5 0.5 9t-1.5 8q-2 6 -9 6.5t-11 -4.5t-3 -15.5t1 -17.5q0 -6 -1 -16.5t4 -16.5q3 -5 10 -4t9 7q2 5 1.5 9t-0.5 9h12q0 -13 -3.5 -24t-19.5 -11zM566 695q7 0 13.5 0.5t12.5 2.5q9 4 12 12.5t2 16.5q0 8 -2.5 15.5t-11.5 11.5q-6 2 -12.5 1.5t-13.5 -0.5v-60zM685 -260
q-12 0 -17.5 6.5t-7 16.5t-1 21t0.5 19q0 14 6.5 23.5t21.5 8.5q14 -2 17 -12.5t3 -21.5h-12q0 5 0.5 9t-1.5 8q-2 6 -9 6.5t-11 -4.5t-3 -15.5t1 -17.5q0 -6 -1 -16.5t4 -16.5q3 -5 10 -4t10 7q1 5 0.5 9t-0.5 9h12q0 -13 -3 -24t-20 -11zM931 246q-12 0 -17.5 8t-6.5 19
l12 4q0 -5 1.5 -11.5t6.5 -8.5q7 -2 11 1.5t4 8.5q0 10 -8.5 17t-14.5 13q-8 7 -11.5 19.5t7.5 20.5q11 9 25 2q6 -2 9 -8.5t4 -13.5l-11 -3q-1 5 -2 9.5t-6 7.5q-4 2 -8.5 0.5t-5.5 -6.5q-4 -8 2 -13.5l11 -10.5q6 -5 12 -11t8 -14q3 -11 -3 -20.5t-19 -9.5zM718 246
q-12 0 -18 8t-7 19l11 4q1 -5 2.5 -11.5t6.5 -8.5q6 -2 10.5 1.5t4.5 8.5q0 10 -8.5 17t-14.5 13q-8 7 -11.5 19.5t7.5 20.5q11 9 25 2q6 -2 9 -8.5t4 -13.5l-11 -3q-1 5 -2 9.5t-6 7.5q-4 2 -8.5 0.5t-5.5 -6.5q-3 -8 2 -13.5l10 -10.5q7 -5 13 -11t8 -14q3 -11 -3 -20.5
t-18 -9.5zM1064 -260q-12 0 -17.5 8t-6.5 19l12 3q0 -5 1.5 -11t6.5 -8q6 -3 10 0.5t4 9.5q0 10 -8 17t-14 13q-8 7 -12 19t7 20q12 8 26 3q6 -3 9 -9.5t3 -12.5l-11 -4q0 5 -1 10t-6 7q-4 2 -8.5 0.5t-6.5 -6.5q-3 -8 2.5 -13l10.5 -10q7 -5 12.5 -11.5t7.5 -14.5
q4 -11 -2.5 -20t-18.5 -9zM894 -259l-21 93h12l15 -69l14 69h12l-21 -93h-11zM839 247l-20 93h12l14 -68l15 68h11l-21 -93h-11zM555 -259v93h37v-10h-24v-30h19v-9h-19v-35h24v-9h-37zM679 -144v93h36v-10h-23v-30h19v-9h-19v-35h23v-9h-36zM936 -259v93h36v-10h-23v-30h19
v-9h-19v-35h23v-9h-36zM592 247v93h37v-9h-24v-31h19v-9h-19v-35h24v-9h-37zM750 247v93h36v-9h-23v-31h19v-9h-19v-35h24v-9h-37zM359 -248q7 -4 11 -1t6 8.5t2 12v11.5q0 7 0.5 21.5t-6.5 19.5q-10 5 -14.5 -1.5t-4.5 -14.5q-1 -4 -0.5 -7t0.5 -7q0 -3 -0.5 -9.5t-0.5 -13
t1.5 -12.5t5.5 -7zM1143 -248q8 -4 11.5 -1t5 8.5t1.5 12v11.5q0 7 1 21.5t-6 19.5q-10 5 -14.5 -1.5t-4.5 -14.5v-14q0 -3 -0.5 -9.5t-0.5 -13t1.5 -12.5t5.5 -7zM438 -133q8 -4 11.5 -1t5 8.5t1.5 12v11.5q0 7 1 21.5t-7 19.5t-13 -1.5t-5 -14.5v-14q0 -3 -0.5 -9.5
t-0.5 -13t1.5 -12.5t5.5 -7zM375 -144v93h36v-10h-22v-30h17v-9h-17v-44h-14zM752 -144v93h36v-10h-23v-30h18v-9h-18v-44h-13zM578 -144v83h-17v10h47v-10h-17v-83h-13zM1107 -135q8 0 14 1.5t7 11.5q1 5 0.5 11.5t-0.5 12.5t0.5 12t-0.5 12q0 10 -6.5 11.5t-14.5 1.5v-74z
M806 -259v93h13v-84h24v-9h-37zM905 -144v93h13v-84h24v-9h-37zM1003 247v84h-17v9h45v-9h-16v-84h-12zM860 -144v93h12v-84h24v-9h-36zM547 247v93h12v-84h24v-9h-36zM1029 656h30l-15 82zM340 0h33v37h-33v-37zM964 247v93h13v-93h-13zM882 247v93h13v-93h-13zM1097 -259
v93h13v-93h-13zM722 -259v93h12v-93h-12zM504 300h8t7 1q5 2 6 7t1 10q-1 11 -7 12t-15 1v-31zM1150 385v25h24v-25h-24zM495 -91q9 0 15 2.5t6 12.5q0 11 -5.5 13t-15.5 2v-30zM615 -206q9 0 15 2.5t6 12.5q0 11 -6 13t-15 2v-30zM996 -206q9 0 14.5 2.5t5.5 12.5
q0 11 -5.5 13t-14.5 2v-30zM990 -111h16l-8 42zM652 280h16l-8 42zM762 -226h16l-7 42zM747 89h32v29h-32v53h40v30h-74v-201h34v89zM837 201h-34v-201h34v201zM919 104l-33 97h-27v-201h32v99l34 -99h26v201h-32v-97zM1005 201h-34v-201h34v201zM1086 171h32v30h-98v-30h32
v-171h34v171zM1165 201h-34v-201h34v201zM1261 196q-10 6 -22 6.5t-23 -2.5q-14 -5 -20 -16.5t-9 -25.5q-2 -14 -1.5 -28.5t0.5 -28.5v-34q0 -17 2.5 -35t19.5 -27q10 -6 22 -6.5t23 2.5q14 5 20 16.5t9 25.5q2 14 1.5 28.5t-0.5 28.5v36q0 16 -3 33.5t-19 26.5zM1220 120
v22t3 21t14 9q8 -2 11 -12q2 -8 1.5 -15t-0.5 -15v-49v-22t-3 -21q-4 -11 -14 -9q-8 2 -11 12q-2 8 -1.5 15t0.5 15v49zM1363 104l-33 97h-27v-201h32v99l34 -99h26v201h-32v-97z" />
    <glyph glyph-name="a_alt" horiz-adv-x="416" 
d="M271 343q19 21 36.5 29.5t29 6.5t14.5 -13t-7 -30q-11 -21 -22.5 -39l-23.5 -38t-24.5 -45t-24.5 -59q-8 -22 2 -24t33.5 12t57 42.5t74.5 68.5q12 12 24 13t19 -5t6.5 -17.5t-14.5 -25.5q-46 -46 -87 -83t-75.5 -61.5t-62 -36.5t-46.5 -8q-17 3 -25 15.5t-10 30.5t2 39
t12 42l12 30q-40 -42 -76 -73t-64 -45q-22 -11 -43 -9.5t-35 14.5t-17.5 37.5t8.5 60.5q8 24 32.5 55.5t58.5 59t73.5 47.5t78.5 22q31 2 48.5 -5.5t25.5 -19.5q2 4 5 6.5t5 5.5zM66 168q28 19 60 47.5l85 72.5q-16 7 -58 3q-23 -3 -43.5 -14t-37.5 -25t-29 -30.5t-17 -30.5
q-3 -10 -2.5 -18.5t5 -12.5t14 -2.5t23.5 10.5z" />
    <glyph glyph-name="c_alt" horiz-adv-x="324" 
d="M183 363q42 2 64 -11t27 -33q3 -11 0.5 -20t-8.5 -14.5t-14 -6t-16 5.5t-23 8.5t-42 -1.5q-23 -3 -43 -14t-36.5 -25.5t-29 -31t-18.5 -29.5q-16 -33 -11 -53.5t26 -27t55 2.5t75 34q28 18 62.5 45.5t72.5 61.5q7 6 17.5 5.5t18 -5.5t8.5 -14.5t-9 -20.5q-47 -48 -95 -87
t-84 -62q-61 -38 -111 -43.5t-82 12.5t-42.5 55t9.5 85q13 31 36 63t53 58t66 43.5t74 19.5z" />
    <glyph glyph-name="f_alt" horiz-adv-x="283" 
d="M307 706q19 25 36 31t28.5 -0.5t14 -21t-7.5 -30.5l-153 -222.5t-150 -234.5v-2q23 -17 50.5 -22.5t55.5 -1.5t54.5 17.5t47.5 34.5q15 15 27 16.5t18 -6t4 -20.5t-14 -25q-18 -17 -41.5 -34t-49.5 -30t-53.5 -19t-53.5 -1q-13 2 -16.5 -6.5t-3.5 -25.5q0 -13 -2.5 -33
t-7.5 -44.5t-13 -51.5t-20 -53q-42 -95 -88 -141.5t-81.5 -51t-52 29.5t-0.5 100q21 83 60.5 173t90.5 182q-4 11 -4 25q0 28 13.5 47t33.5 19q2 0 4 -0.5t4 -0.5l71 114.5l71 108l67.5 97zM-12 -64q43 74 52 128t-7 91q-33 -61 -61 -120t-49 -118q-10 -29 -9 -43
t10.5 -12.5t26 20t37.5 54.5z" />
    <glyph glyph-name="p_alt" horiz-adv-x="492" 
d="M35 219q-12 -12 -23.5 -12.5t-18 6t-6 18t12.5 23.5l53.5 53t58.5 48q41 28 64 33.5t38 -6.5q8 -6 10 -18.5t-7 -35.5q-12 -30 -17.5 -45.5t-4 -18.5t9.5 4t23 22q45 45 81.5 64.5t60.5 17t32.5 -26t-2.5 -65.5q-14 -46 -46.5 -99t-69.5 -96q-35 -41 -67 -58t-57.5 -16.5
t-42.5 15.5t-22 39q-30 -50 -63 -115l-75 -155q-14 -30 -31.5 -38.5t-32 -0.5t-21 28t1.5 47q9 29 28 66t43 76.5l50 79.5l49.5 76.5l41 66t25.5 48.5q5 12 8.5 23t4 18t-2.5 8.5t-11 -5.5l-29 -25.5t-46 -43.5zM187 190q-14 -15 -27 -31.5l-26 -34.5q-1 -18 8 -31.5
t27.5 -11.5t46 23.5t62.5 74.5q31 46 34.5 68.5t-12.5 23t-46 -20t-67 -60.5z" />
    <glyph glyph-name="acute" unicode="&#xb4;" horiz-adv-x="193" 
d="M20 467q11 14 30 30.5t39.5 30t40 22.5t31.5 9q10 0 18 -9t10.5 -21t-2 -25t-17.5 -21q-15 -9 -36 -19t-42.5 -18.5t-40 -14.5t-27.5 -8q-13 -2 -18 1t-4 10t6 15.5t12 17.5z" />
    <glyph glyph-name="ampersand" unicode="&#x26;" horiz-adv-x="541" 
d="M434 338q17 18 32.5 25.5t25 6t12.5 -11.5t-6 -26q-4 -8 -9 -16l-12 -19h12q10 0 13.5 -12t-2.5 -26.5t-23 -26.5t-49 -12q-28 -48 -59.5 -115.5t-58.5 -160.5q-5 -15 -13.5 -14.5t-18.5 10t-18.5 25.5t-11.5 33q-35 -15 -76.5 -19.5t-78 6t-62 36.5t-28.5 72
q-3 48 15 86t52 63.5t82.5 37.5t107.5 8q-35 26 -46.5 61.5t-5.5 67.5q5 30 31 65.5t63.5 64.5t83 44t89.5 4q32 -9 48 -27t15 -41.5t-18 -50t-51 -51.5q-10 -8 -24.5 -8.5t-26.5 4.5t-16 15t7 23q13 15 25 32l22 32q-42 -1 -75 -18.5t-56 -41.5t-34 -50t-9 -44
q5 -35 34.5 -50.5t88.5 -19.5q9 14 16.5 24t12.5 15zM284 102l34 59.5t37 61.5q-63 0 -118 -8.5t-95 -24.5t-61 -38t-16 -50q3 -15 25 -26.5t54 -14t69.5 6t70.5 34.5z" />
    <glyph glyph-name="comma" unicode="," horiz-adv-x="290" 
d="M10 21q21 19 27.5 37t8 35.5t1.5 34t7 33.5q11 29 34 39t44 4t33 -26t2 -50q-5 -15 -17 -33.5t-27.5 -37.5t-32 -35.5t-30.5 -27.5q-19 -15 -35 -18t-24.5 2.5t-7.5 17t17 25.5z" />
    <glyph glyph-name="period" unicode="." horiz-adv-x="321" 
d="M159 91q-18 -29 -47.5 -38t-52.5 6q-23 16 -26.5 46.5t15.5 58.5q19 29 48 38t52 -7q23 -15 26.5 -45.5t-15.5 -58.5z" />
    <glyph glyph-name="cedilla" unicode="&#xb8;" horiz-adv-x="216" 
d="M52 -50l21 22q9 11 18 24t17 30q10 7 23.5 10t25.5 4t20.5 -0.5t10.5 -4.5q-10 -23 -22.5 -41t-26.5 -31q25 -2 44.5 -12.5t26.5 -27.5t-2 -40t-41 -49q-35 -29 -71 -40t-68 -4q-12 3 -18.5 12t-7 19t5.5 18t19 8q20 -1 46 10.5t54 37.5q16 16 17.5 26t-6.5 13.5
t-23.5 -0.5t-31.5 -16q-12 -9 -21 -7t-13.5 8.5t-4 15.5t7.5 15z" />
    <glyph glyph-name="breve" unicode="&#x2d8;" horiz-adv-x="291" 
d="M219 534q7 13 21 17t26 1t19 -12.5t0 -22.5q-15 -29 -51 -49.5t-78 -24.5q-38 -3 -68 4t-50 20.5t-29 32.5t-5 40q4 22 20 32t32.5 11t27 -5.5t4.5 -17.5q-5 -8 -4 -18t9.5 -18t24.5 -13.5t42 -5.5q20 0 35.5 8.5t23.5 20.5z" />
    <glyph glyph-name="tilde" unicode="&#x2dc;" horiz-adv-x="328" 
d="M27 523q32 34 63.5 48t56.5 12.5t39 -17.5t12 -43t5.5 -35t19.5 -2t25.5 25t24.5 48q5 13 19 14.5t24 -7.5t9 -28t-26 -47q-35 -38 -67 -54t-56 -14.5t-37.5 18.5t-12.5 45t-9 31.5t-25.5 -5t-33 -23.5t-31.5 -25t-20 -6t-5 14.5t7.5 24.5t17.5 26z" />
    <glyph glyph-name="ogonek" unicode="&#x2db;" horiz-adv-x="247" 
d="M234 12l-40.5 -26l-45.5 -31.5t-43.5 -33t-33 -30t-14.5 -23t12 -10.5q35 -4 58.5 3t35.5 18q8 7 17 4.5t15.5 -10t9 -18t-3.5 -19.5q-15 -23 -45 -35.5t-71 -10.5q-49 1 -70 26.5t-8 62.5t63 80.5t143 81.5q4 1 12 -1t13.5 -5.5t6 -9.5t-10.5 -13z" />
    <glyph glyph-name="ring" unicode="&#x2da;" horiz-adv-x="235" 
d="M117 610q24 0 45 -7t37 -19t25 -28t9 -34t-9 -34t-25 -27.5t-37 -18.5t-45 -7t-45 7t-36.5 18.5t-24.5 27.5t-9 34t9 34t24.5 28t36.5 19t45 7zM123 484q23 0 39 10t16 25q0 14 -16 24.5t-39 10.5t-39 -10.5t-16 -24.5q0 -15 16 -25t39 -10z" />
    <glyph glyph-name="dieresis" unicode="&#xa8;" horiz-adv-x="250" 
d="M99 486q-7 -11 -17 -21t-20.5 -16t-20.5 -7t-19 5q-10 7 -14.5 18t-5 23t3.5 24.5t11 23.5q14 23 35 30t38 -5t20 -32.5t-11 -42.5zM229 474q-18 -21 -42 -28t-42 6q-10 7 -13.5 19t-2.5 25.5t6.5 27t14.5 24.5q18 21 41.5 25t40.5 -11q16 -16 15 -41.5t-18 -46.5z" />
    <glyph glyph-name="grave" unicode="`" horiz-adv-x="145" 
d="M100 418q-16 8 -32 23.5t-30 33t-23.5 34.5t-11.5 29q-3 13 7 25t24.5 18t28.5 3t20 -21q11 -31 24.5 -65t27.5 -54q8 -11 7 -18.5t-7 -11t-15.5 -2.5t-19.5 6z" />
    <glyph glyph-name="macron" unicode="&#xaf;" horiz-adv-x="273" 
d="M35 505q15 7 45.5 12.5t63.5 8.5t63 3.5t45 -3.5q13 -3 17 -14.5t0 -24.5t-14.5 -23t-26.5 -10h-72.5t-48.5 -0.5t-40 -2t-46 -4.5q-13 -2 -16.5 5t0 17t12 20.5t18.5 15.5z" />
    <glyph glyph-name="v" unicode="v" horiz-adv-x="474" 
d="M292 342q7 6 19.5 8.5t25 0.5t23 -8t14.5 -16q5 -15 -4.5 -39.5t-24.5 -47.5q8 -8 23 -13t33 -4.5t37 7.5t36 24q8 8 19 8.5t18.5 -5t8.5 -16t-11 -22.5q-22 -22 -49.5 -35t-56 -17t-55 1t-46.5 19q-31 -33 -64.5 -59t-53.5 -39q-37 -23 -63.5 -20.5t-40.5 28.5
q-8 16 -8.5 35.5t3.5 40t11 40t15 34.5q6 13 7.5 20t-0.5 9.5t-6.5 1.5t-9.5 -5q-11 -8 -22 -19l-34 -34q-9 -9 -19.5 -8.5t-17.5 7t-7.5 16.5t8.5 19q35 35 57.5 54t48.5 36q16 10 32.5 11t28 -5.5t15.5 -19t-3 -28.5q-5 -10 -10.5 -25.5l-11 -32t-9 -31t-3.5 -23.5
q0 -19 10.5 -22t27 5.5t37 27t40.5 42.5q-2 9 -0.5 23t5.5 28.5t11 27.5t16 20z" />
    <glyph glyph-name="w" unicode="w" horiz-adv-x="594" 
d="M594 254q8 8 19 8.5t18.5 -5t8.5 -16t-11 -22.5q-22 -22 -50 -35t-57.5 -17t-57 1.5t-48.5 22.5q-32 -32 -62 -56t-50 -37q-32 -20 -57 -18t-33 24q-6 14 -2 34t10 36q13 33 3 29t-43 -37q-10 -11 -23.5 -24l-27.5 -25.5l-27.5 -23.5t-23.5 -17q-25 -14 -42.5 -11
t-25.5 16.5t-6 36t15 47.5q25 47 28.5 59.5t-14.5 -5.5q-11 -11 -22 -11t-17.5 6.5t-6.5 17.5t11 22q35 35 61.5 59t52.5 43q12 9 25 10.5t22.5 -3t13 -14.5t-2.5 -24q-7 -14 -17.5 -32.5l-22.5 -38l-23.5 -37t-18.5 -29.5q-15 -23 -8 -29t33 14q15 11 33 28l36 35.5
l36 36.5l33 32q15 13 29.5 15t24.5 -3t13.5 -16.5t-3.5 -24.5q-2 -3 -6 -10.5l-8.5 -16.5t-8.5 -19t-5 -19q-3 -18 2 -28t17 -9t32 14t47 41q-2 9 -3 23t0.5 28.5t6 27.5t14.5 20q7 6 19.5 8.5t25 0.5t22.5 -8t14 -16q6 -14 -0.5 -31.5t-20.5 -40.5q8 -9 23 -14t33 -5
t37 7.5t36 24.5z" />
    <glyph glyph-name="x" unicode="x" horiz-adv-x="363" 
d="M-46 58q-12 -11 -22.5 -9t-15 11t-1 22.5t18.5 25.5q26 21 75 54l106 68q0 4 0.5 7t1.5 7q2 13 4 24t2 18t-3 8t-11 -6q-8 -8 -28 -25.5t-46 -43.5q-12 -12 -23.5 -12.5t-18 6t-6 18t12.5 23.5l53.5 53t57.5 48q21 14 39 17t31 -1.5t19 -15t2 -22.5q-5 -16 -8.5 -30
t-5.5 -28l64 37.5l56 31.5t43 23t26 11q16 5 25 -2t11.5 -18t-2 -23t-16.5 -17q-34 -16 -93.5 -47.5l-124.5 -68.5q-3 -46 5 -62q5 -11 19.5 -7t28.5 14q31 20 65 46.5t68 60.5q13 13 25.5 14.5t19 -5.5t5 -19t-14.5 -25q-40 -40 -91 -83t-111 -73q-12 -6 -26.5 -3.5
t-27.5 11.5t-22.5 23.5t-10.5 34.5q-1 8 -1 16v17q-51 -30 -92.5 -57.5t-61.5 -46.5z" />
    <glyph glyph-name="y" unicode="y" horiz-adv-x="486" 
d="M521 219l-43.5 -43.5l-70 -70.5l-83.5 -83.5l-84.5 -82.5l-72.5 -68.5t-48 -39.5q-28 -18 -49.5 -19.5t-34 7.5t-15 25.5t7.5 33.5q7 11 23.5 34.5l38 53.5l46 62.5l46 62.5l38.5 53.5l25 34.5q8 12 10 18t-1 6.5t-9.5 -4t-14.5 -12.5q-44 -41 -75.5 -56t-51 -12.5
t-27.5 17.5t-4 35q5 20 10.5 31t14.5 31q12 28 17.5 43t0 15t-24 -17.5l-55.5 -54.5q-15 -15 -27.5 -16.5t-19 5t-4.5 19.5t16 27l22 22.5t29 28t34 27.5t38 22q19 8 34 4t23.5 -17.5t7.5 -35t-13 -48.5q-22 -48 -15.5 -58.5t44.5 22.5q19 17 32.5 30.5t24.5 27t21 28
t22 34.5q12 19 27 20.5t26.5 -8t15.5 -28.5t-5 -40q-21 -48 -53.5 -100t-65.5 -98.5l-61 -83t-40 -53.5q-14 -20 -2.5 -13.5t39.5 31l67.5 61l82 77l82.5 80l69 68.5q12 12 23 12t17 -7t5.5 -18.5t-10.5 -21.5z" />
    <glyph glyph-name="z" unicode="z" horiz-adv-x="406" 
d="M406 254q13 13 25 14.5t18.5 -5.5t5.5 -19t-14 -25q-40 -40 -91.5 -83.5t-111.5 -72.5q-23 -11 -42 -10.5t-35 7.5t-31 18t-31.5 19.5t-35.5 12t-43 -2.5q-15 -13 -34.5 -24.5t-38 -16.5t-33 -2t-19.5 20t1.5 33t23.5 29t44.5 21t64.5 8l77 50l83 51q-47 -6 -65 16
q-3 3 -12 -3t-22 -17t-27.5 -25.5l-27.5 -27.5q-12 -12 -23.5 -12.5t-18 6t-6 18t12.5 23.5l53.5 53t58.5 48q20 14 38 17t31 -1.5t19 -15t3 -22.5t14.5 -8.5t45 13.5l59 22t55.5 18q16 5 25.5 -2t12 -18t-2 -23t-16.5 -17q-22 -10 -55 -27l-72 -38l-81 -44.5l-81 -47.5
q27 -5 51 -15.5t42 -23.5q4 -3 13.5 -1.5t20 6t21 10t17.5 10.5q32 20 66 46.5t68 60.5z" />
    <glyph glyph-name="t" unicode="t" horiz-adv-x="261" 
d="M-45 501q16 5 42.5 9t59.5 8t69.5 7l72.5 6q17 31 34 55t32 38q9 9 18.5 13t17.5 3q9 0 15.5 -7t8 -19.5t-3.5 -31t-20 -41.5q17 2 30.5 4t23.5 4q13 3 21 -8.5t9.5 -26.5t-5 -28.5t-22.5 -15.5q-28 -3 -56 -4l-57 -2l-34.5 -50t-27.5 -46q-14 -25 -26.5 -52t-23.5 -53.5
t-19.5 -50.5t-13.5 -42q-3 -11 -2 -20t6 -12.5t15.5 -1t27.5 15.5q19 15 49.5 42l64.5 60q15 15 29 18.5t21.5 -2.5t5 -19.5t-20.5 -31.5l-108 -106q-53 -51 -91 -64.5t-55 6.5t-9.5 73t45.5 136l-44 -45q-12 -12 -23 -12t-17 6.5t-5.5 18t11.5 22.5l70 74l63 70l30 64
q-48 -2 -97.5 -7.5t-104.5 -19.5q-13 -3 -19.5 5.5t-7 20.5t4.5 24t16 16z" />
    <glyph glyph-name="s" unicode="s" horiz-adv-x="317" 
d="M0 254l28 27.5l37.5 35t37.5 32t29 19.5q12 6 26 5t26.5 -7t21 -17.5t8.5 -26.5q1 -26 -5 -61t-20 -73q34 10 68 25.5t60 40.5q10 10 21 10.5t17.5 -6t7 -17.5t-11.5 -22q-38 -38 -90.5 -61t-99.5 -30l-23 -34t-26 -32q-26 -28 -54 -33t-47 6.5t-22 36t20 54.5
q15 20 37 33.5t45 19.5q14 5 25 26.5t12 63.5q1 14 -6 16.5t-15 -1.5q-5 -3 -14 -10.5t-19.5 -17.5l-21 -20l-17.5 -17q-12 -11 -23 -11.5t-17.5 6.5t-6.5 18t12 22z" />
    <glyph glyph-name="b" unicode="b" horiz-adv-x="482" 
d="M482 254q12 12 23.5 12.5t18 -5.5t6 -17.5t-12.5 -24.5q-74 -74 -127 -97.5t-84 -12.5l-21.5 -24t-21.5 -23q-40 -41 -81 -55.5t-72 -6t-45.5 39t-1.5 80.5q7 25 20.5 54t31 59.5t38.5 60.5l42 59q31 40 26 42.5t-45 -35.5l-31 -30l-37.5 -37.5l-38.5 -38.5l-34 -35
q-12 -12 -23 -12.5t-18 6t-6.5 18t12.5 23.5l53.5 55l67 69l72.5 75l71 72l62.5 62t47.5 44q20 18 35.5 20t23.5 -6.5t8 -23.5t-10 -32q-17 -29 -45.5 -68.5l-60.5 -83.5l-65 -90t-59.5 -88t-43 -78t-16.5 -59q0 -22 12.5 -28.5t30 -1t37 20.5t33.5 36l7 11q-5 21 -3.5 46.5
t11.5 51.5q2 5 4 9.5t4 9.5q0 11 9 22.5t22.5 17t29 2.5t28.5 -21q17 -23 11 -56t-27 -69q35 -14 132 81z" />
    <glyph glyph-name="c" unicode="c" horiz-adv-x="324" 
d="M197 363q44 1 65 -11.5t26 -25.5q5 -14 -0.5 -25t-16 -17t-22.5 -6t-20 6t-23 8.5t-42 -1.5q-18 -3 -35 -10t-32.5 -17.5t-29 -22t-22.5 -23.5q-30 -38 -40.5 -68.5t-1.5 -47.5t38 -16.5t77 24.5q20 10 47 27t55.5 37t55.5 41t48 39q7 6 17.5 5.5t18 -5.5t8.5 -14.5
t-9 -20.5q-24 -25 -55 -51.5l-63 -51.5t-62.5 -46t-54.5 -35q-45 -26 -82 -32.5t-63.5 3t-41 32t-15 54t15 70t49.5 78.5q18 22 42.5 43.5t52 38.5t57 28.5t58.5 12.5z" />
    <glyph glyph-name="d" unicode="d" horiz-adv-x="372" 
d="M444 687q14 18 31 24.5t28.5 3t14 -17t-12.5 -36.5q-62 -95 -111.5 -181.5t-86 -156.5t-59 -120t-31.5 -72q-12 -32 1 -31.5t37 26.5l52.5 60t64.5 68q17 18 31.5 21.5t21.5 -2.5t3.5 -20.5t-21.5 -33.5q-18 -18 -43 -46.5l-52 -60.5l-54 -65l-50 -60t-46 -39.5t-38 -5
t-18.5 36.5t12.5 86q6 23 17 51l25 61l-88.5 -103.5t-74.5 -77.5q-34 -31 -58.5 -17.5t-28 55.5t18 103.5t79.5 126.5q72 80 129.5 97t99.5 -15q6 9 13 16l54.5 100.5l53.5 92.5l48 77.5t38 54.5zM45 133l21.5 22l34.5 36.5l43.5 47.5l47.5 54q-17 4 -43 -2t-58 -37
q-45 -42 -67.5 -75.5t-27 -52.5t8.5 -19t40 26z" />
    <glyph glyph-name="e" unicode="e" horiz-adv-x="321" 
d="M233 392q26 -16 25 -51t-30 -74.5t-87.5 -75.5t-146.5 -54q-10 -24 -8.5 -43t15 -29t38.5 -7.5t62 20.5q46 23 99 66t121 110q14 15 27 17t20 -4.5t5 -19.5t-17 -28q-63 -63 -124 -118t-131 -94q-58 -33 -106 -35.5t-71.5 23.5t-15 81t62.5 138q45 69 85.5 109.5t74 59
t59.5 19t43 -9.5zM173 334q-16 -3 -34.5 -15t-38 -30.5t-38.5 -42.5t-35 -49q52 10 88.5 34t56 48t20 41t-18.5 14z" />
    <glyph glyph-name="f" unicode="f" horiz-adv-x="281" 
d="M391 670q-11 -21 -37.5 -54.5l-56.5 -69l-58 -69t-42 -54.5l-69.5 -105t-59.5 -94q23 -18 51.5 -23.5t57.5 -0.5t56 19t48 35q15 15 27 16.5t18 -6t4 -20.5t-14 -25q-35 -35 -84.5 -59.5t-113.5 -24.5q-35 0 -56 8t-32 15q-31 -55 -57.5 -113t-51.5 -128
q-10 -29 -8.5 -43.5t11.5 -13t26 20t36 55.5q23 44 36 83.5t18 77.5q1 7 8.5 8t9.5 -6q12 -38 10 -84.5t-19 -93.5q-24 -65 -52 -107.5t-55.5 -64.5t-52 -24t-40.5 13t-21.5 45.5t5.5 74.5q20 83 60 173t91 181q-4 11 -4 27q0 27 13.5 46t33.5 19q2 0 4 -0.5t4 -0.5
l74 120.5l77 118t72.5 103t60.5 76.5q21 24 39 26.5t29 -7.5t13 -29.5t-9 -40.5z" />
    <glyph glyph-name="g" unicode="g" horiz-adv-x="437" 
d="M437 254q11 12 21.5 11.5t17 -7.5t6.5 -18t-10 -21q-51 -51 -112 -99.5l-119.5 -92l-108 -80t-76.5 -62.5q-16 -26 -33.5 -51.5t-36 -47t-37 -37t-37.5 -21.5q-13 -5 -27 -1t-22 15.5t-7 31.5t17.5 47.5t52 63t97.5 78.5q7 12 17.5 28l21.5 33.5t22.5 34t19.5 29.5
q35 56 37 68t-30 -17l-61 -55.5t-45 -26.5q-24 -6 -41 6t-23 35t-1 52t24 58q21 31 48.5 60.5t61.5 53t74 39t86 18.5q32 1 51.5 -6t28 -19t7.5 -26.5t-9 -28.5q-7 -11 -19.5 -13t-20.5 8t-24.5 13.5t-50.5 -1.5q-32 -4 -61.5 -21t-54 -38t-41.5 -43t-23 -38t0 -22t29 5
t57 41t96 75q12 9 25 8.5t21.5 -8t9 -23t-12.5 -36.5l-26.5 -41.5l-29.5 -48.5l-30 -49.5l-27 -45.5l69 47l80.5 56l83 63t75.5 67z" />
    <glyph glyph-name="h" unicode="h" horiz-adv-x="485" 
d="M0 254l85.5 90.5l74.5 85.5q30 65 62.5 127.5t65.5 118t66 100.5t63 75q25 25 48 32.5t37 -1t14.5 -33t-18.5 -61.5q-18 -35 -48.5 -79t-68 -93l-80.5 -101l-86 -101q-33 -65 -48 -101.5t-18 -52.5t3 -15.5t15 9.5q12 13 47 47.5t87 72.5q26 19 50 25.5t40.5 0.5
t22.5 -24t-4 -47q-13 -37 -40.5 -85l-64.5 -111q-26 -45 -22 -53.5t30.5 11.5t71.5 63l100 100q15 15 29 18.5t21.5 -2.5t5 -19.5t-20.5 -31.5l-32 -33.5l-44 -47l-50.5 -53.5l-51 -52t-45.5 -42t-34 -25q-17 -9 -32.5 -8.5t-26 10t-14 27.5t3.5 44q7 25 21 55.5t30 61.5
t32.5 59t29.5 48q26 41 19 53.5t-30 -7.5q-12 -10 -38 -35.5t-55 -58.5t-55.5 -68t-38.5 -63q-8 -20 -20.5 -22t-22 8t-14 30.5t2.5 45.5q9 33 20.5 68.5t25.5 72.5q-17 -19 -34 -36l-32 -32q-12 -12 -23.5 -12t-17.5 6.5t-5.5 18t11.5 22.5z" />
    <glyph glyph-name="i" unicode="i" horiz-adv-x="242" 
d="M0 254q23 24 55.5 52.5t59.5 49.5q13 10 26.5 11t22.5 -5t11.5 -17t-4.5 -24l-14.5 -24.5l-14 -25.5l-17 -32l-22.5 -43q-14 -25 -7 -32t28 1.5t52 31t66 57.5q12 12 23.5 13t18.5 -5t6 -18t-14 -25l-26 -25.5l-35.5 -33t-40.5 -34t-40 -28.5q-31 -20 -56 -23.5t-39.5 7
t-16 35.5t15.5 63l10.5 27t5 18.5t-3.5 5.5t-15 -12t-22 -11t-17.5 6.5t-6.5 17.5t11 22zM258 565q9 5 19.5 3.5t18 -7.5t11 -16.5t-2.5 -22.5t-17 -26l-22.5 -27.5l-20.5 -24.5t-12 -18q-5 -14 -16.5 -13t-17.5 13q-3 6 -3 23.5t6 39t19.5 42.5t37.5 34z" />
    <glyph glyph-name="k" unicode="k" horiz-adv-x="521" 
d="M521 254q15 15 27.5 16.5t18.5 -5t4.5 -19.5t-15.5 -27q-81 -81 -141.5 -136t-101 -73t-63 7.5t-27.5 104.5q-2 29 -2.5 47.5t-2.5 32.5q-22 -29 -41.5 -59l-36.5 -57q-20 -32 -34 -36t-23 7.5t-12 32t1 37.5q11 45 28 94.5t38 101.5l-103 -104q-9 -9 -20.5 -9.5t-19 5
t-8 16t12.5 23.5l118.5 124.5l92.5 104.5l43.5 84.5l41 74.5t36 60t28.5 41q27 37 53.5 53.5t46.5 17t30 -13.5t3 -39q-11 -36 -35.5 -70t-56.5 -66q-48 -48 -86.5 -102.5t-68.5 -114.5l-19 -37t-13 -27l-21 -47.5t-13 -32.5t-2.5 -14t10.5 8q17 20 55.5 57.5t96.5 75.5
q30 20 56 23t42.5 -6t22.5 -28.5t-3.5 -44t-36 -52.5t-73.5 -55q-26 -14 -39.5 -20.5t-19.5 -10.5t-7 -8t0 -13q4 -42 14 -62.5t35 -14t70 43.5t120 111zM250 243q25 8 52 24q31 18 52 38t28 32.5t-1.5 14t-35.5 -16.5q-23 -16 -47.5 -39.5t-47.5 -52.5z" />
    <glyph glyph-name="j" unicode="j" horiz-adv-x="271" 
d="M34 219q-10 -10 -19.5 -9t-15.5 8.5t-6.5 17.5t7.5 18q7 8 23 24l34 33l36 32.5t31 23.5q14 9 29.5 6t26 -15.5t13 -32.5t-8.5 -44q-8 -20 -24 -49.5l-33.5 -61l-34.5 -61l-27 -47.5q-21 -37 -18 -48.5t16 8.5q7 10 30 37l53.5 61.5l64 70.5l60.5 63q14 14 26 15t18 -6
t4.5 -19t-13.5 -25q-18 -17 -44.5 -47.5l-57.5 -67l-64 -76.5l-62.5 -77.5l-53.5 -68.5l-37 -49q-26 -37 -49 -47t-37.5 0t-16.5 35.5t14 59.5q9 20 26 51l37.5 66.5l43.5 74.5l44.5 75.5l39.5 68t29 53.5q7 13 8 19.5t-8 2.5t-29.5 -21.5t-54.5 -51.5zM245 514
q13 11 24.5 9t18 -11t7 -21t-9.5 -22q-10 -9 -16.5 -18.5t-11.5 -23.5q-6 -18 -19.5 -21.5t-24.5 22.5q-8 15 -1 39t33 47z" />
    <glyph glyph-name="l" unicode="l" horiz-adv-x="326" 
d="M0 254q68 69 132 143l116.5 139l88.5 113t49 64q14 18 28 18.5t22 -9.5t8 -28t-14 -36q-47 -62 -91.5 -136.5t-81.5 -145.5t-64.5 -130t-39.5 -90q-12 -32 -14 -47t3.5 -17t16.5 5.5t26 21.5l59 55.5l82 79.5q18 19 33 23t21.5 -2.5t3 -21.5t-22.5 -34l-114 -118
l-114 -118q-29 -29 -49.5 -38.5t-33 -2.5t-15.5 29t4 57q7 34 24.5 80t39 92.5l42.5 89.5l36 72t9.5 26t-26.5 -27l-55 -62.5t-74 -79.5q-13 -13 -26 -14.5t-20 4.5t-5.5 18t16.5 27z" />
    <glyph glyph-name="m" unicode="m" horiz-adv-x="732" 
d="M0 254l38 37l43 39.5l42.5 36t36.5 26.5q21 14 43 17t37 -2.5t20.5 -18t-6.5 -29.5q-23 -35 -45 -62.5t-33 -47.5t-7 -24t24 14q11 10 29 25t38.5 30t41.5 28.5t39 22.5t38 12t34 -1.5t18 -16.5t-9 -34l-29.5 -45l-30 -44l-26.5 -38.5t-18 -27.5q-11 -21 -3 -21t27 21
q9 10 31.5 32.5t51.5 48t62 50t63 40.5t51.5 17t33.5 -8t12 -25.5t-14 -35.5l-23 -33.5t-20 -31.5t-15 -27t-8 -18q-3 -9 3 -15t24.5 1t51.5 31.5t86 76.5q12 12 23.5 12.5t18 -5.5t6 -17.5t-12.5 -24.5q-49 -48 -96.5 -89.5t-93.5 -67.5q-20 -11 -42 -12.5t-37.5 8.5
t-20 32.5t11.5 59.5q8 20 19.5 40t16.5 32q5 14 -2.5 15.5t-30.5 -18.5q-21 -18 -56.5 -52l-71.5 -72l-66 -72t-41 -52t-26.5 -18t-28 13.5t-17.5 38.5t6 58q14 45 37.5 82.5t49.5 71.5q25 35 -1 26t-89 -69l-33 -31l-32.5 -31l-28.5 -28.5l-22 -22.5q-8 -10 -21 -10t-21 10
t-7.5 30t18.5 50l36 59.5l31 48.5q7 9 5.5 15t-10.5 4.5t-26 -13t-42 -36.5q-15 -15 -28.5 -17.5t-20 4t-4.5 19.5t18 29z" />
    <glyph glyph-name="n" unicode="n" horiz-adv-x="506" 
d="M0 254q19 19 37 35t36.5 30l38.5 28l44 30q28 18 49 19.5t33.5 -7.5t15 -25.5t-7.5 -33.5t-25 -39l-31 -45.5l-31 -44.5l-24 -34q-10 -14 -11.5 -20.5t1.5 -8t9.5 2.5t14.5 13l20 20t33 31t42.5 36t49.5 36q26 16 45 17.5t31.5 -6t17.5 -19.5t3 -22q-5 -20 -10.5 -31
t-13.5 -31q-12 -27 -6 -34t26 3.5t50.5 36.5t68.5 63q15 15 27.5 16.5t18.5 -5t4.5 -19.5t-15.5 -27l-34.5 -33.5l-43.5 -39.5t-47.5 -38t-46.5 -29q-25 -12 -44.5 -10.5t-31.5 13.5t-13.5 32.5t9.5 46.5q20 48 14 59t-44 -23q-19 -17 -46 -44.5l-54 -57.5t-50 -58.5
t-35 -47.5q-12 -20 -27 -21.5t-26.5 8t-15.5 28.5t5 40q7 16 21.5 45.5t31.5 61l34 61t29 46.5q21 30 17.5 36t-20.5 -3.5t-41.5 -29.5t-46.5 -42q-17 -17 -30.5 -19t-19.5 5t-3 20.5t18 28.5z" />
    <glyph glyph-name="o" unicode="o" horiz-adv-x="333" 
d="M333 254q8 8 19 8.5t18.5 -5t8.5 -16t-11 -22.5q-44 -44 -83.5 -59t-69.5 -10l-18 -24q-27 -34 -57.5 -59t-60.5 -38.5t-58.5 -14.5t-50.5 12t-30 37.5t-3.5 55.5t20.5 66t43 69t57.5 59t61 38.5t59 14.5t50.5 -12q32 -20 34.5 -62.5t-20.5 -93.5q18 1 39.5 14t51.5 42z
M158 295q-13 4 -28 -1.5t-30.5 -17.5t-29.5 -29t-25 -35t-17 -36t-6 -33t5.5 -26.5t18.5 -15.5q26 -9 55 10.5t51 56.5l4 7q-8 9 -11.5 23t-3 30t4 32t9.5 29z" />
    <glyph glyph-name="p" unicode="p" horiz-adv-x="489" 
d="M489 254q13 13 25.5 14.5t19 -5.5t5 -19t-14.5 -25q-40 -39 -91 -82.5t-111 -73.5q-27 -13 -51.5 -12t-36.5 18t-5 50.5t44 85.5q22 31 24.5 46.5t-11 14t-39.5 -20t-60 -55.5q-27 -29 -52.5 -64.5t-52.5 -82.5t-57.5 -108l-67.5 -140q-14 -30 -32 -38.5t-32.5 -0.5
t-21 28t1.5 47q9 29 28 66t43 76.5l50 79.5l49.5 76.5l41.5 66t26 48.5q5 12 8.5 23t4 18t-3 8.5t-11.5 -5.5l-28.5 -25.5t-45.5 -43.5q-13 -12 -24.5 -12.5t-18 6t-5.5 18t13 23.5l53.5 53t57.5 48q42 28 64.5 33.5t38.5 -6.5q8 -6 10 -18t-8 -36q-12 -30 -17 -45
t-3.5 -18.5t9.5 3.5t22 22q45 45 86 62.5t64 8.5t20 -45t-46 -100q-26 -38 -31 -55t0.5 -21.5t17 -0.5t18.5 8q64 38 133 107z" />
    <glyph glyph-name="q" unicode="q" horiz-adv-x="430" 
d="M291 374q9 13 20 13.5t18 -8t7 -24.5t-13 -37q-5 -8 -18.5 -28l-31.5 -47l-39 -58l-41.5 -61.5l-39 -58l-30.5 -46.5q-15 -24 -24 -42.5t-8 -26.5t13 -4t38 25q32 26 72 65l80 79.5l76 77.5l60 61q11 12 22 11.5t17 -7.5t6 -18t-10 -21l-105.5 -107.5l-107.5 -110.5
l-102.5 -101t-90.5 -79q-30 -23 -53 -28.5t-33.5 8t-6.5 45.5t30 83q21 43 57 99.5l76 115.5q-28 -26 -53 -45.5t-45 -29.5q-23 -11 -44 -9.5t-34.5 14.5t-17.5 37.5t8 60.5q8 24 33 55.5t58.5 59t73.5 47.5t78 22q31 2 48.5 -5.5t25.5 -19.5l19 27t12 16zM65 168
q28 19 60.5 47.5l84.5 72.5q-16 7 -57 3q-23 -3 -43.5 -14t-37.5 -25t-29 -30t-17 -30q-3 -11 -2.5 -19.5t5 -12.5t13.5 -2.5t23 10.5z" />
    <glyph glyph-name="r" unicode="r" horiz-adv-x="293" 
d="M0 254l36 37.5t35 39.5q-8 10 -8 20q0 18 9.5 35t24 30.5t32 21t34.5 6.5q15 -2 19.5 -12t-2.5 -23q-9 -19 -5.5 -24.5t24.5 -7.5q19 -2 30 -14t6 -32q-3 -15 -12 -30t-21 -31.5l-26 -37t-27 -45.5q-36 -67 3.5 -50.5t140.5 117.5q12 12 24 13t18.5 -5t6 -18t-13.5 -25
q-10 -10 -29.5 -28l-42 -38l-45.5 -39t-40 -30q-25 -17 -49 -20t-44 17q-29 29 -24.5 61t34.5 74q24 35 37 57.5t16.5 35t-1.5 15.5t-16 -1l-25 -32l-25.5 -30l-22.5 -25t-16 -17q-13 -13 -24.5 -13.5t-18 6t-5.5 18.5t13 24z" />
    <glyph glyph-name="T" unicode="T" horiz-adv-x="420" 
d="M39 488q-18 -3 -23.5 11t-0.5 32.5t18.5 36t32.5 22.5q31 7 76 11.5t96 7t103 2.5t98 -1t81.5 -3.5t52.5 -4.5q25 -4 39.5 -17t17.5 -27.5t-5.5 -25.5t-27.5 -10q-39 1 -90.5 0t-109.5 -3q-35 -55 -70.5 -120l-68.5 -131.5l-62.5 -129.5l-53 -114.5l-39 -87.5l-20.5 -48
q-6 -15 -22.5 -11t-31.5 21t-23 43.5t2 57.5q7 23 24.5 59.5t40.5 79.5l49 89l50.5 87.5l45.5 75t34 51.5q18 25 32.5 33t26 11.5t21.5 8.5t19 23q-78 -5 -158.5 -11.5t-153.5 -17.5z" />
    <glyph glyph-name="U" unicode="U" 
d="M345 -27q1 15 8 41t18 57.5t25 67t31 70.5l-94.5 -116t-78 -92.5t-65.5 -64t-57 -30.5q-24 -6 -45 1t-37.5 22t-28 36t-15.5 44q-11 49 10.5 120t64 150.5t101 160.5t122.5 151q10 10 28.5 9t34.5 -9.5t24.5 -22t-0.5 -26.5q-152 -209 -223 -342t-75 -173
q-3 -28 13 -38.5t34 -2.5q22 10 53.5 45t85 102.5l133.5 171l198 249.5q22 33 52 47t53.5 13t34.5 -13.5t-3 -31.5q-39 -53 -76.5 -116t-71.5 -128t-63.5 -128.5t-52 -117.5t-37 -94.5t-19.5 -59.5q-3 -15 -17 -16t-29 7.5t-26.5 24t-9.5 32.5z" />
    <glyph glyph-name="V" unicode="V" horiz-adv-x="560" 
d="M363 586q-12 -28 -31.5 -67.5l-42 -87.5l-48 -103t-49.5 -113t-46 -117t-38 -115l73 93.5l87 112l94.5 119.5l95 117.5l88.5 105t76 81.5q10 9 29.5 7.5t36 -10t25 -22t-4.5 -27.5l-43.5 -49l-85 -96l-111.5 -126.5l-121.5 -141l-115.5 -139l-94 -119.5
q-14 -18 -39 -14.5t-46 32.5q-19 8 -35 25.5t-14 35.5q4 31 17.5 78t32.5 102.5t42.5 116.5t48.5 119.5t50.5 110.5t47.5 91q9 16 33 26t46.5 11.5t37 -7.5t4.5 -30z" />
    <glyph glyph-name="W" unicode="W" horiz-adv-x="780" 
d="M278 576q-33 -109 -74 -229t-81 -258l68.5 100.5l75.5 107l75 103l68 90l54 68.5t33 37q16 15 37.5 21.5t38.5 5t26 -11.5t2 -28t-24.5 -68.5t-38 -120t-40 -152.5t-30.5 -167l65 102.5l89.5 139t110 156t127.5 154.5q13 14 30 12.5t28.5 -13t14 -29t-13.5 -34.5
q-50 -55 -104.5 -122.5l-107.5 -138.5l-101.5 -139l-87 -123l-63.5 -92.5t-30 -46.5q-9 -14 -24.5 -15t-30 6.5t-24.5 21.5t-7 31q2 17 9 60l17.5 102.5l23.5 130.5t28 143q-28 -32 -68.5 -85t-85.5 -118.5l-90.5 -138t-83.5 -144.5q-7 -12 -15.5 -12t-17.5 7t-17 16.5
t-12 16.5q-14 2 -20.5 11t-3.5 28q7 53 20 114t28.5 123t32.5 121l32 108t27 83.5t18 48.5q9 21 30.5 33t42.5 14.5t35.5 -5t8.5 -25.5z" />
    <glyph glyph-name="X" unicode="X" horiz-adv-x="670" 
d="M742 593q-60 -46 -131.5 -111.5t-148.5 -144.5q10 -71 22 -139.5t25 -128.5t25 -107t23 -74q7 -20 -7.5 -29t-37 -5.5t-46 18.5t-32.5 43q-5 13 -12 45.5t-15.5 77t-17 97.5l-17.5 107q-83 -90 -160.5 -185.5t-140.5 -189.5q-15 -23 -30.5 -19t-26 21.5t-12 43t12.5 46.5
q9 15 42 54l80.5 92.5l104.5 116.5l114 125l-11 76.5t-8 66t-4 51t1 30.5q3 19 18.5 34.5t33.5 22t33 3t16 -22.5q2 -37 5 -78t8 -85l61 63.5l52.5 52.5l41 39t26.5 22q24 16 50.5 18t46 -4.5t26 -18.5t-9.5 -24z" />
    <glyph glyph-name="Y" unicode="Y" horiz-adv-x="470" 
d="M589 546q-82 -88 -154 -173.5l-136.5 -169.5l-122.5 -166.5l-112 -164.5q-10 -15 -24.5 -10t-24.5 22.5t-12.5 43t11.5 51.5q6 11 18.5 30.5t30.5 45l40 56.5l47 65q-13 48 -22 105t-13.5 111.5t-4.5 100.5t5 72q4 24 19.5 37.5t32.5 18t30 0t13 -17.5q-1 -21 -3 -55
t-2 -77.5t3 -94t13 -104.5l75.5 100.5l70.5 91l58.5 72t39.5 43.5q26 25 54.5 28.5t48.5 -4.5t28 -24.5t-7 -32.5z" />
    <glyph glyph-name="Z" unicode="Z" horiz-adv-x="610" 
d="M224 591q17 4 49 6.5t72.5 3t84 0t82.5 -3t69.5 -6.5t43.5 -9q32 -14 28.5 -34t-29.5 -43q12 -6 21 -13.5t13 -16t1 -17t-14 -14.5q-103 -57 -188.5 -117t-152.5 -119.5t-115 -114.5t-76 -101q53 6 119.5 10t128.5 4.5t109.5 -5t63.5 -18.5q11 -10 13 -27.5t-2 -34
t-14 -28t-23 -8.5q-30 7 -74 9t-93 1.5t-99 -3t-91 -5t-69 -3.5t-33 1q-14 5 -23 29t-7 59q-10 14 -14.5 28.5t0.5 26.5q16 39 48 78.5t75 80t95.5 80t110 78l118 75.5l119.5 72q-25 6 -58 8t-70 1t-74.5 -3t-71.5 -5l-61.5 -5.5t-42.5 -3.5q-21 -2 -25 13t3 34.5t22 37.5
t31 22z" />
    <glyph glyph-name="B" unicode="B" horiz-adv-x="625" 
d="M215 571q43 19 91 28.5t92 11t80 -4.5t56 -19q51 -32 72 -79t8 -93q-6 -20 -24 -43t-48 -45t-71.5 -40.5t-94.5 -28.5q39 -14 70.5 -39.5t44.5 -65.5q12 -39 5 -77t-32 -71.5t-66.5 -61.5t-99.5 -47q-49 -15 -93 -18.5t-78.5 5.5t-57 29.5t-27.5 52.5q-9 4 -17.5 13
t-14.5 21t-7.5 24.5t2.5 22.5q4 11 17.5 39l32.5 64.5l41 77.5l42.5 78l38 66t27.5 41q13 17 29.5 29.5t32 23t29 21t22.5 23.5q-26 -6 -47.5 -13t-34.5 -12q-22 -9 -33 1t-13 27t5 35t21 24zM192 213l-36.5 -71.5l-32 -64l-25 -51.5t-15.5 -34q14 -21 56 -24t122 24
q54 18 87 41t49.5 47t17.5 47.5t-9 43.5q-9 16 -30 27.5t-49.5 17t-63 5t-71.5 -7.5zM358 518q-17 -28 -49 -86.5l-69 -127.5q60 17 116 40.5t99 49.5t66 52.5t17 49.5q-5 15 -22 22.5t-42.5 9.5t-55.5 -1t-60 -9z" />
    <glyph glyph-name="D" unicode="D" horiz-adv-x="716" 
d="M199 371q12 15 31 25l39.5 21t39.5 25.5t30 37.5q-15 -5 -28 -10.5t-27 -10.5q-23 -8 -47.5 2t-40 28t-16.5 38t25 32q25 12 65 21.5t85 15.5t90.5 7t83.5 -4q52 -7 84 -33t47.5 -63t16 -82t-10 -91t-31 -88.5t-47.5 -75.5q-50 -60 -106 -111.5t-113.5 -89.5t-115 -59.5
t-111.5 -21.5q-24 0 -39.5 8t-23.5 20t-11.5 25.5t-3.5 24.5q-27 8 -44.5 16t-17.5 27q0 18 13 50t33 70t43.5 78.5l45.5 75.5l39 60t23 32zM372 490l-105.5 -194l-79.5 -144.5t-51.5 -105t-20.5 -74.5q45 1 98 26t107.5 65t106 90t93.5 102q19 23 36 51t29 56t16.5 54.5
t-1.5 47t-24.5 32.5t-52.5 12q-51 0 -86.5 -5t-64.5 -13z" />
    <glyph glyph-name="C" unicode="C" horiz-adv-x="568" 
d="M415 519q-8 6 -27.5 -3t-48 -31.5t-63.5 -58t-74 -83.5t-62.5 -99.5t-32.5 -98.5t-4 -84.5t23 -57.5q21 -22 45.5 -22t49.5 15t49.5 40.5t45.5 55t37.5 58t25.5 49.5q9 20 21.5 26.5t25 2t23.5 -17t17 -29.5t5 -37t-11 -38q-47 -81 -96.5 -128.5t-97.5 -67t-91.5 -14.5
t-78 29t-58 64t-31.5 91q-14 89 13 173t82 153t130.5 117.5t159.5 68.5q57 13 91 7.5t50.5 -21t18.5 -36.5t-5 -38q-8 -17 -24 -37l-33 -40.5t-32 -40.5t-21 -37t-22.5 -19.5t-32.5 5t-26 23.5t-2 36t23 38l27.5 34t17.5 29t-7 24z" />
    <glyph glyph-name="E" unicode="E" horiz-adv-x="579" 
d="M4 16q-6 23 11 72t50.5 113t81 138t103.5 148q-8 7 -16 19.5t-11.5 25.5t0 25t17.5 19q21 9 67 17.5t97.5 14t99 8t71.5 1.5q24 -2 40.5 -18.5t24 -36t5.5 -35t-15 -13.5q-20 3 -63 0.5t-93 -8l-99.5 -11.5t-82.5 -11q-7 -19 0 -27t15 -12.5t12.5 -10t-7.5 -18.5
q-7 -8 -19.5 -28l-29.5 -49q37 9 73 14.5t66.5 8.5t53.5 3t35 -3q14 -4 21 -21.5t8 -37t-4.5 -34t-15.5 -11.5q-34 7 -75.5 6.5t-82.5 -5.5t-77.5 -12t-60.5 -13q-18 -33 -34.5 -67.5t-31 -68.5t-25 -65t-16.5 -56q32 3 76 8.5t88 9.5t83 5.5t60 -3.5q25 -6 41 -25.5t22 -39
t0 -33t-25 -7.5q-13 4 -41 5t-64 -0.5t-76 -4.5t-77 -7t-67 -8t-45 -7q-11 -3 -20.5 8.5t-15 28t-5.5 34.5t8 28q-12 10 -21.5 21.5t-13.5 25.5z" />
    <glyph glyph-name="F" unicode="F" horiz-adv-x="591" 
d="M283 597q30 12 80 20.5t103 13t99 5.5t67 -1t38.5 -19.5t26.5 -36t5 -32.5t-26 -9q-14 3 -41 2.5t-61.5 -3.5t-72.5 -8t-73.5 -11t-66 -12t-48.5 -12q-4 -17 5.5 -22t20 -8.5t16 -10t-6.5 -27.5l-39 -68.5l-37 -69.5l64.5 16t64.5 13.5t55.5 7.5t36.5 -2q14 -5 25 -22.5
t15 -35.5t-2.5 -31t-26.5 -8q-19 4 -54.5 1.5t-76 -9t-81.5 -15.5t-71 -18q-33 -71 -64 -147t-60 -161q-5 -13 -21.5 -15t-34 7t-30 27.5t-8.5 45.5t20 68.5t40 90.5l52.5 102.5l58 105l56.5 97.5l47 80q-9 6 -14 22t-4.5 34t6.5 34t18 21z" />
    <glyph glyph-name="G" unicode="G" horiz-adv-x="591" 
d="M230 198q-18 -6 -24.5 3.5t-3.5 24.5t13.5 31t25.5 23q23 12 56.5 19t69 10t68.5 3t55 -3t33 -18.5t12 -32.5t-8 -29t-27 -8q-21 5 -59 5t-82 -5q31 -19 56.5 -46.5t32 -62t-12 -77t-74.5 -91.5q-50 -44 -102.5 -56t-99.5 2t-84 50t-56 88t-16.5 117t35.5 137
q37 81 84 140t97 98t100 59.5t94 26t79 -2.5t55 -27q15 -15 10.5 -35.5t-17 -45.5l-28 -53.5t-24.5 -58.5q-6 -20 -20 -22.5t-27.5 5.5t-23.5 23.5t-7 30.5q2 15 10 32.5t14 33t6.5 28.5t-12.5 20q-17 9 -43 -2.5t-56.5 -38.5t-61.5 -65.5t-59.5 -83t-50.5 -92t-33 -91.5
q-13 -53 -8.5 -101.5t25.5 -76.5t58.5 -25.5t91.5 52.5q26 25 40.5 58t13 63t-21 51.5t-60.5 23.5q-16 -3 -33 -8z" />
    <glyph glyph-name="H" unicode="H" horiz-adv-x="668" 
d="M763 572q-57 -84 -111.5 -178.5t-101 -185t-83.5 -172t-59 -140.5q-9 -22 -28 -24t-35.5 11.5t-25 40.5t5.5 64q6 16 16.5 41t25 55.5l32.5 66.5l38 74q-28 -2 -60.5 -4t-65 -3l-63 -2t-54.5 -2q-6 -19 -1.5 -22t11 -4t10 -6t-6.5 -27l-37.5 -76.5l-37.5 -72.5
l-31.5 -60.5t-17.5 -41.5q-5 -14 -20 -15t-29.5 9t-24.5 29t-5 45q2 11 12.5 35t26.5 57l36.5 73t44.5 82q-13 8 -25.5 22.5t-18 28.5t-0.5 24t27 10q10 0 26 -0.5t38 -1.5l49.5 85l46.5 77.5t41 63t32 43.5q19 24 45 32t47 5t31.5 -14t-1.5 -25q-56 -64 -98.5 -136
l-76.5 -133q51 0 102 0.5t91 4.5q45 80 91 153.5t88 120.5q18 21 41.5 30t42 7.5t26 -13t-5.5 -31.5z" />
    <glyph glyph-name="I" unicode="I" horiz-adv-x="371" 
d="M93 -92q-9 -20 -27.5 -21t-35 11t-25 36t2.5 54q16 45 41.5 100.5t55.5 114l62 116.5l62 108.5t56 89t43 57.5q21 24 45 34.5t42.5 10t26.5 -10.5t-3 -26q-26 -38 -55.5 -89.5l-61 -110l-63.5 -122l-61.5 -125.5l-56.5 -120z" />
    <glyph glyph-name="J" unicode="J" horiz-adv-x="549" 
d="M95 -109q-29 9 -52.5 41.5t-34 78.5t-3 101t39.5 110q14 24 35 32.5t38 5t25.5 -17t-1.5 -32.5q-7 -15 -15.5 -39t-15 -51.5t-10 -55.5t-1.5 -50.5t10 -36.5t25 -14q21 0 47.5 34.5t56.5 90t63 124.5l67.5 137t69.5 128t69 99q24 27 50.5 34t45 1t23.5 -22.5t-14 -37.5
q-27 -30 -54 -77.5t-54.5 -104l-56 -117.5t-58.5 -119t-63 -108.5t-69.5 -84.5t-77 -48.5t-85.5 -0.5z" />
    <glyph glyph-name="K" unicode="K" horiz-adv-x="615" 
d="M421 575q-13 -21 -32.5 -56l-39.5 -73l-38.5 -75l-30.5 -61q13 0 30 -6l72.5 56l79.5 60.5l79 59.5l71 53l55 41l33 24q20 14 47.5 16t48 -4t27.5 -19t-14 -29q-12 -9 -43 -30l-73 -48.5l-91 -58.5l-96 -60.5l-89.5 -55t-70.5 -40.5q11 -20 27 -54l33.5 -73.5l36 -81.5
l35.5 -78.5t31.5 -64.5t24.5 -40q12 -14 5.5 -26t-24 -17.5t-41 -1t-44.5 24.5q-9 8 -22.5 31t-28.5 54.5l-31.5 68.5l-32.5 74q-13 30 -24 58t-22 52t-22.5 42.5t-24.5 29.5q-9 -16 -7.5 -24t5.5 -15.5t4.5 -18t-11.5 -32.5q-6 -11 -16.5 -32.5l-23.5 -49l-26.5 -58
l-26.5 -59t-23 -52.5t-15 -37q-8 -21 -23.5 -20t-30 15.5t-22.5 39.5t0 52q8 31 30 81.5t51 110l62 122.5l64 118t56.5 96t40.5 57q18 21 43 34.5t45 16.5t29 -5.5t-6 -31.5z" />
    <glyph glyph-name="L" unicode="L" horiz-adv-x="513" 
d="M21 -36q5 2 11.5 2.5t14.5 2.5q-5 16 -8 33t0 34t23.5 58.5t51.5 95.5t70 114.5l77.5 117.5t73.5 104t60 74q13 14 32 15.5t34 -4.5t23 -18t-1 -24l-24 -37l-46.5 -73l-62.5 -101l-73 -120l-77 -129.5l-74 -130.5q40 4 83.5 7.5t82 5.5t67.5 2.5t40 -2.5q15 -4 16.5 -20
t-5 -33.5t-19 -31t-25.5 -11.5q-16 2 -56.5 0t-88.5 -6.5t-96.5 -10.5t-79.5 -11q-15 -3 -25.5 11t-15 32t-1 34.5t17.5 19.5z" />
    <glyph glyph-name="M" unicode="M" horiz-adv-x="871" 
d="M11 -35q14 38 43 92t65.5 115l78 124.5l81 120l74.5 102.5t59 71q22 23 47.5 31.5t46 5.5t31.5 -16t4 -33l-22 -64t-28 -90t-31 -112t-31 -130l67 91l69 91.5l66 85l57.5 72.5l43.5 53t26 27q12 10 34 11.5t41.5 -5t30 -21.5t-0.5 -36q-5 -11 -17 -41.5l-28.5 -74
l-35.5 -96l-38 -107l-37 -107.5l-32.5 -97.5t-24 -77t-10.5 -45.5q-3 -27 -19.5 -33.5t-35 2t-33.5 29.5t-15 50q0 28 16 81t43 120.5t61.5 143t71.5 148.5q-25 -18 -55.5 -51t-64.5 -77.5t-71 -98l-75 -111.5l-75 -119l-71 -120q-8 -12 -14.5 -15.5t-11.5 -0.5t-9 11.5
t-7 19.5q-11 1 -20 8t-7 24q3 33 15 83t28.5 106l35 113.5l34 106t25.5 83t9 44.5q-32 -36 -66.5 -89t-67.5 -112.5l-64 -120.5l-55 -112l-40 -86.5l-20 -44.5q-6 -14 -23 -17t-32 6t-22.5 31t6.5 58z" />
    <glyph glyph-name="N" unicode="N" horiz-adv-x="695" 
d="M79 -103q-5 -13 -20.5 -12.5t-30 11.5t-22.5 31t2 47q7 18 29.5 63.5t55 105.5l72.5 128.5t81.5 132.5t81.5 116.5t73 81.5q10 8 24 8t26.5 -7t20.5 -20t5 -31q-8 -44 -15 -108.5t-12 -132t-7 -128.5t2 -98q20 59 44.5 118.5l49.5 114.5l48.5 104l43 87l32.5 62.5
t17 31.5q6 10 22.5 11t31.5 -6t22 -21t-6 -33q-9 -13 -29.5 -51.5l-48.5 -94l-60 -122.5l-64 -135.5l-61.5 -134.5t-50.5 -119q-6 -13 -13 -16.5t-14.5 -1t-14 9t-11.5 12.5q-11 -2 -20.5 4t-16.5 27q-7 22 -9 65.5t-1 97.5t4.5 113t8 112t9.5 95.5t10 62.5
q-23 -34 -50.5 -82.5l-56 -103l-56 -112l-52 -111l-44 -98.5t-30.5 -74z" />
    <glyph glyph-name="O" unicode="O" horiz-adv-x="651" 
d="M430 614q35 0 51 -17.5t20 -46.5q35 2 53 -9.5t26 -37.5q15 -50 10 -110t-25.5 -122.5t-54.5 -123t-75.5 -112t-89 -90t-95 -56.5t-93 -12.5t-84.5 42.5q-55 53 -66 125t10 149t66.5 152.5t104 135t122 96.5t120.5 37zM120 -21q29 -19 71.5 -0.5t87 62t87 105.5t73 131
t43.5 137.5t0 125.5q-33 6 -67.5 -9.5t-69.5 -45t-69 -70.5t-64 -86q-34 -51 -63 -105.5t-44.5 -103t-13.5 -86.5t29 -55z" />
    <glyph glyph-name="P" unicode="P" horiz-adv-x="665" 
d="M204 559q35 16 87 28.5t108 17.5t110.5 1.5t94.5 -18.5q31 -12 53 -30.5t34 -41t15 -48t-3 -50.5q-7 -28 -29.5 -55t-54.5 -51t-70.5 -44t-76.5 -33.5t-72.5 -20t-59.5 -2.5q-26 4 -45 22.5t-30 39.5l-52.5 -106.5l-49.5 -103.5l-42 -93.5t-31 -75.5q-4 -12 -13.5 -13.5
t-21.5 4.5t-23.5 18t-19 28t-9.5 34.5t6 36.5q17 42 39.5 87l46 89l46.5 84l42 72l32.5 54t18.5 29q16 24 31 32t29.5 12.5t27.5 10.5t26 26q-35 -8 -69.5 -17t-65.5 -18q-18 -5 -26 7t-8 30t6.5 35t18.5 23zM616 496q-6 15 -28 21.5t-54.5 6.5t-72.5 -5t-83 -14l-43 -89.5
l-51 -104.5q37 -7 78 -1.5t80.5 20t74.5 35t59.5 43t36 46t3.5 42.5z" />
    <glyph glyph-name="Q" unicode="Q" horiz-adv-x="636" 
d="M519 -244q15 -17 4 -26.5t-32.5 -11.5t-46.5 3t-38 17q-9 9 -26.5 30.5t-38.5 50t-43 61.5t-40 65q-9 -13 -10 -24.5t-1.5 -20.5t-3.5 -15.5t-16 -10.5q-33 -9 -72.5 1.5t-73 39t-56.5 75.5t-23 112q0 43 19.5 97.5t53 112t78.5 112.5t95.5 98t103.5 69.5t103 26.5
q53 0 88.5 -36.5t46.5 -98t-5 -143t-66 -172.5q-53 -96 -95 -143t-65 -64l40 -54l42 -54.5l41 -51.5zM179 -31q21 0 53 24q-13 25 -18 44q-6 23 1 39.5t19 23.5t25 4t19 -18q4 -11 17 -32q29 35 58.5 79.5t54.5 92.5t44.5 96t28.5 90.5t6 75.5t-21 52q-14 15 -41.5 5
t-63 -41t-76 -80.5t-81.5 -114.5t-66 -126t-30 -108.5t11.5 -76.5t59.5 -29z" />
    <glyph glyph-name="R" unicode="R" horiz-adv-x="651" 
d="M221 418q10 18 20 25t19.5 8.5t18.5 1t19 2.5t20 12t22 30q-44 -8 -78 -16l-47 -11q-22 -5 -27.5 11t3 38.5t28.5 44t49 27.5q75 14 138.5 16t113.5 -7.5t84.5 -29t51.5 -47.5q26 -43 20.5 -84t-43.5 -77t-110.5 -66.5t-181.5 -51.5l90 -109l90 -112.5l73 -92t40 -47.5
q11 -11 4.5 -25.5t-23.5 -23.5t-40.5 -9t-44.5 19q-8 7 -25.5 30.5l-42 57l-54 74l-61 80.5l-62.5 77t-58 64l-52 -109.5l-45 -97l-34 -74.5t-18 -42q-8 -19 -23.5 -16.5t-29 19t-20 43t2.5 55.5q6 19 22.5 54l38 77.5l45.5 87l45.5 84l38 69zM371 502q-23 -39 -47.5 -85.5
l-50.5 -97.5l3.5 -3.5l3.5 -3.5q62 15 122.5 37t105.5 46.5t67 49t9 45.5q-8 12 -29.5 17.5t-51 6t-64 -3t-68.5 -8.5z" />
    <glyph glyph-name="u" unicode="u" horiz-adv-x="480" 
d="M0 254l35.5 37l36 36.5l33.5 32.5t29 24t26 10.5t22.5 -3t13 -14.5t-2.5 -24q-7 -14 -18.5 -33l-25 -39.5l-26 -41t-20.5 -37.5q-25 -51 33 -21q29 16 64 46l67 57q15 13 32 15t29 -3t17.5 -16.5t-1.5 -25.5q-6 -11 -11.5 -26l-10.5 -29q-6 -21 -1.5 -34t23 -10.5
t52 25.5t84.5 74q10 10 21 10t17.5 -7t7 -17.5t-9.5 -20.5q-83 -83 -140 -119.5t-89.5 -38.5t-41 26t5.5 76q13 43 -18 20q-16 -12 -47.5 -39.5t-77.5 -53.5q-26 -14 -51 -19t-39 4t-12 34t29 70q35 60 33.5 66t-33.5 -26q-11 -11 -22 -11t-17.5 6.5t-6.5 17.5t11 22z" />
    <glyph glyph-name="circumflex" unicode="&#x2c6;" horiz-adv-x="344" 
d="M254 434q-19 10 -28.5 33.5t-17.5 49.5l-47.5 -33.5l-33.5 -24.5t-28.5 -22.5l-32.5 -27.5q-10 -9 -16.5 -5t-9.5 14t-2.5 23t6.5 23q7 13 26 31.5t41.5 37.5t45.5 36.5l39 29.5q8 6 19 10.5t21.5 5t18 -4t8.5 -17.5q2 -29 10.5 -64.5t21.5 -64.5q5 -12 3 -20.5t-8.5 -12
t-16 -3t-19.5 5.5z" />
    <glyph glyph-name="caron" unicode="&#x2c7;" horiz-adv-x="308" 
d="M64 618q19 -10 28.5 -33.5t17.5 -49.5l47.5 33.5l33.5 24.5t28.5 22t32.5 28q10 9 16.5 5t9.5 -14t2.5 -23t-6.5 -23q-8 -13 -26.5 -31.5t-41 -37.5t-45.5 -36.5l-39 -29.5q-8 -6 -19 -10.5t-21.5 -5t-18 4t-8.5 17.5q-2 29 -10.5 64.5t-21.5 64.5q-5 12 -3 20.5t8.5 12
t16 3t19.5 -5.5z" />
    <glyph glyph-name="dotaccent" unicode="&#x2d9;" horiz-adv-x="250" 
d="M179 494q-18 -21 -42 -28t-42 6q-10 7 -13.5 19t-2.5 25.5t6.5 27t14.5 24.5q18 21 41.5 25t40.5 -11q16 -16 15 -41.5t-18 -46.5z" />
    <glyph glyph-name="hungarumlaut" unicode="&#x2dd;" horiz-adv-x="386" 
d="M32 468l17.5 40.5t23.5 46t26 39.5t25 21q10 3 21.5 -3.5t20 -18t10 -25.5t-8.5 -26l-27.5 -32l-33.5 -37l-31.5 -32.5t-22.5 -19.5q-11 -6 -17 -3t-8 10.5t-0.5 18t5.5 21.5zM149 480q9 16 25 38t33.5 42t34.5 35t29 17q10 1 21.5 -8t18.5 -23t6.5 -29t-12.5 -25
q-13 -11 -34 -26l-43 -29.5t-40.5 -25.5t-27.5 -14q-12 -4 -17.5 -0.5t-6 11t3 18t9.5 19.5z" />
    <glyph glyph-name="dotlessi" unicode="&#x131;" horiz-adv-x="242" 
d="M0 254q23 24 55.5 52.5t59.5 49.5q13 10 26.5 11t22.5 -5t11.5 -17t-4.5 -24l-14.5 -24.5l-14 -25.5l-17 -32l-22.5 -43q-14 -25 -7 -32t28 1.5t52 31t66 57.5q12 12 23.5 13t18.5 -5t6 -18t-14 -25l-26 -25.5l-35.5 -33t-40.5 -34t-40 -28.5q-31 -20 -56 -23.5t-39.5 7
t-16 35.5t15.5 63l10.5 27t5 18.5t-3.5 5.5t-15 -12t-22 -11t-17.5 6.5t-6.5 17.5t11 22z" />
    <glyph glyph-name="hyphen" unicode="-" horiz-adv-x="373" 
d="M112 276q13 7 38.5 11.5t53.5 6t53 0.5t38 -5q11 -3 14 -15t0 -25t-12 -23.5t-23 -10.5h-62t-42 -0.5t-34 -2.5l-40 -5q-11 -2 -14.5 6t-0.5 20t11 24t20 19z" />
    <glyph glyph-name="equal" unicode="=" horiz-adv-x="519" 
d="M92 236q9 5 31 8.5t50.5 6t60.5 3.5t60.5 0.5t50 -2t30.5 -3.5q11 -3 14 -15t0 -25t-12 -23.5t-23 -10.5h-77.5t-76 -0.5t-68.5 -2.5t-56 -5q-11 -2 -14.5 6t-0.5 20t11 24t20 19zM142 356q9 5 31 8.5t50.5 6t60.5 3.5t60.5 0.5t50 -2t30.5 -3.5q11 -3 14 -15t0 -25
t-12 -23.5t-23 -10.5h-77.5t-76 -0.5t-68.5 -2.5t-56 -5q-11 -2 -14.5 6t-0.5 20t11 24t20 19z" />
    <glyph glyph-name="minus" unicode="&#x2212;" horiz-adv-x="519" 
d="M120 299q9 5 31 8.5t50.5 6t60.5 3.5t60.5 0.5t50 -2t30.5 -3.5q11 -3 14 -15t0 -25t-12 -23.5t-23 -10.5h-77.5t-76 -0.5t-68.5 -2.5t-56 -5q-11 -2 -14.5 6t-0.5 20t11 24t20 19z" />
    <glyph glyph-name="plus" unicode="+" horiz-adv-x="519" 
d="M149 155q0 11 10 32.5t25 48.5q-49 -2 -80 -6q-11 -2 -14.5 6t-0.5 20t11 24t20 19q11 6 42 10t69 6q19 31 35.5 54t24.5 31q11 10 24.5 13t24 0t15 -10.5t-2.5 -19.5l-42 -66q32 0 57.5 -1.5t35.5 -3.5q11 -3 14 -15t0 -25t-12 -23.5t-23 -10.5h-122l-29.5 -51
t-21.5 -43q-5 -11 -15 -15.5t-20.5 -3t-18 8.5t-6.5 21z" />
    <glyph glyph-name="slash" unicode="/" horiz-adv-x="427" 
d="M-131 -74q11 27 44.5 72t81 100.5l105 117.5l116 123.5l115 117.5l101 100l74 71.5t35.5 30.5q10 6 21 0.5t18 -17t8.5 -25t-8.5 -23.5q-17 -19 -65 -65.5l-113 -110l-139.5 -137l-144.5 -147l-128 -140t-90 -115.5q-6 -9 -14 -8t-13.5 9t-7 20.5t3.5 25.5z" />
    <glyph glyph-name="fraction" unicode="&#x2044;" horiz-adv-x="427" 
d="M-131 -74q11 27 44.5 72t81 100.5l105 117.5l116 123.5l115 117.5l101 100l74 71.5t35.5 30.5q10 6 21 0.5t18 -17t8.5 -25t-8.5 -23.5q-17 -19 -65 -65.5l-113 -110l-139.5 -137l-144.5 -147l-128 -140t-90 -115.5q-6 -9 -14 -8t-13.5 9t-7 20.5t3.5 25.5z" />
    <glyph glyph-name="percent" unicode="%" horiz-adv-x="649" 
d="M395 607q30 -5 47.5 -23.5t21 -46t-8.5 -62t-42 -71.5l77.5 53.5l65 43.5t46.5 30t23 13q10 5 20.5 -2t16 -19t5 -25.5t-11.5 -22.5q-19 -16 -65 -47.5l-107 -72.5l-131.5 -89l-139 -96.5l-130.5 -95t-106 -84.5q-9 -7 -16 -4t-10 12t-1 21.5t11 23.5q15 19 43 45.5
t65.5 58l82.5 66.5l92 70q-20 -6 -35 -6q-20 -1 -42.5 6.5t-40 23.5t-27.5 39t-6 54q4 30 33 68.5t72.5 71.5t95.5 53.5t102 13.5zM501 279q31 -5 49 -25t20 -50t-13.5 -67t-50.5 -76q-57 -60 -107.5 -85t-84.5 -26q-20 -1 -42.5 6.5t-40.5 23t-28 39t-5 53.5q4 30 33 69
t72.5 72t95.5 53t102 13zM213 340q12 -2 32 9.5t41 30.5t41 43.5t33.5 48.5t17 46t-7.5 36q-6 7 -18.5 4.5t-29.5 -12.5t-37.5 -27.5t-41.5 -41.5t-35.5 -47t-19.5 -42.5t0.5 -32t24.5 -15.5zM319 13q12 -2 32 9.5t41 30.5t41 43t33 48.5t17 46t-7 35.5q-6 7 -18.5 4.5
t-29.5 -12.5t-37.5 -27.5t-41.5 -41.5t-35.5 -47t-19.5 -42t0.5 -31.5t24.5 -15.5z" />
    <glyph glyph-name="perthousand" unicode="&#x2030;" horiz-adv-x="838" 
d="M395 607q30 -5 47.5 -23.5t21 -46t-8.5 -62t-42 -71.5l77.5 53.5l65 43.5t46.5 30t23 13q10 5 20.5 -2t16 -19t5 -25.5t-11.5 -22.5q-19 -16 -65 -47.5l-107 -72.5l-131.5 -89l-139 -96.5l-130.5 -95t-106 -84.5q-9 -7 -16 -4t-10 12t-1 21.5t11 23.5q15 19 43 45.5
t65.5 58l82.5 66.5l92 70q-20 -6 -35 -6q-20 -1 -42.5 6.5t-40 23.5t-27.5 39t-6 54q4 30 33 68.5t72.5 71.5t95.5 53.5t102 13.5zM711 329q31 -5 49 -25t20 -50t-13.5 -67t-50.5 -76q-57 -60 -107.5 -85t-84.5 -26q-34 -2 -65 17q-44 -35 -81.5 -50.5t-63.5 -16.5
q-20 -1 -42.5 6.5t-40.5 23t-28 39t-5 53.5q4 30 33 69t72.5 72t95.5 53t102 13q7 -2 13 -3.5t12 -3.5q42 29 90 46.5t95 10.5zM213 340q12 -2 32 9.5t41 30.5t41 43.5t33.5 48.5t17 46t-7.5 36q-6 7 -18.5 4.5t-29.5 -12.5t-37.5 -27.5t-41.5 -41.5t-35.5 -47t-19.5 -42.5
t0.5 -32t24.5 -15.5zM529 63q12 -2 32 9.5t41 30.5t41 43t33 48.5t17 46t-7 35.5q-11 13 -44 -5.5t-73 -60.5q4 -29 -9.5 -66t-46.5 -76q8 -4 16 -5zM319 13q15 -2 41 15t52 44q-8 24 -4 50q3 23 20.5 50.5t45.5 55.5q-14 10 -49 -12t-76 -67q-21 -24 -35.5 -47t-19.5 -42
t0.5 -31.5t24.5 -15.5z" />
    <glyph glyph-name="bar" unicode="|" horiz-adv-x="425" 
d="M28 -153q2 29 17 81t39 117.5t54 140l62 148.5l63 142.5l56 122t42.5 87t21.5 38.5q10 13 24.5 12.5t26.5 -9.5t18 -23.5t0 -28.5l-25.5 -54.5l-41.5 -88l-52.5 -111.5l-58.5 -127l-59.5 -133.5l-55 -130.5t-45.5 -119t-31 -98q-3 -11 -12.5 -12t-19 4.5t-17 16.5
t-6.5 25z" />
    <glyph glyph-name="backslash" unicode="\" horiz-adv-x="425" 
d="M245 -172q-11 25 -23.5 73.5t-25 111.5t-24.5 135.5t-22.5 145t-19 140.5l-15 121.5t-9.5 88t-2 39.5q1 15 13 21.5t26 5.5t26.5 -9.5t14.5 -22.5q3 -23 9.5 -80.5l15 -134t20 -166t24 -176t27 -163t29.5 -128.5q3 -10 -5 -16t-19 -6.5t-22.5 4.5t-17.5 16z" />
    <glyph glyph-name="plusminus" unicode="&#xb1;" horiz-adv-x="519" 
d="M149 155q0 11 10 32.5t25 48.5q-49 -2 -80 -6q-11 -2 -14.5 6t-0.5 20t11 24t20 19q11 6 42 10t69 6q19 31 35.5 54t24.5 31q11 10 24.5 13t24 0t15 -10.5t-2.5 -19.5l-42 -66q32 0 57.5 -1.5t35.5 -3.5q11 -3 14 -15t0 -25t-12 -23.5t-23 -10.5h-122l-29.5 -51
t-21.5 -43q-5 -11 -15 -15.5t-20.5 -3t-18 8.5t-6.5 21zM40 69q9 5 31 8.5t50.5 6t60.5 3.5t60.5 0.5t50 -2t30.5 -3.5q11 -3 14 -15t0 -25t-12 -23.5t-23 -10.5h-77.5t-76 -0.5t-68.5 -2.5t-56 -5q-11 -2 -14.5 6t-0.5 20t11 24t20 19z" />
    <glyph glyph-name="multiply" unicode="&#xd7;" horiz-adv-x="519" 
d="M108 126q-13 -2 -21 4.5t-10.5 17t1 21t13.5 15.5q18 11 51.5 37l72.5 58q-14 20 -27.5 41.5t-26.5 44.5q-7 12 -2.5 25.5t14 22.5t22 12t20.5 -5t26.5 -33t38.5 -56l70 59l57 47q11 9 19.5 5t12 -14t2 -24t-10.5 -26q-3 -4 -13.5 -14t-26 -23.5l-35 -30.5l-41.5 -35
q14 -24 23 -44t9 -31q0 -14 -6.5 -27.5t-15 -21.5t-17.5 -9t-13 10q-7 17 -17.5 35t-23.5 38l-47.5 -36.5l-43 -31t-33.5 -22t-21 -9.5z" />
    <glyph glyph-name="colon" unicode=":" horiz-adv-x="273" 
d="M120 80q-14 -23 -37 -30t-42 5q-18 12 -20.5 36t12.5 46q14 23 37.5 30t40.5 -6q18 -11 20.5 -35t-11.5 -46zM228 277q-14 -23 -37 -30t-41 5q-19 12 -21 36t12 46q15 23 38 30t41 -5t20.5 -36t-12.5 -46z" />
    <glyph glyph-name="semicolon" unicode=";" horiz-adv-x="290" 
d="M5 14q18 17 24.5 33t8 31.5t1.5 30t6 29.5q10 26 30 35t38.5 3.5t29.5 -23t2 -44.5q-5 -14 -15.5 -30.5t-24 -33t-28 -31t-27.5 -24.5q-17 -13 -31.5 -15.5t-22 2t-6.5 14.5t15 23zM228 277q-14 -23 -37 -30t-41 5q-19 12 -21 36t12 46q15 23 38 30t41 -5t20.5 -36
t-12.5 -46z" />
    <glyph glyph-name="dollar" unicode="$" horiz-adv-x="485" 
d="M64 -133q1 20 7.5 47.5t17.5 62.5q-45 6 -72 38q-16 20 -18.5 48t4 55.5t21 50.5t32.5 35q21 13 45 13.5t40.5 -7t20 -19.5t-15.5 -23q-30 -22 -47 -42.5t-20.5 -36t6.5 -23.5t34 -3l43 110t49 115q-14 7 -26.5 12.5l-24.5 10.5q-31 13 -45 36.5t-8 51.5t33 57t77 53
q29 14 57.5 23t54.5 14l38 76t20 34q10 13 23 12.5t23 -9.5t14.5 -23.5t-1.5 -28.5l-26 -55q30 -4 52.5 -15.5t34.5 -31.5q20 -34 12.5 -57t-26 -39.5t-41.5 -29t-34 -26.5q-6 -8 -18.5 -6.5t-23 8.5t-16.5 18t0 23t19.5 24l26 23.5t20 22.5t3.5 21q-6 11 -40 3l-40 -82.5
l-45 -94.5q38 -22 60.5 -53t23.5 -66.5t-21.5 -73.5t-73.5 -72q-38 -26 -71.5 -41.5t-62.5 -23.5q-33 -85 -50 -150q-3 -11 -11 -12t-16 4.5t-13.5 16.5t-4.5 25zM252 127q28 18 40.5 35t13.5 32.5t-8 29.5t-24 26l-68 -151q11 6 22 13zM260 437q-24 -12 -38.5 -22.5
t-18.5 -21t4 -22t30 -24.5l22.5 51.5l22.5 49.5z" />
    <glyph glyph-name="sterling" unicode="&#xa3;" horiz-adv-x="513" 
d="M460 485q-26 0 -54 -15.5t-56.5 -42t-56.5 -62t-55 -75.5q24 2 46.5 3t41 1.5t31.5 0t19 -1.5q11 -3 14 -15t0 -25t-12 -23.5t-23 -10.5h-77.5t-85.5 -1l-47 -78.5l-41 -72.5q34 3 72 6t71 4.5t58.5 2t34.5 -1.5q13 -3 14.5 -16t-4.5 -26.5t-16.5 -24.5t-21.5 -9
q-14 2 -48.5 0.5t-76 -5.5t-83 -8.5t-68.5 -8.5q-13 -2 -22 9t-12.5 25t-0.5 27t15 15l22 3q-5 13 -7 26.5t0 27.5q2 12 15.5 39.5t36.5 63.5q-17 -1 -31 -2t-25 -3t-14.5 3t-0.5 13t11 17t20 16q8 5 29.5 9l50.5 9l1 1q36 55 70 97t71 73t78.5 51.5t92.5 32.5q49 10 78 5
t43.5 -18t16 -30.5t-4.5 -30.5q-7 -14 -20.5 -29.5l-28.5 -32t-27.5 -32.5t-17.5 -29t-19.5 -15t-28 4t-22 18.5t-2.5 28.5q7 16 25 35.5l32.5 36.5t18 29t-18.5 12z" />
    <glyph glyph-name="Euro" unicode="&#x20ac;" horiz-adv-x="525" 
d="M424 489q-11 9 -53.5 -19.5t-98.5 -89.5q25 0 44 -1t27 -3q10 -2 13 -10.5t0 -18t-11.5 -17t-21.5 -7.5l-97 2q-5 -8 -10 -15t-10 -15q32 0 56.5 -1t34.5 -3t12.5 -10.5t-0.5 -17.5t-11 -16.5t-21 -7.5h-98q-19 -51 -18 -94.5t21 -63.5q17 -18 37.5 -17.5t41.5 12t42 32
t38.5 43.5t31 46t21.5 39q11 24 28 24t30 -14.5t17 -37.5t-9 -45q-39 -64 -80.5 -101.5t-81 -53.5t-75.5 -12t-65 23t-49 51t-26 72q-8 48 0 95q-19 -1 -35 -1.5t-30 -2.5q-11 -1 -14 5t-0.5 14t10.5 16.5t19 13.5q7 3 24.5 5t40.5 4q3 8 6.5 15.5l7.5 15.5l-48 -4
q-10 -2 -13 4t-0.5 14t10 17t19.5 14q7 3 24 5.5t40 4.5q46 63 114 108t146 62q47 11 75.5 6.5t42.5 -16.5t15.5 -29t-4.5 -30t-19.5 -29l-27.5 -32.5l-26.5 -32.5t-17.5 -29q-5 -14 -19 -15.5t-27 4.5t-21 18.5t-2 28.5q6 15 18.5 29.5l23 27t15 23t-5.5 18.5z" />
    <glyph glyph-name="cent" unicode="&#xa2;" horiz-adv-x="480" 
d="M366 459q-9 5 -25 -2l-77 -176.5t-77 -191.5q23 7 46 25.5t43 40.5t36 44t24 38q11 21 28 21t30 -13t17.5 -33.5t-9.5 -39.5q-59 -84 -122 -117.5t-117 -29.5q-14 -38 -25 -74t-19 -68q-3 -11 -11 -12t-16 4.5t-13.5 16.5t-4.5 25q1 23 8 55.5t19 70.5q-31 17 -51.5 45.5
t-27.5 65.5q-10 54 6 104.5t50 94.5t83.5 79t107.5 57q26 60 45 99.5t24 45.5q10 13 25.5 18t29 2.5t20.5 -11.5t1 -23l-19.5 -43l-28.5 -63q41 6 65.5 1t36.5 -16t13 -24.5t-5 -24.5q-6 -12 -19.5 -26l-28 -28.5t-27 -28.5t-17.5 -26t-19 -13.5t-27.5 4t-21.5 16.5t-1 25
q6 13 18.5 26l23 24t15 20t-5.5 16zM119 102q21 63 47 131.5l52 134.5l-15.5 -15.5l-15.5 -15.5q-32 -32 -52 -67.5t-28 -67.5t-5 -58.5t17 -41.5z" />
    <glyph glyph-name="divide" unicode="&#xf7;" horiz-adv-x="519" 
d="M120 299q9 5 31 8.5t50.5 6t60.5 3.5t60.5 0.5t50 -2t30.5 -3.5q11 -3 14 -15t0 -25t-12 -23.5t-23 -10.5h-77.5t-76 -0.5t-68.5 -2.5t-56 -5q-11 -2 -14.5 6t-0.5 20t11 24t20 19zM230 110q-14 -23 -37 -30t-42 5q-18 12 -20.5 36t12.5 46q14 23 37.5 30t40.5 -6
q18 -11 20.5 -35t-11.5 -46zM368 377q-14 -23 -37 -30t-41 5q-19 12 -21 36t12 46q15 23 38 30t41 -5t20.5 -36t-12.5 -46z" />
    <glyph glyph-name="numbersign" unicode="#" horiz-adv-x="505" 
d="M51 80q0 6 10 29q-10 -2 -15 -2q-11 -2 -14.5 6t-0.5 20t11 24t20 19q10 6 42 12l64 104l-42 -5q-11 -2 -14.5 6t-0.5 20t11 24t20 19q8 4 29 8t50 9l33 47t19 24q11 10 24.5 13t24 0t15 -10.5t-2.5 -19.5l-29 -45l59 5q17 26 30.5 44t18.5 23q11 10 24.5 13t24 0
t15 -10.5t-2.5 -19.5l-13.5 -21.5l-16.5 -24.5q47 2 61 -2q11 -3 14 -15t0 -25t-12 -23.5t-23 -10.5q-20 0 -43 -0.5t-48 -2.5l-33 -50.5l-31 -50.5h22t14 -2q11 -3 14 -15t0 -25t-12 -23.5t-23 -10.5q-15 0 -31 -0.5t-33 -1.5q-10 -17 -17.5 -31t-11.5 -23
q-5 -11 -15 -15.5t-20.5 -3t-18 8.5t-6.5 21q0 5 4 14l10 23l-67 -8l-16 -29l-11 -21q-5 -11 -15 -15.5t-20.5 -3t-18 8.5t-6.5 21zM250 207l29.5 48.5l31.5 50.5l-59 -5l-64 -100z" />
    <glyph glyph-name="asterisk" unicode="*" horiz-adv-x="519" 
d="M157 261q2 8 11.5 22t24.5 32q-17 -1 -32 -2t-27 -3q-11 -2 -14.5 6t-0.5 20t11 24t20 19q8 5 28.5 8.5t46.5 5.5q-7 20 -11 36.5l-6 24.5q-4 14 5.5 25t23 16t27.5 2.5t19 -15.5q5 -12 9 -24.5t7 -25.5q23 23 40.5 39t25.5 21q13 8 27.5 6t25.5 -9.5t14.5 -18.5
t-6.5 -21l-53 -52q21 -1 37 -2t23 -3q11 -3 14 -15t0 -25t-12 -23.5t-23 -10.5h-88q4 -13 8.5 -24t12.5 -21q6 -9 5 -20.5t-7.5 -20t-17 -11t-21.5 5.5q-9 5 -19.5 23.5t-21.5 42.5l-29 -30t-21 -26q-6 -9 -17 -11.5t-21 1t-16 12.5t-2 22z" />
    <glyph glyph-name="brokenbar" unicode="&#xa6;" horiz-adv-x="438" 
d="M28 -153q2 38 12 82.5t23.5 89t29.5 86.5t31 75.5t27 56.5t18 29q10 13 24.5 12.5t26.5 -9.5t18 -23.5t0 -28.5q-15 -35 -33 -70.5t-38 -81.5t-41 -106.5t-43 -145.5q-3 -11 -12.5 -12t-19 4.5t-17 16.5t-6.5 25zM220 342q3 26 15 62.5t28 77t34.5 81l35.5 74.5
t30.5 57.5t19.5 29.5q10 13 24.5 12.5t26.5 -9.5t18 -23.5t0 -28.5q-15 -35 -39.5 -82.5l-50 -98l-49 -99.5t-36.5 -87q-4 -11 -14 -12t-20 5t-17.5 16.5t-5.5 24.5z" />
    <glyph glyph-name="quotesingle" unicode="'" horiz-adv-x="4" 
d="M23 448q7 19 18.5 47.5t25 56t27.5 49.5t26 30q10 7 25 6.5t27.5 -7t19 -18t-0.5 -27.5q-8 -17 -26 -41t-38 -48l-38 -44t-25 -27q-8 -8 -17 -9.5t-15.5 2t-9.5 11.5t1 19z" />
    <glyph glyph-name="parenleft" unicode="(" horiz-adv-x="414" 
d="M549 622q18 -1 26 -6.5t8 -12t-8.5 -12.5t-23.5 -8q-34 -5 -73.5 -33.5t-80 -71t-80 -96.5t-73 -110.5t-58 -112t-36 -102t-7 -79.5t29.5 -46q19 -12 21 -20.5t-4.5 -13.5t-19 -6t-23.5 4q-24 9 -41.5 29t-28 47t-13.5 60.5t3 70.5q7 44 31 100.5t60 115t81.5 114.5
t96.5 99.5t105.5 68t107.5 21.5z" />
    <glyph glyph-name="parenright" unicode=")" horiz-adv-x="414" 
d="M-133 -102q-18 1 -26 6.5t-8 12t8.5 12.5t23.5 8q34 5 73.5 33.5t80 71t80 96.5t73 110.5t58 112t36 102t7 79.5t-29.5 46q-19 12 -21 20.5t4.5 13.5t19 5.5t23.5 -3.5q24 -9 41.5 -29t28 -47t13.5 -60.5t-3 -70.5q-7 -44 -31 -100.5t-60 -115t-81.5 -114.5t-96.5 -99.5
t-105.5 -68.5t-107.5 -21z" />
    <glyph glyph-name="bracketleft" unicode="[" horiz-adv-x="414" 
d="M549 622q18 -1 26 -6.5t8 -12t-8.5 -12.5t-23.5 -8q-7 -1 -13 -1h-14q-28 -1 -42.5 -2.5t-26.5 -11.5t-27 -32l-44 -62q-32 -45 -63.5 -97l-61 -105l-56.5 -103.5l-49 -91.5q-20 -37 -32.5 -65t-12.5 -46.5t14.5 -27t49.5 -6.5q22 1 28 -4t0.5 -12.5t-20.5 -13.5t-34 -6
q-93 0 -109 53t29 154q18 40 46.5 92.5t63 109.5t73.5 115t78 109q28 37 46 57.5t35 30t38 10.5t55 -1l47 -4v0z" />
    <glyph glyph-name="bracketright" unicode="]" horiz-adv-x="414" 
d="M-135 -97q-18 1 -26 6.5t-8 12t8.5 12.5t23.5 8q7 1 13 1h14q28 1 42.5 2.5t26.5 11.5t27 31.5l44 62.5q32 45 63.5 97l61 105l56 103.5l49.5 91.5q20 37 32.5 65t12.5 46.5t-15 27t-49 6.5q-22 -2 -28 3.5t-0.5 13t20 13.5t34.5 6q93 0 109 -53.5t-29 -153.5
q-18 -40 -46.5 -92.5t-63 -109.5t-73.5 -115t-78 -109q-28 -37 -46 -57.5t-35 -30t-38 -10.5t-55 1l-47 4v0z" />
    <glyph glyph-name="braceleft" unicode="{" horiz-adv-x="414" 
d="M549 622q18 -1 26 -7t8 -13t-8.5 -12.5t-23.5 -6.5q-48 -2 -80 -22t-55.5 -50t-43 -65t-42 -67t-52 -56t-74.5 -32q24 -14 23 -41t-14 -61.5t-31.5 -72.5t-30 -73t-9.5 -64.5t31 -46.5q19 -11 21.5 -20t-4.5 -14t-19.5 -6t-23.5 4q-24 9 -43 29t-30.5 47.5t-13.5 61
t7 69.5q8 30 24 60l28.5 54.5t15 41t-16.5 20.5q-10 2 -12 8.5t1.5 14t12.5 13.5t20 6q20 0 40.5 20.5t43.5 51l48.5 66t55.5 66.5q25 26 53.5 45t58 31t57.5 17t52 4z" />
    <glyph glyph-name="braceright" unicode="}" horiz-adv-x="414" 
d="M-132 -102q-18 1 -26 7t-8 13t8.5 12.5t23.5 6.5q48 2 80 22t55.5 50t43 65t42 67t52 56t74.5 32q-24 14 -23 41t14 61.5t31.5 72.5t30 73t9.5 64.5t-31 46.5q-19 11 -21.5 20t4.5 14t19.5 5.5t23.5 -3.5q24 -9 43 -29t30.5 -47.5t13.5 -61t-7 -69.5q-8 -30 -24 -60
l-28.5 -54.5t-15 -41t16.5 -20.5q10 -2 12 -8.5t-1.5 -14t-12.5 -13.5t-20 -6q-20 0 -40.5 -20.5t-43.5 -51l-48.5 -66t-55.5 -66.5q-25 -26 -53.5 -45t-58 -31t-57.5 -17.5t-52 -3.5z" />
    <glyph glyph-name="asciitilde" unicode="~" horiz-adv-x="482" 
d="M97 253q32 34 63.5 48t56.5 12.5t39 -17.5t12 -43t5.5 -35t19.5 -2t25.5 25t24.5 48q5 13 19 14.5t24 -7.5t9 -28t-26 -47q-35 -38 -67 -54t-56 -14.5t-37.5 18.5t-12.5 45t-9 31.5t-25.5 -5t-33 -23.5t-31.5 -25t-20 -6t-5 14.5t7.5 24.5t17.5 26z" />
    <glyph glyph-name="asciicircum" unicode="^" horiz-adv-x="344" 
d="M318 375q-22 11 -33.5 38t-19.5 57l-55 -38t-38.5 -28l-32.5 -26t-37 -32q-11 -10 -19 -5.5t-11.5 16t-2.5 26.5t7 26q9 15 30.5 36.5t47.5 43.5t52.5 42l44.5 34q9 7 22 12t25 6t20.5 -4.5t9.5 -20.5q3 -34 12.5 -74.5t24.5 -74.5q6 -14 4 -23.5t-9.5 -14t-18.5 -3.5
t-23 7z" />
    <glyph glyph-name="less" unicode="&#x3c;" horiz-adv-x="429" 
d="M278 143q0 -13 -4 -23t-11 -15t-16.5 -3t-19.5 14q-24 29 -56 55.5t-61 43.5q-13 7 -14 17.5t4.5 21t16 19.5t20.5 14l50 25t61.5 29t60 24t46.5 11q12 1 24.5 -4.5t19.5 -13t6 -16t-15 -14.5l-45.5 -19t-37.5 -17.5t-42 -22.5l-59 -32l24.5 -22t23 -23t17.5 -24.5
t7 -24.5z" />
    <glyph glyph-name="greater" unicode="&#x3e;" horiz-adv-x="429" 
d="M155 330q0 13 4 23t11 15t16.5 3t19.5 -14q24 -29 56 -55.5t61 -43.5q13 -8 14 -18t-4.5 -20.5t-16 -19.5t-20.5 -14q-20 -11 -50 -25.5l-61.5 -28.5t-60 -24t-46.5 -11q-12 -1 -24.5 4.5t-19.5 13t-6 16t15 14.5q27 10 45.5 18.5l37.5 18l42 22l59 32.5
q-12 10 -24.5 21.5t-23 23.5t-17.5 24.5t-7 24.5z" />
    <glyph glyph-name="guilsinglleft" unicode="&#x2039;" horiz-adv-x="429" 
d="M278 143q0 -13 -4 -23t-11 -15t-16.5 -3t-19.5 14q-24 29 -56 55.5t-61 43.5q-13 7 -14 17.5t4.5 21t16 19.5t20.5 14l50 25t61.5 29t60 24t46.5 11q12 1 24.5 -4.5t19.5 -13t6 -16t-15 -14.5l-45.5 -19t-37.5 -17.5t-42 -22.5l-59 -32l24.5 -22t23 -23t17.5 -24.5
t7 -24.5z" />
    <glyph glyph-name="guilsinglright" unicode="&#x203a;" horiz-adv-x="429" 
d="M155 330q0 13 4 23t11 15t16.5 3t19.5 -14q24 -29 56 -55.5t61 -43.5q13 -8 14 -18t-4.5 -20.5t-16 -19.5t-20.5 -14q-20 -11 -50 -25.5l-61.5 -28.5t-60 -24t-46.5 -11q-12 -1 -24.5 4.5t-19.5 13t-6 16t15 14.5q27 10 45.5 18.5l37.5 18l42 22l59 32.5
q-12 10 -24.5 21.5t-23 23.5t-17.5 24.5t-7 24.5z" />
    <glyph glyph-name="guillemotleft" unicode="&#xab;" horiz-adv-x="604" 
d="M278 143q0 -13 -4 -23t-11 -15t-16.5 -3t-19.5 14q-24 29 -56 55.5t-61 43.5q-13 7 -14 17.5t4.5 21t16 19.5t20.5 14l50 25t61.5 29t60 24t46.5 11q12 1 24.5 -4.5t19.5 -13t6 -16t-15 -14.5l-45.5 -19t-37.5 -17.5t-42 -22.5l-59 -32l24.5 -22t23 -23t17.5 -24.5
t7 -24.5zM448 133q0 -13 -4 -23t-11 -15t-16.5 -3t-19.5 14q-24 29 -56 55.5t-61 43.5q-13 7 -14 17.5t4.5 21t16 19.5t20.5 14l50 25t61.5 29t60 24t46.5 11q12 1 24.5 -4.5t19.5 -13t6 -16t-15 -14.5l-45.5 -19t-37.5 -17.5t-42 -22.5l-59 -32l24.5 -22t23 -23t17.5 -24.5
t7 -24.5z" />
    <glyph glyph-name="guillemotright" unicode="&#xbb;" horiz-adv-x="619" 
d="M155 330q0 13 4 23t11 15t16.5 3t19.5 -14q24 -29 56 -55.5t61 -43.5q13 -8 14 -18t-4.5 -20.5t-16 -19.5t-20.5 -14q-20 -11 -50 -25.5l-61.5 -28.5t-60 -24t-46.5 -11q-12 -1 -24.5 4.5t-19.5 13t-6 16t15 14.5q27 10 45.5 18.5l37.5 18l42 22l59 32.5
q-12 10 -24.5 21.5t-23 23.5t-17.5 24.5t-7 24.5zM355 330q0 13 4 23t11 15t16.5 3t19.5 -14q24 -29 56 -55.5t61 -43.5q13 -8 14 -18t-4.5 -20.5t-16 -19.5t-20.5 -14q-20 -11 -50 -25.5l-61.5 -28.5t-60 -24t-46.5 -11q-12 -1 -24.5 4.5t-19.5 13t-6 16t15 14.5
q27 10 45.5 18.5l37.5 18l42 22l59 32.5q-12 10 -24.5 21.5t-23 23.5t-17.5 24.5t-7 24.5z" />
    <glyph glyph-name="at" unicode="@" horiz-adv-x="720" 
d="M331 531q59 24 114 27.5t99.5 -10.5t76.5 -44.5t45 -73t3.5 -96.5t-46.5 -115q-15 -24 -36.5 -47.5t-45.5 -44.5t-49.5 -38t-47.5 -26q-25 -11 -44.5 -7.5t-30 17.5t-9.5 38t17 56q17 33 13 39.5t-18 -3.5q-8 -5 -28 -24.5l-45.5 -45l-52.5 -51.5t-48 -44
q-17 -15 -37 -13t-33.5 18.5t-16 45.5t15.5 67q18 39 47.5 78.5t67 73t81 58.5t89.5 35q18 4 32 -2t20 -16t2.5 -20t-20.5 -14q-30 -7 -63.5 -27.5t-64 -45t-56 -50l-40.5 -41.5q-15 -17 -20.5 -29.5t-4 -18.5t9 -4.5t19.5 13.5t31.5 29.5l42.5 36.5l47.5 37.5t46.5 31.5
t41 14.5t29.5 -9.5t9.5 -33t-19 -55q-12 -21 -12.5 -33t4.5 -17.5t14 -5t17 4.5q59 26 110 107q20 32 27.5 67t1 67t-25.5 57t-51.5 38t-78.5 10.5t-105 -26.5q-30 -12 -57 -27.5t-53 -35t-52.5 -43l-55.5 -51.5q-58 -56 -86.5 -110t-34 -100t9.5 -81.5t45 -53.5t72 -15.5
t90 31.5q22 13 42.5 13.5t29.5 -8t3.5 -23.5t-33.5 -33q-51 -31 -110 -32.5t-110 21.5t-85 67.5t-34 105.5q0 49 30 110.5t82.5 122.5t125 116t156.5 90z" />
    <glyph glyph-name="copyright" unicode="&#xa9;" horiz-adv-x="877" 
d="M675 661q73 0 120.5 -40.5t61 -108.5t-10.5 -158.5t-93 -190.5q-53 -77 -107.5 -133.5t-106 -95t-98 -60t-83.5 -28.5q-47 -8 -100 2.5t-98.5 40.5t-75.5 80t-30 121q0 47 24.5 108t68 124t103 124t128.5 109t144.5 77t152.5 29zM255 -87q54 0 111 24t112 63.5t105.5 92
t91 110t68.5 117t39 113.5t1.5 99t-44.5 74q-22 18 -74.5 8t-120 -45t-142 -93.5t-140.5 -136.5t-101 -154t-37.5 -137t30 -98t101.5 -37zM574 451q-6 4 -22 -2t-39.5 -22t-52.5 -42t-60 -60q-32 -34 -51 -71t-26.5 -71t-3.5 -61t19 -41q17 -16 37 -16t40.5 10.5t40.5 29
t37.5 39.5t31 41.5t20.5 35.5q11 22 27.5 22t29 -13t17.5 -34.5t-8 -40.5q-58 -87 -119.5 -121.5t-114 -30t-90 41t-46.5 91.5q-11 64 11 124t66.5 109.5t106.5 84.5t130 49q46 10 74 6t41.5 -15.5t15.5 -26.5t-4 -27q-7 -12 -20 -26.5l-27 -29t-26 -29t-17 -26.5t-18.5 -14
t-26.5 3.5t-21 17t-2 25.5t18.5 27t22.5 24.5t14.5 21t-5.5 17.5z" />
    <glyph glyph-name="registered" unicode="&#xae;" horiz-adv-x="877" 
d="M675 661q73 0 120.5 -40.5t61 -108.5t-10.5 -158.5t-93 -190.5q-21 -31 -42.5 -58l-42.5 -51q21 -23 36.5 -37.5t20.5 -18.5q10 -8 3.5 -18.5t-21.5 -17t-35 -6.5t-39 14q-4 3 -10 9l-14 14q-72 -67 -137 -102t-114 -45q-47 -8 -100 2.5t-98.5 40.5t-75.5 80t-30 121
q0 47 24.5 108t68 124t103 124t128.5 109t144.5 77t152.5 29zM255 -87q72 1 148.5 41.5t145.5 104.5l-44.5 50l-48 51l-48 47.5t-44.5 39.5l-46 -79.5l-40 -70.5l-30 -54t-16 -30q-7 -14 -20.5 -12t-25.5 14t-18 31t2 40q6 14 20.5 39.5t33.5 56l40 63l40.5 61l34 49.5
l20.5 30q14 19 26.5 22t25 3t25.5 4.5t29 27.5q-39 -6 -69.5 -12t-41.5 -8q-10 -2 -13 -1q-41 -38 -79 -82q-66 -78 -101 -154t-37.5 -137t30 -98t101.5 -37zM739 606q-15 12 -43 11.5t-65 -12t-81 -34t-91 -54.5q110 11 184 -5t101 -52q46 -62 -20 -116t-259 -85l70 -69
l72 -72q57 63 100 134.5t64 138.5t15 123.5t-47 91.5zM491 445q-20 -28 -41.5 -61.5l-44.5 -69.5l7 -6q55 11 108 27t93 33.5t59.5 35.5t7.5 33q-7 9 -26 12.5t-45 4t-57 -2t-61 -6.5z" />
    <glyph glyph-name="quotedbl" unicode="&#x22;" horiz-adv-x="281" 
d="M66 390l15.5 48t20 57t22 50.5t23.5 30.5q10 7 25 7t28 -6t20 -17.5t0 -27.5q-8 -17 -23.5 -41.5t-33 -49l-33.5 -45t-23 -27.5q-8 -9 -16.5 -10.5t-15.5 1.5t-10 11t1 19zM178 390q8 19 23 46.5t32.5 54t34.5 47.5t29 28q10 6 25 4.5t27.5 -8.5t18.5 -19.5t-3 -27.5
q-9 -16 -30.5 -39t-45 -45.5l-44 -41l-28.5 -25.5q-8 -8 -17 -8.5t-15.5 3.5t-9 12t2.5 19z" />
    <glyph glyph-name="quotedblright" unicode="&#x201d;" horiz-adv-x="275" 
d="M84 428q18 18 24 35t7.5 33.5t1 32.5t5.5 32q10 27 29.5 36.5t37.5 4t29 -24.5t2 -48q-5 -14 -15 -32t-23.5 -35.5t-28 -33.5t-26.5 -26q-16 -14 -30 -16.5t-21.5 2.5t-6.5 15.5t15 24.5zM209 443q19 16 26.5 33t10 33.5t3.5 32.5t8 31q12 26 32 33.5t38 0.5t27 -26.5
t-2 -47.5q-6 -14 -17.5 -31t-26 -33.5t-30 -31t-28.5 -23.5q-17 -13 -31 -14.5t-21 3.5t-5.5 16t16.5 24z" />
    <glyph glyph-name="quotedblleft" unicode="&#x201c;" horiz-adv-x="275" 
d="M325 560q-18 -18 -24 -35t-7.5 -33.5t-1 -32.5t-5.5 -32q-10 -27 -29.5 -36.5t-37.5 -4t-29 24.5t-2 48q4 14 14.5 32t24 35.5t28 33t26.5 26.5q16 14 30 16.5t21.5 -2.5t6 -16t-14.5 -24zM200 545q-19 -17 -26.5 -33.5t-10 -33t-3.5 -32.5t-8 -31q-12 -26 -32 -33.5
t-38 -0.5t-27 26.5t2 47.5q6 14 17.5 30.5t26 33t30 31.5t28.5 24q17 13 31 14.5t21 -3.5t5.5 -16t-16.5 -24z" />
    <glyph glyph-name="quoteleft" unicode="&#x2018;" horiz-adv-x="162" 
d="M200 545q-19 -17 -26.5 -33.5t-10 -33t-3.5 -32.5t-8 -31q-12 -26 -32 -33.5t-38 -0.5t-27 26.5t2 47.5q6 14 17.5 30.5t26 33t30 31.5t28.5 24q17 13 31 14.5t21 -3.5t5.5 -16t-16.5 -24z" />
    <glyph glyph-name="quoteright" unicode="&#x2019;" horiz-adv-x="164" 
d="M84 428q18 18 24 35t7.5 33.5t1 32.5t5.5 32q10 27 29.5 36.5t37.5 4t29 -24.5t2 -48q-5 -14 -15 -32t-23.5 -35.5t-28 -33.5t-26.5 -26q-16 -14 -30 -16.5t-21.5 2.5t-6.5 15.5t15 24.5z" />
    <glyph glyph-name="daggerdbl" unicode="&#x2021;" horiz-adv-x="527" 
d="M257 573q11 6 39.5 10t64.5 6l45.5 93.5t23.5 41.5q10 13 24.5 12.5t26.5 -9.5t18 -23.5t0 -28.5l-39 -84q28 0 50 -1.5t30 -3.5q11 -3 14 -15t0 -25t-12 -23.5t-23 -10.5h-97l-46 -97.5l-50.5 -108.5l-51 -114l-48.5 -113q33 0 58.5 -1.5t35.5 -3.5q11 -3 14 -15t0 -25
t-12 -23.5t-23 -10.5h-105l-38 -101.5t-26 -85.5q-3 -11 -12.5 -12t-19 4.5t-17 16.5t-6.5 25q2 24 12 63t27 89q-27 -1 -51 -2.5t-42 -4.5q-11 -2 -14.5 6t-0.5 20t11 24t20 19q11 6 40 10t66 6q19 51 42 107l46.5 112l47.5 110.5l46 103.5q-24 -1 -45.5 -2.5t-38.5 -3.5
q-11 -2 -14.5 6t-0.5 20t11 24t20 19z" />
    <glyph glyph-name="dagger" unicode="&#x2020;" horiz-adv-x="527" 
d="M257 573q11 6 39.5 10t64.5 6l45.5 93.5t23.5 41.5q10 13 24.5 12.5t26.5 -9.5t18 -23.5t0 -28.5l-39 -84q28 0 50 -1.5t30 -3.5q11 -3 14 -15t0 -25t-12 -23.5t-23 -10.5h-97l-52.5 -111.5l-57 -124.5l-57 -129l-53 -125.5t-43.5 -114t-29 -94.5q-3 -11 -12.5 -12
t-19 4.5t-17 16.5t-6.5 25q1 25 13 68.5t31.5 98.5l44 118.5l52 128.5l55.5 129l54 120q-24 -1 -45.5 -2.5t-38.5 -3.5q-11 -2 -14.5 6t-0.5 20t11 24t20 19z" />
    <glyph glyph-name="underscore" unicode="_" horiz-adv-x="0" 
d="M-568 -203q15 13 56.5 26.5t101.5 27t136 26t161 23.5t175 18.5t179.5 11.5t174 3t158.5 -8q28 -2 41.5 -19t16 -36t-4 -34t-19.5 -14q-62 8 -148.5 12t-187.5 3t-211.5 -8t-220.5 -20.5t-214.5 -34t-193.5 -48.5q-11 -4 -16.5 3t-5.5 18.5t5 25.5t17 24z" />
    <glyph glyph-name="florin" unicode="&#x192;" horiz-adv-x="281" 
d="M391 670q-11 -21 -37.5 -54.5l-56.5 -69l-58 -69t-42 -54.5l-64 -95.5t-55 -86.5q31 -12 59 -12t49 3t34.5 6t16.5 -2q6 -12 -15 -28t-53 -28t-69 -16.5t-64 4.5q-22 -39 -38.5 -72l-30 -62.5t-24.5 -58l-22 -58.5q-10 -29 -8.5 -43.5t11.5 -13t26 20t36 55.5
q23 44 36 83.5t18 77.5q1 7 8.5 8t9.5 -6q12 -38 10 -84.5t-19 -93.5q-24 -65 -52 -107.5t-55.5 -64.5t-52 -24t-40.5 13t-21.5 45.5t5.5 74.5q21 83 61 173.5t91 182.5q-5 12 -5 25q0 27 13.5 46t33.5 19q4 0 7 -3l74.5 121l77.5 118.5l72.5 103.5t60.5 77q21 24 39 26.5
t29 -7.5t13 -29.5t-9 -40.5z" />
    <glyph glyph-name="quotesinglbase" unicode="&#x201a;" horiz-adv-x="243" 
d="M-36 -32q18 18 24 35t7.5 33.5t1 32.5t5.5 32q10 27 29.5 36.5t37.5 4t29 -24.5t2 -48q-5 -14 -15 -32t-23.5 -35.5t-28 -33.5t-26.5 -26q-16 -14 -30 -16.5t-21.5 2.5t-6.5 15.5t15 24.5z" />
    <glyph glyph-name="quotedblbase" unicode="&#x201e;" horiz-adv-x="350" 
d="M-56 -32q18 18 24 35t7.5 33.5t1 32.5t5.5 32q10 27 29.5 36.5t37.5 4t29 -24.5t2 -48q-5 -14 -15 -32t-23.5 -35.5t-28 -33.5t-26.5 -26q-16 -14 -30 -16.5t-21.5 2.5t-6.5 15.5t15 24.5zM69 -17q19 16 26.5 33t10 33.5t3.5 32.5t8 31q12 26 32 33.5t38 0.5t27 -26.5
t-2 -47.5q-6 -14 -17.5 -31t-26 -33.5t-30 -31t-28.5 -23.5q-17 -13 -31 -14.5t-21 3.5t-5.5 16t16.5 24z" />
    <glyph glyph-name="ellipsis" unicode="&#x2026;" horiz-adv-x="590" 
d="M128 75q-20 -29 -46.5 -38.5t-43.5 6.5q-16 15 -13.5 46.5t22.5 59.5q22 29 48 38t43 -6q17 -17 13.5 -47t-23.5 -59zM289 85q-20 -29 -46 -39t-43 6q-16 17 -13.5 47.5t23.5 58.5q21 29 47 38.5t42 -6.5q17 -16 14 -46.5t-24 -58.5zM441 103q-20 -28 -45 -37.5t-42 4.5
q-16 17 -13 47t23 59q19 26 44.5 35t41.5 -7q8 -7 11 -19t2 -25.5t-6.5 -28.5t-15.5 -28z" />
    <glyph glyph-name="OE" unicode="&#x152;" horiz-adv-x="883" 
d="M430 614q35 0 51 -17.5t20 -46.5h18q2 18 19 26q21 9 67 17.5t97.5 14t99 8t71.5 1.5q24 -2 40.5 -18.5t24 -36t5.5 -35t-15 -13.5q-14 2 -38.5 1t-55.5 -3t-65.5 -6l-68 -8t-63.5 -8l-52 -7q7 -32 6.5 -66.5t-7.5 -71.5q68 14 125 18t80 -1q14 -4 21 -21.5t8 -37
t-4.5 -34t-15.5 -11.5q-26 6 -57.5 7t-63.5 -1.5t-63.5 -7.5t-58.5 -10q-29 -76 -74.5 -146.5t-101.5 -123.5q30 2 75.5 7.5t93 10t89.5 6.5t65 -3q25 -6 41 -25.5t22 -39t0 -33t-25 -7.5q-13 4 -41 5t-64 -0.5t-76 -4.5t-77 -7t-67 -8t-45 -7q-8 -2 -15 3.5t-12.5 15
t-9 21.5t-3.5 24q-33 -25 -67.5 -40t-67.5 -18.5t-64 7t-58 36.5q-55 53 -66 125t10 149t66.5 152.5t104 135t122 96.5t120.5 37zM120 -21q29 -19 71.5 -0.5t87 62t87 105.5t73 131t43.5 137.5t0 125.5q-33 6 -67.5 -9.5t-69.5 -45t-69 -70.5t-64 -86q-34 -51 -63 -105.5
t-44.5 -103t-13.5 -86.5t29 -55z" />
    <glyph glyph-name="AE" unicode="&#xc6;" horiz-adv-x="930" 
d="M366 16q-5 19 6 56t34 86q-21 -1 -44 -2.5t-47 -3.5l-46.5 -4t-41.5 -3l-58 -83l-46.5 -71.5l-34.5 -56.5l-21 -36q-15 -25 -29.5 -20t-24 25t-11 47.5t9.5 47.5q20 37 47.5 80t62.5 89q-15 18 -19.5 37.5t14.5 24.5q9 2 24 3.5l35 3.5q38 47 80 93.5t86.5 90t90.5 82
t92 68.5q27 18 47 26.5t34.5 9.5t24.5 -3.5t18 -13.5q32 7 73.5 12.5t83 9.5t76.5 5.5t55 0.5q24 -2 40.5 -18.5t24 -36t5.5 -35t-15 -13.5q-20 3 -63 0.5t-93 -8l-99.5 -11.5t-82.5 -11q-7 -19 0 -27t15 -12.5t12.5 -10t-7.5 -18.5q-7 -8 -19.5 -28l-29.5 -49q37 9 73 14.5
t66.5 8.5t53.5 3t35 -3q14 -4 21 -21.5t8 -37t-4.5 -34t-15.5 -11.5q-34 7 -75.5 6.5t-82.5 -5.5t-77.5 -12t-60.5 -13q-18 -33 -34.5 -67.5t-31 -68.5t-25 -65t-16.5 -56q32 3 76 8.5t88 9.5t83 5.5t60 -3.5q25 -6 41 -25.5t22 -39t0 -33t-25 -7.5q-13 4 -41 5t-64 -0.5
t-76 -4.5t-77 -7t-67 -8t-45 -7q-11 -3 -20.5 8.5t-15 28t-5.5 34.5t8 28q-12 10 -21.5 21.5t-13.5 25.5zM298 240q37 -1 74.5 -2.5t72.5 -4.5q32 60 75 124.5t92 129.5q-8 7 -15.5 18t-11.5 23q-81 -60 -153 -135.5t-134 -152.5z" />
    <glyph glyph-name="Thorn" unicode="&#xde;" horiz-adv-x="665" 
d="M330 611q16 23 39 36.5t43.5 18.5t33 1.5t6.5 -15.5l-34.5 -70.5l-43.5 -88.5q43 1 82 -4t69 -16q31 -12 53 -30.5t34 -41t15 -48t-3 -50.5q-7 -28 -30.5 -59t-56.5 -60.5t-72.5 -56t-78.5 -45.5t-74.5 -29t-60.5 -6q-23 3 -41 18t-29 35l-56 -120.5t-35 -84.5
q-4 -12 -13.5 -13.5t-21.5 4.5t-23.5 18t-19 28t-9.5 34.5t6 36.5q13 32 33.5 75l45 91l51.5 99l54 100l-35.5 -9.5t-33.5 -9.5q-18 -5 -26 7t-8 30t6.5 35t18.5 23q26 12 62.5 22t78.5 17l49 86t25 42zM537 381q-6 13 -25 20t-47.5 8t-64 -2.5t-74.5 -10.5l-62.5 -126
l-60.5 -124q37 -3 78.5 7.5t81.5 30.5t75 46t59.5 53t36 53t3.5 45z" />
    <glyph glyph-name="thorn" unicode="&#xfe;" horiz-adv-x="418" 
d="M291 605q18 28 37.5 39t33 5.5t16.5 -26.5t-14 -57q-10 -21 -34 -55l-52 -70.5l-55.5 -70.5t-43.5 -56q-19 -25 -27 -37t-7 -14t9.5 5t23.5 22q45 45 81.5 64.5t60.5 17t32.5 -26t-2.5 -65.5q-14 -46 -46.5 -99t-69.5 -96q-35 -41 -67 -58t-57.5 -16.5t-42.5 15.5t-22 39
q-30 -50 -63 -115l-75 -155q-14 -30 -31.5 -38.5t-32 -0.5t-21 28t1.5 47q7 24 30 68t56 100l73 121l81 131l-29 -32q-12 -12 -23.5 -12.5t-18 6t-6 18t12.5 23.5q18 18 36.5 34.5l39 35l43 40.5l48.5 49l74.5 113.5zM137 190q-14 -15 -27 -31.5l-26 -34.5q-1 -18 8 -31.5
t27.5 -11.5t46 23.5t62.5 74.5q31 46 34.5 68.5t-12.5 23t-46 -20t-67 -60.5z" />
    <glyph glyph-name="germandbls" unicode="&#xdf;" horiz-adv-x="525" 
d="M252 267q-18 -18 -27.5 -12t-8 25.5t13.5 46.5t36 50q39 37 67.5 76t47 73.5t27 61t6.5 39.5t-13.5 8.5t-32.5 -31.5q-76 -102 -126.5 -197.5t-83 -176t-50 -142t-28.5 -96.5q-6 -21 -18 -23t-22.5 8.5t-15.5 31t2 45.5q17 62 39 124t48 122l-78 -81q-12 -12 -23.5 -12
t-17.5 6.5t-5.5 18t11.5 22.5q63 63 113 121l95 112q35 60 70.5 109.5t71.5 85.5q34 35 63 38t47.5 -13.5t24.5 -47.5t-6 -64q-12 -34 -24.5 -60t-26.5 -48.5t-31 -44.5t-39 -47q67 18 52 -66q-7 -38 -21 -74.5t-31 -70t-36.5 -62.5t-37.5 -53l54.5 35t54.5 37.5t60 47.5
t72 65q15 15 29.5 18.5t21.5 -2.5t4.5 -19.5t-20.5 -31.5t-54 -49.5t-77.5 -64.5t-83 -62.5t-71.5 -42.5q-50 -23 -83.5 -28t-49 2t-11 24.5t31.5 40.5q32 27 59 61t47.5 68t33.5 65.5t17.5 52.5t-1 28.5t-22.5 -5.5q-7 -5 -18.5 -16.5z" />
    <glyph glyph-name="Lslash" unicode="&#x141;" horiz-adv-x="513" 
d="M21 -36q5 2 11.5 2.5t14.5 2.5q-5 16 -8 33t0 34q2 13 14 39t30.5 60.5t43.5 75.5l52 85q-60 -18 -87 -28q-11 -4 -15 0t-3 12.5t7 19t16 19.5q8 8 44 21t84 28l48 71l46 65l41.5 54.5t34.5 41.5q13 14 32 15.5t34 -4.5t23 -18t-1 -24q-7 -10 -33.5 -51l-65.5 -104
q40 10 69.5 16.5t38.5 5.5q11 -1 16 -9t4 -17.5t-8.5 -18.5t-20.5 -12q-27 -6 -64 -15.5l-79 -20.5l-107 -177.5l-107 -187.5q40 4 83.5 7.5t82 5.5t67.5 2.5t40 -2.5q15 -4 16.5 -20t-5 -33.5t-19 -31t-25.5 -11.5q-16 2 -56.5 0t-88.5 -6.5t-96.5 -10.5t-79.5 -11
q-15 -3 -25.5 11t-15 32t-1 34.5t17.5 19.5z" />
    <glyph glyph-name="lslash" unicode="&#x142;" horiz-adv-x="326" 
d="M0 254q64 64 123.5 132.5l110.5 131.5q-54 -15 -98 -28.5t-64 -21.5q-11 -4 -15 0t-3 12.5t7 19t16 19.5q6 5 27 13.5t51 19t66.5 21.5l73.5 22l57.5 75t33.5 43q14 18 28 18.5t22 -9.5t8 -28t-14 -36l-12.5 -16.5t-12.5 -17.5q51 12 67 12q11 -1 16 -9t4 -17.5
t-8.5 -18.5t-20.5 -12l-48 -11.5l-58 -14.5q-36 -57 -68.5 -117l-59.5 -114t-46.5 -97.5t-29.5 -68.5q-12 -32 -14 -47t3.5 -17t16.5 5.5t26 21.5l59 55.5l82 79.5q18 19 33 23t21.5 -2.5t3 -21.5t-22.5 -34l-114 -118l-114 -118q-29 -29 -49.5 -38.5t-33 -2.5t-15.5 29
t4 57q7 34 24.5 80t39 92.5l42.5 89.5l36 72t9.5 26t-26.5 -27l-55 -62.5t-74 -79.5q-13 -13 -26 -14.5t-20 4.5t-5.5 18t16.5 27z" />
    <glyph glyph-name="Zcaron" unicode="&#x17d;" horiz-adv-x="610" 
d="M224 591q17 4 49 6.5t72.5 3t84 0t82.5 -3t69.5 -6.5t43.5 -9q32 -14 28.5 -34t-29.5 -43q12 -6 21 -13.5t13 -16t1 -17t-14 -14.5q-103 -57 -188.5 -117t-152.5 -119.5t-115 -114.5t-76 -101q53 6 119.5 10t128.5 4.5t109.5 -5t63.5 -18.5q11 -10 13 -27.5t-2 -34
t-14 -28t-23 -8.5q-30 7 -74 9t-93 1.5t-99 -3t-91 -5t-69 -3.5t-33 1q-14 5 -23 29t-7 59q-10 14 -14.5 28.5t0.5 26.5q16 39 48 78.5t75 80t95.5 80t110 78l118 75.5l119.5 72q-25 6 -58 8t-70 1t-74.5 -3t-71.5 -5l-61.5 -5.5t-42.5 -3.5q-21 -2 -25 13t3 34.5t22 37.5
t31 22zM437 822q19 -10 28.5 -33.5t17.5 -49.5l47.5 33.5l33.5 24.5t28.5 22t32.5 28q10 9 16.5 5t9.5 -14t2.5 -23t-6.5 -23q-8 -13 -26.5 -31.5t-41 -37.5t-45.5 -36.5l-39 -29.5q-8 -6 -19 -10.5t-21.5 -5t-18 4t-8.5 17.5q-2 29 -10.5 64.5t-21.5 64.5q-5 12 -3 20.5
t8.5 12t16 3t19.5 -5.5z" />
    <glyph glyph-name="zcaron" unicode="&#x17e;" horiz-adv-x="406" 
d="M406 254q13 13 25 14.5t18.5 -5.5t5.5 -19t-14 -25q-40 -40 -91.5 -83.5t-111.5 -72.5q-23 -11 -42 -10.5t-35 7.5t-31 18t-31.5 19.5t-35.5 12t-43 -2.5q-15 -13 -34.5 -24.5t-38 -16.5t-33 -2t-19.5 20t1.5 33t23.5 29t44.5 21t64.5 8l77 50l83 51q-47 -6 -65 16
q-3 3 -12 -3t-22 -17t-27.5 -25.5l-27.5 -27.5q-12 -12 -23.5 -12.5t-18 6t-6 18t12.5 23.5l53.5 53t58.5 48q20 14 38 17t31 -1.5t19 -15t3 -22.5t14.5 -8.5t45 13.5l59 22t55.5 18q16 5 25.5 -2t12 -18t-2 -23t-16.5 -17q-22 -10 -55 -27l-72 -38l-81 -44.5l-81 -47.5
q27 -5 51 -15.5t42 -23.5q4 -3 13.5 -1.5t20 6t21 10t17.5 10.5q32 20 66 46.5t68 60.5zM268 618q19 -10 28.5 -33.5t17.5 -49.5l47.5 33.5l33.5 24.5t28.5 22t32.5 28q10 9 16.5 5t9.5 -14t2.5 -23t-6.5 -23q-8 -13 -26.5 -31.5t-41 -37.5t-45.5 -36.5l-39 -29.5
q-8 -6 -19 -10.5t-21.5 -5t-18 4t-8.5 17.5q-2 29 -10.5 64.5t-21.5 64.5q-5 12 -3 20.5t8.5 12t16 3t19.5 -5.5z" />
    <glyph glyph-name="Scaron" unicode="&#x160;" horiz-adv-x="526" 
d="M390 538q-6 8 -24 2t-43 -21t-54 -36t-57 -44t-42.5 -40.5t-10 -32t29.5 -26t76 -21.5q56 -11 95.5 -40t54 -70.5t0 -93t-66.5 -106.5q-48 -51 -92.5 -81.5t-83 -42t-70.5 -6.5t-57 24q-24 19 -34 49.5t-9 63t11.5 62.5t27.5 48q21 20 47.5 26t47 2t27.5 -17t-12 -30
q-40 -46 -51 -82t6 -46t61 13t115 96q32 32 40 57.5t0 44.5t-29 32.5t-48.5 23.5t-57.5 16l-56 11q-38 6 -59.5 29.5t-22 56.5t22.5 72t74 78t100.5 63t93 33t78 2.5t55.5 -28.5q31 -34 29 -61.5t-19 -51t-39.5 -43.5t-31.5 -38q-5 -11 -19 -12.5t-28 4t-23.5 16t-5.5 25.5
t15.5 31.5l23 33t17.5 31t-2 24.5zM370 835q19 -10 28.5 -33.5t17.5 -49.5l47.5 33.5l33.5 24.5t28.5 22t32.5 28q10 9 16.5 5t9.5 -14t2.5 -23t-6.5 -23q-8 -13 -26.5 -31.5t-41 -37.5t-45.5 -36.5l-39 -29.5q-8 -6 -19 -10.5t-21.5 -5t-18 4t-8.5 17.5q-2 29 -10.5 64.5
t-21.5 64.5q-5 12 -3 20.5t8.5 12t16 3t19.5 -5.5z" />
    <glyph glyph-name="scaron" unicode="&#x161;" horiz-adv-x="317" 
d="M0 254l28 27.5l37.5 35t37.5 32t29 19.5q12 6 26 5t26.5 -7t21 -17.5t8.5 -26.5q1 -26 -5 -61t-20 -73q34 10 68 25.5t60 40.5q10 10 21 10.5t17.5 -6t7 -17.5t-11.5 -22q-38 -38 -90.5 -61t-99.5 -30l-23 -34t-26 -32q-26 -28 -54 -33t-47 6.5t-22 36t20 54.5
q15 20 37 33.5t45 19.5q14 5 25 26.5t12 63.5q1 14 -6 16.5t-15 -1.5q-5 -3 -14 -10.5t-19.5 -17.5l-21 -20l-17.5 -17q-12 -11 -23 -11.5t-17.5 6.5t-6.5 18t12 22zM173 608q19 -10 28.5 -33.5t17.5 -49.5l47.5 33.5l33.5 24.5t28.5 22t32.5 28q10 9 16.5 5t9.5 -14
t2.5 -23t-6.5 -23q-8 -13 -26.5 -31.5t-41 -37.5t-45.5 -36.5l-39 -29.5q-8 -6 -19 -10.5t-21.5 -5t-18 4t-8.5 17.5q-2 29 -10.5 64.5t-21.5 64.5q-5 12 -3 20.5t8.5 12t16 3t19.5 -5.5z" />
    <glyph glyph-name="currency" unicode="&#xa4;" horiz-adv-x="519" 
d="M215 420q5 -5 12 -13.5t16 -21.5q25 8 49.5 7t44.5 -12l70 57q11 9 19.5 5t12 -14t2 -24t-10.5 -26q-5 -6 -20 -20l-38 -34q2 -23 -7.5 -48t-26.5 -47q8 -19 8 -29q0 -14 -6.5 -27.5t-15 -21.5t-17.5 -9t-13 10l-6 14.5t-8 15.5q-24 -12 -51 -16t-50 3
q-26 -19 -44.5 -30.5t-26.5 -12.5q-13 -2 -21 4.5t-10.5 17t1 21t13.5 15.5q7 4 17 10.5t22 15.5q-7 15 -6 32.5t7 35.5t17.5 34.5t25.5 30.5q-7 9 -13 22q-7 12 -2.5 25.5t14 22.5t22 12t20.5 -5zM277 250q9 7 17.5 16t13.5 18.5t5.5 19t-4.5 16.5q-11 14 -31.5 9
t-39.5 -19q-9 -7 -18 -17t-14.5 -20t-6.5 -20t4 -17t14 -8.5t19.5 1t21 8.5t19.5 13z" />
    <glyph glyph-name="degree" unicode="&#xb0;" horiz-adv-x="352" 
d="M270 600q25 0 46.5 -9t38 -24t26 -35.5t9.5 -44.5q0 -23 -9.5 -43t-26 -35t-38 -23.5t-46.5 -8.5q-24 0 -45.5 8.5t-37.5 23.5t-25.5 35t-9.5 43q0 24 9.5 44.5t25.5 35.5t37.5 24t45.5 9zM277 440q24 0 40 12.5t16 31.5t-16 32t-40 13q-23 0 -40 -13t-17 -32t17 -31.5
t40 -12.5z" />
    <glyph glyph-name="section" unicode="&#xa7;" horiz-adv-x="485" 
d="M305 372q33 -15 55 -38t28 -51t-5 -58t-44 -58q5 -31 -12.5 -64.5t-62.5 -64.5q-81 -56 -138 -58.5t-85 31.5q-13 16 -15.5 38.5t3 45t17 41.5t26.5 28q17 11 36.5 11t32.5 -6t16 -15.5t-12 -18.5q-35 -25 -48 -48t-3 -33t43.5 -0.5t93.5 48.5q27 17 36.5 33t7 30
t-15 26.5t-30 23.5t-37 19.5l-36.5 15.5q-22 9 -33.5 25t-10.5 35.5t14.5 41t41.5 40.5q-15 28 4.5 64t79.5 65q41 18 78.5 27t68.5 8.5t54 -10.5t34 -29q16 -27 10 -45.5t-21 -32t-33.5 -24t-27.5 -21.5q-5 -6 -15 -5t-18.5 7t-13.5 15t0 18t16 19l21 19.5t16.5 18.5
t2.5 17q-3 6 -16.5 5t-32.5 -7.5t-42.5 -17t-45.5 -21.5q-23 -11 -35 -21t-11.5 -20.5t16 -22t48.5 -26.5zM304 230q21 19 20.5 36.5t-14 32.5t-35.5 27.5t-44 22.5q-21 -11 -31.5 -20.5t-9 -19.5t17 -21.5t47.5 -25.5q29 -14 49 -32z" />
    <glyph glyph-name="ordfeminine" unicode="&#xaa;" horiz-adv-x="640" 
d="M445 539q-30 -7 -63.5 -27.5t-64 -45t-56 -50l-40.5 -41.5q-15 -17 -20.5 -29.5t-4 -18.5t9 -4.5t19.5 13.5t31.5 29.5l42.5 36.5l47.5 37.5t46.5 31.5t41 14.5t29.5 -9.5t9.5 -33t-19 -55q-12 -21 -12.5 -33t4.5 -17.5t14 -5t17 4.5q29 13 67.5 43t72.5 64
q13 13 25.5 14.5t19 -5.5t5 -19t-14.5 -25q-20 -20 -47 -43t-55.5 -45t-56.5 -40.5t-50 -27.5q-25 -11 -44.5 -7.5t-30 17.5t-9.5 38t17 56q17 33 13 39.5t-18 -3.5q-8 -5 -28 -24.5l-45.5 -45l-52.5 -51.5t-48 -44q-17 -15 -37 -13t-33.5 18.5t-16 45.5t15.5 67
q18 39 47.5 78.5t67 73t81 58.5t89.5 35q18 4 32 -2t20 -16t2.5 -20t-20.5 -14z" />
    <glyph glyph-name="periodcentered" unicode="&#xb7;" horiz-adv-x="321" 
d="M239 271q-18 -29 -47.5 -38t-52.5 6q-23 16 -26.5 46.5t15.5 58.5q19 29 48 38t52 -7q23 -15 26.5 -45.5t-15.5 -58.5z" />
    <glyph glyph-name="bullet" unicode="&#x2022;" horiz-adv-x="583" 
d="M407 253q-14 -21 -32.5 -35.5t-39 -21t-41 -4.5t-37.5 13q-18 12 -28 30t-12 39.5t3.5 44t19.5 43.5t33 35.5t39 20.5t40.5 4t37.5 -13q17 -12 27 -30t12.5 -39t-3 -43.5t-19.5 -43.5z" />
    <glyph glyph-name="endash" unicode="&#x2013;" horiz-adv-x="678" 
d="M112 276q9 5 45.5 8.5t87.5 6t109 3.5t108.5 0.5t87 -2t45.5 -3.5q11 -3 14 -15t0 -25t-12 -23.5t-23 -10.5h-66.5h-88.5t-98.5 -0.5t-95 -1.5t-79 -2.5t-50.5 -3.5q-11 -2 -14.5 6t-0.5 20t11 24t20 19z" />
    <glyph glyph-name="emdash" unicode="&#x2014;" horiz-adv-x="989" 
d="M112 276q7 4 42.5 7t90 5t122 3.5t137.5 2l137.5 1t121.5 -0.5t90 -2t42 -3q11 -3 14 -15t0 -25t-12 -23.5t-23 -10.5h-60h-95.5h-118.5t-129.5 -0.5l-127.5 -1t-113 -1.5t-86.5 -2t-47.5 -3q-11 -2 -14.5 6t-0.5 20t11 24t20 19z" />
    <glyph glyph-name="trademark" unicode="&#x2122;" horiz-adv-x="843" 
d="M333 273q8 22 24.5 53t38 66.5l45.5 72.5l47 70t43.5 59.5t34.5 41.5q13 13 27.5 18t26.5 3.5t18.5 -9t2.5 -19.5q-11 -29 -30 -89t-36 -141l59.5 80l58.5 75.5l47 59t27 29.5q7 6 20 6.5t24 -3.5t17 -12.5t0 -20.5q-4 -8 -15 -36.5l-25 -66.5l-29.5 -81.5l-28.5 -82.5
t-22 -68.5t-10 -39.5q-2 -15 -11.5 -19t-20.5 1t-19.5 17t-8.5 29q0 16 9.5 47t25 70t36 83l41.5 86q-21 -15 -50 -50t-61.5 -81.5t-65.5 -99.5l-63 -104q-5 -8 -11.5 -6.5t-13 7t-11 13t-4.5 13.5q2 19 9 48.5t16.5 62t20.5 66l20 61.5t14.5 48t5.5 26q-19 -21 -39 -52
t-39.5 -65.5t-37 -70l-31.5 -65l-23.5 -50.5t-11.5 -26q-3 -8 -13 -10t-19 3.5t-13 18.5t4 34zM165 577q-11 -2 -14 6t0 19t10.5 21t18.5 13q27 6 71 9t89 3t82.5 -1.5t52.5 -3.5t23.5 -10t10 -16t-3.5 -14.5t-16 -6.5q-23 1 -52.5 0.5t-63.5 -1.5q-30 -48 -61 -108
l-56.5 -114l-43.5 -94.5t-22 -50.5q-4 -9 -13.5 -6.5t-18 12t-13 25t1.5 33.5q6 20 25 57t41 76l43 73.5t33 50.5q10 15 18.5 19.5t15 6.5t12.5 5t11 14q-45 -3 -92 -7t-89 -10z" />
    <glyph glyph-name="yen" unicode="&#xa5;" horiz-adv-x="470" 
d="M57 186q9 5 32.5 9t53.5 6q-11 48 -18.5 101.5t-11 103.5t-3.5 92.5t5 66.5q4 24 19.5 37.5t32.5 18t30 0t13 -17.5q-1 -21 -3 -55t-2 -77.5t3 -94t13 -104.5l75.5 100.5l70.5 91l58.5 72t39.5 43.5q26 25 54.5 28.5t48.5 -4.5t28 -24.5t-7 -32.5q-82 -88 -153.5 -173
l-136.5 -170q14 -1 25 -1.5t16 -2.5q11 -3 14 -15t0 -25t-12 -23.5t-23 -10.5h-79l-30 -41q29 0 50.5 -1.5t29.5 -3.5q11 -3 14 -15t0 -25t-12 -23.5t-23 -10.5h-115l-45.5 -66.5l-44.5 -66.5q-10 -15 -24.5 -10t-24.5 22.5t-12.5 43t11.5 51.5l13 22q-10 -1 -19 -1.5
t-17 -2.5q-11 -2 -14.5 6t-0.5 20t11 24t20 19q8 5 28 8.5t46 5.5l30 43q-42 -2 -70 -6q-11 -2 -14.5 6t-0.5 20t11 24t20 19z" />
    <glyph glyph-name="exclamdown" unicode="&#xa1;" horiz-adv-x="399" 
d="M240 343q11 12 23 17t19.5 3t9 -11t-8.5 -26q-28 -47 -53.5 -101t-46.5 -105.5t-36.5 -96.5l-24.5 -73q-6 -21 -21.5 -21t-30 12.5t-24 34t-4.5 44.5q4 21 23 60.5t47 86t61.5 93.5t66.5 83zM403 450q-23 -17 -39 -25.5t-27 -9.5t-19 4t-14 15q-24 -8 -46.5 -2.5
t-34.5 21t-8 40t33 53.5q27 27 56 35.5t54.5 3.5t44.5 -19.5t27 -34.5t2.5 -41.5t-29.5 -39.5zM303 463q7 2 14.5 1t13.5 -4q6 1 16 6t23 19q15 17 12 31t-17.5 17.5t-37.5 -5.5t-48 -37q-10 -12 -11.5 -19t3 -10.5t13 -3t19.5 4.5z" />
    <glyph glyph-name="questiondown" unicode="&#xbf;" horiz-adv-x="585" 
d="M390 30q12 8 21 0.5t13 -22t2 -31.5t-11 -27q-18 -19 -48.5 -34.5t-67.5 -24.5t-77 -10.5t-76.5 6.5t-66.5 26t-46 49q-25 46 -18.5 79t33 59t69 47l89.5 44q47 22 78.5 42.5t49.5 39.5t24.5 36t5.5 32q-2 15 4.5 19.5t14.5 0t16 -17t11 -31.5q5 -34 -5.5 -66.5
t-32.5 -61t-55 -52t-73 -39.5l-83.5 -33t-55 -25t-26.5 -25t2 -33q7 -17 35 -24.5t70.5 -2.5t95 24t108.5 56zM486 437q-24 -20 -46 -29.5t-39.5 -11.5t-28.5 3t-13 16q-21 -1 -38.5 8.5t-24.5 27t-0.5 41.5t32.5 52q28 30 57 39t55 4t45.5 -21.5t28 -38.5t2.5 -46t-30 -44z
M393 460q11 11 19 6.5t10 -14.5q7 3 14.5 8t15.5 16q15 19 12 34t-18 19.5t-38.5 -6t-48.5 -41.5q-13 -16 -14 -26t5.5 -13t18 1t24.5 16z" />
    <glyph glyph-name="logicalnot" unicode="&#xac;" horiz-adv-x="519" 
d="M120 299q9 5 31 8.5t50.5 6t60.5 3.5t60.5 0.5t50 -2t30.5 -3.5q12 -4 17.5 -18.5t-1.5 -26.5q-7 -13 -17 -29.5l-19.5 -33l-18.5 -32.5t-14 -28q-5 -11 -15 -15.5t-20.5 -3t-18 8.5t-6.5 21q1 11 10.5 33t24.5 50q-64 0 -123.5 -1.5t-97.5 -6.5q-11 -2 -14.5 6t-0.5 20
t11 24t20 19z" />
    <glyph glyph-name="uni00A0" unicode="&#xa0;" horiz-adv-x="299" 
 />
    <glyph glyph-name="twosuperior" unicode="&#xb2;" horiz-adv-x="475" 
d="M438 554q28 24 38 44t-0.5 31t-42 10t-86.5 -17q16 -16 14 -30t-15.5 -25t-34.5 -18.5t-43 -9.5t-41.5 2.5t-28.5 16.5q-15 19 -5.5 42.5t36.5 44t68.5 34.5t91.5 14t84 -14t48 -38t6.5 -56.5t-41.5 -69.5q-31 -34 -81.5 -72.5l-103 -78t-98 -77.5t-65.5 -72q31 3 65 5.5
t65.5 3.5t56.5 -0.5t38 -7.5q13 -5 13.5 -19t-5.5 -27.5t-17 -23t-21 -6.5q-11 3 -41 2.5t-64.5 -3t-66.5 -5.5t-46 -4q-27 -2 -42 25t-8 64q-9 9 -7.5 20.5t11.5 25.5q16 24 45 51t64.5 54.5t74.5 54l74.5 50.5l64.5 44t46 35z" />
    <glyph glyph-name="threesuperior" unicode="&#xb3;" horiz-adv-x="479" 
d="M218 570q-11 -6 -16.5 -0.5t-3.5 17.5t13 28.5t33 31.5q24 17 53.5 26.5t60 12.5t59.5 -1.5t51 -15t34.5 -27.5t11.5 -40q-3 -29 -28 -57.5t-61 -52.5t-76 -42t-71 -26q52 -10 79.5 -30.5t36.5 -44.5t3 -49.5t-19 -46.5q-17 -26 -50.5 -55.5t-76 -51.5t-88.5 -32t-88 3
q-29 9 -43 25t-10.5 36.5t25.5 44.5t65 49q12 7 27 8t25.5 -3.5t12.5 -13.5t-11 -21q-15 -14 -29.5 -29.5l-27.5 -29.5q42 3 82 23t70 46.5t47 53t14 41.5q-3 13 -23.5 22.5t-47.5 15t-56 7t-49 -1.5q-11 -1 -15 6.5t0.5 18t18 22.5t38.5 21q61 22 109 44t81 41.5t50 35.5
t16 27q-1 10 -14 13t-33.5 1.5t-45.5 -7t-50 -13t-47 -15.5t-36 -15z" />
    <glyph glyph-name="onesuperior" unicode="&#xb9;" horiz-adv-x="321" 
d="M227 593q16 8 36 21t39.5 27l37 27t29.5 21q11 7 24 5.5t22 -8.5t12 -16.5t-5 -18.5q-18 -19 -43.5 -57t-54 -85.5t-57.5 -101l-55.5 -105t-47 -95.5t-31.5 -73q-8 -20 -21.5 -19t-25.5 15t-18.5 36t1.5 44q6 19 23.5 53t43.5 77.5t59 93.5t70 101q-12 -2 -25 4.5
t-20.5 15.5t-7 19.5t14.5 18.5z" />
    <glyph glyph-name="ordmasculine" unicode="&#xba;" horiz-adv-x="525" 
d="M426 689q41 0 67.5 -28.5t34 -76.5t-5.5 -112t-52 -134q-30 -54 -60.5 -94t-59.5 -67t-55 -42t-47 -20q-26 -6 -56 1.5t-55.5 28.5t-42 56t-16.5 85q0 33 14 76t38 88t57.5 88t72 76.5t81 54t85.5 20.5zM210 183q22 0 54 26.5t64.5 68t61.5 92.5t46.5 100.5t19 91.5
t-21.5 66q-11 11 -32.5 3t-49 -32t-59.5 -62.5t-63 -88.5q-32 -50 -51.5 -98t-23.5 -85t9 -59.5t46 -22.5z" />
    <glyph glyph-name="mu" unicode="&#xb5;" horiz-adv-x="480" 
d="M-210 -117q12 11 39.5 51l63 93.5l74.5 113.5l73 112l59.5 88.5t34.5 42.5q13 9 26 10.5t22.5 -3t13 -14.5t-2.5 -24q-7 -14 -18.5 -33l-25 -39.5l-26 -41t-20.5 -37.5q-25 -51 33 -21q29 16 64 46l67 57q15 13 32 15t29 -3t17.5 -16.5t-1.5 -25.5q-6 -11 -11.5 -26
l-10.5 -29q-6 -21 -1.5 -34t23 -10.5t52 25.5t84.5 74q10 10 21 10t17.5 -7t7 -17.5t-9.5 -20.5q-83 -83 -140 -119.5t-89.5 -38.5t-41 26t5.5 76q13 43 -18 20q-16 -12 -47.5 -39.5t-77.5 -53.5q-21 -11 -40.5 -17.5t-34.5 -6t-23 9t-4 28.5l-38.5 -74.5l-43 -83l-41 -74
t-32.5 -46.5q-11 -11 -26 -7.5t-26.5 14.5t-15.5 25t7 25z" />
    <glyph glyph-name="paragraph" unicode="&#xb6;" horiz-adv-x="614" 
d="M198 -153q2 32 17 82.5t38.5 110t52.5 124l58 125l56 112.5l46 87q-19 0 -37 -0.5t-35 -1.5q-11 -25 -35 -69l-53.5 -100l-63 -121t-64 -131.5t-56 -131.5t-39.5 -120q-3 -11 -12.5 -12t-19 4.5t-17 16.5t-6.5 25q1 25 11 61.5t26 80.5t36 93t42.5 98.5l45.5 98l45 91.5
q-14 2 -20 20t3 44.5t35.5 57t77.5 57.5q9 5 31 8.5t50.5 6t60.5 3.5t60.5 0.5t50 -2t30.5 -3.5q11 -3 14 -15t0 -25t-12 -23.5t-23 -10.5h-28q-11 -24 -34.5 -68.5l-53 -100.5l-63 -121.5t-64.5 -132.5t-56.5 -131.5t-39.5 -120.5q-3 -11 -12.5 -12t-19 4.5t-17 16.5
t-6.5 25z" />
    <glyph glyph-name="oe" unicode="&#x153;" horiz-adv-x="540" 
d="M228 354q26 -17 32 -47q33 36 62 57t53.5 29.5t43.5 7t33 -8.5q17 -11 22 -31.5t-3 -45.5t-28 -51.5t-51 -49t-73.5 -38t-95.5 -18.5l-7 -14q-12 -25 -11.5 -45.5t13.5 -31.5t38.5 -9.5t63.5 20.5q46 23 99 66t121 110q14 15 27 17t20 -4.5t5 -19.5t-17 -28
q-63 -63 -124 -118t-131 -94q-41 -23 -77 -31t-63 -2t-42 26.5t-13 54.5q-42 -30 -83.5 -38.5t-71.5 9.5q-22 13 -30 37.5t-3.5 55.5t20.5 66t43 69t57.5 59t61 38.5t59 14.5t50.5 -12zM158 295q-13 4 -28 -1.5t-30.5 -17.5t-29.5 -29t-25 -35t-17 -36t-6 -33t5.5 -26.5
t18.5 -15.5q26 -9 55 10.5t51 56.5l4 7q-8 9 -11.5 23t-3 30t4 32t9.5 29zM392 334q-15 -3 -31.5 -13.5t-34 -26.5t-35 -36.5t-33.5 -42.5q27 3 51 13.5t43 24.5t32.5 29t19.5 27.5t3.5 19.5t-15.5 5z" />
    <glyph glyph-name="eth" unicode="&#xf0;" horiz-adv-x="333" 
d="M333 254q8 8 19 8.5t18.5 -5t8.5 -16t-11 -22.5q-44 -44 -83.5 -59t-69.5 -10l-18 -24q-27 -34 -57.5 -59t-60.5 -38.5t-58.5 -14.5t-50.5 12t-30 37.5t-3.5 55.5t20.5 66t43 69q26 34 54.5 59.5t57 40t55 16.5t48.5 -10l-4 89l-60 -16q-12 -3 -20 5.5t-11 20.5t0.5 24
t13.5 16l34 10l35 10q-3 36 -2.5 60t5.5 40q3 10 15.5 11.5t26 -7.5t24 -27.5t10.5 -48.5q0 -2 -0.5 -5t-0.5 -5q15 4 30 6.5t29 6.5q12 3 22 -8.5t14 -26.5t0 -28.5t-20 -15.5l-78 -9q-2 -41 -0.5 -71t-0.5 -58.5t-9.5 -59.5t-25.5 -75q18 1 39.5 14t51.5 42zM158 295
q-13 4 -28 -1.5t-30.5 -17.5t-29.5 -29t-25 -35t-17 -36t-6 -33t5.5 -26.5t18.5 -15.5q26 -9 55 10.5t51 56.5l4 7q-8 9 -11.5 23t-3 30t4 32t9.5 29z" />
    <glyph glyph-name="ae" unicode="&#xe6;" horiz-adv-x="542" 
d="M454 392q26 -16 25 -51t-30 -74.5t-87.5 -75.5t-146.5 -54q-10 -24 -8.5 -43t15 -29t38.5 -7.5t62 20.5q46 23 99 66t121 110q14 15 27 17t20 -4.5t5 -19.5t-17 -28q-63 -63 -124 -118t-131 -94q-57 -32 -105 -35t-72 22.5t-17 78.5t59 134l-6 -4q-8 -5 -28 -24.5
l-45.5 -45l-52.5 -51.5t-48 -44q-17 -15 -37 -13t-33.5 18.5t-16 45.5t15.5 67q18 39 47.5 78.5t67 73t81 58.5t89.5 35q18 4 32 -2t20 -16t2.5 -20t-20.5 -14q-30 -7 -63.5 -27.5t-64 -45t-56 -50l-40.5 -41.5q-15 -17 -20.5 -29.5t-4 -18.5t9 -4.5t19.5 13.5t31.5 29.5
l42.5 36.5l47.5 37.5t46.5 31.5q17 11 34 19.5t30 11.5q32 35 60 54.5t52 28t43 6.5t32 -9zM394 334q-16 -3 -34.5 -15t-38 -30.5t-38.5 -42.5t-35 -49q52 10 88.5 34t56 48t20 41t-18.5 14z" />
    <glyph glyph-name="onequarter" unicode="&#xbc;" horiz-adv-x="995" 
d="M894 176q12 -2 18.5 -10t7 -17t-5.5 -16.5t-20 -7.5q-31 -1 -74.5 -5t-91.5 -9l-60 -121t-30 -69q-6 -18 -22 -18.5t-31.5 10t-25 29t-1.5 38.5q5 15 22 46l42 73q-43 -5 -74.5 -9.5t-42.5 -6.5q-14 -2 -27.5 8t-22.5 24t-13 28.5t1 22.5q15 22 44.5 52t67 63t80 66.5
t83.5 62.5t77.5 51.5t61.5 32.5q6 2 11 -0.5t8 -7t2 -11.5t-7 -14q9 1 18 1t15 -2.5t7 -8t-5 -14.5q-31 -51 -67.5 -117l-71.5 -134q38 0 70 -2.5t57 -7.5zM70 -74q11 27 44.5 72t81 100.5l105 117.5l116 123.5l115 117.5l101 100l74 71.5t35.5 30.5q10 6 21 0.5t18 -17
t8.5 -25t-8.5 -23.5q-17 -19 -65 -65.5l-113 -110l-139.5 -137l-144.5 -147l-128 -140t-90 -115.5q-6 -9 -14 -8t-13.5 9t-7 20.5t3.5 25.5zM257 593q16 8 36 21t39.5 27l37 27t29.5 21q11 7 24 5.5t22 -8.5t12 -16.5t-5 -18.5q-18 -19 -43.5 -57t-54 -85.5t-57.5 -101
l-55.5 -105t-47 -95.5t-31.5 -73q-8 -20 -21.5 -19t-25.5 15t-18.5 36t1.5 44q6 19 23.5 53t43.5 77.5t59 93.5t70 101q-12 -2 -25 4.5t-20.5 15.5t-7 19.5t14.5 18.5zM538 162q33 8 67 12.5t66 7.5l72.5 118.5l69.5 118.5l-62 -47t-72.5 -60t-74 -71t-66.5 -79z" />
    <glyph glyph-name="onehalf" unicode="&#xbd;" horiz-adv-x="1038" 
d="M897 354q28 24 37.5 44t-1 30.5t-42 10.5t-85.5 -16q16 -16 14 -30t-15.5 -25.5t-34.5 -19t-43 -9.5t-41.5 2.5t-29.5 16.5q-15 19 -5.5 42.5t36.5 44t68.5 34.5t91.5 14t84 -14t48 -38t6.5 -56.5t-40.5 -69.5q-21 -23 -51.5 -48l-64.5 -51l-70 -52t-67.5 -52t-57 -50.5
t-38.5 -46.5q31 3 65.5 5.5t65.5 3.5t56.5 -0.5t38.5 -7.5q12 -5 12.5 -19t-5.5 -27.5t-17 -23t-21 -6.5q-11 3 -41 2.5t-64.5 -3t-66.5 -5.5t-45 -4q-14 -1 -24.5 6t-17.5 19t-9.5 28.5t1.5 34.5q-10 9 -8.5 21t11.5 26q16 24 45 51t64.5 54.5t74.5 54l74.5 50.5l65 44
t46.5 35zM70 -74q11 27 44.5 72t81 100.5l105 117.5l116 123.5l115 117.5l101 100l74 71.5t35.5 30.5q10 6 21 0.5t18 -17t8.5 -25t-8.5 -23.5q-17 -19 -65 -65.5l-113 -110l-139.5 -137l-144.5 -147l-128 -140t-90 -115.5q-6 -9 -14 -8t-13.5 9t-7 20.5t3.5 25.5zM257 593
q16 8 36 21t39.5 27l37 27t29.5 21q11 7 24 5.5t22 -8.5t12 -16.5t-5 -18.5q-18 -19 -43.5 -57t-54 -85.5t-57.5 -101l-55.5 -105t-47 -95.5t-31.5 -73q-8 -20 -21.5 -19t-25.5 15t-18.5 36t1.5 44q6 19 23.5 53t43.5 77.5t59 93.5t70 101q-12 -2 -25 4.5t-20.5 15.5
t-7 19.5t14.5 18.5z" />
    <glyph glyph-name="threequarters" unicode="&#xbe;" horiz-adv-x="1094" 
d="M1004 176q12 -2 18.5 -10t7 -17t-5.5 -16.5t-20 -7.5q-31 -1 -74.5 -5t-91.5 -9l-60 -121t-30 -69q-6 -18 -22 -18.5t-31.5 10t-25 29t-1.5 38.5q5 15 22 46l42 73q-43 -5 -74.5 -9.5t-42.5 -6.5q-14 -2 -27.5 8t-22.5 24t-13 28.5t1 22.5q15 22 44.5 52t67 63t80 66.5
t83.5 62.5t77.5 51.5t61.5 32.5q6 2 11 -0.5t8 -7t2 -11.5t-7 -14q9 1 18 1t15 -2.5t7 -8t-5 -14.5q-31 -51 -67.5 -117l-71.5 -134q38 0 70 -2.5t57 -7.5zM228 570q-11 -6 -16.5 -0.5t-3.5 17.5t13 28.5t33 31.5q24 17 53.5 26.5t60.5 12.5t59.5 -1.5t50.5 -15t34.5 -27.5
t11.5 -40q-3 -29 -28 -57.5t-61 -52.5t-76 -42t-71 -26q52 -10 79.5 -30.5t36.5 -44.5t3 -49.5t-19 -46.5q-17 -26 -50.5 -55.5t-76 -51.5t-88.5 -32t-88 3q-29 9 -43 25t-10.5 36.5t25.5 44.5t65 49q12 7 27 8t25.5 -3.5t12.5 -13.5t-11 -21q-15 -14 -29.5 -29.5
l-27.5 -29.5q42 3 82 23t70 46.5t47 53t14 41.5q-3 13 -23.5 22.5t-47.5 15t-56 7t-49 -1.5q-11 -1 -15 6.5t0.5 18t18 22.5t38.5 21q61 22 109 44t81 41.5t50 35.5t16 27q-1 10 -14 13t-33.5 1.5t-45.5 -7t-50 -13t-47 -15.5t-36 -15zM180 -74q11 27 44.5 72t81 100.5
l105 117.5l116 123.5l115 117.5l101 100l74 71.5t35.5 30.5q10 6 21 0.5t18 -17t8.5 -25t-8.5 -23.5q-17 -19 -65 -65.5l-113 -110l-139.5 -137l-144.5 -147l-128 -140t-90 -115.5q-6 -9 -14 -8t-13.5 9t-7 20.5t3.5 25.5zM648 162q33 8 67 12.5t66 7.5l72.5 118.5
l69.5 118.5l-62 -47t-72.5 -60t-74 -71t-66.5 -79z" />
    <glyph glyph-name="Ydieresis" unicode="&#x178;" horiz-adv-x="470" 
d="M589 546q-82 -88 -154 -173.5l-136.5 -169.5l-122.5 -166.5l-112 -164.5q-10 -15 -24.5 -10t-24.5 22.5t-12.5 43t11.5 51.5q6 11 18.5 30.5t30.5 45l40 56.5l47 65q-13 48 -22 105t-13.5 111.5t-4.5 100.5t5 72q4 24 19.5 37.5t32.5 18t30 0t13 -17.5q-1 -21 -3 -55
t-2 -77.5t3 -94t13 -104.5l75.5 100.5l70.5 91l58.5 72t39.5 43.5q26 25 54.5 28.5t48.5 -4.5t28 -24.5t-7 -32.5zM358 696q-7 -11 -17 -21t-20.5 -16t-20.5 -7t-19 5q-10 7 -14.5 18t-5 23t3.5 24.5t11 23.5q14 23 35 30t38 -5t20 -32.5t-11 -42.5zM488 684
q-18 -21 -42 -28t-42 6q-10 7 -13.5 19t-2.5 25.5t6.5 27t14.5 24.5q18 21 41.5 25t40.5 -11q16 -16 15 -41.5t-18 -46.5z" />
    <glyph glyph-name="ydieresis" unicode="&#xff;" horiz-adv-x="486" 
d="M521 219l-43.5 -43.5l-70 -70.5l-83.5 -83.5l-84.5 -82.5l-72.5 -68.5t-48 -39.5q-28 -18 -49.5 -19.5t-34 7.5t-15 25.5t7.5 33.5q7 11 23.5 34.5l38 53.5l46 62.5l46 62.5l38.5 53.5l25 34.5q8 12 10 18t-1 6.5t-9.5 -4t-14.5 -12.5q-44 -41 -75.5 -56t-51 -12.5
t-27.5 17.5t-4 35q5 20 10.5 31t14.5 31q12 28 17.5 43t0 15t-24 -17.5l-55.5 -54.5q-15 -15 -27.5 -16.5t-19 5t-4.5 19.5t16 27l22 22.5t29 28t34 27.5t38 22q19 8 34 4t23.5 -17.5t7.5 -35t-13 -48.5q-22 -48 -15.5 -58.5t44.5 22.5q19 17 32.5 30.5t24.5 27t21 28
t22 34.5q12 19 27 20.5t26.5 -8t15.5 -28.5t-5 -40q-21 -48 -53.5 -100t-65.5 -98.5l-61 -83t-40 -53.5q-14 -20 -2.5 -13.5t39.5 31l67.5 61l82 77l82.5 80l69 68.5q12 12 23 12t17 -7t5.5 -18.5t-10.5 -21.5zM285 473q-7 -11 -17 -21t-20.5 -16t-20.5 -7t-19 5
q-10 7 -14.5 18t-5 23t3.5 24.5t11 23.5q14 23 35 30t38 -5t20 -32.5t-11 -42.5zM415 461q-18 -21 -42 -28t-42 6q-10 7 -13.5 19t-2.5 25.5t6.5 27t14.5 24.5q18 21 41.5 25t40.5 -11q16 -16 15 -41.5t-18 -46.5z" />
    <glyph glyph-name="Oslash" unicode="&#xd8;" horiz-adv-x="651" 
d="M-39 -134q8 20 25 48.5t42 64.5q-29 57 -25 126.5t31 140t73 137t100.5 118t112.5 82.5t110 31q35 0 51 -17.5t20 -46.5h14l65.5 68.5t31.5 29.5q9 6 20 0.5t18 -17.5t8 -26.5t-9 -25.5l-69 -77q15 -50 10 -110t-26 -122t-54.5 -122.5t-75.5 -112t-89 -90t-94.5 -57
t-93 -12.5t-84.5 43l-6 6q-24 -31 -43 -58.5t-33 -50.5q-6 -10 -13.5 -8.5t-12.5 10t-7 21.5t3 27zM212 329q-23 -34 -43.5 -69.5t-37 -70.5t-27 -67.5t-13.5 -60.5l94.5 116.5l104 122l103 116.5l93.5 102l-4 22q-33 6 -67.5 -9.5t-69.5 -45t-69 -70.5t-64 -86zM120 -21
q24 -15 56 -5.5t67.5 37t72 70t68 93.5t56 107t37.5 111l-89 -96l-94.5 -104l-93.5 -106l-86 -102z" />
    <glyph glyph-name="oslash" unicode="&#xf8;" horiz-adv-x="333" 
d="M333 254q8 8 19 8.5t18.5 -5t8.5 -16t-11 -22.5q-44 -44 -83.5 -59t-69.5 -10l-18 -24q-23 -30 -49.5 -52.5t-52.5 -37t-51.5 -20t-47.5 -0.5q-17 -20 -32.5 -41.5t-30.5 -44.5q-6 -9 -14 -8t-13.5 9t-7 20.5t3.5 25.5q7 17 18 35.5t25 39.5q-19 35 -4 90.5t59 111.5
q25 32 54 56t58 38t56 17t50 -6q29 28 49 45.5t27 21.5q10 6 21 0.5t18 -17t8.5 -25t-8.5 -23.5l-30.5 -31.5t-40.5 -38.5q3 -41 -20 -93q18 1 39.5 14t51.5 42zM22 152q32 38 66 74.5l66 69.5q-13 3 -27.5 -3.5t-29.5 -18.5t-28.5 -28t-23.5 -34q-10 -16 -15.5 -31
t-7.5 -29zM152 168q5 8 9 17l8 18l-51 -50t-52 -55q22 2 45 21t41 49z" />
    <glyph glyph-name="Eth" unicode="&#xd0;" horiz-adv-x="716" 
d="M60 274q8 5 31 9.5t55 9.5l33.5 50l19.5 28q12 15 31 25l39.5 21t39.5 25.5t30 37.5q-15 -5 -28 -10.5t-27 -10.5q-23 -8 -47.5 2t-40 28t-16.5 38t25 32q25 12 65 21.5t85 15.5t90.5 7t83.5 -4q52 -7 84 -33t47.5 -63t16 -82t-10 -91t-31 -88.5t-47.5 -75.5
q-50 -60 -106 -111.5t-113.5 -89.5t-115 -59.5t-111.5 -21.5q-24 0 -39.5 8t-23.5 20t-11.5 25.5t-3.5 24.5q-27 8 -44.5 16t-17.5 27q0 13 8 35.5t21 50.5t30 59l35 62l-52 -7q-11 -2 -14.5 6t-0.5 20t11 24t20 19zM227 226q-52 -94 -80.5 -154t-31.5 -100q45 1 98 26
t107.5 65t106 90t93.5 102q19 23 36 51t29 56t16.5 54.5t-1.5 47t-24.5 32.5t-52.5 12q-51 0 -86.5 -5t-64.5 -13l-53 -98.5l-48 -85.5q40 3 71 3.5t41 -2.5q11 -3 14 -15t0 -25t-12 -23.5t-23 -10.5q-30 0 -65 -2t-70 -5z" />
    <glyph glyph-name="Idieresis" unicode="&#xcf;" horiz-adv-x="371" 
d="M93 -92q-9 -20 -27.5 -21t-35 11t-25 36t2.5 54q16 45 41.5 100.5t55.5 114l62 116.5l62 108.5t56 89t43 57.5q21 24 45 34.5t42.5 10t26.5 -10.5t-3 -26q-26 -38 -55.5 -89.5l-61 -110l-63.5 -122l-61.5 -125.5l-56.5 -120zM431 718q-7 -11 -17 -21t-20.5 -16t-20.5 -7
t-19 5q-10 7 -14.5 18t-5 23t3.5 24.5t11 23.5q14 23 35 30t38 -5t20 -32.5t-11 -42.5zM561 706q-18 -21 -42 -28t-42 6q-10 7 -13.5 19t-2.5 25.5t6.5 27t14.5 24.5q18 21 41.5 25t40.5 -11q16 -16 15 -41.5t-18 -46.5z" />
    <glyph glyph-name="Icircumflex" unicode="&#xce;" horiz-adv-x="371" 
d="M93 -92q-9 -20 -27.5 -21t-35 11t-25 36t2.5 54q16 45 41.5 100.5t55.5 114l62 116.5l62 108.5t56 89t43 57.5q21 24 45 34.5t42.5 10t26.5 -10.5t-3 -26q-26 -38 -55.5 -89.5l-61 -110l-63.5 -122l-61.5 -125.5l-56.5 -120zM513 679q-19 10 -28.5 33.5t-17.5 49.5
l-47.5 -33.5l-33.5 -24.5t-28.5 -22.5l-32.5 -27.5q-10 -9 -16.5 -5t-9.5 14t-2.5 23t6.5 23q7 13 26 31.5t41.5 37.5t45.5 36.5l39 29.5q8 6 19 10.5t21.5 5t18 -4t8.5 -17.5q2 -29 10.5 -64.5t21.5 -64.5q5 -12 3 -20.5t-8.5 -12t-16 -3t-19.5 5.5z" />
    <glyph glyph-name="Iacute" unicode="&#xcd;" horiz-adv-x="371" 
d="M93 -92q-9 -20 -27.5 -21t-35 11t-25 36t2.5 54q16 45 41.5 100.5t55.5 114l62 116.5l62 108.5t56 89t43 57.5q21 24 45 34.5t42.5 10t26.5 -10.5t-3 -26q-26 -38 -55.5 -89.5l-61 -110l-63.5 -122l-61.5 -125.5l-56.5 -120zM382 707q11 14 30 30.5t39.5 30t40 22.5
t31.5 9q10 0 18 -9t10.5 -21t-2 -25t-17.5 -21q-15 -9 -36 -19t-42.5 -18.5t-40 -14.5t-27.5 -8q-13 -2 -18 1t-4 10t6 15.5t12 17.5z" />
    <glyph glyph-name="Igrave" unicode="&#xcc;" horiz-adv-x="371" 
d="M93 -92q-9 -20 -27.5 -21t-35 11t-25 36t2.5 54q16 45 41.5 100.5t55.5 114l62 116.5l62 108.5t56 89t43 57.5q21 24 45 34.5t42.5 10t26.5 -10.5t-3 -26q-26 -38 -55.5 -89.5l-61 -110l-63.5 -122l-61.5 -125.5l-56.5 -120zM449 658q-16 8 -32 23.5t-30 33t-23.5 34.5
t-11.5 29q-3 13 7 25t24.5 18t28.5 3t20 -21q11 -31 24.5 -65t27.5 -54q8 -11 7 -18.5t-7 -11t-15.5 -2.5t-19.5 6z" />
    <glyph glyph-name="Edieresis" unicode="&#xcb;" horiz-adv-x="579" 
d="M4 16q-6 23 11 72t50.5 113t81 138t103.5 148q-8 7 -16 19.5t-11.5 25.5t0 25t17.5 19q21 9 67 17.5t97.5 14t99 8t71.5 1.5q24 -2 40.5 -18.5t24 -36t5.5 -35t-15 -13.5q-20 3 -63 0.5t-93 -8l-99.5 -11.5t-82.5 -11q-7 -19 0 -27t15 -12.5t12.5 -10t-7.5 -18.5
q-7 -8 -19.5 -28l-29.5 -49q37 9 73 14.5t66.5 8.5t53.5 3t35 -3q14 -4 21 -21.5t8 -37t-4.5 -34t-15.5 -11.5q-34 7 -75.5 6.5t-82.5 -5.5t-77.5 -12t-60.5 -13q-18 -33 -34.5 -67.5t-31 -68.5t-25 -65t-16.5 -56q32 3 76 8.5t88 9.5t83 5.5t60 -3.5q25 -6 41 -25.5t22 -39
t0 -33t-25 -7.5q-13 4 -41 5t-64 -0.5t-76 -4.5t-77 -7t-67 -8t-45 -7q-11 -3 -20.5 8.5t-15 28t-5.5 34.5t8 28q-12 10 -21.5 21.5t-13.5 25.5zM441 710q-7 -11 -17 -21t-20.5 -16t-20.5 -7t-19 5q-10 7 -14.5 18t-5 23t3.5 24.5t11 23.5q14 23 35 30t38 -5t20 -32.5
t-11 -42.5zM571 698q-18 -21 -42 -28t-42 6q-10 7 -13.5 19t-2.5 25.5t6.5 27t14.5 24.5q18 21 41.5 25t40.5 -11q16 -16 15 -41.5t-18 -46.5z" />
    <glyph glyph-name="Ecircumflex" unicode="&#xca;" horiz-adv-x="579" 
d="M4 16q-6 23 11 72t50.5 113t81 138t103.5 148q-8 7 -16 19.5t-11.5 25.5t0 25t17.5 19q21 9 67 17.5t97.5 14t99 8t71.5 1.5q24 -2 40.5 -18.5t24 -36t5.5 -35t-15 -13.5q-20 3 -63 0.5t-93 -8l-99.5 -11.5t-82.5 -11q-7 -19 0 -27t15 -12.5t12.5 -10t-7.5 -18.5
q-7 -8 -19.5 -28l-29.5 -49q37 9 73 14.5t66.5 8.5t53.5 3t35 -3q14 -4 21 -21.5t8 -37t-4.5 -34t-15.5 -11.5q-34 7 -75.5 6.5t-82.5 -5.5t-77.5 -12t-60.5 -13q-18 -33 -34.5 -67.5t-31 -68.5t-25 -65t-16.5 -56q32 3 76 8.5t88 9.5t83 5.5t60 -3.5q25 -6 41 -25.5t22 -39
t0 -33t-25 -7.5q-13 4 -41 5t-64 -0.5t-76 -4.5t-77 -7t-67 -8t-45 -7q-11 -3 -20.5 8.5t-15 28t-5.5 34.5t8 28q-12 10 -21.5 21.5t-13.5 25.5zM549 674q-19 10 -28.5 33.5t-17.5 49.5l-47.5 -33.5l-33.5 -24.5t-28.5 -22.5l-32.5 -27.5q-10 -9 -16.5 -5t-9.5 14t-2.5 23
t6.5 23q7 13 26 31.5t41.5 37.5t45.5 36.5l39 29.5q8 6 19 10.5t21.5 5t18 -4t8.5 -17.5q2 -29 10.5 -64.5t21.5 -64.5q5 -12 3 -20.5t-8.5 -12t-16 -3t-19.5 5.5z" />
    <glyph glyph-name="Eacute" unicode="&#xc9;" horiz-adv-x="579" 
d="M4 16q-6 23 11 72t50.5 113t81 138t103.5 148q-8 7 -16 19.5t-11.5 25.5t0 25t17.5 19q21 9 67 17.5t97.5 14t99 8t71.5 1.5q24 -2 40.5 -18.5t24 -36t5.5 -35t-15 -13.5q-20 3 -63 0.5t-93 -8l-99.5 -11.5t-82.5 -11q-7 -19 0 -27t15 -12.5t12.5 -10t-7.5 -18.5
q-7 -8 -19.5 -28l-29.5 -49q37 9 73 14.5t66.5 8.5t53.5 3t35 -3q14 -4 21 -21.5t8 -37t-4.5 -34t-15.5 -11.5q-34 7 -75.5 6.5t-82.5 -5.5t-77.5 -12t-60.5 -13q-18 -33 -34.5 -67.5t-31 -68.5t-25 -65t-16.5 -56q32 3 76 8.5t88 9.5t83 5.5t60 -3.5q25 -6 41 -25.5t22 -39
t0 -33t-25 -7.5q-13 4 -41 5t-64 -0.5t-76 -4.5t-77 -7t-67 -8t-45 -7q-11 -3 -20.5 8.5t-15 28t-5.5 34.5t8 28q-12 10 -21.5 21.5t-13.5 25.5zM387 693q11 14 30 30.5t39.5 30t40 22.5t31.5 9q10 0 18 -9t10.5 -21t-2 -25t-17.5 -21q-15 -9 -36 -19t-42.5 -18.5t-40 -14.5
t-27.5 -8q-13 -2 -18 1t-4 10t6 15.5t12 17.5z" />
    <glyph glyph-name="Egrave" unicode="&#xc8;" horiz-adv-x="579" 
d="M4 16q-6 23 11 72t50.5 113t81 138t103.5 148q-8 7 -16 19.5t-11.5 25.5t0 25t17.5 19q21 9 67 17.5t97.5 14t99 8t71.5 1.5q24 -2 40.5 -18.5t24 -36t5.5 -35t-15 -13.5q-20 3 -63 0.5t-93 -8l-99.5 -11.5t-82.5 -11q-7 -19 0 -27t15 -12.5t12.5 -10t-7.5 -18.5
q-7 -8 -19.5 -28l-29.5 -49q37 9 73 14.5t66.5 8.5t53.5 3t35 -3q14 -4 21 -21.5t8 -37t-4.5 -34t-15.5 -11.5q-34 7 -75.5 6.5t-82.5 -5.5t-77.5 -12t-60.5 -13q-18 -33 -34.5 -67.5t-31 -68.5t-25 -65t-16.5 -56q32 3 76 8.5t88 9.5t83 5.5t60 -3.5q25 -6 41 -25.5t22 -39
t0 -33t-25 -7.5q-13 4 -41 5t-64 -0.5t-76 -4.5t-77 -7t-67 -8t-45 -7q-11 -3 -20.5 8.5t-15 28t-5.5 34.5t8 28q-12 10 -21.5 21.5t-13.5 25.5zM475 654q-16 8 -32 23.5t-30 33t-23.5 34.5t-11.5 29q-3 13 7 25t24.5 18t28.5 3t20 -21q11 -31 24.5 -65t27.5 -54
q8 -11 7 -18.5t-7 -11t-15.5 -2.5t-19.5 6z" />
    <glyph glyph-name="Ccedilla" unicode="&#xc7;" horiz-adv-x="568" 
d="M96 -162q8 8 17 18q8 8 16.5 19.5t16.5 25.5q-54 16 -91.5 63.5t-47.5 115.5q-14 89 13 173t82 153t130.5 117.5t159.5 68.5q57 13 91 7.5t50.5 -21t18.5 -36.5t-5 -38q-8 -17 -24 -37l-33 -40.5t-32 -40.5t-21 -37t-22.5 -19.5t-32.5 5t-26 23.5t-2 36t23 38l27.5 34
t17.5 29t-7 24q-8 6 -27.5 -3t-48 -31.5t-63.5 -58t-74 -83.5t-62.5 -99.5t-32.5 -98.5t-4 -84.5t23 -57.5q21 -22 45.5 -22t49.5 15t49.5 40.5t45.5 55t37.5 58t25.5 49.5q9 20 21.5 26.5t25 2t23.5 -17t17 -29.5t5 -37t-11 -38q-60 -101 -122 -150t-119 -58
q-8 -14 -17.5 -26t-18.5 -21q25 -2 44.5 -12.5t26.5 -27.5t-2 -40t-41 -49q-35 -29 -71 -40t-68 -4q-12 3 -18.5 12t-7 19t5.5 18t19 8q20 -1 46 10.5t54 37.5q16 16 17.5 26t-6.5 13.5t-23.5 -0.5t-31.5 -16q-12 -9 -21 -7t-13.5 8.5t-4 15.5t7.5 15z" />
    <glyph glyph-name="Aring" unicode="&#xc5;" 
d="M117 229q9 2 24 3.5l35 3.5q38 47 80 93.5t86.5 90t90.5 82t92 68.5q26 17 45 25.5t33.5 10t24.5 -2.5t18 -11q3 4 13 14q11 11 26.5 17.5t28 6t17.5 -8t-4 -24.5q-34 -61 -69 -133l-68 -145l-62 -143l-51.5 -127.5t-37 -98.5t-17.5 -55q-5 -22 -21 -23.5t-32 12.5
t-26.5 40t-2.5 59q6 26 24 71.5t46 103.5q-42 -1 -92.5 -5.5t-90.5 -7.5l-58 -83l-46.5 -71.5l-34.5 -56.5l-21 -36q-15 -25 -29.5 -20t-24 25t-11 47.5t9.5 47.5q20 37 47.5 80t62.5 89q-15 18 -19.5 37.5t14.5 24.5zM625 555q-94 -62 -176 -145t-151 -170q37 0 75 -1.5
t73 -5.5l83.5 158t95.5 164zM665 814q24 0 45 -7t37 -19t25 -28t9 -34t-9 -34t-25 -27.5t-37 -18.5t-45 -7t-45 7t-36.5 18.5t-24.5 27.5t-9 34t9 34t24.5 28t36.5 19t45 7zM671 688q23 0 39 10t16 25q0 14 -16 24.5t-39 10.5t-39 -10.5t-16 -24.5q0 -15 16 -25t39 -10z" />
    <glyph glyph-name="Adieresis" unicode="&#xc4;" 
d="M117 229q9 2 24 3.5l35 3.5q38 47 80 93.5t86.5 90t90.5 82t92 68.5q26 17 45 25.5t33.5 10t24.5 -2.5t18 -11q3 4 13 14q11 11 26.5 17.5t28 6t17.5 -8t-4 -24.5q-34 -61 -69 -133l-68 -145l-62 -143l-51.5 -127.5t-37 -98.5t-17.5 -55q-5 -22 -21 -23.5t-32 12.5
t-26.5 40t-2.5 59q6 26 24 71.5t46 103.5q-42 -1 -92.5 -5.5t-90.5 -7.5l-58 -83l-46.5 -71.5l-34.5 -56.5l-21 -36q-15 -25 -29.5 -20t-24 25t-11 47.5t9.5 47.5q20 37 47.5 80t62.5 89q-15 18 -19.5 37.5t14.5 24.5zM625 555q-94 -62 -176 -145t-151 -170q37 0 75 -1.5
t73 -5.5l83.5 158t95.5 164zM651 708q-7 -11 -17 -21t-20.5 -16t-20.5 -7t-19 5q-10 7 -14.5 18t-5 23t3.5 24.5t11 23.5q14 23 35 30t38 -5t20 -32.5t-11 -42.5zM781 696q-18 -21 -42 -28t-42 6q-10 7 -13.5 19t-2.5 25.5t6.5 27t14.5 24.5q18 21 41.5 25t40.5 -11
q16 -16 15 -41.5t-18 -46.5z" />
    <glyph glyph-name="Atilde" unicode="&#xc3;" 
d="M117 229q9 2 24 3.5l35 3.5q38 47 80 93.5t86.5 90t90.5 82t92 68.5q26 17 45 25.5t33.5 10t24.5 -2.5t18 -11q3 4 13 14q11 11 26.5 17.5t28 6t17.5 -8t-4 -24.5q-34 -61 -69 -133l-68 -145l-62 -143l-51.5 -127.5t-37 -98.5t-17.5 -55q-5 -22 -21 -23.5t-32 12.5
t-26.5 40t-2.5 59q6 26 24 71.5t46 103.5q-42 -1 -92.5 -5.5t-90.5 -7.5l-58 -83l-46.5 -71.5l-34.5 -56.5l-21 -36q-15 -25 -29.5 -20t-24 25t-11 47.5t9.5 47.5q20 37 47.5 80t62.5 89q-15 18 -19.5 37.5t14.5 24.5zM625 555q-94 -62 -176 -145t-151 -170q37 0 75 -1.5
t73 -5.5l83.5 158t95.5 164zM557 763q32 34 63.5 48t56.5 12.5t39 -17.5t12 -43t5.5 -35t19.5 -2t25.5 25t24.5 48q5 13 19 14.5t24 -7.5t9 -28t-26 -47q-35 -38 -67 -54t-56 -14.5t-37.5 18.5t-12.5 45t-9 31.5t-25.5 -5t-33 -23.5t-31.5 -25t-20 -6t-5 14.5t7.5 24.5
t17.5 26z" />
    <glyph glyph-name="Acircumflex" unicode="&#xc2;" 
d="M117 229q9 2 24 3.5l35 3.5q38 47 80 93.5t86.5 90t90.5 82t92 68.5q26 17 45 25.5t33.5 10t24.5 -2.5t18 -11q3 4 13 14q11 11 26.5 17.5t28 6t17.5 -8t-4 -24.5q-34 -61 -69 -133l-68 -145l-62 -143l-51.5 -127.5t-37 -98.5t-17.5 -55q-5 -22 -21 -23.5t-32 12.5
t-26.5 40t-2.5 59q6 26 24 71.5t46 103.5q-42 -1 -92.5 -5.5t-90.5 -7.5l-58 -83l-46.5 -71.5l-34.5 -56.5l-21 -36q-15 -25 -29.5 -20t-24 25t-11 47.5t9.5 47.5q20 37 47.5 80t62.5 89q-15 18 -19.5 37.5t14.5 24.5zM625 555q-94 -62 -176 -145t-151 -170q37 0 75 -1.5
t73 -5.5l83.5 158t95.5 164zM733 674q-19 10 -28.5 33.5t-17.5 49.5l-47.5 -33.5l-33.5 -24.5t-28.5 -22.5l-32.5 -27.5q-10 -9 -16.5 -5t-9.5 14t-2.5 23t6.5 23q7 13 26 31.5t41.5 37.5t45.5 36.5l39 29.5q8 6 19 10.5t21.5 5t18 -4t8.5 -17.5q2 -29 10.5 -64.5
t21.5 -64.5q5 -12 3 -20.5t-8.5 -12t-16 -3t-19.5 5.5z" />
    <glyph glyph-name="Aacute" unicode="&#xc1;" 
d="M117 229q9 2 24 3.5l35 3.5q38 47 80 93.5t86.5 90t90.5 82t92 68.5q26 17 45 25.5t33.5 10t24.5 -2.5t18 -11q3 4 13 14q11 11 26.5 17.5t28 6t17.5 -8t-4 -24.5q-34 -61 -69 -133l-68 -145l-62 -143l-51.5 -127.5t-37 -98.5t-17.5 -55q-5 -22 -21 -23.5t-32 12.5
t-26.5 40t-2.5 59q6 26 24 71.5t46 103.5q-42 -1 -92.5 -5.5t-90.5 -7.5l-58 -83l-46.5 -71.5l-34.5 -56.5l-21 -36q-15 -25 -29.5 -20t-24 25t-11 47.5t9.5 47.5q20 37 47.5 80t62.5 89q-15 18 -19.5 37.5t14.5 24.5zM625 555q-94 -62 -176 -145t-151 -170q37 0 75 -1.5
t73 -5.5l83.5 158t95.5 164zM610 703q11 14 30 30.5t39.5 30t40 22.5t31.5 9q10 0 18 -9t10.5 -21t-2 -25t-17.5 -21q-15 -9 -36 -19t-42.5 -18.5t-40 -14.5t-27.5 -8q-13 -2 -18 1t-4 10t6 15.5t12 17.5z" />
    <glyph glyph-name="Agrave" unicode="&#xc0;" 
d="M117 229q9 2 24 3.5l35 3.5q38 47 80 93.5t86.5 90t90.5 82t92 68.5q26 17 45 25.5t33.5 10t24.5 -2.5t18 -11q3 4 13 14q11 11 26.5 17.5t28 6t17.5 -8t-4 -24.5q-34 -61 -69 -133l-68 -145l-62 -143l-51.5 -127.5t-37 -98.5t-17.5 -55q-5 -22 -21 -23.5t-32 12.5
t-26.5 40t-2.5 59q6 26 24 71.5t46 103.5q-42 -1 -92.5 -5.5t-90.5 -7.5l-58 -83l-46.5 -71.5l-34.5 -56.5l-21 -36q-15 -25 -29.5 -20t-24 25t-11 47.5t9.5 47.5q20 37 47.5 80t62.5 89q-15 18 -19.5 37.5t14.5 24.5zM625 555q-94 -62 -176 -145t-151 -170q37 0 75 -1.5
t73 -5.5l83.5 158t95.5 164zM692 665q-16 8 -32 23.5t-30 33t-23.5 34.5t-11.5 29q-3 13 7 25t24.5 18t28.5 3t20 -21q11 -31 24.5 -65t27.5 -54q8 -11 7 -18.5t-7 -11t-15.5 -2.5t-19.5 6z" />
    <glyph glyph-name="Ntilde" unicode="&#xd1;" horiz-adv-x="695" 
d="M79 -103q-5 -13 -20.5 -12.5t-30 11.5t-22.5 31t2 47q7 18 29.5 63.5t55 105.5l72.5 128.5t81.5 132.5t81.5 116.5t73 81.5q10 8 24 8t26.5 -7t20.5 -20t5 -31q-8 -44 -15 -108.5t-12 -132t-7 -128.5t2 -98q20 59 44.5 118.5l49.5 114.5l48.5 104l43 87l32.5 62.5
t17 31.5q6 10 22.5 11t31.5 -6t22 -21t-6 -33q-9 -13 -29.5 -51.5l-48.5 -94l-60 -122.5l-64 -135.5l-61.5 -134.5t-50.5 -119q-6 -13 -13 -16.5t-14.5 -1t-14 9t-11.5 12.5q-11 -2 -20.5 4t-16.5 27q-7 22 -9 65.5t-1 97.5t4.5 113t8 112t9.5 95.5t10 62.5
q-23 -34 -50.5 -82.5l-56 -103l-56 -112l-52 -111l-44 -98.5t-30.5 -74zM468 748q32 34 63.5 48t56.5 12.5t39 -17.5t12 -43t5.5 -35t19.5 -2t25.5 25t24.5 48q5 13 19 14.5t24 -7.5t9 -28t-26 -47q-35 -38 -67 -54t-56 -14.5t-37.5 18.5t-12.5 45t-9 31.5t-25.5 -5
t-33 -23.5t-31.5 -25t-20 -6t-5 14.5t7.5 24.5t17.5 26z" />
    <glyph glyph-name="Ograve" unicode="&#xd2;" horiz-adv-x="651" 
d="M430 614q35 0 51 -17.5t20 -46.5q35 2 53 -9.5t26 -37.5q15 -50 10 -110t-25.5 -122.5t-54.5 -123t-75.5 -112t-89 -90t-95 -56.5t-93 -12.5t-84.5 42.5q-55 53 -66 125t10 149t66.5 152.5t104 135t122 96.5t120.5 37zM120 -21q29 -19 71.5 -0.5t87 62t87 105.5t73 131
t43.5 137.5t0 125.5q-33 6 -67.5 -9.5t-69.5 -45t-69 -70.5t-64 -86q-34 -51 -63 -105.5t-44.5 -103t-13.5 -86.5t29 -55zM522 646q-16 8 -32 23.5t-30 33t-23.5 34.5t-11.5 29q-3 13 7 25t24.5 18t28.5 3t20 -21q11 -31 24.5 -65t27.5 -54q8 -11 7 -18.5t-7 -11t-15.5 -2.5
t-19.5 6z" />
    <glyph glyph-name="Oacute" unicode="&#xd3;" horiz-adv-x="651" 
d="M430 614q35 0 51 -17.5t20 -46.5q35 2 53 -9.5t26 -37.5q15 -50 10 -110t-25.5 -122.5t-54.5 -123t-75.5 -112t-89 -90t-95 -56.5t-93 -12.5t-84.5 42.5q-55 53 -66 125t10 149t66.5 152.5t104 135t122 96.5t120.5 37zM120 -21q29 -19 71.5 -0.5t87 62t87 105.5t73 131
t43.5 137.5t0 125.5q-33 6 -67.5 -9.5t-69.5 -45t-69 -70.5t-64 -86q-34 -51 -63 -105.5t-44.5 -103t-13.5 -86.5t29 -55zM457 691q11 14 30 30.5t39.5 30t40 22.5t31.5 9q10 0 18 -9t10.5 -21t-2 -25t-17.5 -21q-15 -9 -36 -19t-42.5 -18.5t-40 -14.5t-27.5 -8
q-13 -2 -18 1t-4 10t6 15.5t12 17.5z" />
    <glyph glyph-name="Ocircumflex" unicode="&#xd4;" horiz-adv-x="651" 
d="M430 614q35 0 51 -17.5t20 -46.5q35 2 53 -9.5t26 -37.5q15 -50 10 -110t-25.5 -122.5t-54.5 -123t-75.5 -112t-89 -90t-95 -56.5t-93 -12.5t-84.5 42.5q-55 53 -66 125t10 149t66.5 152.5t104 135t122 96.5t120.5 37zM120 -21q29 -19 71.5 -0.5t87 62t87 105.5t73 131
t43.5 137.5t0 125.5q-33 6 -67.5 -9.5t-69.5 -45t-69 -70.5t-64 -86q-34 -51 -63 -105.5t-44.5 -103t-13.5 -86.5t29 -55zM559 669q-19 10 -28.5 33.5t-17.5 49.5l-47.5 -33.5l-33.5 -24.5t-28.5 -22.5l-32.5 -27.5q-10 -9 -16.5 -5t-9.5 14t-2.5 23t6.5 23q7 13 26 31.5
t41.5 37.5t45.5 36.5l39 29.5q8 6 19 10.5t21.5 5t18 -4t8.5 -17.5q2 -29 10.5 -64.5t21.5 -64.5q5 -12 3 -20.5t-8.5 -12t-16 -3t-19.5 5.5z" />
    <glyph glyph-name="Otilde" unicode="&#xd5;" horiz-adv-x="651" 
d="M430 614q35 0 51 -17.5t20 -46.5q35 2 53 -9.5t26 -37.5q15 -50 10 -110t-25.5 -122.5t-54.5 -123t-75.5 -112t-89 -90t-95 -56.5t-93 -12.5t-84.5 42.5q-55 53 -66 125t10 149t66.5 152.5t104 135t122 96.5t120.5 37zM120 -21q29 -19 71.5 -0.5t87 62t87 105.5t73 131
t43.5 137.5t0 125.5q-33 6 -67.5 -9.5t-69.5 -45t-69 -70.5t-64 -86q-34 -51 -63 -105.5t-44.5 -103t-13.5 -86.5t29 -55zM386 735q32 34 63.5 48t56.5 12.5t39 -17.5t12 -43t5.5 -35t19.5 -2t25.5 25t24.5 48q5 13 19 14.5t24 -7.5t9 -28t-26 -47q-35 -38 -67 -54
t-56 -14.5t-37.5 18.5t-12.5 45t-9 31.5t-25.5 -5t-33 -23.5t-31.5 -25t-20 -6t-5 14.5t7.5 24.5t17.5 26z" />
    <glyph glyph-name="Odieresis" unicode="&#xd6;" horiz-adv-x="651" 
d="M430 614q35 0 51 -17.5t20 -46.5q35 2 53 -9.5t26 -37.5q15 -50 10 -110t-25.5 -122.5t-54.5 -123t-75.5 -112t-89 -90t-95 -56.5t-93 -12.5t-84.5 42.5q-55 53 -66 125t10 149t66.5 152.5t104 135t122 96.5t120.5 37zM120 -21q29 -19 71.5 -0.5t87 62t87 105.5t73 131
t43.5 137.5t0 125.5q-33 6 -67.5 -9.5t-69.5 -45t-69 -70.5t-64 -86q-34 -51 -63 -105.5t-44.5 -103t-13.5 -86.5t29 -55zM461 709q-7 -11 -17 -21t-20.5 -16t-20.5 -7t-19 5q-10 7 -14.5 18t-5 23t3.5 24.5t11 23.5q14 23 35 30t38 -5t20 -32.5t-11 -42.5zM591 697
q-18 -21 -42 -28t-42 6q-10 7 -13.5 19t-2.5 25.5t6.5 27t14.5 24.5q18 21 41.5 25t40.5 -11q16 -16 15 -41.5t-18 -46.5z" />
    <glyph glyph-name="Ugrave" unicode="&#xd9;" 
d="M345 -27q1 15 8 41t18 57.5t25 67t31 70.5l-94.5 -116t-78 -92.5t-65.5 -64t-57 -30.5q-24 -6 -45 1t-37.5 22t-28 36t-15.5 44q-11 49 10.5 120t64 150.5t101 160.5t122.5 151q10 10 28.5 9t34.5 -9.5t24.5 -22t-0.5 -26.5q-152 -209 -223 -342t-75 -173
q-3 -28 13 -38.5t34 -2.5q22 10 53.5 45t85 102.5l133.5 171l198 249.5q22 33 52 47t53.5 13t34.5 -13.5t-3 -31.5q-39 -53 -76.5 -116t-71.5 -128t-63.5 -128.5t-52 -117.5t-37 -94.5t-19.5 -59.5q-3 -15 -17 -16t-29 7.5t-26.5 24t-9.5 32.5zM550 642q-16 8 -32 23.5
t-30 33t-23.5 34.5t-11.5 29q-3 13 7 25t24.5 18t28.5 3t20 -21q11 -31 24.5 -65t27.5 -54q8 -11 7 -18.5t-7 -11t-15.5 -2.5t-19.5 6z" />
    <glyph glyph-name="Uacute" unicode="&#xda;" 
d="M345 -27q1 15 8 41t18 57.5t25 67t31 70.5l-94.5 -116t-78 -92.5t-65.5 -64t-57 -30.5q-24 -6 -45 1t-37.5 22t-28 36t-15.5 44q-11 49 10.5 120t64 150.5t101 160.5t122.5 151q10 10 28.5 9t34.5 -9.5t24.5 -22t-0.5 -26.5q-152 -209 -223 -342t-75 -173
q-3 -28 13 -38.5t34 -2.5q22 10 53.5 45t85 102.5l133.5 171l198 249.5q22 33 52 47t53.5 13t34.5 -13.5t-3 -31.5q-39 -53 -76.5 -116t-71.5 -128t-63.5 -128.5t-52 -117.5t-37 -94.5t-19.5 -59.5q-3 -15 -17 -16t-29 7.5t-26.5 24t-9.5 32.5zM488 678q11 14 30 30.5
t39.5 30t40 22.5t31.5 9q10 0 18 -9t10.5 -21t-2 -25t-17.5 -21q-15 -9 -36 -19t-42.5 -18.5t-40 -14.5t-27.5 -8q-13 -2 -18 1t-4 10t6 15.5t12 17.5z" />
    <glyph glyph-name="Ucircumflex" unicode="&#xdb;" 
d="M345 -27q1 15 8 41t18 57.5t25 67t31 70.5l-94.5 -116t-78 -92.5t-65.5 -64t-57 -30.5q-24 -6 -45 1t-37.5 22t-28 36t-15.5 44q-11 49 10.5 120t64 150.5t101 160.5t122.5 151q10 10 28.5 9t34.5 -9.5t24.5 -22t-0.5 -26.5q-152 -209 -223 -342t-75 -173
q-3 -28 13 -38.5t34 -2.5q22 10 53.5 45t85 102.5l133.5 171l198 249.5q22 33 52 47t53.5 13t34.5 -13.5t-3 -31.5q-39 -53 -76.5 -116t-71.5 -128t-63.5 -128.5t-52 -117.5t-37 -94.5t-19.5 -59.5q-3 -15 -17 -16t-29 7.5t-26.5 24t-9.5 32.5zM625 664q-19 10 -28.5 33.5
t-17.5 49.5l-47.5 -33.5l-33.5 -24.5t-28.5 -22.5l-32.5 -27.5q-10 -9 -16.5 -5t-9.5 14t-2.5 23t6.5 23q7 13 26 31.5t41.5 37.5t45.5 36.5l39 29.5q8 6 19 10.5t21.5 5t18 -4t8.5 -17.5q2 -29 10.5 -64.5t21.5 -64.5q5 -12 3 -20.5t-8.5 -12t-16 -3t-19.5 5.5z" />
    <glyph glyph-name="Udieresis" unicode="&#xdc;" 
d="M345 -27q1 15 8 41t18 57.5t25 67t31 70.5l-94.5 -116t-78 -92.5t-65.5 -64t-57 -30.5q-24 -6 -45 1t-37.5 22t-28 36t-15.5 44q-11 49 10.5 120t64 150.5t101 160.5t122.5 151q10 10 28.5 9t34.5 -9.5t24.5 -22t-0.5 -26.5q-152 -209 -223 -342t-75 -173
q-3 -28 13 -38.5t34 -2.5q22 10 53.5 45t85 102.5l133.5 171l198 249.5q22 33 52 47t53.5 13t34.5 -13.5t-3 -31.5q-39 -53 -76.5 -116t-71.5 -128t-63.5 -128.5t-52 -117.5t-37 -94.5t-19.5 -59.5q-3 -15 -17 -16t-29 7.5t-26.5 24t-9.5 32.5zM515 675q-7 -11 -17 -21
t-20.5 -16t-20.5 -7t-19 5q-10 7 -14.5 18t-5 23t3.5 24.5t11 23.5q14 23 35 30t38 -5t20 -32.5t-11 -42.5zM645 663q-18 -21 -42 -28t-42 6q-10 7 -13.5 19t-2.5 25.5t6.5 27t14.5 24.5q18 21 41.5 25t40.5 -11q16 -16 15 -41.5t-18 -46.5z" />
    <glyph glyph-name="Yacute" unicode="&#xdd;" horiz-adv-x="470" 
d="M589 546q-82 -88 -154 -173.5l-136.5 -169.5l-122.5 -166.5l-112 -164.5q-10 -15 -24.5 -10t-24.5 22.5t-12.5 43t11.5 51.5q6 11 18.5 30.5t30.5 45l40 56.5l47 65q-13 48 -22 105t-13.5 111.5t-4.5 100.5t5 72q4 24 19.5 37.5t32.5 18t30 0t13 -17.5q-1 -21 -3 -55
t-2 -77.5t3 -94t13 -104.5l75.5 100.5l70.5 91l58.5 72t39.5 43.5q26 25 54.5 28.5t48.5 -4.5t28 -24.5t-7 -32.5zM325 692q11 14 30 30.5t39.5 30t40 22.5t31.5 9q10 0 18 -9t10.5 -21t-2 -25t-17.5 -21q-15 -9 -36 -19t-42.5 -18.5t-40 -14.5t-27.5 -8q-13 -2 -18 1t-4 10
t6 15.5t12 17.5z" />
    <glyph glyph-name="agrave" unicode="&#xe0;" horiz-adv-x="427" 
d="M255 349q-30 -7 -63.5 -27.5t-64 -45t-56 -50l-40.5 -41.5q-15 -17 -20.5 -29.5t-4 -18.5t9 -4.5t19.5 13.5t31.5 29.5l42.5 36.5l47.5 37.5t46.5 31.5t41 14.5t29.5 -9.5t9.5 -33t-19 -55q-12 -21 -12.5 -33t4.5 -17.5t14 -5t17 4.5q29 13 67.5 43t72.5 64
q13 13 25.5 14.5t19 -5.5t5 -19t-14.5 -25q-20 -20 -47 -43t-55.5 -45t-56.5 -40.5t-50 -27.5q-25 -11 -44.5 -7.5t-30 17.5t-9.5 38t17 56q17 33 13 39.5t-18 -3.5q-8 -5 -28 -24.5l-45.5 -45l-52.5 -51.5t-48 -44q-17 -15 -37 -13t-33.5 18.5t-16 45.5t15.5 67
q18 39 47.5 78.5t67 73t81 58.5t89.5 35q18 4 32 -2t20 -16t2.5 -20t-20.5 -14zM267 458q-16 8 -32 23.5t-30 33t-23.5 34.5t-11.5 29q-3 13 7 25t24.5 18t28.5 3t20 -21q11 -31 24.5 -65t27.5 -54q8 -11 7 -18.5t-7 -11t-15.5 -2.5t-19.5 6z" />
    <glyph glyph-name="aacute" unicode="&#xe1;" horiz-adv-x="427" 
d="M255 349q-30 -7 -63.5 -27.5t-64 -45t-56 -50l-40.5 -41.5q-15 -17 -20.5 -29.5t-4 -18.5t9 -4.5t19.5 13.5t31.5 29.5l42.5 36.5l47.5 37.5t46.5 31.5t41 14.5t29.5 -9.5t9.5 -33t-19 -55q-12 -21 -12.5 -33t4.5 -17.5t14 -5t17 4.5q29 13 67.5 43t72.5 64
q13 13 25.5 14.5t19 -5.5t5 -19t-14.5 -25q-20 -20 -47 -43t-55.5 -45t-56.5 -40.5t-50 -27.5q-25 -11 -44.5 -7.5t-30 17.5t-9.5 38t17 56q17 33 13 39.5t-18 -3.5q-8 -5 -28 -24.5l-45.5 -45l-52.5 -51.5t-48 -44q-17 -15 -37 -13t-33.5 18.5t-16 45.5t15.5 67
q18 39 47.5 78.5t67 73t81 58.5t89.5 35q18 4 32 -2t20 -16t2.5 -20t-20.5 -14zM199 493q11 14 30 30.5t39.5 30t40 22.5t31.5 9q10 0 18 -9t10.5 -21t-2 -25t-17.5 -21q-15 -9 -36 -19t-42.5 -18.5t-40 -14.5t-27.5 -8q-13 -2 -18 1t-4 10t6 15.5t12 17.5z" />
    <glyph glyph-name="acircumflex" unicode="&#xe2;" horiz-adv-x="427" 
d="M255 349q-30 -7 -63.5 -27.5t-64 -45t-56 -50l-40.5 -41.5q-15 -17 -20.5 -29.5t-4 -18.5t9 -4.5t19.5 13.5t31.5 29.5l42.5 36.5l47.5 37.5t46.5 31.5t41 14.5t29.5 -9.5t9.5 -33t-19 -55q-12 -21 -12.5 -33t4.5 -17.5t14 -5t17 4.5q29 13 67.5 43t72.5 64
q13 13 25.5 14.5t19 -5.5t5 -19t-14.5 -25q-20 -20 -47 -43t-55.5 -45t-56.5 -40.5t-50 -27.5q-25 -11 -44.5 -7.5t-30 17.5t-9.5 38t17 56q17 33 13 39.5t-18 -3.5q-8 -5 -28 -24.5l-45.5 -45l-52.5 -51.5t-48 -44q-17 -15 -37 -13t-33.5 18.5t-16 45.5t15.5 67
q18 39 47.5 78.5t67 73t81 58.5t89.5 35q18 4 32 -2t20 -16t2.5 -20t-20.5 -14zM308 454q-19 10 -28.5 33.5t-17.5 49.5l-47.5 -33.5l-33.5 -24.5t-28.5 -22.5l-32.5 -27.5q-10 -9 -16.5 -5t-9.5 14t-2.5 23t6.5 23q7 13 26 31.5t41.5 37.5t45.5 36.5l39 29.5q8 6 19 10.5
t21.5 5t18 -4t8.5 -17.5q2 -29 10.5 -64.5t21.5 -64.5q5 -12 3 -20.5t-8.5 -12t-16 -3t-19.5 5.5z" />
    <glyph glyph-name="atilde" unicode="&#xe3;" horiz-adv-x="427" 
d="M255 349q-30 -7 -63.5 -27.5t-64 -45t-56 -50l-40.5 -41.5q-15 -17 -20.5 -29.5t-4 -18.5t9 -4.5t19.5 13.5t31.5 29.5l42.5 36.5l47.5 37.5t46.5 31.5t41 14.5t29.5 -9.5t9.5 -33t-19 -55q-12 -21 -12.5 -33t4.5 -17.5t14 -5t17 4.5q29 13 67.5 43t72.5 64
q13 13 25.5 14.5t19 -5.5t5 -19t-14.5 -25q-20 -20 -47 -43t-55.5 -45t-56.5 -40.5t-50 -27.5q-25 -11 -44.5 -7.5t-30 17.5t-9.5 38t17 56q17 33 13 39.5t-18 -3.5q-8 -5 -28 -24.5l-45.5 -45l-52.5 -51.5t-48 -44q-17 -15 -37 -13t-33.5 18.5t-16 45.5t15.5 67
q18 39 47.5 78.5t67 73t81 58.5t89.5 35q18 4 32 -2t20 -16t2.5 -20t-20.5 -14zM142 543q32 34 63.5 48t56.5 12.5t39 -17.5t12 -43t5.5 -35t19.5 -2t25.5 25t24.5 48q5 13 19 14.5t24 -7.5t9 -28t-26 -47q-35 -38 -67 -54t-56 -14.5t-37.5 18.5t-12.5 45t-9 31.5t-25.5 -5
t-33 -23.5t-31.5 -25t-20 -6t-5 14.5t7.5 24.5t17.5 26z" />
    <glyph glyph-name="adieresis" unicode="&#xe4;" horiz-adv-x="427" 
d="M255 349q-30 -7 -63.5 -27.5t-64 -45t-56 -50l-40.5 -41.5q-15 -17 -20.5 -29.5t-4 -18.5t9 -4.5t19.5 13.5t31.5 29.5l42.5 36.5l47.5 37.5t46.5 31.5t41 14.5t29.5 -9.5t9.5 -33t-19 -55q-12 -21 -12.5 -33t4.5 -17.5t14 -5t17 4.5q29 13 67.5 43t72.5 64
q13 13 25.5 14.5t19 -5.5t5 -19t-14.5 -25q-20 -20 -47 -43t-55.5 -45t-56.5 -40.5t-50 -27.5q-25 -11 -44.5 -7.5t-30 17.5t-9.5 38t17 56q17 33 13 39.5t-18 -3.5q-8 -5 -28 -24.5l-45.5 -45l-52.5 -51.5t-48 -44q-17 -15 -37 -13t-33.5 18.5t-16 45.5t15.5 67
q18 39 47.5 78.5t67 73t81 58.5t89.5 35q18 4 32 -2t20 -16t2.5 -20t-20.5 -14zM228 496q-7 -11 -17 -21t-20.5 -16t-20.5 -7t-19 5q-10 7 -14.5 18t-5 23t3.5 24.5t11 23.5q14 23 35 30t38 -5t20 -32.5t-11 -42.5zM358 484q-18 -21 -42 -28t-42 6q-10 7 -13.5 19t-2.5 25.5
t6.5 27t14.5 24.5q18 21 41.5 25t40.5 -11q16 -16 15 -41.5t-18 -46.5z" />
    <glyph glyph-name="aring" unicode="&#xe5;" horiz-adv-x="427" 
d="M255 349q-30 -7 -63.5 -27.5t-64 -45t-56 -50l-40.5 -41.5q-15 -17 -20.5 -29.5t-4 -18.5t9 -4.5t19.5 13.5t31.5 29.5l42.5 36.5l47.5 37.5t46.5 31.5t41 14.5t29.5 -9.5t9.5 -33t-19 -55q-12 -21 -12.5 -33t4.5 -17.5t14 -5t17 4.5q29 13 67.5 43t72.5 64
q13 13 25.5 14.5t19 -5.5t5 -19t-14.5 -25q-20 -20 -47 -43t-55.5 -45t-56.5 -40.5t-50 -27.5q-25 -11 -44.5 -7.5t-30 17.5t-9.5 38t17 56q17 33 13 39.5t-18 -3.5q-8 -5 -28 -24.5l-45.5 -45l-52.5 -51.5t-48 -44q-17 -15 -37 -13t-33.5 18.5t-16 45.5t15.5 67
q18 39 47.5 78.5t67 73t81 58.5t89.5 35q18 4 32 -2t20 -16t2.5 -20t-20.5 -14zM273 610q24 0 45 -7t37 -19t25 -28t9 -34t-9 -34t-25 -27.5t-37 -18.5t-45 -7t-45 7t-36.5 18.5t-24.5 27.5t-9 34t9 34t24.5 28t36.5 19t45 7zM279 484q23 0 39 10t16 25q0 14 -16 24.5
t-39 10.5t-39 -10.5t-16 -24.5q0 -15 16 -25t39 -10z" />
    <glyph glyph-name="ccedilla" unicode="&#xe7;" horiz-adv-x="324" 
d="M-65 -59q8 8 17 18q8 8 16.5 19.5t16.5 25.5q-29 8 -45 30t-17 54t14 71t50 81q18 22 42.5 43.5t52 38.5t57 28.5t58.5 12.5q44 1 65 -11.5t26 -25.5q5 -14 -0.5 -25t-16 -17t-22.5 -6t-20 6t-23 8.5t-42 -1.5q-18 -3 -35 -10t-32.5 -17.5t-29 -22t-22.5 -23.5
q-30 -38 -40.5 -68.5t-1.5 -47.5t38 -16.5t77 24.5q20 10 47 27t55.5 37t55.5 41t48 39q7 6 17.5 5.5t18 -5.5t8.5 -14.5t-9 -20.5q-24 -25 -55 -51.5l-63 -51.5t-62.5 -46t-54.5 -35q-31 -18 -62 -28q-17 -30 -40 -53q25 -2 44.5 -12.5t26.5 -27.5t-2 -40t-41 -49
q-35 -29 -71 -40t-68 -4q-12 3 -18.5 12t-7 19t5.5 18t19 8q20 -1 46 10.5t54 37.5q16 16 17.5 26t-6.5 13.5t-23.5 -0.5t-31.5 -16q-12 -9 -21 -7t-13.5 8.5t-4 15.5t7.5 15z" />
    <glyph glyph-name="egrave" unicode="&#xe8;" horiz-adv-x="321" 
d="M233 392q26 -16 25 -51t-30 -74.5t-87.5 -75.5t-146.5 -54q-10 -24 -8.5 -43t15 -29t38.5 -7.5t62 20.5q46 23 99 66t121 110q14 15 27 17t20 -4.5t5 -19.5t-17 -28q-63 -63 -124 -118t-131 -94q-58 -33 -106 -35.5t-71.5 23.5t-15 81t62.5 138q45 69 85.5 109.5t74 59
t59.5 19t43 -9.5zM173 334q-16 -3 -34.5 -15t-38 -30.5t-38.5 -42.5t-35 -49q52 10 88.5 34t56 48t20 41t-18.5 14zM224 448q-16 8 -32 23.5t-30 33t-23.5 34.5t-11.5 29q-3 13 7 25t24.5 18t28.5 3t20 -21q11 -31 24.5 -65t27.5 -54q8 -11 7 -18.5t-7 -11t-15.5 -2.5
t-19.5 6z" />
    <glyph glyph-name="eacute" unicode="&#xe9;" horiz-adv-x="321" 
d="M233 392q26 -16 25 -51t-30 -74.5t-87.5 -75.5t-146.5 -54q-10 -24 -8.5 -43t15 -29t38.5 -7.5t62 20.5q46 23 99 66t121 110q14 15 27 17t20 -4.5t5 -19.5t-17 -28q-63 -63 -124 -118t-131 -94q-58 -33 -106 -35.5t-71.5 23.5t-15 81t62.5 138q45 69 85.5 109.5t74 59
t59.5 19t43 -9.5zM173 334q-16 -3 -34.5 -15t-38 -30.5t-38.5 -42.5t-35 -49q52 10 88.5 34t56 48t20 41t-18.5 14zM182 507q11 14 30 30.5t39.5 30t40 22.5t31.5 9q10 0 18 -9t10.5 -21t-2 -25t-17.5 -21q-15 -9 -36 -19t-42.5 -18.5t-40 -14.5t-27.5 -8q-13 -2 -18 1
t-4 10t6 15.5t12 17.5z" />
    <glyph glyph-name="ecircumflex" unicode="&#xea;" horiz-adv-x="321" 
d="M233 392q26 -16 25 -51t-30 -74.5t-87.5 -75.5t-146.5 -54q-10 -24 -8.5 -43t15 -29t38.5 -7.5t62 20.5q46 23 99 66t121 110q14 15 27 17t20 -4.5t5 -19.5t-17 -28q-63 -63 -124 -118t-131 -94q-58 -33 -106 -35.5t-71.5 23.5t-15 81t62.5 138q45 69 85.5 109.5t74 59
t59.5 19t43 -9.5zM173 334q-16 -3 -34.5 -15t-38 -30.5t-38.5 -42.5t-35 -49q52 10 88.5 34t56 48t20 41t-18.5 14zM296 464q-19 10 -28.5 33.5t-17.5 49.5l-47.5 -33.5l-33.5 -24.5t-28.5 -22.5l-32.5 -27.5q-10 -9 -16.5 -5t-9.5 14t-2.5 23t6.5 23q7 13 26 31.5
t41.5 37.5t45.5 36.5l39 29.5q8 6 19 10.5t21.5 5t18 -4t8.5 -17.5q2 -29 10.5 -64.5t21.5 -64.5q5 -12 3 -20.5t-8.5 -12t-16 -3t-19.5 5.5z" />
    <glyph glyph-name="edieresis" unicode="&#xeb;" horiz-adv-x="321" 
d="M233 392q26 -16 25 -51t-30 -74.5t-87.5 -75.5t-146.5 -54q-10 -24 -8.5 -43t15 -29t38.5 -7.5t62 20.5q46 23 99 66t121 110q14 15 27 17t20 -4.5t5 -19.5t-17 -28q-63 -63 -124 -118t-131 -94q-58 -33 -106 -35.5t-71.5 23.5t-15 81t62.5 138q45 69 85.5 109.5t74 59
t59.5 19t43 -9.5zM173 334q-16 -3 -34.5 -15t-38 -30.5t-38.5 -42.5t-35 -49q52 10 88.5 34t56 48t20 41t-18.5 14zM208 496q-7 -11 -17 -21t-20.5 -16t-20.5 -7t-19 5q-10 7 -14.5 18t-5 23t3.5 24.5t11 23.5q14 23 35 30t38 -5t20 -32.5t-11 -42.5zM338 484
q-18 -21 -42 -28t-42 6q-10 7 -13.5 19t-2.5 25.5t6.5 27t14.5 24.5q18 21 41.5 25t40.5 -11q16 -16 15 -41.5t-18 -46.5z" />
    <glyph glyph-name="igrave" unicode="&#xec;" horiz-adv-x="242" 
d="M0 254q23 24 55.5 52.5t59.5 49.5q13 10 26.5 11t22.5 -5t11.5 -17t-4.5 -24l-14.5 -24.5l-14 -25.5l-17 -32l-22.5 -43q-14 -25 -7 -32t28 1.5t52 31t66 57.5q12 12 23.5 13t18.5 -5t6 -18t-14 -25l-26 -25.5l-35.5 -33t-40.5 -34t-40 -28.5q-31 -20 -56 -23.5t-39.5 7
t-16 35.5t15.5 63l10.5 27t5 18.5t-3.5 5.5t-15 -12t-22 -11t-17.5 6.5t-6.5 17.5t11 22zM215 418q-16 8 -32 23.5t-30 33t-23.5 34.5t-11.5 29q-3 13 7 25t24.5 18t28.5 3t20 -21q11 -31 24.5 -65t27.5 -54q8 -11 7 -18.5t-7 -11t-15.5 -2.5t-19.5 6z" />
    <glyph glyph-name="iacute" unicode="&#xed;" horiz-adv-x="242" 
d="M0 254q23 24 55.5 52.5t59.5 49.5q13 10 26.5 11t22.5 -5t11.5 -17t-4.5 -24l-14.5 -24.5l-14 -25.5l-17 -32l-22.5 -43q-14 -25 -7 -32t28 1.5t52 31t66 57.5q12 12 23.5 13t18.5 -5t6 -18t-14 -25l-26 -25.5l-35.5 -33t-40.5 -34t-40 -28.5q-31 -20 -56 -23.5t-39.5 7
t-16 35.5t15.5 63l10.5 27t5 18.5t-3.5 5.5t-15 -12t-22 -11t-17.5 6.5t-6.5 17.5t11 22zM153 477q11 14 30 30.5t39.5 30t40 22.5t31.5 9q10 0 18 -9t10.5 -21t-2 -25t-17.5 -21q-15 -9 -36 -19t-42.5 -18.5t-40 -14.5t-27.5 -8q-13 -2 -18 1t-4 10t6 15.5t12 17.5z" />
    <glyph glyph-name="icircumflex" unicode="&#xee;" horiz-adv-x="242" 
d="M0 254q23 24 55.5 52.5t59.5 49.5q13 10 26.5 11t22.5 -5t11.5 -17t-4.5 -24l-14.5 -24.5l-14 -25.5l-17 -32l-22.5 -43q-14 -25 -7 -32t28 1.5t52 31t66 57.5q12 12 23.5 13t18.5 -5t6 -18t-14 -25l-26 -25.5l-35.5 -33t-40.5 -34t-40 -28.5q-31 -20 -56 -23.5t-39.5 7
t-16 35.5t15.5 63l10.5 27t5 18.5t-3.5 5.5t-15 -12t-22 -11t-17.5 6.5t-6.5 17.5t11 22zM266 434q-19 10 -28.5 33.5t-17.5 49.5l-47.5 -33.5l-33.5 -24.5t-28.5 -22.5l-32.5 -27.5q-10 -9 -16.5 -5t-9.5 14t-2.5 23t6.5 23q7 13 26 31.5t41.5 37.5t45.5 36.5l39 29.5
q8 6 19 10.5t21.5 5t18 -4t8.5 -17.5q2 -29 10.5 -64.5t21.5 -64.5q5 -12 3 -20.5t-8.5 -12t-16 -3t-19.5 5.5z" />
    <glyph glyph-name="idieresis" unicode="&#xef;" horiz-adv-x="242" 
d="M0 254q23 24 55.5 52.5t59.5 49.5q13 10 26.5 11t22.5 -5t11.5 -17t-4.5 -24l-14.5 -24.5l-14 -25.5l-17 -32l-22.5 -43q-14 -25 -7 -32t28 1.5t52 31t66 57.5q12 12 23.5 13t18.5 -5t6 -18t-14 -25l-26 -25.5l-35.5 -33t-40.5 -34t-40 -28.5q-31 -20 -56 -23.5t-39.5 7
t-16 35.5t15.5 63l10.5 27t5 18.5t-3.5 5.5t-15 -12t-22 -11t-17.5 6.5t-6.5 17.5t11 22zM176 486q-7 -11 -17 -21t-20.5 -16t-20.5 -7t-19 5q-10 7 -14.5 18t-5 23t3.5 24.5t11 23.5q14 23 35 30t38 -5t20 -32.5t-11 -42.5zM306 474q-18 -21 -42 -28t-42 6q-10 7 -13.5 19
t-2.5 25.5t6.5 27t14.5 24.5q18 21 41.5 25t40.5 -11q16 -16 15 -41.5t-18 -46.5z" />
    <glyph glyph-name="ntilde" unicode="&#xf1;" horiz-adv-x="506" 
d="M0 254q19 19 37 35t36.5 30l38.5 28l44 30q28 18 49 19.5t33.5 -7.5t15 -25.5t-7.5 -33.5t-25 -39l-31 -45.5l-31 -44.5l-24 -34q-10 -14 -11.5 -20.5t1.5 -8t9.5 2.5t14.5 13l20 20t33 31t42.5 36t49.5 36q26 16 45 17.5t31.5 -6t17.5 -19.5t3 -22q-5 -20 -10.5 -31
t-13.5 -31q-12 -27 -6 -34t26 3.5t50.5 36.5t68.5 63q15 15 27.5 16.5t18.5 -5t4.5 -19.5t-15.5 -27l-34.5 -33.5l-43.5 -39.5t-47.5 -38t-46.5 -29q-25 -12 -44.5 -10.5t-31.5 13.5t-13.5 32.5t9.5 46.5q20 48 14 59t-44 -23q-19 -17 -46 -44.5l-54 -57.5t-50 -58.5
t-35 -47.5q-12 -20 -27 -21.5t-26.5 8t-15.5 28.5t5 40q7 16 21.5 45.5t31.5 61l34 61t29 46.5q21 30 17.5 36t-20.5 -3.5t-41.5 -29.5t-46.5 -42q-17 -17 -30.5 -19t-19.5 5t-3 20.5t18 28.5zM232 493q32 34 63.5 48t56.5 12.5t39 -17.5t12 -43t5.5 -35t19.5 -2t25.5 25
t24.5 48q5 13 19 14.5t24 -7.5t9 -28t-26 -47q-35 -38 -67 -54t-56 -14.5t-37.5 18.5t-12.5 45t-9 31.5t-25.5 -5t-33 -23.5t-31.5 -25t-20 -6t-5 14.5t7.5 24.5t17.5 26z" />
    <glyph glyph-name="ograve" unicode="&#xf2;" horiz-adv-x="333" 
d="M333 254q8 8 19 8.5t18.5 -5t8.5 -16t-11 -22.5q-44 -44 -83.5 -59t-69.5 -10l-18 -24q-27 -34 -57.5 -59t-60.5 -38.5t-58.5 -14.5t-50.5 12t-30 37.5t-3.5 55.5t20.5 66t43 69t57.5 59t61 38.5t59 14.5t50.5 -12q32 -20 34.5 -62.5t-20.5 -93.5q18 1 39.5 14t51.5 42z
M158 295q-13 4 -28 -1.5t-30.5 -17.5t-29.5 -29t-25 -35t-17 -36t-6 -33t5.5 -26.5t18.5 -15.5q26 -9 55 10.5t51 56.5l4 7q-8 9 -11.5 23t-3 30t4 32t9.5 29zM240 418q-16 8 -32 23.5t-30 33t-23.5 34.5t-11.5 29q-3 13 7 25t24.5 18t28.5 3t20 -21q11 -31 24.5 -65
t27.5 -54q8 -11 7 -18.5t-7 -11t-15.5 -2.5t-19.5 6z" />
    <glyph glyph-name="oacute" unicode="&#xf3;" horiz-adv-x="333" 
d="M333 254q8 8 19 8.5t18.5 -5t8.5 -16t-11 -22.5q-44 -44 -83.5 -59t-69.5 -10l-18 -24q-27 -34 -57.5 -59t-60.5 -38.5t-58.5 -14.5t-50.5 12t-30 37.5t-3.5 55.5t20.5 66t43 69t57.5 59t61 38.5t59 14.5t50.5 -12q32 -20 34.5 -62.5t-20.5 -93.5q18 1 39.5 14t51.5 42z
M158 295q-13 4 -28 -1.5t-30.5 -17.5t-29.5 -29t-25 -35t-17 -36t-6 -33t5.5 -26.5t18.5 -15.5q26 -9 55 10.5t51 56.5l4 7q-8 9 -11.5 23t-3 30t4 32t9.5 29zM166 466q11 14 30 30.5t39.5 30t40 22.5t31.5 9q10 0 18 -9t10.5 -21t-2 -25t-17.5 -21q-15 -9 -36 -19
t-42.5 -18.5t-40 -14.5t-27.5 -8q-13 -2 -18 1t-4 10t6 15.5t12 17.5z" />
    <glyph glyph-name="ocircumflex" unicode="&#xf4;" horiz-adv-x="333" 
d="M333 254q8 8 19 8.5t18.5 -5t8.5 -16t-11 -22.5q-44 -44 -83.5 -59t-69.5 -10l-18 -24q-27 -34 -57.5 -59t-60.5 -38.5t-58.5 -14.5t-50.5 12t-30 37.5t-3.5 55.5t20.5 66t43 69t57.5 59t61 38.5t59 14.5t50.5 -12q32 -20 34.5 -62.5t-20.5 -93.5q18 1 39.5 14t51.5 42z
M158 295q-13 4 -28 -1.5t-30.5 -17.5t-29.5 -29t-25 -35t-17 -36t-6 -33t5.5 -26.5t18.5 -15.5q26 -9 55 10.5t51 56.5l4 7q-8 9 -11.5 23t-3 30t4 32t9.5 29zM282 434q-19 10 -28.5 33.5t-17.5 49.5l-47.5 -33.5l-33.5 -24.5t-28.5 -22.5l-32.5 -27.5q-10 -9 -16.5 -5
t-9.5 14t-2.5 23t6.5 23q7 13 26 31.5t41.5 37.5t45.5 36.5l39 29.5q8 6 19 10.5t21.5 5t18 -4t8.5 -17.5q2 -29 10.5 -64.5t21.5 -64.5q5 -12 3 -20.5t-8.5 -12t-16 -3t-19.5 5.5z" />
    <glyph glyph-name="otilde" unicode="&#xf5;" horiz-adv-x="333" 
d="M333 254q8 8 19 8.5t18.5 -5t8.5 -16t-11 -22.5q-44 -44 -83.5 -59t-69.5 -10l-18 -24q-27 -34 -57.5 -59t-60.5 -38.5t-58.5 -14.5t-50.5 12t-30 37.5t-3.5 55.5t20.5 66t43 69t57.5 59t61 38.5t59 14.5t50.5 -12q32 -20 34.5 -62.5t-20.5 -93.5q18 1 39.5 14t51.5 42z
M158 295q-13 4 -28 -1.5t-30.5 -17.5t-29.5 -29t-25 -35t-17 -36t-6 -33t5.5 -26.5t18.5 -15.5q26 -9 55 10.5t51 56.5l4 7q-8 9 -11.5 23t-3 30t4 32t9.5 29zM98 513q32 34 63.5 48t56.5 12.5t39 -17.5t12 -43t5.5 -35t19.5 -2t25.5 25t24.5 48q5 13 19 14.5t24 -7.5t9 -28
t-26 -47q-35 -38 -67 -54t-56 -14.5t-37.5 18.5t-12.5 45t-9 31.5t-25.5 -5t-33 -23.5t-31.5 -25t-20 -6t-5 14.5t7.5 24.5t17.5 26z" />
    <glyph glyph-name="odieresis" unicode="&#xf6;" horiz-adv-x="333" 
d="M333 254q8 8 19 8.5t18.5 -5t8.5 -16t-11 -22.5q-44 -44 -83.5 -59t-69.5 -10l-18 -24q-27 -34 -57.5 -59t-60.5 -38.5t-58.5 -14.5t-50.5 12t-30 37.5t-3.5 55.5t20.5 66t43 69t57.5 59t61 38.5t59 14.5t50.5 -12q32 -20 34.5 -62.5t-20.5 -93.5q18 1 39.5 14t51.5 42z
M158 295q-13 4 -28 -1.5t-30.5 -17.5t-29.5 -29t-25 -35t-17 -36t-6 -33t5.5 -26.5t18.5 -15.5q26 -9 55 10.5t51 56.5l4 7q-8 9 -11.5 23t-3 30t4 32t9.5 29zM208 473q-7 -11 -17 -21t-20.5 -16t-20.5 -7t-19 5q-10 7 -14.5 18t-5 23t3.5 24.5t11 23.5q14 23 35 30t38 -5
t20 -32.5t-11 -42.5zM338 461q-18 -21 -42 -28t-42 6q-10 7 -13.5 19t-2.5 25.5t6.5 27t14.5 24.5q18 21 41.5 25t40.5 -11q16 -16 15 -41.5t-18 -46.5z" />
    <glyph glyph-name="ugrave" unicode="&#xf9;" horiz-adv-x="480" 
d="M0 254l35.5 37l36 36.5l33.5 32.5t29 24t26 10.5t22.5 -3t13 -14.5t-2.5 -24q-7 -14 -18.5 -33l-25 -39.5l-26 -41t-20.5 -37.5q-25 -51 33 -21q29 16 64 46l67 57q15 13 32 15t29 -3t17.5 -16.5t-1.5 -25.5q-6 -11 -11.5 -26l-10.5 -29q-6 -21 -1.5 -34t23 -10.5
t52 25.5t84.5 74q10 10 21 10t17.5 -7t7 -17.5t-9.5 -20.5q-83 -83 -140 -119.5t-89.5 -38.5t-41 26t5.5 76q13 43 -18 20q-16 -12 -47.5 -39.5t-77.5 -53.5q-26 -14 -51 -19t-39 4t-12 34t29 70q35 60 33.5 66t-33.5 -26q-11 -11 -22 -11t-17.5 6.5t-6.5 17.5t11 22z
M304 408q-16 8 -32 23.5t-30 33t-23.5 34.5t-11.5 29q-3 13 7 25t24.5 18t28.5 3t20 -21q11 -31 24.5 -65t27.5 -54q8 -11 7 -18.5t-7 -11t-15.5 -2.5t-19.5 6z" />
    <glyph glyph-name="uacute" unicode="&#xfa;" horiz-adv-x="480" 
d="M0 254l35.5 37l36 36.5l33.5 32.5t29 24t26 10.5t22.5 -3t13 -14.5t-2.5 -24q-7 -14 -18.5 -33l-25 -39.5l-26 -41t-20.5 -37.5q-25 -51 33 -21q29 16 64 46l67 57q15 13 32 15t29 -3t17.5 -16.5t-1.5 -25.5q-6 -11 -11.5 -26l-10.5 -29q-6 -21 -1.5 -34t23 -10.5
t52 25.5t84.5 74q10 10 21 10t17.5 -7t7 -17.5t-9.5 -20.5q-83 -83 -140 -119.5t-89.5 -38.5t-41 26t5.5 76q13 43 -18 20q-16 -12 -47.5 -39.5t-77.5 -53.5q-26 -14 -51 -19t-39 4t-12 34t29 70q35 60 33.5 66t-33.5 -26q-11 -11 -22 -11t-17.5 6.5t-6.5 17.5t11 22z
M262 447q11 14 30 30.5t39.5 30t40 22.5t31.5 9q10 0 18 -9t10.5 -21t-2 -25t-17.5 -21q-15 -9 -36 -19t-42.5 -18.5t-40 -14.5t-27.5 -8q-13 -2 -18 1t-4 10t6 15.5t12 17.5z" />
    <glyph glyph-name="ucircumflex" unicode="&#xfb;" horiz-adv-x="480" 
d="M0 254l35.5 37l36 36.5l33.5 32.5t29 24t26 10.5t22.5 -3t13 -14.5t-2.5 -24q-7 -14 -18.5 -33l-25 -39.5l-26 -41t-20.5 -37.5q-25 -51 33 -21q29 16 64 46l67 57q15 13 32 15t29 -3t17.5 -16.5t-1.5 -25.5q-6 -11 -11.5 -26l-10.5 -29q-6 -21 -1.5 -34t23 -10.5
t52 25.5t84.5 74q10 10 21 10t17.5 -7t7 -17.5t-9.5 -20.5q-83 -83 -140 -119.5t-89.5 -38.5t-41 26t5.5 76q13 43 -18 20q-16 -12 -47.5 -39.5t-77.5 -53.5q-26 -14 -51 -19t-39 4t-12 34t29 70q35 60 33.5 66t-33.5 -26q-11 -11 -22 -11t-17.5 6.5t-6.5 17.5t11 22z
M354 449q-19 10 -28.5 33.5t-17.5 49.5l-47.5 -33.5l-33.5 -24.5t-28.5 -22.5l-32.5 -27.5q-10 -9 -16.5 -5t-9.5 14t-2.5 23t6.5 23q7 13 26 31.5t41.5 37.5t45.5 36.5l39 29.5q8 6 19 10.5t21.5 5t18 -4t8.5 -17.5q2 -29 10.5 -64.5t21.5 -64.5q5 -12 3 -20.5t-8.5 -12
t-16 -3t-19.5 5.5z" />
    <glyph glyph-name="udieresis" unicode="&#xfc;" horiz-adv-x="480" 
d="M0 254l35.5 37l36 36.5l33.5 32.5t29 24t26 10.5t22.5 -3t13 -14.5t-2.5 -24q-7 -14 -18.5 -33l-25 -39.5l-26 -41t-20.5 -37.5q-25 -51 33 -21q29 16 64 46l67 57q15 13 32 15t29 -3t17.5 -16.5t-1.5 -25.5q-6 -11 -11.5 -26l-10.5 -29q-6 -21 -1.5 -34t23 -10.5
t52 25.5t84.5 74q10 10 21 10t17.5 -7t7 -17.5t-9.5 -20.5q-83 -83 -140 -119.5t-89.5 -38.5t-41 26t5.5 76q13 43 -18 20q-16 -12 -47.5 -39.5t-77.5 -53.5q-26 -14 -51 -19t-39 4t-12 34t29 70q35 60 33.5 66t-33.5 -26q-11 -11 -22 -11t-17.5 6.5t-6.5 17.5t11 22z
M281 484q-7 -11 -17 -21t-20.5 -16t-20.5 -7t-19 5q-10 7 -14.5 18t-5 23t3.5 24.5t11 23.5q14 23 35 30t38 -5t20 -32.5t-11 -42.5zM411 472q-18 -21 -42 -28t-42 6q-10 7 -13.5 19t-2.5 25.5t6.5 27t14.5 24.5q18 21 41.5 25t40.5 -11q16 -16 15 -41.5t-18 -46.5z" />
    <glyph glyph-name="yacute" unicode="&#xfd;" horiz-adv-x="486" 
d="M521 219l-43.5 -43.5l-70 -70.5l-83.5 -83.5l-84.5 -82.5l-72.5 -68.5t-48 -39.5q-28 -18 -49.5 -19.5t-34 7.5t-15 25.5t7.5 33.5q7 11 23.5 34.5l38 53.5l46 62.5l46 62.5l38.5 53.5l25 34.5q8 12 10 18t-1 6.5t-9.5 -4t-14.5 -12.5q-44 -41 -75.5 -56t-51 -12.5
t-27.5 17.5t-4 35q5 20 10.5 31t14.5 31q12 28 17.5 43t0 15t-24 -17.5l-55.5 -54.5q-15 -15 -27.5 -16.5t-19 5t-4.5 19.5t16 27l22 22.5t29 28t34 27.5t38 22q19 8 34 4t23.5 -17.5t7.5 -35t-13 -48.5q-22 -48 -15.5 -58.5t44.5 22.5q19 17 32.5 30.5t24.5 27t21 28
t22 34.5q12 19 27 20.5t26.5 -8t15.5 -28.5t-5 -40q-21 -48 -53.5 -100t-65.5 -98.5l-61 -83t-40 -53.5q-14 -20 -2.5 -13.5t39.5 31l67.5 61l82 77l82.5 80l69 68.5q12 12 23 12t17 -7t5.5 -18.5t-10.5 -21.5zM241 467q11 14 30 30.5t39.5 30t40 22.5t31.5 9q10 0 18 -9
t10.5 -21t-2 -25t-17.5 -21q-15 -9 -36 -19t-42.5 -18.5t-40 -14.5t-27.5 -8q-13 -2 -18 1t-4 10t6 15.5t12 17.5z" />
    <glyph glyph-name="Aogonek" unicode="&#x104;" 
d="M117 229q9 2 24 3.5l35 3.5q38 47 80 93.5t86.5 90t90.5 82t92 68.5q26 17 45 25.5t33.5 10t24.5 -2.5t18 -11q3 4 13 14q11 11 26.5 17.5t28 6t17.5 -8t-4 -24.5q-34 -61 -69 -133l-68 -145l-62 -143l-51.5 -127.5t-37 -98.5t-17.5 -55q-3 -13 -10 -18.5t-16 -4.5t-19 7
t-19 17q-26 -18 -49.5 -36.5t-39 -34t-19 -26t11.5 -12.5q35 -4 58.5 3t35.5 18q8 7 17 4.5t15.5 -10t9 -18t-3.5 -19.5q-15 -23 -45 -35.5t-71 -10.5q-44 1 -65.5 22t-16.5 52.5t39.5 70t102.5 75.5q-3 22 2 44q6 26 24 71.5t46 103.5q-42 -1 -92.5 -5.5t-90.5 -7.5
l-58 -83l-46.5 -71.5l-34.5 -56.5l-21 -36q-15 -25 -29.5 -20t-24 25t-11 47.5t9.5 47.5q20 37 47.5 80t62.5 89q-15 18 -19.5 37.5t14.5 24.5zM625 555q-94 -62 -176 -145t-151 -170q37 0 75 -1.5t73 -5.5l83.5 158t95.5 164z" />
    <glyph glyph-name="Lcaron" unicode="&#x13d;" horiz-adv-x="513" 
d="M21 -36q5 2 11.5 2.5t14.5 2.5q-5 16 -8 33t0 34t23.5 58.5t51.5 95.5t70 114.5l77.5 117.5t73.5 104t60 74q13 14 32 15.5t34 -4.5t23 -18t-1 -24l-24 -37l-46.5 -73l-62.5 -101l-73 -120l-77 -129.5l-74 -130.5q40 4 83.5 7.5t82 5.5t67.5 2.5t40 -2.5q15 -4 16.5 -20
t-5 -33.5t-19 -31t-25.5 -11.5q-16 2 -56.5 0t-88.5 -6.5t-96.5 -10.5t-79.5 -11q-15 -3 -25.5 11t-15 32t-1 34.5t17.5 19.5zM519 478q18 18 24 35t7.5 33.5t1 32.5t5.5 32q10 27 29.5 36.5t37.5 4t29 -24.5t2 -48q-5 -14 -15 -32t-23.5 -35.5t-28 -33.5t-26.5 -26
q-16 -14 -30 -16.5t-21.5 2.5t-6.5 15.5t15 24.5z" />
    <glyph glyph-name="Sacute" unicode="&#x15a;" horiz-adv-x="526" 
d="M390 538q-6 8 -24 2t-43 -21t-54 -36t-57 -44t-42.5 -40.5t-10 -32t29.5 -26t76 -21.5q56 -11 95.5 -40t54 -70.5t0 -93t-66.5 -106.5q-48 -51 -92.5 -81.5t-83 -42t-70.5 -6.5t-57 24q-24 19 -34 49.5t-9 63t11.5 62.5t27.5 48q21 20 47.5 26t47 2t27.5 -17t-12 -30
q-40 -46 -51 -82t6 -46t61 13t115 96q32 32 40 57.5t0 44.5t-29 32.5t-48.5 23.5t-57.5 16l-56 11q-38 6 -59.5 29.5t-22 56.5t22.5 72t74 78t100.5 63t93 33t78 2.5t55.5 -28.5q31 -34 29 -61.5t-19 -51t-39.5 -43.5t-31.5 -38q-5 -11 -19 -12.5t-28 4t-23.5 16t-5.5 25.5
t15.5 31.5l23 33t17.5 31t-2 24.5zM376 692q11 14 30 30.5t39.5 30t40 22.5t31.5 9q10 0 18 -9t10.5 -21t-2 -25t-17.5 -21q-15 -9 -36 -19t-42.5 -18.5t-40 -14.5t-27.5 -8q-13 -2 -18 1t-4 10t6 15.5t12 17.5z" />
    <glyph glyph-name="Scedilla" unicode="&#x15e;" horiz-adv-x="526" 
d="M14 -179q9 9 19 20q8 9 16.5 21.5t16.5 27.5q-5 2 -10.5 5.5t-10.5 7.5q-24 19 -34 49.5t-9 63t11.5 62.5t27.5 48q21 20 47.5 26t47 2t27.5 -17t-12 -30q-40 -46 -51 -82t6 -46t61 13t115 96q32 32 40 57.5t0 44.5t-29 32.5t-48.5 23.5t-57.5 16l-56 11
q-38 6 -59.5 29.5t-22 56.5t22.5 72t74 78t100.5 63t93 33t78 2.5t55.5 -28.5q31 -34 29 -61.5t-19 -51t-39.5 -43.5t-31.5 -38q-5 -11 -19 -12.5t-28 4t-23.5 16t-5.5 25.5t15.5 31.5l23 33t17.5 31t-2 24.5q-6 8 -24 2t-43 -21t-54 -36t-57 -44t-42.5 -40.5t-10 -32
t29.5 -26t76 -21.5q56 -11 95.5 -40t54 -70.5t0 -93t-66.5 -106.5q-61 -65 -114.5 -95.5t-98.5 -35.5q-8 -13 -16.5 -24t-17.5 -20q25 -2 44.5 -12.5t26.5 -27.5t-2 -40t-41 -49q-35 -29 -71 -40t-68 -4q-12 3 -18.5 12t-7 19t5.5 18t19 8q20 -1 46 10.5t54 37.5
q16 16 17.5 26t-6.5 13.5t-23.5 -0.5t-31.5 -16q-12 -9 -21 -7t-13.5 8.5t-4 15.5t7.5 15z" />
    <glyph glyph-name="Tcaron" unicode="&#x164;" horiz-adv-x="420" 
d="M348 773q19 -10 28.5 -33.5t17.5 -49.5l47.5 33.5l33.5 24.5t28.5 22t32.5 28q10 9 16.5 5t9.5 -14t2.5 -23t-6.5 -23q-8 -13 -26 -31t-40 -36.5l-44.5 -36l-38.5 -29.5q57 -1 100.5 -3t63.5 -5q25 -4 39.5 -17t17.5 -27.5t-5.5 -25.5t-27.5 -10q-39 1 -90.5 0t-109.5 -3
q-35 -55 -70.5 -120l-68.5 -131.5l-62.5 -129.5l-53 -114.5l-39 -87.5l-20.5 -48q-6 -15 -22.5 -11t-31.5 21t-23 43.5t2 57.5q7 23 24.5 59.5t40.5 79.5l49 89l50.5 87.5l45.5 75t34 51.5q18 25 32.5 33t26 11.5t21.5 8.5t19 23q-78 -5 -158.5 -11.5t-153.5 -17.5
q-18 -3 -23.5 11t-0.5 32.5t18.5 36t32.5 22.5q23 6 54.5 9.5t67 6t74.5 4t77 1.5v3q-2 29 -10.5 64.5t-21.5 64.5q-5 12 -3 20.5t8.5 12t16 3t19.5 -5.5z" />
    <glyph glyph-name="Zacute" unicode="&#x179;" horiz-adv-x="610" 
d="M224 591q17 4 49 6.5t72.5 3t84 0t82.5 -3t69.5 -6.5t43.5 -9q32 -14 28.5 -34t-29.5 -43q12 -6 21 -13.5t13 -16t1 -17t-14 -14.5q-103 -57 -188.5 -117t-152.5 -119.5t-115 -114.5t-76 -101q53 6 119.5 10t128.5 4.5t109.5 -5t63.5 -18.5q11 -10 13 -27.5t-2 -34
t-14 -28t-23 -8.5q-30 7 -74 9t-93 1.5t-99 -3t-91 -5t-69 -3.5t-33 1q-14 5 -23 29t-7 59q-10 14 -14.5 28.5t0.5 26.5q16 39 48 78.5t75 80t95.5 80t110 78l118 75.5l119.5 72q-25 6 -58 8t-70 1t-74.5 -3t-71.5 -5l-61.5 -5.5t-42.5 -3.5q-21 -2 -25 13t3 34.5t22 37.5
t31 22zM431 684q11 14 30 30.5t39.5 30t40 22.5t31.5 9q10 0 18 -9t10.5 -21t-2 -25t-17.5 -21q-15 -9 -36 -19t-42.5 -18.5t-40 -14.5t-27.5 -8q-13 -2 -18 1t-4 10t6 15.5t12 17.5z" />
    <glyph glyph-name="uni00AD" unicode="&#xad;" horiz-adv-x="483" 
d="M112 276q9 5 31 8.5t50.5 6t60.5 3.5t60.5 0.5t50 -2t30.5 -3.5q11 -3 14 -15t0 -25t-12 -23.5t-23 -10.5h-77.5t-76 -0.5t-68.5 -2.5t-56 -5q-11 -2 -14.5 6t-0.5 20t11 24t20 19z" />
    <glyph glyph-name="Zdotaccent" unicode="&#x17b;" horiz-adv-x="610" 
d="M224 591q17 4 49 6.5t72.5 3t84 0t82.5 -3t69.5 -6.5t43.5 -9q32 -14 28.5 -34t-29.5 -43q12 -6 21 -13.5t13 -16t1 -17t-14 -14.5q-103 -57 -188.5 -117t-152.5 -119.5t-115 -114.5t-76 -101q53 6 119.5 10t128.5 4.5t109.5 -5t63.5 -18.5q11 -10 13 -27.5t-2 -34
t-14 -28t-23 -8.5q-30 7 -74 9t-93 1.5t-99 -3t-91 -5t-69 -3.5t-33 1q-14 5 -23 29t-7 59q-10 14 -14.5 28.5t0.5 26.5q16 39 48 78.5t75 80t95.5 80t110 78l118 75.5l119.5 72q-25 6 -58 8t-70 1t-74.5 -3t-71.5 -5l-61.5 -5.5t-42.5 -3.5q-21 -2 -25 13t3 34.5t22 37.5
t31 22zM515 681q-18 -21 -42 -28t-42 6q-10 7 -13.5 19t-2.5 25.5t6.5 27t14.5 24.5q18 21 41.5 25t40.5 -11q16 -16 15 -41.5t-18 -46.5z" />
    <glyph glyph-name="aogonek" unicode="&#x105;" horiz-adv-x="427" 
d="M255 349q-30 -7 -63.5 -27.5t-64 -45t-56 -50l-40.5 -41.5q-15 -17 -20.5 -29.5t-4 -18.5t9 -4.5t19.5 13.5t31.5 29.5l42.5 36.5l47.5 37.5t46.5 31.5t41 14.5t29.5 -9.5t9.5 -33t-19 -55q-12 -21 -12.5 -33t4.5 -17.5t14 -5t17 4.5q29 13 67.5 43t72.5 64
q13 13 25.5 14.5t19 -5.5t5 -19t-14.5 -25q-17 -17 -39 -36.5t-46 -38.5t-49 -36.5t-47 -30.5l-40.5 -26l-45 -31.5t-42 -32.5t-31.5 -29t-13.5 -22t12.5 -10q35 -4 58.5 3t35.5 18q8 7 17 4.5t15.5 -10t9 -18t-3.5 -19.5q-15 -23 -45 -35.5t-71 -10.5q-43 1 -64.5 21
t-17.5 50t34.5 66.5t92.5 72.5q-14 14 -14 39t18 60q17 33 13 39.5t-18 -3.5q-8 -5 -28 -24.5l-45.5 -45l-52.5 -51.5t-48 -44q-17 -15 -37 -13t-33.5 18.5t-16 45.5t15.5 67q18 39 47.5 78.5t67 73t81 58.5t89.5 35q18 4 32 -2t20 -16t2.5 -20t-20.5 -14z" />
    <glyph glyph-name="lcaron" unicode="&#x13e;" horiz-adv-x="326" 
d="M0 254q68 69 132 143l116.5 139l88.5 113t49 64q14 18 28 18.5t22 -9.5t8 -28t-14 -36q-47 -62 -91.5 -136.5t-81.5 -145.5t-64.5 -130t-39.5 -90q-12 -32 -14 -47t3.5 -17t16.5 5.5t26 21.5l59 55.5l82 79.5q18 19 33 23t21.5 -2.5t3 -21.5t-22.5 -34l-114 -118
l-114 -118q-29 -29 -49.5 -38.5t-33 -2.5t-15.5 29t4 57q7 34 24.5 80t39 92.5l42.5 89.5l36 72t9.5 26t-26.5 -27l-55 -62.5t-74 -79.5q-13 -13 -26 -14.5t-20 4.5t-5.5 18t16.5 27zM442 559q18 18 24 35t7.5 33.5t1 32.5t5.5 32q10 27 29.5 36.5t37.5 4t29 -24.5t2 -48
q-5 -14 -15 -32t-23.5 -35.5t-28 -33.5t-26.5 -26q-16 -14 -30 -16.5t-21.5 2.5t-6.5 15.5t15 24.5z" />
    <glyph glyph-name="sacute" unicode="&#x15b;" horiz-adv-x="317" 
d="M0 254l28 27.5l37.5 35t37.5 32t29 19.5q12 6 26 5t26.5 -7t21 -17.5t8.5 -26.5q1 -26 -5 -61t-20 -73q34 10 68 25.5t60 40.5q10 10 21 10.5t17.5 -6t7 -17.5t-11.5 -22q-38 -38 -90.5 -61t-99.5 -30l-23 -34t-26 -32q-26 -28 -54 -33t-47 6.5t-22 36t20 54.5
q15 20 37 33.5t45 19.5q14 5 25 26.5t12 63.5q1 14 -6 16.5t-15 -1.5q-5 -3 -14 -10.5t-19.5 -17.5l-21 -20l-17.5 -17q-12 -11 -23 -11.5t-17.5 6.5t-6.5 18t12 22zM158 467q11 14 30 30.5t39.5 30t40 22.5t31.5 9q10 0 18 -9t10.5 -21t-2 -25t-17.5 -21q-15 -9 -36 -19
t-42.5 -18.5t-40 -14.5t-27.5 -8q-13 -2 -18 1t-4 10t6 15.5t12 17.5z" />
    <glyph glyph-name="scedilla" unicode="&#x15f;" horiz-adv-x="317" 
d="M-56 -26l20 21l17.5 23t17.5 29q-11 14 -10 34t20 45q15 20 37 33.5t45 19.5q14 5 25 26.5t12 63.5q1 14 -6 16.5t-15 -1.5q-5 -3 -14 -10.5t-19.5 -17.5l-21 -20l-17.5 -17q-12 -11 -23 -11.5t-17.5 6.5t-6.5 18t12 22l28 27.5l37.5 35t37.5 32t29 19.5q12 6 26 5
t26.5 -7t21 -17.5t8.5 -26.5q1 -26 -5 -61t-20 -73q34 10 68 25.5t60 40.5q10 10 21 10.5t17.5 -6t7 -17.5t-11.5 -22q-38 -38 -90.5 -61t-99.5 -30l-23 -34t-26 -32q-21 -23 -46 -31q-8 -14 -17 -24.5t-18 -19.5q25 -2 44.5 -12.5t26.5 -27.5t-2 -40t-41 -49
q-35 -29 -71 -40t-68 -4q-12 3 -18.5 12t-7 19t5.5 18t19 8q20 -1 46 10.5t54 37.5q16 16 17.5 26t-6.5 13.5t-23.5 -0.5t-31.5 -16q-12 -9 -21 -7t-13.5 8.5t-4 15.5t7.5 15z" />
    <glyph glyph-name="tcaron" unicode="&#x165;" horiz-adv-x="261" 
d="M-45 501q16 5 42.5 9t59.5 8t69.5 7l72.5 6q17 31 34 55t32 38q9 9 18.5 13t17.5 3q9 0 15.5 -7t8 -19.5t-3.5 -31t-20 -41.5q17 2 30.5 4t23.5 4q13 3 21 -8.5t9.5 -26.5t-5 -28.5t-22.5 -15.5q-28 -3 -56 -4l-57 -2l-34.5 -50t-27.5 -46q-14 -25 -26.5 -52t-23.5 -53.5
t-19.5 -50.5t-13.5 -42q-3 -11 -2 -20t6 -12.5t15.5 -1t27.5 15.5q19 15 49.5 42l64.5 60q15 15 29 18.5t21.5 -2.5t5 -19.5t-20.5 -31.5l-108 -106q-53 -51 -91 -64.5t-55 6.5t-9.5 73t45.5 136l-44 -45q-12 -12 -23 -12t-17 6.5t-5.5 18t11.5 22.5l70 74l63 70l30 64
q-48 -2 -97.5 -7.5t-104.5 -19.5q-13 -3 -19.5 5.5t-7 20.5t4.5 24t16 16zM420 558q18 18 24 35t7.5 33.5t1 32.5t5.5 32q10 27 29.5 36.5t37.5 4t29 -24.5t2 -48q-5 -14 -15 -32t-23.5 -35.5t-28 -33.5t-26.5 -26q-16 -14 -30 -16.5t-21.5 2.5t-6.5 15.5t15 24.5z" />
    <glyph glyph-name="zacute" unicode="&#x17a;" horiz-adv-x="406" 
d="M406 254q13 13 25 14.5t18.5 -5.5t5.5 -19t-14 -25q-40 -40 -91.5 -83.5t-111.5 -72.5q-23 -11 -42 -10.5t-35 7.5t-31 18t-31.5 19.5t-35.5 12t-43 -2.5q-15 -13 -34.5 -24.5t-38 -16.5t-33 -2t-19.5 20t1.5 33t23.5 29t44.5 21t64.5 8l77 50l83 51q-47 -6 -65 16
q-3 3 -12 -3t-22 -17t-27.5 -25.5l-27.5 -27.5q-12 -12 -23.5 -12.5t-18 6t-6 18t12.5 23.5l53.5 53t58.5 48q20 14 38 17t31 -1.5t19 -15t3 -22.5t14.5 -8.5t45 13.5l59 22t55.5 18q16 5 25.5 -2t12 -18t-2 -23t-16.5 -17q-22 -10 -55 -27l-72 -38l-81 -44.5l-81 -47.5
q27 -5 51 -15.5t42 -23.5q4 -3 13.5 -1.5t20 6t21 10t17.5 10.5q32 20 66 46.5t68 60.5zM236 467q11 14 30 30.5t39.5 30t40 22.5t31.5 9q10 0 18 -9t10.5 -21t-2 -25t-17.5 -21q-15 -9 -36 -19t-42.5 -18.5t-40 -14.5t-27.5 -8q-13 -2 -18 1t-4 10t6 15.5t12 17.5z" />
    <glyph glyph-name="zdotaccent" unicode="&#x17c;" horiz-adv-x="406" 
d="M406 254q13 13 25 14.5t18.5 -5.5t5.5 -19t-14 -25q-40 -40 -91.5 -83.5t-111.5 -72.5q-23 -11 -42 -10.5t-35 7.5t-31 18t-31.5 19.5t-35.5 12t-43 -2.5q-15 -13 -34.5 -24.5t-38 -16.5t-33 -2t-19.5 20t1.5 33t23.5 29t44.5 21t64.5 8l77 50l83 51q-47 -6 -65 16
q-3 3 -12 -3t-22 -17t-27.5 -25.5l-27.5 -27.5q-12 -12 -23.5 -12.5t-18 6t-6 18t12.5 23.5l53.5 53t58.5 48q20 14 38 17t31 -1.5t19 -15t3 -22.5t14.5 -8.5t45 13.5l59 22t55.5 18q16 5 25.5 -2t12 -18t-2 -23t-16.5 -17q-22 -10 -55 -27l-72 -38l-81 -44.5l-81 -47.5
q27 -5 51 -15.5t42 -23.5q4 -3 13.5 -1.5t20 6t21 10t17.5 10.5q32 20 66 46.5t68 60.5zM337 464q-18 -21 -42 -28t-42 6q-10 7 -13.5 19t-2.5 25.5t6.5 27t14.5 24.5q18 21 41.5 25t40.5 -11q16 -16 15 -41.5t-18 -46.5z" />
    <glyph glyph-name="Racute" unicode="&#x154;" horiz-adv-x="651" 
d="M221 418q10 18 20 25t19.5 8.5t18.5 1t19 2.5t20 12t22 30q-44 -8 -78 -16l-47 -11q-22 -5 -27.5 11t3 38.5t28.5 44t49 27.5q75 14 138.5 16t113.5 -7.5t84.5 -29t51.5 -47.5q26 -43 20.5 -84t-43.5 -77t-110.5 -66.5t-181.5 -51.5l90 -109l90 -112.5l73 -92t40 -47.5
q11 -11 4.5 -25.5t-23.5 -23.5t-40.5 -9t-44.5 19q-8 7 -25.5 30.5l-42 57l-54 74l-61 80.5l-62.5 77t-58 64l-52 -109.5l-45 -97l-34 -74.5t-18 -42q-8 -19 -23.5 -16.5t-29 19t-20 43t2.5 55.5q6 19 22.5 54l38 77.5l45.5 87l45.5 84l38 69zM371 502q-23 -39 -47.5 -85.5
l-50.5 -97.5l3.5 -3.5l3.5 -3.5q62 15 122.5 37t105.5 46.5t67 49t9 45.5q-8 12 -29.5 17.5t-51 6t-64 -3t-68.5 -8.5zM459 691q11 14 30 30.5t39.5 30t40 22.5t31.5 9q10 0 18 -9t10.5 -21t-2 -25t-17.5 -21q-15 -9 -36 -19t-42.5 -18.5t-40 -14.5t-27.5 -8q-13 -2 -18 1
t-4 10t6 15.5t12 17.5z" />
    <glyph glyph-name="Abreve" unicode="&#x102;" 
d="M117 229q9 2 24 3.5l35 3.5q38 47 80 93.5t86.5 90t90.5 82t92 68.5q26 17 45 25.5t33.5 10t24.5 -2.5t18 -11q3 4 13 14q11 11 26.5 17.5t28 6t17.5 -8t-4 -24.5q-34 -61 -69 -133l-68 -145l-62 -143l-51.5 -127.5t-37 -98.5t-17.5 -55q-5 -22 -21 -23.5t-32 12.5
t-26.5 40t-2.5 59q6 26 24 71.5t46 103.5q-42 -1 -92.5 -5.5t-90.5 -7.5l-58 -83l-46.5 -71.5l-34.5 -56.5l-21 -36q-15 -25 -29.5 -20t-24 25t-11 47.5t9.5 47.5q20 37 47.5 80t62.5 89q-15 18 -19.5 37.5t14.5 24.5zM625 555q-94 -62 -176 -145t-151 -170q37 0 75 -1.5
t73 -5.5l83.5 158t95.5 164zM777 760q7 13 21 17t26 1t19 -12.5t0 -22.5q-15 -29 -51 -49.5t-78 -24.5q-38 -3 -68 4t-50 20.5t-29 32.5t-5 40q4 22 20 32t32.5 11t27 -5.5t4.5 -17.5q-5 -8 -4 -18t9.5 -18t24.5 -13.5t42 -5.5q20 0 35.5 8.5t23.5 20.5z" />
    <glyph glyph-name="Lacute" unicode="&#x139;" horiz-adv-x="513" 
d="M21 -36q5 2 11.5 2.5t14.5 2.5q-5 16 -8 33t0 34t23.5 58.5t51.5 95.5t70 114.5l77.5 117.5t73.5 104t60 74q13 14 32 15.5t34 -4.5t23 -18t-1 -24l-24 -37l-46.5 -73l-62.5 -101l-73 -120l-77 -129.5l-74 -130.5q40 4 83.5 7.5t82 5.5t67.5 2.5t40 -2.5q15 -4 16.5 -20
t-5 -33.5t-19 -31t-25.5 -11.5q-16 2 -56.5 0t-88.5 -6.5t-96.5 -10.5t-79.5 -11q-15 -3 -25.5 11t-15 32t-1 34.5t17.5 19.5zM488 693q11 14 30 30.5t39.5 30t40 22.5t31.5 9q10 0 18 -9t10.5 -21t-2 -25t-17.5 -21q-15 -9 -36 -19t-42.5 -18.5t-40 -14.5t-27.5 -8
q-13 -2 -18 1t-4 10t6 15.5t12 17.5z" />
    <glyph glyph-name="Cacute" unicode="&#x106;" horiz-adv-x="568" 
d="M415 519q-8 6 -27.5 -3t-48 -31.5t-63.5 -58t-74 -83.5t-62.5 -99.5t-32.5 -98.5t-4 -84.5t23 -57.5q21 -22 45.5 -22t49.5 15t49.5 40.5t45.5 55t37.5 58t25.5 49.5q9 20 21.5 26.5t25 2t23.5 -17t17 -29.5t5 -37t-11 -38q-47 -81 -96.5 -128.5t-97.5 -67t-91.5 -14.5
t-78 29t-58 64t-31.5 91q-14 89 13 173t82 153t130.5 117.5t159.5 68.5q57 13 91 7.5t50.5 -21t18.5 -36.5t-5 -38q-8 -17 -24 -37l-33 -40.5t-32 -40.5t-21 -37t-22.5 -19.5t-32.5 5t-26 23.5t-2 36t23 38l27.5 34t17.5 29t-7 24zM462 693q11 14 30 30.5t39.5 30t40 22.5
t31.5 9q10 0 18 -9t10.5 -21t-2 -25t-17.5 -21q-15 -9 -36 -19t-42.5 -18.5t-40 -14.5t-27.5 -8q-13 -2 -18 1t-4 10t6 15.5t12 17.5z" />
    <glyph glyph-name="Ccaron" unicode="&#x10c;" horiz-adv-x="568" 
d="M415 519q-8 6 -27.5 -3t-48 -31.5t-63.5 -58t-74 -83.5t-62.5 -99.5t-32.5 -98.5t-4 -84.5t23 -57.5q21 -22 45.5 -22t49.5 15t49.5 40.5t45.5 55t37.5 58t25.5 49.5q9 20 21.5 26.5t25 2t23.5 -17t17 -29.5t5 -37t-11 -38q-47 -81 -96.5 -128.5t-97.5 -67t-91.5 -14.5
t-78 29t-58 64t-31.5 91q-14 89 13 173t82 153t130.5 117.5t159.5 68.5q57 13 91 7.5t50.5 -21t18.5 -36.5t-5 -38q-8 -17 -24 -37l-33 -40.5t-32 -40.5t-21 -37t-22.5 -19.5t-32.5 5t-26 23.5t-2 36t23 38l27.5 34t17.5 29t-7 24zM460 802q19 -10 28.5 -33.5t17.5 -49.5
l47.5 33.5l33.5 24.5t28.5 22t32.5 28q10 9 16.5 5t9.5 -14t2.5 -23t-6.5 -23q-8 -13 -26.5 -31.5t-41 -37.5t-45.5 -36.5l-39 -29.5q-8 -6 -19 -10.5t-21.5 -5t-18 4t-8.5 17.5q-2 29 -10.5 64.5t-21.5 64.5q-5 12 -3 20.5t8.5 12t16 3t19.5 -5.5z" />
    <glyph glyph-name="Eogonek" unicode="&#x118;" horiz-adv-x="579" 
d="M4 16q-6 23 11 72t50.5 113t81 138t103.5 148q-8 7 -16 19.5t-11.5 25.5t0 25t17.5 19q21 9 67 17.5t97.5 14t99 8t71.5 1.5q24 -2 40.5 -18.5t24 -36t5.5 -35t-15 -13.5q-20 3 -63 0.5t-93 -8l-99.5 -11.5t-82.5 -11q-7 -19 0 -27t15 -12.5t12.5 -10t-7.5 -18.5
q-7 -8 -19.5 -28l-29.5 -49q37 9 73 14.5t66.5 8.5t53.5 3t35 -3q14 -4 21 -21.5t8 -37t-4.5 -34t-15.5 -11.5q-34 7 -75.5 6.5t-82.5 -5.5t-77.5 -12t-60.5 -13q-18 -33 -34.5 -67.5t-31 -68.5t-25 -65t-16.5 -56q32 3 76 8.5t88 9.5t83 5.5t60 -3.5q25 -6 41 -25.5t22 -39
t0 -33t-25 -7.5q-20 6 -69 5.5t-107 -4.5q-28 -18 -61 -41.5t-57 -44.5t-33 -36.5t10 -17.5q35 -4 58.5 3t35.5 18q8 7 17 4.5t15.5 -10t9 -18t-3.5 -19.5q-15 -23 -45 -35.5t-71 -10.5q-41 1 -62.5 19.5t-20.5 46.5t27 62.5t80 69.5q-31 -3 -55 -6.5t-38 -6.5
q-11 -3 -20.5 8.5t-15 28t-5.5 34.5t8 28q-12 10 -21.5 21.5t-13.5 25.5z" />
    <glyph glyph-name="Ecaron" unicode="&#x11a;" horiz-adv-x="579" 
d="M4 16q-6 23 11 72t50.5 113t81 138t103.5 148q-8 7 -16 19.5t-11.5 25.5t0 25t17.5 19q21 9 67 17.5t97.5 14t99 8t71.5 1.5q24 -2 40.5 -18.5t24 -36t5.5 -35t-15 -13.5q-20 3 -63 0.5t-93 -8l-99.5 -11.5t-82.5 -11q-7 -19 0 -27t15 -12.5t12.5 -10t-7.5 -18.5
q-7 -8 -19.5 -28l-29.5 -49q37 9 73 14.5t66.5 8.5t53.5 3t35 -3q14 -4 21 -21.5t8 -37t-4.5 -34t-15.5 -11.5q-34 7 -75.5 6.5t-82.5 -5.5t-77.5 -12t-60.5 -13q-18 -33 -34.5 -67.5t-31 -68.5t-25 -65t-16.5 -56q32 3 76 8.5t88 9.5t83 5.5t60 -3.5q25 -6 41 -25.5t22 -39
t0 -33t-25 -7.5q-13 4 -41 5t-64 -0.5t-76 -4.5t-77 -7t-67 -8t-45 -7q-11 -3 -20.5 8.5t-15 28t-5.5 34.5t8 28q-12 10 -21.5 21.5t-13.5 25.5zM420 821q19 -10 28.5 -33.5t17.5 -49.5l47.5 33.5l33.5 24.5t28.5 22t32.5 28q10 9 16.5 5t9.5 -14t2.5 -23t-6.5 -23
q-8 -13 -26.5 -31.5t-41 -37.5t-45.5 -36.5l-39 -29.5q-8 -6 -19 -10.5t-21.5 -5t-18 4t-8.5 17.5q-2 29 -10.5 64.5t-21.5 64.5q-5 12 -3 20.5t8.5 12t16 3t19.5 -5.5z" />
    <glyph glyph-name="Dcaron" unicode="&#x10e;" horiz-adv-x="716" 
d="M199 371q12 15 31 25l39.5 21t39.5 25.5t30 37.5q-15 -5 -28 -10.5t-27 -10.5q-23 -8 -47.5 2t-40 28t-16.5 38t25 32q25 12 65 21.5t85 15.5t90.5 7t83.5 -4q52 -7 84 -33t47.5 -63t16 -82t-10 -91t-31 -88.5t-47.5 -75.5q-50 -60 -106 -111.5t-113.5 -89.5t-115 -59.5
t-111.5 -21.5q-24 0 -39.5 8t-23.5 20t-11.5 25.5t-3.5 24.5q-27 8 -44.5 16t-17.5 27q0 18 13 50t33 70t43.5 78.5l45.5 75.5l39 60t23 32zM372 490l-105.5 -194l-79.5 -144.5t-51.5 -105t-20.5 -74.5q45 1 98 26t107.5 65t106 90t93.5 102q19 23 36 51t29 56t16.5 54.5
t-1.5 47t-24.5 32.5t-52.5 12q-51 0 -86.5 -5t-64.5 -13zM468 805q19 -10 28.5 -33.5t17.5 -49.5l47.5 33.5l33.5 24.5t28.5 22t32.5 28q10 9 16.5 5t9.5 -14t2.5 -23t-6.5 -23q-8 -13 -26.5 -31.5t-41 -37.5t-45.5 -36.5l-39 -29.5q-8 -6 -19 -10.5t-21.5 -5t-18 4
t-8.5 17.5q-2 29 -10.5 64.5t-21.5 64.5q-5 12 -3 20.5t8.5 12t16 3t19.5 -5.5z" />
    <glyph glyph-name="Dcroat" unicode="&#x110;" horiz-adv-x="716" 
d="M199 371q12 15 31 25l39.5 21t39.5 25.5t30 37.5q-15 -5 -28 -10.5t-27 -10.5q-23 -8 -47.5 2t-40 28t-16.5 38t25 32q25 12 65 21.5t85 15.5t90.5 7t83.5 -4q52 -7 84 -33t47.5 -63t16 -82t-10 -91t-31 -88.5t-47.5 -75.5q-50 -60 -106 -111.5t-113.5 -89.5t-115 -59.5
t-111.5 -21.5q-24 0 -39.5 8t-23.5 20t-11.5 25.5t-3.5 24.5q-27 8 -44.5 16t-17.5 27q0 13 7 33.5t18 45.5t26 53l32 57q-9 -2 -18 -2.5t-20 -1.5q-16 -2 -20 6t0 19.5t14.5 23t22.5 17.5q21 9 70 17l40.5 63.5t24.5 34.5zM372 490l-58 -107.5l-51 -93.5q29 2 52 2t35 -3
q11 -2 12 -15t-4 -27.5t-15 -26.5t-22 -12q-32 0 -57.5 -0.5t-47.5 -1.5q-47 -85 -73 -140.5t-28 -92.5q45 1 98 26t107.5 65t106 90t93.5 102q19 23 36 51t29 56t16.5 54.5t-1.5 47t-24.5 32.5t-52.5 12q-51 0 -86.5 -5t-64.5 -13z" />
    <glyph glyph-name="Nacute" unicode="&#x143;" horiz-adv-x="695" 
d="M79 -103q-5 -13 -20.5 -12.5t-30 11.5t-22.5 31t2 47q7 18 29.5 63.5t55 105.5l72.5 128.5t81.5 132.5t81.5 116.5t73 81.5q10 8 24 8t26.5 -7t20.5 -20t5 -31q-8 -44 -15 -108.5t-12 -132t-7 -128.5t2 -98q20 59 44.5 118.5l49.5 114.5l48.5 104l43 87l32.5 62.5
t17 31.5q6 10 22.5 11t31.5 -6t22 -21t-6 -33q-9 -13 -29.5 -51.5l-48.5 -94l-60 -122.5l-64 -135.5l-61.5 -134.5t-50.5 -119q-6 -13 -13 -16.5t-14.5 -1t-14 9t-11.5 12.5q-11 -2 -20.5 4t-16.5 27q-7 22 -9 65.5t-1 97.5t4.5 113t8 112t9.5 95.5t10 62.5
q-23 -34 -50.5 -82.5l-56 -103l-56 -112l-52 -111l-44 -98.5t-30.5 -74zM534 690q11 14 30 30.5t39.5 30t40 22.5t31.5 9q10 0 18 -9t10.5 -21t-2 -25t-17.5 -21q-15 -9 -36 -19t-42.5 -18.5t-40 -14.5t-27.5 -8q-13 -2 -18 1t-4 10t6 15.5t12 17.5z" />
    <glyph glyph-name="Ncaron" unicode="&#x147;" horiz-adv-x="695" 
d="M79 -103q-5 -13 -20.5 -12.5t-30 11.5t-22.5 31t2 47q7 18 29.5 63.5t55 105.5l72.5 128.5t81.5 132.5t81.5 116.5t73 81.5q10 8 24 8t26.5 -7t20.5 -20t5 -31q-8 -44 -15 -108.5t-12 -132t-7 -128.5t2 -98q20 59 44.5 118.5l49.5 114.5l48.5 104l43 87l32.5 62.5
t17 31.5q6 10 22.5 11t31.5 -6t22 -21t-6 -33q-9 -13 -29.5 -51.5l-48.5 -94l-60 -122.5l-64 -135.5l-61.5 -134.5t-50.5 -119q-6 -13 -13 -16.5t-14.5 -1t-14 9t-11.5 12.5q-11 -2 -20.5 4t-16.5 27q-7 22 -9 65.5t-1 97.5t4.5 113t8 112t9.5 95.5t10 62.5
q-23 -34 -50.5 -82.5l-56 -103l-56 -112l-52 -111l-44 -98.5t-30.5 -74zM556 814q19 -10 28.5 -33.5t17.5 -49.5l47.5 33.5l33.5 24.5t28.5 22t32.5 28q10 9 16.5 5t9.5 -14t2.5 -23t-6.5 -23q-8 -13 -26.5 -31.5t-41 -37.5t-45.5 -36.5l-39 -29.5q-8 -6 -19 -10.5t-21.5 -5
t-18 4t-8.5 17.5q-2 29 -10.5 64.5t-21.5 64.5q-5 12 -3 20.5t8.5 12t16 3t19.5 -5.5z" />
    <glyph glyph-name="Ohungarumlaut" unicode="&#x150;" horiz-adv-x="651" 
d="M430 614q35 0 51 -17.5t20 -46.5q35 2 53 -9.5t26 -37.5q15 -50 10 -110t-25.5 -122.5t-54.5 -123t-75.5 -112t-89 -90t-95 -56.5t-93 -12.5t-84.5 42.5q-55 53 -66 125t10 149t66.5 152.5t104 135t122 96.5t120.5 37zM120 -21q29 -19 71.5 -0.5t87 62t87 105.5t73 131
t43.5 137.5t0 125.5q-33 6 -67.5 -9.5t-69.5 -45t-69 -70.5t-64 -86q-34 -51 -63 -105.5t-44.5 -103t-13.5 -86.5t29 -55zM376 682l17.5 40.5t23.5 46t26 39.5t25 21q10 3 21.5 -3.5t20 -18t10 -25.5t-8.5 -26l-27.5 -32l-33.5 -37l-31.5 -32.5t-22.5 -19.5q-11 -6 -17 -3
t-8 10.5t-0.5 18t5.5 21.5zM493 694q9 16 25 38t33.5 42t34.5 35t29 17q10 1 21.5 -8t18.5 -23t6.5 -29t-12.5 -25q-13 -11 -34 -26l-43 -29.5t-40.5 -25.5t-27.5 -14q-12 -4 -17.5 -0.5t-6 11t3 18t9.5 19.5z" />
    <glyph glyph-name="uni0162" unicode="&#x162;" horiz-adv-x="420" 
d="M39 488q-18 -3 -23.5 11t-0.5 32.5t18.5 36t32.5 22.5q31 7 76 11.5t96 7t103 2.5t98 -1t81.5 -3.5t52.5 -4.5q25 -4 39.5 -17t17.5 -27.5t-5.5 -25.5t-27.5 -10q-39 1 -90.5 0t-109.5 -3q-35 -55 -70.5 -120l-68.5 -131.5l-62.5 -129.5l-53 -114.5l-39 -87.5l-20.5 -48
q-6 -15 -22.5 -11t-31.5 21t-23 43.5t2 57.5q7 23 24.5 59.5t40.5 79.5l49 89l50.5 87.5l45.5 75t34 51.5q18 25 32.5 33t26 11.5t21.5 8.5t19 23q-78 -5 -158.5 -11.5t-153.5 -17.5zM-120 -329q21 19 27.5 37t8 35.5t1.5 34t7 33.5q11 29 34 39t44 4t33 -26t2 -50
q-5 -15 -17 -33.5t-27.5 -37.5t-32 -35.5t-30.5 -27.5q-19 -15 -35 -18t-24.5 2.5t-7.5 17t17 25.5z" />
    <glyph glyph-name="uni0163" unicode="&#x163;" horiz-adv-x="261" 
d="M-45 501q16 5 42.5 9t59.5 8t69.5 7l72.5 6q17 31 34 55t32 38q9 9 18.5 13t17.5 3q9 0 15.5 -7t8 -19.5t-3.5 -31t-20 -41.5q17 2 30.5 4t23.5 4q13 3 21 -8.5t9.5 -26.5t-5 -28.5t-22.5 -15.5q-28 -3 -56 -4l-57 -2l-34.5 -50t-27.5 -46q-14 -25 -26.5 -52t-23.5 -53.5
t-19.5 -50.5t-13.5 -42q-3 -11 -2 -20t6 -12.5t15.5 -1t27.5 15.5q19 15 49.5 42l64.5 60q15 15 29 18.5t21.5 -2.5t5 -19.5t-20.5 -31.5l-108 -106q-53 -51 -91 -64.5t-55 6.5t-9.5 73t45.5 136l-44 -45q-12 -12 -23 -12t-17 6.5t-5.5 18t11.5 22.5l70 74l63 70l30 64
q-48 -2 -97.5 -7.5t-104.5 -19.5q-13 -3 -19.5 5.5t-7 20.5t4.5 24t16 16zM-90 -179q21 19 27.5 37t8 35.5t1.5 34t7 33.5q11 29 34 39t44 4t33 -26t2 -50q-5 -15 -17 -33.5t-27.5 -37.5t-32 -35.5t-30.5 -27.5q-19 -15 -35 -18t-24.5 2.5t-7.5 17t17 25.5z" />
    <glyph glyph-name="uhungarumlaut" unicode="&#x171;" horiz-adv-x="480" 
d="M0 254l35.5 37l36 36.5l33.5 32.5t29 24t26 10.5t22.5 -3t13 -14.5t-2.5 -24q-7 -14 -18.5 -33l-25 -39.5l-26 -41t-20.5 -37.5q-25 -51 33 -21q29 16 64 46l67 57q15 13 32 15t29 -3t17.5 -16.5t-1.5 -25.5q-6 -11 -11.5 -26l-10.5 -29q-6 -21 -1.5 -34t23 -10.5
t52 25.5t84.5 74q10 10 21 10t17.5 -7t7 -17.5t-9.5 -20.5q-83 -83 -140 -119.5t-89.5 -38.5t-41 26t5.5 76q13 43 -18 20q-16 -12 -47.5 -39.5t-77.5 -53.5q-26 -14 -51 -19t-39 4t-12 34t29 70q35 60 33.5 66t-33.5 -26q-11 -11 -22 -11t-17.5 6.5t-6.5 17.5t11 22z
M213 468l17.5 40.5t23.5 46t26 39.5t25 21q10 3 21.5 -3.5t20 -18t10 -25.5t-8.5 -26l-27.5 -32l-33.5 -37l-31.5 -32.5t-22.5 -19.5q-11 -6 -17 -3t-8 10.5t-0.5 18t5.5 21.5zM330 480q9 16 25 38t33.5 42t34.5 35t29 17q10 1 21.5 -8t18.5 -23t6.5 -29t-12.5 -25
q-13 -11 -34 -26l-43 -29.5t-40.5 -25.5t-27.5 -14q-12 -4 -17.5 -0.5t-6 11t3 18t9.5 19.5z" />
    <glyph glyph-name="uring" unicode="&#x16f;" horiz-adv-x="480" 
d="M0 254l35.5 37l36 36.5l33.5 32.5t29 24t26 10.5t22.5 -3t13 -14.5t-2.5 -24q-7 -14 -18.5 -33l-25 -39.5l-26 -41t-20.5 -37.5q-25 -51 33 -21q29 16 64 46l67 57q15 13 32 15t29 -3t17.5 -16.5t-1.5 -25.5q-6 -11 -11.5 -26l-10.5 -29q-6 -21 -1.5 -34t23 -10.5
t52 25.5t84.5 74q10 10 21 10t17.5 -7t7 -17.5t-9.5 -20.5q-83 -83 -140 -119.5t-89.5 -38.5t-41 26t5.5 76q13 43 -18 20q-16 -12 -47.5 -39.5t-77.5 -53.5q-26 -14 -51 -19t-39 4t-12 34t29 70q35 60 33.5 66t-33.5 -26q-11 -11 -22 -11t-17.5 6.5t-6.5 17.5t11 22z
M301 589q24 0 45 -7t37 -19t25 -28t9 -34t-9 -34t-25 -27.5t-37 -18.5t-45 -7t-45 7t-36.5 18.5t-24.5 27.5t-9 34t9 34t24.5 28t36.5 19t45 7zM307 463q23 0 39 10t16 25q0 14 -16 24.5t-39 10.5t-39 -10.5t-16 -24.5q0 -15 16 -25t39 -10z" />
    <glyph glyph-name="rcaron" unicode="&#x159;" horiz-adv-x="293" 
d="M0 254l36 37.5t35 39.5q-8 10 -8 20q0 18 9.5 35t24 30.5t32 21t34.5 6.5q15 -2 19.5 -12t-2.5 -23q-9 -19 -5.5 -24.5t24.5 -7.5q19 -2 30 -14t6 -32q-3 -15 -12 -30t-21 -31.5l-26 -37t-27 -45.5q-36 -67 3.5 -50.5t140.5 117.5q12 12 24 13t18.5 -5t6 -18t-13.5 -25
q-10 -10 -29.5 -28l-42 -38l-45.5 -39t-40 -30q-25 -17 -49 -20t-44 17q-29 29 -24.5 61t34.5 74q24 35 37 57.5t16.5 35t-1.5 15.5t-16 -1l-25 -32l-25.5 -30l-22.5 -25t-16 -17q-13 -13 -24.5 -13.5t-18 6t-5.5 18.5t13 24zM198 641q19 -10 28.5 -33.5t17.5 -49.5
l47.5 33.5l33.5 24.5t28.5 22t32.5 28q10 9 16.5 5t9.5 -14t2.5 -23t-6.5 -23q-8 -13 -26.5 -31.5t-41 -37.5t-45.5 -36.5l-39 -29.5q-8 -6 -19 -10.5t-21.5 -5t-18 4t-8.5 17.5q-2 29 -10.5 64.5t-21.5 64.5q-5 12 -3 20.5t8.5 12t16 3t19.5 -5.5z" />
    <glyph glyph-name="ohungarumlaut" unicode="&#x151;" horiz-adv-x="333" 
d="M333 254q8 8 19 8.5t18.5 -5t8.5 -16t-11 -22.5q-44 -44 -83.5 -59t-69.5 -10l-18 -24q-27 -34 -57.5 -59t-60.5 -38.5t-58.5 -14.5t-50.5 12t-30 37.5t-3.5 55.5t20.5 66t43 69t57.5 59t61 38.5t59 14.5t50.5 -12q32 -20 34.5 -62.5t-20.5 -93.5q18 1 39.5 14t51.5 42z
M158 295q-13 4 -28 -1.5t-30.5 -17.5t-29.5 -29t-25 -35t-17 -36t-6 -33t5.5 -26.5t18.5 -15.5q26 -9 55 10.5t51 56.5l4 7q-8 9 -11.5 23t-3 30t4 32t9.5 29zM118 468l17.5 40.5t23.5 46t26 39.5t25 21q10 3 21.5 -3.5t20 -18t10 -25.5t-8.5 -26l-27.5 -32l-33.5 -37
l-31.5 -32.5t-22.5 -19.5q-11 -6 -17 -3t-8 10.5t-0.5 18t5.5 21.5zM235 480q9 16 25 38t33.5 42t34.5 35t29 17q10 1 21.5 -8t18.5 -23t6.5 -29t-12.5 -25q-13 -11 -34 -26l-43 -29.5t-40.5 -25.5t-27.5 -14q-12 -4 -17.5 -0.5t-6 11t3 18t9.5 19.5z" />
    <glyph glyph-name="ncaron" unicode="&#x148;" horiz-adv-x="506" 
d="M0 254q19 19 37 35t36.5 30l38.5 28l44 30q28 18 49 19.5t33.5 -7.5t15 -25.5t-7.5 -33.5t-25 -39l-31 -45.5l-31 -44.5l-24 -34q-10 -14 -11.5 -20.5t1.5 -8t9.5 2.5t14.5 13l20 20t33 31t42.5 36t49.5 36q26 16 45 17.5t31.5 -6t17.5 -19.5t3 -22q-5 -20 -10.5 -31
t-13.5 -31q-12 -27 -6 -34t26 3.5t50.5 36.5t68.5 63q15 15 27.5 16.5t18.5 -5t4.5 -19.5t-15.5 -27l-34.5 -33.5l-43.5 -39.5t-47.5 -38t-46.5 -29q-25 -12 -44.5 -10.5t-31.5 13.5t-13.5 32.5t9.5 46.5q20 48 14 59t-44 -23q-19 -17 -46 -44.5l-54 -57.5t-50 -58.5
t-35 -47.5q-12 -20 -27 -21.5t-26.5 8t-15.5 28.5t5 40q7 16 21.5 45.5t31.5 61l34 61t29 46.5q21 30 17.5 36t-20.5 -3.5t-41.5 -29.5t-46.5 -42q-17 -17 -30.5 -19t-19.5 5t-3 20.5t18 28.5zM304 572q19 -10 28.5 -33.5t17.5 -49.5l47.5 33.5l33.5 24.5t28.5 22t32.5 28
q10 9 16.5 5t9.5 -14t2.5 -23t-6.5 -23q-8 -13 -26.5 -31.5t-41 -37.5t-45.5 -36.5l-39 -29.5q-8 -6 -19 -10.5t-21.5 -5t-18 4t-8.5 17.5q-2 29 -10.5 64.5t-21.5 64.5q-5 12 -3 20.5t8.5 12t16 3t19.5 -5.5z" />
    <glyph glyph-name="nacute" unicode="&#x144;" horiz-adv-x="506" 
d="M0 254q19 19 37 35t36.5 30l38.5 28l44 30q28 18 49 19.5t33.5 -7.5t15 -25.5t-7.5 -33.5t-25 -39l-31 -45.5l-31 -44.5l-24 -34q-10 -14 -11.5 -20.5t1.5 -8t9.5 2.5t14.5 13l20 20t33 31t42.5 36t49.5 36q26 16 45 17.5t31.5 -6t17.5 -19.5t3 -22q-5 -20 -10.5 -31
t-13.5 -31q-12 -27 -6 -34t26 3.5t50.5 36.5t68.5 63q15 15 27.5 16.5t18.5 -5t4.5 -19.5t-15.5 -27l-34.5 -33.5l-43.5 -39.5t-47.5 -38t-46.5 -29q-25 -12 -44.5 -10.5t-31.5 13.5t-13.5 32.5t9.5 46.5q20 48 14 59t-44 -23q-19 -17 -46 -44.5l-54 -57.5t-50 -58.5
t-35 -47.5q-12 -20 -27 -21.5t-26.5 8t-15.5 28.5t5 40q7 16 21.5 45.5t31.5 61l34 61t29 46.5q21 30 17.5 36t-20.5 -3.5t-41.5 -29.5t-46.5 -42q-17 -17 -30.5 -19t-19.5 5t-3 20.5t18 28.5zM313 437q11 14 30 30.5t39.5 30t40 22.5t31.5 9q10 0 18 -9t10.5 -21t-2 -25
t-17.5 -21q-15 -9 -36 -19t-42.5 -18.5t-40 -14.5t-27.5 -8q-13 -2 -18 1t-4 10t6 15.5t12 17.5z" />
    <glyph glyph-name="dcroat" unicode="&#x111;" horiz-adv-x="372" 
d="M237 530q17 7 48.5 10.5t66.5 5.5l51.5 83t40.5 58q14 18 31 24.5t28.5 3t14 -17t-12.5 -36.5q-20 -29 -37.5 -58l-34.5 -57q14 -1 25.5 -1.5t19.5 -2.5q14 -3 18.5 -14t0 -22.5t-16.5 -21t-30 -9.5h-60l-65.5 -118.5t-51 -100l-36 -77t-20.5 -48.5q-12 -32 1 -31.5
t37 26.5l52.5 60t64.5 68q17 18 31.5 21.5t21.5 -2.5t3.5 -20.5t-21.5 -33.5q-18 -18 -43 -46.5l-52 -60.5l-54 -65l-50 -60t-46 -39.5t-38 -5t-18.5 36.5t12.5 86q6 23 17 51l25 61l-88.5 -103.5t-74.5 -77.5q-34 -31 -58.5 -17.5t-28 55.5t18 103.5t79.5 126.5
q72 80 129.5 97t99.5 -15q6 9 13 16l30 57t31 55l-44 -2t-51 -4q-15 -2 -19.5 5.5t-1 18t14.5 21.5t27 17zM45 133l21.5 22l34.5 36.5l43.5 47.5l47.5 54q-17 4 -43 -2t-58 -37q-45 -42 -67.5 -75.5t-27 -52.5t8.5 -19t40 26z" />
    <glyph glyph-name="dcaron" unicode="&#x10f;" horiz-adv-x="372" 
d="M444 687q14 18 31 24.5t28.5 3t14 -17t-12.5 -36.5q-62 -95 -111.5 -181.5t-86 -156.5t-59 -120t-31.5 -72q-12 -32 1 -31.5t37 26.5l52.5 60t64.5 68q17 18 31.5 21.5t21.5 -2.5t3.5 -20.5t-21.5 -33.5q-18 -18 -43 -46.5l-52 -60.5l-54 -65l-50 -60t-46 -39.5t-38 -5
t-18.5 36.5t12.5 86q6 23 17 51l25 61l-88.5 -103.5t-74.5 -77.5q-34 -31 -58.5 -17.5t-28 55.5t18 103.5t79.5 126.5q72 80 129.5 97t99.5 -15q6 9 13 16l54.5 100.5l53.5 92.5l48 77.5t38 54.5zM45 133l21.5 22l34.5 36.5l43.5 47.5l47.5 54q-17 4 -43 -2t-58 -37
q-45 -42 -67.5 -75.5t-27 -52.5t8.5 -19t40 26zM492 520q18 18 24 35t7.5 33.5t1 32.5t5.5 32q10 27 29.5 36.5t37.5 4t29 -24.5t2 -48q-5 -14 -15 -32t-23.5 -35.5t-28 -33.5t-26.5 -26q-16 -14 -30 -16.5t-21.5 2.5t-6.5 15.5t15 24.5z" />
    <glyph glyph-name="ecaron" unicode="&#x11b;" horiz-adv-x="321" 
d="M233 392q26 -16 25 -51t-30 -74.5t-87.5 -75.5t-146.5 -54q-10 -24 -8.5 -43t15 -29t38.5 -7.5t62 20.5q46 23 99 66t121 110q14 15 27 17t20 -4.5t5 -19.5t-17 -28q-63 -63 -124 -118t-131 -94q-58 -33 -106 -35.5t-71.5 23.5t-15 81t62.5 138q45 69 85.5 109.5t74 59
t59.5 19t43 -9.5zM173 334q-16 -3 -34.5 -15t-38 -30.5t-38.5 -42.5t-35 -49q52 10 88.5 34t56 48t20 41t-18.5 14zM193 618q19 -10 28.5 -33.5t17.5 -49.5l47.5 33.5l33.5 24.5t28.5 22t32.5 28q10 9 16.5 5t9.5 -14t2.5 -23t-6.5 -23q-8 -13 -26.5 -31.5t-41 -37.5
t-45.5 -36.5l-39 -29.5q-8 -6 -19 -10.5t-21.5 -5t-18 4t-8.5 17.5q-2 29 -10.5 64.5t-21.5 64.5q-5 12 -3 20.5t8.5 12t16 3t19.5 -5.5z" />
    <glyph glyph-name="eogonek" unicode="&#x119;" horiz-adv-x="321" 
d="M233 392q26 -16 25 -51t-30 -74.5t-87.5 -75.5t-146.5 -54q-10 -24 -8.5 -43t15 -29t38.5 -7.5t62 20.5q46 23 99 66t121 110q14 15 27 17t20 -4.5t5 -19.5t-17 -28q-63 -63 -124 -118t-131 -94q-1 -1 -2 -1q-28 -17 -62.5 -41.5t-61 -47t-37.5 -39t9 -18.5q35 -4 58.5 3
t35.5 18q8 7 17 4.5t15.5 -10t9 -18t-3.5 -19.5q-15 -23 -45 -35.5t-71 -10.5q-38 1 -59.5 17.5t-23 42t18.5 57.5t65 65q-26 5 -41 22.5t-16.5 47.5t13.5 72.5t51 97.5q45 69 85.5 109.5t74 59t59.5 19t43 -9.5zM173 334q-16 -3 -34.5 -15t-38 -30.5t-38.5 -42.5t-35 -49
q52 10 88.5 34t56 48t20 41t-18.5 14z" />
    <glyph glyph-name="ccaron" unicode="&#x10d;" horiz-adv-x="324" 
d="M197 363q44 1 65 -11.5t26 -25.5q5 -14 -0.5 -25t-16 -17t-22.5 -6t-20 6t-23 8.5t-42 -1.5q-18 -3 -35 -10t-32.5 -17.5t-29 -22t-22.5 -23.5q-30 -38 -40.5 -68.5t-1.5 -47.5t38 -16.5t77 24.5q20 10 47 27t55.5 37t55.5 41t48 39q7 6 17.5 5.5t18 -5.5t8.5 -14.5
t-9 -20.5q-24 -25 -55 -51.5l-63 -51.5t-62.5 -46t-54.5 -35q-45 -26 -82 -32.5t-63.5 3t-41 32t-15 54t15 70t49.5 78.5q18 22 42.5 43.5t52 38.5t57 28.5t58.5 12.5zM188 598q19 -10 28.5 -33.5t17.5 -49.5l47.5 33.5l33.5 24.5t28.5 22t32.5 28q10 9 16.5 5t9.5 -14
t2.5 -23t-6.5 -23q-8 -13 -26.5 -31.5t-41 -37.5t-45.5 -36.5l-39 -29.5q-8 -6 -19 -10.5t-21.5 -5t-18 4t-8.5 17.5q-2 29 -10.5 64.5t-21.5 64.5q-5 12 -3 20.5t8.5 12t16 3t19.5 -5.5z" />
    <glyph glyph-name="cacute" unicode="&#x107;" horiz-adv-x="324" 
d="M197 363q44 1 65 -11.5t26 -25.5q5 -14 -0.5 -25t-16 -17t-22.5 -6t-20 6t-23 8.5t-42 -1.5q-18 -3 -35 -10t-32.5 -17.5t-29 -22t-22.5 -23.5q-30 -38 -40.5 -68.5t-1.5 -47.5t38 -16.5t77 24.5q20 10 47 27t55.5 37t55.5 41t48 39q7 6 17.5 5.5t18 -5.5t8.5 -14.5
t-9 -20.5q-24 -25 -55 -51.5l-63 -51.5t-62.5 -46t-54.5 -35q-45 -26 -82 -32.5t-63.5 3t-41 32t-15 54t15 70t49.5 78.5q18 22 42.5 43.5t52 38.5t57 28.5t58.5 12.5zM182 467q11 14 30 30.5t39.5 30t40 22.5t31.5 9q10 0 18 -9t10.5 -21t-2 -25t-17.5 -21q-15 -9 -36 -19
t-42.5 -18.5t-40 -14.5t-27.5 -8q-13 -2 -18 1t-4 10t6 15.5t12 17.5z" />
    <glyph glyph-name="lacute" unicode="&#x13a;" horiz-adv-x="326" 
d="M0 254q68 69 132 143l116.5 139l88.5 113t49 64q14 18 28 18.5t22 -9.5t8 -28t-14 -36q-47 -62 -91.5 -136.5t-81.5 -145.5t-64.5 -130t-39.5 -90q-12 -32 -14 -47t3.5 -17t16.5 5.5t26 21.5l59 55.5l82 79.5q18 19 33 23t21.5 -2.5t3 -21.5t-22.5 -34l-114 -118
l-114 -118q-29 -29 -49.5 -38.5t-33 -2.5t-15.5 29t4 57q7 34 24.5 80t39 92.5l42.5 89.5l36 72t9.5 26t-26.5 -27l-55 -62.5t-74 -79.5q-13 -13 -26 -14.5t-20 4.5t-5.5 18t16.5 27zM422 801q11 14 30 30.5t39.5 30t40 22.5t31.5 9q10 0 18 -9t10.5 -21t-2 -25t-17.5 -21
q-15 -9 -36 -19t-42.5 -18.5t-40 -14.5t-27.5 -8q-13 -2 -18 1t-4 10t6 15.5t12 17.5z" />
    <glyph glyph-name="abreve" unicode="&#x103;" horiz-adv-x="427" 
d="M255 349q-30 -7 -63.5 -27.5t-64 -45t-56 -50l-40.5 -41.5q-15 -17 -20.5 -29.5t-4 -18.5t9 -4.5t19.5 13.5t31.5 29.5l42.5 36.5l47.5 37.5t46.5 31.5t41 14.5t29.5 -9.5t9.5 -33t-19 -55q-12 -21 -12.5 -33t4.5 -17.5t14 -5t17 4.5q29 13 67.5 43t72.5 64
q13 13 25.5 14.5t19 -5.5t5 -19t-14.5 -25q-20 -20 -47 -43t-55.5 -45t-56.5 -40.5t-50 -27.5q-25 -11 -44.5 -7.5t-30 17.5t-9.5 38t17 56q17 33 13 39.5t-18 -3.5q-8 -5 -28 -24.5l-45.5 -45l-52.5 -51.5t-48 -44q-17 -15 -37 -13t-33.5 18.5t-16 45.5t15.5 67
q18 39 47.5 78.5t67 73t81 58.5t89.5 35q18 4 32 -2t20 -16t2.5 -20t-20.5 -14zM366 553q7 13 21 17t26 1t19 -12.5t0 -22.5q-15 -29 -51 -49.5t-78 -24.5q-38 -3 -68 4t-50 20.5t-29 32.5t-5 40q4 22 20 32t32.5 11t27 -5.5t4.5 -17.5q-5 -8 -4 -18t9.5 -18t24.5 -13.5
t42 -5.5q20 0 35.5 8.5t23.5 20.5z" />
    <glyph glyph-name="racute" unicode="&#x155;" horiz-adv-x="293" 
d="M0 254l36 37.5t35 39.5q-8 10 -8 20q0 18 9.5 35t24 30.5t32 21t34.5 6.5q15 -2 19.5 -12t-2.5 -23q-9 -19 -5.5 -24.5t24.5 -7.5q19 -2 30 -14t6 -32q-3 -15 -12 -30t-21 -31.5l-26 -37t-27 -45.5q-36 -67 3.5 -50.5t140.5 117.5q12 12 24 13t18.5 -5t6 -18t-13.5 -25
q-10 -10 -29.5 -28l-42 -38l-45.5 -39t-40 -30q-25 -17 -49 -20t-44 17q-29 29 -24.5 61t34.5 74q24 35 37 57.5t16.5 35t-1.5 15.5t-16 -1l-25 -32l-25.5 -30l-22.5 -25t-16 -17q-13 -13 -24.5 -13.5t-18 6t-5.5 18.5t13 24zM198 527q11 14 30 30.5t39.5 30t40 22.5t31.5 9
q10 0 18 -9t10.5 -21t-2 -25t-17.5 -21q-15 -9 -36 -19t-42.5 -18.5t-40 -14.5t-27.5 -8q-13 -2 -18 1t-4 10t6 15.5t12 17.5z" />
    <glyph glyph-name="Uhungarumlaut" unicode="&#x170;" 
d="M345 -27q1 15 8 41t18 57.5t25 67t31 70.5l-94.5 -116t-78 -92.5t-65.5 -64t-57 -30.5q-24 -6 -45 1t-37.5 22t-28 36t-15.5 44q-11 49 10.5 120t64 150.5t101 160.5t122.5 151q10 10 28.5 9t34.5 -9.5t24.5 -22t-0.5 -26.5q-152 -209 -223 -342t-75 -173
q-3 -28 13 -38.5t34 -2.5q22 10 53.5 45t85 102.5l133.5 171l198 249.5q22 33 52 47t53.5 13t34.5 -13.5t-3 -31.5q-39 -53 -76.5 -116t-71.5 -128t-63.5 -128.5t-52 -117.5t-37 -94.5t-19.5 -59.5q-3 -15 -17 -16t-29 7.5t-26.5 24t-9.5 32.5zM453 678l17.5 40.5t23.5 46
t26 39.5t25 21q10 3 21.5 -3.5t20 -18t10 -25.5t-8.5 -26l-27.5 -32l-33.5 -37l-31.5 -32.5t-22.5 -19.5q-11 -6 -17 -3t-8 10.5t-0.5 18t5.5 21.5zM570 690q9 16 25 38t33.5 42t34.5 35t29 17q10 1 21.5 -8t18.5 -23t6.5 -29t-12.5 -25q-13 -11 -34 -26l-43 -29.5
t-40.5 -25.5t-27.5 -14q-12 -4 -17.5 -0.5t-6 11t3 18t9.5 19.5z" />
    <glyph glyph-name="Uring" unicode="&#x16e;" 
d="M345 -27q1 15 8 41t18 57.5t25 67t31 70.5l-94.5 -116t-78 -92.5t-65.5 -64t-57 -30.5q-24 -6 -45 1t-37.5 22t-28 36t-15.5 44q-11 49 10.5 120t64 150.5t101 160.5t122.5 151q10 10 28.5 9t34.5 -9.5t24.5 -22t-0.5 -26.5q-152 -209 -223 -342t-75 -173
q-3 -28 13 -38.5t34 -2.5q22 10 53.5 45t85 102.5l133.5 171l198 249.5q22 33 52 47t53.5 13t34.5 -13.5t-3 -31.5q-39 -53 -76.5 -116t-71.5 -128t-63.5 -128.5t-52 -117.5t-37 -94.5t-19.5 -59.5q-3 -15 -17 -16t-29 7.5t-26.5 24t-9.5 32.5zM560 820q24 0 45 -7t37 -19
t25 -28t9 -34t-9 -34t-25 -27.5t-37 -18.5t-45 -7t-45 7t-36.5 18.5t-24.5 27.5t-9 34t9 34t24.5 28t36.5 19t45 7zM566 694q23 0 39 10t16 25q0 14 -16 24.5t-39 10.5t-39 -10.5t-16 -24.5q0 -15 16 -25t39 -10z" />
    <glyph glyph-name="Rcaron" unicode="&#x158;" horiz-adv-x="651" 
d="M221 418q10 18 20 25t19.5 8.5t18.5 1t19 2.5t20 12t22 30q-44 -8 -78 -16l-47 -11q-22 -5 -27.5 11t3 38.5t28.5 44t49 27.5q75 14 138.5 16t113.5 -7.5t84.5 -29t51.5 -47.5q26 -43 20.5 -84t-43.5 -77t-110.5 -66.5t-181.5 -51.5l90 -109l90 -112.5l73 -92t40 -47.5
q11 -11 4.5 -25.5t-23.5 -23.5t-40.5 -9t-44.5 19q-8 7 -25.5 30.5l-42 57l-54 74l-61 80.5l-62.5 77t-58 64l-52 -109.5l-45 -97l-34 -74.5t-18 -42q-8 -19 -23.5 -16.5t-29 19t-20 43t2.5 55.5q6 19 22.5 54l38 77.5l45.5 87l45.5 84l38 69zM371 502q-23 -39 -47.5 -85.5
l-50.5 -97.5l3.5 -3.5l3.5 -3.5q62 15 122.5 37t105.5 46.5t67 49t9 45.5q-8 12 -29.5 17.5t-51 6t-64 -3t-68.5 -8.5zM460 816q19 -10 28.5 -33.5t17.5 -49.5l47.5 33.5l33.5 24.5t28.5 22t32.5 28q10 9 16.5 5t9.5 -14t2.5 -23t-6.5 -23q-8 -13 -26.5 -31.5t-41 -37.5
t-45.5 -36.5l-39 -29.5q-8 -6 -19 -10.5t-21.5 -5t-18 4t-8.5 17.5q-2 29 -10.5 64.5t-21.5 64.5q-5 12 -3 20.5t8.5 12t16 3t19.5 -5.5z" />
    <glyph glyph-name="Cdotaccent" unicode="&#x10a;" horiz-adv-x="568" 
d="M415 519q-8 6 -27.5 -3t-48 -31.5t-63.5 -58t-74 -83.5t-62.5 -99.5t-32.5 -98.5t-4 -84.5t23 -57.5q21 -22 45.5 -22t49.5 15t49.5 40.5t45.5 55t37.5 58t25.5 49.5q9 20 21.5 26.5t25 2t23.5 -17t17 -29.5t5 -37t-11 -38q-47 -81 -96.5 -128.5t-97.5 -67t-91.5 -14.5
t-78 29t-58 64t-31.5 91q-14 89 13 173t82 153t130.5 117.5t159.5 68.5q57 13 91 7.5t50.5 -21t18.5 -36.5t-5 -38q-8 -17 -24 -37l-33 -40.5t-32 -40.5t-21 -37t-22.5 -19.5t-32.5 5t-26 23.5t-2 36t23 38l27.5 34t17.5 29t-7 24zM538 683q-18 -21 -42 -28t-42 6
q-10 7 -13.5 19t-2.5 25.5t6.5 27t14.5 24.5q18 21 41.5 25t40.5 -11q16 -16 15 -41.5t-18 -46.5z" />
    <glyph glyph-name="jcircumflex" unicode="&#x135;" horiz-adv-x="271" 
d="M34 219q-10 -10 -19.5 -9t-15.5 8.5t-6.5 17.5t7.5 18q7 8 23 24l34 33l36 32.5t31 23.5q14 9 29.5 6t26 -15.5t13 -32.5t-8.5 -44q-8 -20 -24 -49.5l-33.5 -61l-34.5 -61l-27 -47.5q-21 -37 -18 -48.5t16 8.5q7 10 30 37l53.5 61.5l64 70.5l60.5 63q14 14 26 15t18 -6
t4.5 -19t-13.5 -25q-18 -17 -44.5 -47.5l-57.5 -67l-64 -76.5l-62.5 -77.5l-53.5 -68.5l-37 -49q-26 -37 -49 -47t-37.5 0t-16.5 35.5t14 59.5q9 20 26 51l37.5 66.5l43.5 74.5l44.5 75.5l39.5 68t29 53.5q7 13 8 19.5t-8 2.5t-29.5 -21.5t-54.5 -51.5zM264 427
q-19 10 -28.5 33.5t-17.5 49.5l-47.5 -33.5l-33.5 -24.5t-28.5 -22.5l-32.5 -27.5q-10 -9 -16.5 -5t-9.5 14t-2.5 23t6.5 23q7 13 26 31.5t41.5 37.5t45.5 36.5l39 29.5q8 6 19 10.5t21.5 5t18 -4t8.5 -17.5q2 -29 10.5 -64.5t21.5 -64.5q5 -12 3 -20.5t-8.5 -12t-16 -3
t-19.5 5.5z" />
    <glyph glyph-name="gbreve" unicode="&#x11f;" horiz-adv-x="437" 
d="M437 254q11 12 21.5 11.5t17 -7.5t6.5 -18t-10 -21q-51 -51 -112 -99.5l-119.5 -92l-108 -80t-76.5 -62.5q-16 -26 -33.5 -51.5t-36 -47t-37 -37t-37.5 -21.5q-13 -5 -27 -1t-22 15.5t-7 31.5t17.5 47.5t52 63t97.5 78.5q7 12 17.5 28l21.5 33.5t22.5 34t19.5 29.5
q35 56 37 68t-30 -17l-61 -55.5t-45 -26.5q-24 -6 -41 6t-23 35t-1 52t24 58q21 31 48.5 60.5t61.5 53t74 39t86 18.5q32 1 51.5 -6t28 -19t7.5 -26.5t-9 -28.5q-7 -11 -19.5 -13t-20.5 8t-24.5 13.5t-50.5 -1.5q-32 -4 -61.5 -21t-54 -38t-41.5 -43t-23 -38t0 -22t29 5
t57 41t96 75q12 9 25 8.5t21.5 -8t9 -23t-12.5 -36.5l-26.5 -41.5l-29.5 -48.5l-30 -49.5l-27 -45.5l69 47l80.5 56l83 63t75.5 67zM359 534q7 13 21 17t26 1t19 -12.5t0 -22.5q-15 -29 -51 -49.5t-78 -24.5q-38 -3 -68 4t-50 20.5t-29 32.5t-5 40q4 22 20 32t32.5 11
t27 -5.5t4.5 -17.5q-5 -8 -4 -18t9.5 -18t24.5 -13.5t42 -5.5q20 0 35.5 8.5t23.5 20.5z" />
    <glyph glyph-name="hcircumflex" unicode="&#x125;" horiz-adv-x="485" 
d="M0 254l85.5 90.5l74.5 85.5q30 65 62.5 127.5t65.5 118t66 100.5t63 75q25 25 48 32.5t37 -1t14.5 -33t-18.5 -61.5q-18 -35 -48.5 -79t-68 -93l-80.5 -101l-86 -101q-33 -65 -48 -101.5t-18 -52.5t3 -15.5t15 9.5q12 13 47 47.5t87 72.5q26 19 50 25.5t40.5 0.5
t22.5 -24t-4 -47q-13 -37 -40.5 -85l-64.5 -111q-26 -45 -22 -53.5t30.5 11.5t71.5 63l100 100q15 15 29 18.5t21.5 -2.5t5 -19.5t-20.5 -31.5l-32 -33.5l-44 -47l-50.5 -53.5l-51 -52t-45.5 -42t-34 -25q-17 -9 -32.5 -8.5t-26 10t-14 27.5t3.5 44q7 25 21 55.5t30 61.5
t32.5 59t29.5 48q26 41 19 53.5t-30 -7.5q-12 -10 -38 -35.5t-55 -58.5t-55.5 -68t-38.5 -63q-8 -20 -20.5 -22t-22 8t-14 30.5t2.5 45.5q9 33 20.5 68.5t25.5 72.5q-17 -19 -34 -36l-32 -32q-12 -12 -23.5 -12t-17.5 6.5t-5.5 18t11.5 22.5zM579 905q-19 10 -28.5 33.5
t-17.5 49.5l-47.5 -33.5l-33.5 -24.5t-28.5 -22.5l-32.5 -27.5q-10 -9 -16.5 -5t-9.5 14t-2.5 23t6.5 23q7 13 26 31.5t41.5 37.5t45.5 36.5l39 29.5q8 6 19 10.5t21.5 5t18 -4t8.5 -17.5q2 -29 10.5 -64.5t21.5 -64.5q5 -12 3 -20.5t-8.5 -12t-16 -3t-19.5 5.5z" />
    <glyph glyph-name="hbar" unicode="&#x127;" horiz-adv-x="485" 
d="M0 254l85.5 90.5l74.5 85.5l24.5 53.5t26.5 52.5l-55 -6q-13 -2 -16.5 5t0 17t12 20.5t18.5 15.5q9 4 30 9t49 10q43 78 86 141.5t82 102.5q25 25 48 32.5t37 -1t14.5 -33t-18.5 -61.5q-17 -33 -45 -74.5t-63 -87.5q34 4 60 4.5t37 -1.5q10 -2 12.5 -13.5t-1.5 -24.5
t-13 -23.5t-22 -10.5q-35 0 -68 -2t-65 -5l-57 -68.5l-58 -67.5q-33 -65 -48 -101.5t-18 -52.5t3 -15.5t15 9.5q12 13 47 47.5t87 72.5q26 19 50 25.5t40.5 0.5t22.5 -24t-4 -47q-13 -37 -40.5 -85l-64.5 -111q-26 -45 -22 -53.5t30.5 11.5t71.5 63l100 100q15 15 29 18.5
t21.5 -2.5t5 -19.5t-20.5 -31.5l-32 -33.5l-44 -47l-50.5 -53.5l-51 -52t-45.5 -42t-34 -25q-17 -9 -32.5 -8.5t-26 10t-14 27.5t3.5 44q7 25 21 55.5t30 61.5t32.5 59t29.5 48q26 41 19 53.5t-30 -7.5q-12 -10 -38 -35.5t-55 -58.5t-55.5 -68t-38.5 -63q-8 -20 -20.5 -22
t-22 8t-14 30.5t2.5 45.5q9 33 20.5 68.5t25.5 72.5q-17 -19 -34 -36l-32 -32q-12 -12 -23.5 -12t-17.5 6.5t-5.5 18t11.5 22.5z" />
    <glyph glyph-name="Jcircumflex" unicode="&#x134;" horiz-adv-x="549" 
d="M95 -109q-29 9 -52.5 41.5t-34 78.5t-3 101t39.5 110q14 24 35 32.5t38 5t25.5 -17t-1.5 -32.5q-7 -15 -15.5 -39t-15 -51.5t-10 -55.5t-1.5 -50.5t10 -36.5t25 -14q21 0 47.5 34.5t56.5 90t63 124.5l67.5 137t69.5 128t69 99q24 27 50.5 34t45 1t23.5 -22.5t-14 -37.5
q-27 -30 -54 -77.5t-54.5 -104l-56 -117.5t-58.5 -119t-63 -108.5t-69.5 -84.5t-77 -48.5t-85.5 -0.5zM645 663q-19 10 -28.5 33.5t-17.5 49.5l-47.5 -33.5l-33.5 -24.5t-28.5 -22.5l-32.5 -27.5q-10 -9 -16.5 -5t-9.5 14t-2.5 23t6.5 23q7 13 26 31.5t41.5 37.5t45.5 36.5
l39 29.5q8 6 19 10.5t21.5 5t18 -4t8.5 -17.5q2 -29 10.5 -64.5t21.5 -64.5q5 -12 3 -20.5t-8.5 -12t-16 -3t-19.5 5.5z" />
    <glyph glyph-name="Gbreve" unicode="&#x11e;" horiz-adv-x="591" 
d="M230 198q-18 -6 -24.5 3.5t-3.5 24.5t13.5 31t25.5 23q23 12 56.5 19t69 10t68.5 3t55 -3t33 -18.5t12 -32.5t-8 -29t-27 -8q-21 5 -59 5t-82 -5q31 -19 56.5 -46.5t32 -62t-12 -77t-74.5 -91.5q-50 -44 -102.5 -56t-99.5 2t-84 50t-56 88t-16.5 117t35.5 137
q37 81 84 140t97 98t100 59.5t94 26t79 -2.5t55 -27q15 -15 10.5 -35.5t-17 -45.5l-28 -53.5t-24.5 -58.5q-6 -20 -20 -22.5t-27.5 5.5t-23.5 23.5t-7 30.5q2 15 10 32.5t14 33t6.5 28.5t-12.5 20q-17 9 -43 -2.5t-56.5 -38.5t-61.5 -65.5t-59.5 -83t-50.5 -92t-33 -91.5
q-13 -53 -8.5 -101.5t25.5 -76.5t58.5 -25.5t91.5 52.5q26 25 40.5 58t13 63t-21 51.5t-60.5 23.5q-16 -3 -33 -8zM559 768q7 13 21 17t26 1t19 -12.5t0 -22.5q-15 -29 -51 -49.5t-78 -24.5q-38 -3 -68 4t-50 20.5t-29 32.5t-5 40q4 22 20 32t32.5 11t27 -5.5t4.5 -17.5
q-5 -8 -4 -18t9.5 -18t24.5 -13.5t42 -5.5q20 0 35.5 8.5t23.5 20.5z" />
    <glyph glyph-name="Ccircumflex" unicode="&#x108;" horiz-adv-x="568" 
d="M415 519q-8 6 -27.5 -3t-48 -31.5t-63.5 -58t-74 -83.5t-62.5 -99.5t-32.5 -98.5t-4 -84.5t23 -57.5q21 -22 45.5 -22t49.5 15t49.5 40.5t45.5 55t37.5 58t25.5 49.5q9 20 21.5 26.5t25 2t23.5 -17t17 -29.5t5 -37t-11 -38q-47 -81 -96.5 -128.5t-97.5 -67t-91.5 -14.5
t-78 29t-58 64t-31.5 91q-14 89 13 173t82 153t130.5 117.5t159.5 68.5q57 13 91 7.5t50.5 -21t18.5 -36.5t-5 -38q-8 -17 -24 -37l-33 -40.5t-32 -40.5t-21 -37t-22.5 -19.5t-32.5 5t-26 23.5t-2 36t23 38l27.5 34t17.5 29t-7 24zM519 658q-19 10 -28.5 33.5t-17.5 49.5
l-47.5 -33.5l-33.5 -24.5t-28.5 -22.5l-32.5 -27.5q-10 -9 -16.5 -5t-9.5 14t-2.5 23t6.5 23q7 13 26 31.5t41.5 37.5t45.5 36.5l39 29.5q8 6 19 10.5t21.5 5t18 -4t8.5 -17.5q2 -29 10.5 -64.5t21.5 -64.5q5 -12 3 -20.5t-8.5 -12t-16 -3t-19.5 5.5z" />
    <glyph glyph-name="Idotaccent" unicode="&#x130;" horiz-adv-x="371" 
d="M93 -92q-9 -20 -27.5 -21t-35 11t-25 36t2.5 54q16 45 41.5 100.5t55.5 114l62 116.5l62 108.5t56 89t43 57.5q21 24 45 34.5t42.5 10t26.5 -10.5t-3 -26q-26 -38 -55.5 -89.5l-61 -110l-63.5 -122l-61.5 -125.5l-56.5 -120zM501 701q-18 -21 -42 -28t-42 6
q-10 7 -13.5 19t-2.5 25.5t6.5 27t14.5 24.5q18 21 41.5 25t40.5 -11q16 -16 15 -41.5t-18 -46.5z" />
    </font>
</defs>
</svg>
