<?xml version="1.0" standalone="no"?>
<!DOCTYPE svg PUBLIC "-//W3C//DTD SVG 1.1//EN" "http://www.w3.org/Graphics/SVG/1.1/DTD/svg11.dtd" >
<svg>
<metadata>
Created by FontForge 20090622 at Thu Mar 23 09:38:35 2017
 By deploy user
&#194;&#169; 2014 Sergiy S. Tkachenko / 4th february
&#194;&#169; 2014 IPHostMonitor.com
http://creativecommons.org/licenses/by-nd/4.0/
</metadata>
<defs>
<font id="Monitorica-BoldItalic" horiz-adv-x="506" >
  <font-face 
    font-family="Monitorica"
    font-weight="700"
    font-style="italic"
    font-stretch="normal"
    units-per-em="1000"
    panose-1="2 11 4 3 2 2 2 2 2 4"
    ascent="750"
    descent="-250"
    x-height="500"
    cap-height="700"
    bbox="-36 -250 860 929"
    underline-thickness="50"
    underline-position="-50"
    unicode-range="U+0021-U+F0434"
  />
<missing-glyph horiz-adv-x="200" 
 />
    <glyph glyph-name="fi" unicode="fi" horiz-adv-x="511" 
d="M94 -250h-79l115 818q5 35 19.5 65.5t38.5 53t56 35.5t73 13h81l-10 -75h-81q-25 0 -42 -8t-28.5 -20.5t-18 -29t-9.5 -34.5zM356 495l-11 -74h-120l-26 74h157zM444 500h78l-70 -500h-78zM470 680h78l-15 -102h-78z" />
    <glyph glyph-name="fl" unicode="fl" horiz-adv-x="511" 
d="M94 -250h-79l115 818q5 35 19.5 65.5t38.5 53t56 35.5t73 13h81l-10 -75h-81q-25 0 -42 -8t-28.5 -20.5t-18 -29t-9.5 -34.5zM356 495l-11 -74h-120l-26 74h157zM558 750l-106 -750h-78l104 737z" />
    <glyph glyph-name=".notdef" horiz-adv-x="200" 
 />
    <glyph glyph-name=".null" horiz-adv-x="0" 
 />
    <glyph glyph-name="nonmarkingreturn" horiz-adv-x="200" 
 />
    <glyph glyph-name="space" unicode="&#xa0;" horiz-adv-x="200" 
 />
    <glyph glyph-name="space" unicode=" " horiz-adv-x="200" 
 />
    <glyph glyph-name="dollar" unicode="$" horiz-adv-x="453" 
d="M443 220q0 -91 -48.5 -142t-136.5 -57l-10 -71h-40l10 70h-156l11 81h156l30 208l-4 2l-48 22.5t-43.5 29t-31.5 44.5t-12 69q0 94 48.5 146t142.5 57l10 71h40l-10 -70h137l-12 -81h-137l-30 -213q26 -9 50 -21.5t43 -31.5t30 -46.5t11 -66.5zM206 491q0 -42 18.5 -61
t46.5 -30l28 198q-45 -5 -69 -31t-24 -76zM356 207q0 41 -17 60t-42 29l-27 -194q42 6 64 31.5t22 73.5z" />
    <glyph glyph-name="percent" unicode="%" horiz-adv-x="616" 
d="M478 299q31 0 53.5 -12t35.5 -32.5t17 -48t0 -57.5l-1 -9q-5 -30 -17 -57t-31 -47.5t-44 -32.5t-56 -12q-30 0 -52 12t-35.5 32.5t-18 47.5t0.5 57l1 9q4 30 16 57.5t30.5 48t44 32.5t56.5 12zM246 401q-31 0 -53 12t-35 32.5t-17.5 48t-0.5 57.5l2 9q4 30 16 57t31 47.5
t44.5 32.5t56.5 12t53 -12t35 -32.5t17.5 -47.5t0.5 -57l-2 -9q-4 -30 -16 -57.5t-31 -48t-44.5 -32.5t-56.5 -12zM258 481q23 0 36.5 21.5t17.5 48.5l2 9q4 27 -4.5 48t-31.5 21t-36 -19.5t-17 -49.5l-2 -9q-4 -30 4 -50t31 -20zM467 219q-23 0 -36.5 -21.5t-17.5 -48.5
l-1 -9q-4 -27 3.5 -48t30.5 -21t36.5 19.5t18.5 49.5l1 9q5 30 -3.5 50t-31.5 20zM84 0l463 700h93l-463 -700h-93z" />
    <glyph glyph-name="ampersand" unicode="&#x26;" horiz-adv-x="565" 
d="M342 619q-29 0 -45.5 -16t-19.5 -40l-2 -19q-5 -45 6 -78t22 -55l6 -12l79 -169q10 22 23 46t29.5 43.5t37.5 32.5t47 13h30l-11 -81h-23q-18 0 -28 -16.5t-26 -54.5l-12 -29l-22 -49q7 -18 16 -28.5t17.5 -16.5t15.5 -7.5t11 -1.5h47l-12 -81h-54q-28 0 -52 16.5
t-41 36.5q-26 -29 -59 -45.5t-81 -16.5q-47 0 -78.5 12.5t-50 34t-25 49.5t-2.5 60l5 37q5 36 17 64.5t29.5 51t38.5 41t44 34.5q-16 32 -25.5 74t-3.5 96l2 19q3 28 15.5 53t33 43.5t49 29t64.5 10.5h138l-12 -81h-138zM171 147q-2 -12 0.5 -24.5t11 -23.5t24.5 -18t42 -7
q32 0 54 15t37 37v1l-84 178q-31 -25 -53 -53t-27 -68z" />
    <glyph glyph-name="quotesingle" unicode="'" horiz-adv-x="164" 
d="M215 700l-43 -200h-40l13 200h70z" />
    <glyph glyph-name="parenleft" unicode="(" horiz-adv-x="286" 
d="M142 558q5 38 23 72.5t46.5 60.5t68 41t87.5 15l-12 -83q-33 0 -56 -8.5t-38 -23.5t-23 -34t-11 -40l-72 -511q-3 -21 -0.5 -40t13.5 -34t31.5 -23.5t53.5 -8.5l-11 -83q-48 0 -83 15t-56.5 41t-29.5 60.5t-3 72.5z" />
    <glyph glyph-name="parenright" unicode=")" horiz-adv-x="287" 
d="M240 47q-6 -38 -23.5 -72.5t-46.5 -60.5t-68 -41t-88 -15l12 83q33 0 56 8.5t38 23.5t23.5 34t11.5 40l71 511q3 21 0 40t-14 34t-31.5 23.5t-53.5 8.5l12 83q49 0 84 -15t56.5 -41t29.5 -60.5t2 -72.5z" />
    <glyph glyph-name="asterisk" unicode="*" horiz-adv-x="420" 
d="M386 374q-6 9 -14.5 23l-18 29l-18 29l-13.5 22l-92 -104l-45 41l19 21.5l25 28l25 28l20 22.5l-113 39q5 13 14.5 30.5t15.5 30.5l112 -39l18 125h66l-18 -125l27 8.5l35 11l34.5 10.5t27.5 9q2 -13 6 -30.5t6 -30.5l-125 -39l61 -100z" />
    <glyph glyph-name="plus" unicode="+" horiz-adv-x="592" 
d="M108 391h190v191h85v-191h189v-82h-189v-191h-85v191h-190v82z" />
    <glyph glyph-name="comma" unicode="," horiz-adv-x="231" 
d="M70 0l14 97h99l-11 -78q-7 -46 -30 -76.5t-61 -30.5h-23l8 56h23q14 0 19 6.5t11 25.5h-49z" />
    <glyph glyph-name="hyphen" unicode="-" horiz-adv-x="348" 
d="M113 217v78h212v-78h-212z" />
    <glyph glyph-name="period" unicode="." horiz-adv-x="231" 
d="M70 0l14 97h99l-14 -97h-99z" />
    <glyph glyph-name="slash" unicode="/" horiz-adv-x="554" 
d="M595 747l-452 -889h-90l452 889h90z" />
    <glyph glyph-name="zero" unicode="0" horiz-adv-x="458" 
d="M139 539q4 34 19.5 64t40 52.5t58 36t75.5 13.5t72 -13.5t48 -36t25 -52.5t2 -64l-53 -378q-5 -34 -20.5 -64t-40 -52.5t-58 -36t-75.5 -13.5t-71.5 13.5t-48 36t-25 52.5t-1.5 64zM171 161q-5 -35 13 -59.5t60 -24.5t67 24.5t30 59.5l53 378q5 35 -13 59.5t-60 24.5
t-67 -24.5t-30 -59.5z" />
    <glyph glyph-name="one" unicode="1" horiz-adv-x="353" 
d="M156 0l88 626h-104l10 74h189l-98 -700h-85z" />
    <glyph glyph-name="two" unicode="2" horiz-adv-x="444" 
d="M321 700q66 0 105.5 -31.5t39.5 -112.5q0 -50 -9.5 -87.5t-29 -69t-49 -61t-69.5 -64.5l-57 -52.5t-44 -45.5t-32 -45t-22 -50h256l-11 -81h-345q8 60 24 103.5t40.5 80.5t60 72t82.5 77q34 30 56.5 54t36.5 47.5t20 49t6 58.5q0 45 -19 61t-51 16h-160l11 81h160z" />
    <glyph glyph-name="three" unicode="3" horiz-adv-x="448" 
d="M247 81q39 0 63 23.5t29 56.5l8 61q2 15 -1 30t-13.5 28t-29.5 21t-48 8h-46l-22 82h80q26 0 45 8t32.5 21t20.5 28t9 30l9 61q5 33 -13 56.5t-57 23.5h-160l11 81h160q40 0 69.5 -13t47.5 -34.5t24.5 -51t2.5 -62.5l-9 -61q-5 -37 -30.5 -70.5t-72.5 -55.5
q49 -21 65.5 -55.5t10.5 -74.5l-8 -61q-5 -33 -19.5 -62.5t-38.5 -51t-57 -34.5t-73 -13h-161l11 81h161z" />
    <glyph glyph-name="four" unicode="4" horiz-adv-x="445" 
d="M270 0h85l27 191h75l11 81h-75l34 240l-87 -15zM273 272l24 -81h-255l9 65l208 444h85l-199 -428h128z" />
    <glyph glyph-name="five" unicode="5" horiz-adv-x="439" 
d="M115 354l48 346h313l-11 -81h-228l-37 -265h-85zM211 435h81q44 0 74 -12t47 -32.5t22.5 -48t1.5 -58.5l-17 -123q-5 -32 -20 -61.5t-40 -51.5t-59 -35t-76 -13h-160l11 81h160q42 0 67.5 24t30.5 56l17 123q5 29 -11 49.5t-63 20.5h-42z" />
    <glyph glyph-name="six" unicode="6" horiz-adv-x="443" 
d="M203 435h90q44 0 73.5 -12t46.5 -32.5t22 -48t1 -58.5l-18 -128q-5 -33 -19.5 -62.5t-39 -51t-58 -34.5t-75.5 -13t-72 13t-48.5 34.5t-25.5 51t-2 62.5l54 383q4 33 19.5 62t40 51t58 35t75.5 13h152l-12 -81h-152q-42 0 -66.5 -24t-29.5 -56l-54 -383
q-5 -32 13.5 -55.5t60.5 -23.5t66.5 23.5t29.5 55.5l18 128q5 29 -11 49.5t-63 20.5h-51z" />
    <glyph glyph-name="seven" unicode="7" horiz-adv-x="416" 
d="M145 700h331l-9 -67q-106 -143 -166.5 -299.5t-85.5 -333.5h-85q24 172 80.5 325t151.5 294h-228z" />
    <glyph glyph-name="eight" unicode="8" horiz-adv-x="442" 
d="M81 232q5 34 27 66.5t72 54.5q-38 21 -49.5 51t-6.5 64l12 81q4 30 19 58.5t39 50t57 34.5t74 13t70.5 -13t47.5 -34.5t25 -50t3 -58.5l-12 -81q-5 -35 -25.5 -65.5t-64.5 -50.5q42 -21 56.5 -53.5t9.5 -66.5l-11 -81q-5 -32 -20 -60.5t-40.5 -49.5t-60.5 -33.5
t-78 -12.5t-74 12.5t-50.5 33.5t-27.5 49.5t-3 60.5zM155 151q-2 -14 0.5 -27.5t12 -24t26 -16.5t43.5 -6q53 0 75.5 22.5t26.5 51.5l11 81q2 15 -1 29t-12.5 25t-26 17.5t-41.5 6.5q-27 0 -45.5 -6.5t-30.5 -17.5t-18.5 -25t-8.5 -29zM385 549q4 29 -14 51.5t-58 22.5
t-64 -22.5t-28 -51.5l-12 -81q-4 -30 12 -53t60 -23q45 0 66.5 23t25.5 53z" />
    <glyph glyph-name="nine" unicode="9" horiz-adv-x="443" 
d="M348 265h-90q-44 0 -73.5 12t-46.5 32.5t-22.5 48t-1.5 58.5l18 128q5 33 20 62.5t39.5 51t58 34.5t75.5 13t72 -13t48 -34.5t25 -51t2 -62.5l-53 -383q-5 -33 -20 -62t-39.5 -51t-58 -35t-75.5 -13h-152l11 81h152q42 0 67 24t30 56l53 383q5 32 -13 55.5t-60 23.5
t-67 -23.5t-30 -55.5l-18 -128q-4 -29 12 -49.5t63 -20.5h51z" />
    <glyph glyph-name="colon" unicode=":" horiz-adv-x="231" 
d="M70 0l14 97h99l-14 -97h-99zM112 300l14 97h99l-14 -97h-99z" />
    <glyph glyph-name="semicolon" unicode=";" horiz-adv-x="231" 
d="M70 0l14 97h99l-11 -78q-7 -46 -30 -76.5t-61 -30.5h-23l8 56h23q14 0 19 6.5t11 25.5h-49zM112 300l14 97h99l-14 -97h-99z" />
    <glyph glyph-name="less" unicode="&#x3c;" horiz-adv-x="507" 
d="M120 378l410 183l-13 -90l-112 -49q-38 -17 -78.5 -32l-79.5 -29l-31 -11q16 -8 33 -13q35 -13 69 -27.5t66 -30.5l50.5 -25l48.5 -24l-12 -89l-359 181z" />
    <glyph glyph-name="equal" unicode="=" horiz-adv-x="485" 
d="M142 291h290v-42h-290v42zM142 451h290v-42h-290v42z" />
    <glyph glyph-name="greater" unicode="&#x3e;" horiz-adv-x="509" 
d="M496 322l-409 -181l13 89l54.5 24l57.5 25q37 16 75.5 30.5l76.5 27.5q18 6 36 13l-28 11l-71 29t-69 32l-99 49l13 90l358 -183z" />
    <glyph glyph-name="question" unicode="?" horiz-adv-x="445" 
d="M382 544q0 42 -19 57.5t-51 15.5h-170l12 83h171q68 0 105.5 -31.5t37.5 -110.5q0 -39 -6.5 -66t-18.5 -48t-29.5 -38.5l-39.5 -38.5l-19.5 -18l-18.5 -18q-15 -19 -25 -35t-16.5 -32.5t-10.5 -34.5t-7 -40h-85q4 31 8.5 54t13 43t23 41.5t39.5 51.5l26 25l32.5 31t25 30
t16.5 34.5t6 44.5zM268 128l-18 -128h-85l18 128h85z" />
    <glyph glyph-name="at" unicode="@" horiz-adv-x="781" 
d="M391 -166q-167 0 -241.5 85t-51.5 251l24 171q23 166 116.5 250.5t251.5 84.5t228 -84.5t47 -250.5l-20 -142q-5 -36 -16 -67t-29 -54.5t-44 -36.5t-62 -13q-30 0 -51 11t-34 30q-20 -19 -47.5 -30t-62.5 -11q-36 0 -62 11t-42 30.5t-22 45.5t-2 55l24 171
q4 29 17.5 54.5t35 45t50.5 30.5t65 11q32 0 53 -7.5t36 -24.5l10 23h55l-44 -312q-4 -23 2.5 -38.5t31.5 -15.5q29 0 41 27.5t17 64.5l20 142q18 131 -35 194t-171 63t-188.5 -63t-88.5 -194l-24 -171q-19 -131 38.5 -194t185.5 -63zM517 341q1 4 0.5 10.5t-1.5 12.5l1 -1
q-2 17 -16.5 29t-46.5 12q-40 0 -57.5 -18.5t-21.5 -44.5l-24 -171q-4 -26 8.5 -44.5t52.5 -18.5q41 0 59 18.5t22 44.5z" />
    <glyph glyph-name="A" unicode="A" 
d="M222 257h143l-27 218q-4 29 -1 58t3 58q-7 -29 -12.5 -58t-16.5 -58l-196 -475h-87l290 700h75l94 -700h-87l-23 176h-131z" />
    <glyph glyph-name="B" unicode="B" horiz-adv-x="474" 
d="M171 700h160q44 0 76 -13.5t51.5 -37t27 -54.5t2.5 -65l-8 -52q-6 -39 -32.5 -71.5t-75.5 -53.5q42 -22 64.5 -57t17.5 -74l-7 -52q-5 -35 -21 -65.5t-42.5 -54t-62 -37t-78.5 -13.5h-170zM279 391q51 0 81 25.5t35 61.5l7 52q5 36 -15 62.5t-67 26.5h-75l-76 -538h85
q46 0 74 26.5t33 62.5l7 52q5 36 -18 61.5t-74 25.5h-40l-23 82h66z" />
    <glyph glyph-name="C" unicode="C" horiz-adv-x="424" 
d="M176 188q-15 -107 79 -107h161l-12 -81h-162q-88 0 -126 48.5t-25 139.5l41 295l90 34l-1 -5zM330 619q-91 0 -107 -98h-85q14 86 66 132.5t137 46.5h162l-12 -81h-161z" />
    <glyph glyph-name="D" unicode="D" horiz-adv-x="482" 
d="M73 0l98 700h175q43 0 74.5 -14.5t51 -39t26.5 -57t2 -69.5l-48 -340q-5 -37 -21.5 -69.5t-42.5 -57t-61.5 -39t-78.5 -14.5h-48l-24 81h83q46 0 74.5 29.5t33.5 69.5l48 340q5 40 -14.5 69.5t-65.5 29.5h-90l-87 -619h-85z" />
    <glyph glyph-name="E" unicode="E" horiz-adv-x="443" 
d="M186 188q-13 -107 79 -107h151l-12 -81h-152q-88 0 -126.5 48.5t-25.5 139.5l72 512h331l-12 -81h-246zM213 391h199l-11 -82h-164z" />
    <glyph glyph-name="F" unicode="F" horiz-adv-x="435" 
d="M158 0h-85l98 700h331l-11 -81h-246zM213 391h199l-12 -82h-164z" />
    <glyph glyph-name="G" unicode="G" horiz-adv-x="464" 
d="M392 309h-94l-23 82h213l-55 -391h-85zM243 0q-88 0 -126.5 48.5t-25.5 139.5l45 324q13 91 65.5 139.5t140.5 48.5h162l-12 -81h-161q-95 0 -110 -107l-45 -324q-15 -107 80 -107h69l23 -81h-105z" />
    <glyph glyph-name="H" unicode="H" horiz-adv-x="505" 
d="M158 0h-85l98 700h85zM213 392h199l43 308h85l-98 -700h-85l43 308h-164z" />
    <glyph glyph-name="I" unicode="I" horiz-adv-x="221" 
d="M256 700l-98 -700h-85l98 700h85z" />
    <glyph glyph-name="J" unicode="J" horiz-adv-x="324" 
d="M283 700h85l-72 -512q-12 -91 -64 -139.5t-140 -48.5h-68l11 81h67q94 0 109 107z" />
    <glyph glyph-name="K" unicode="K" horiz-adv-x="480" 
d="M158 0h-85l98 700h85zM205 391h26l226 309h94l-249 -341l161 -359h-95l-139 309z" />
    <glyph glyph-name="L" unicode="L" horiz-adv-x="415" 
d="M256 700l-87 -619h246l-11 -81h-331l98 700h85z" />
    <glyph glyph-name="M" unicode="M" horiz-adv-x="591" 
d="M516 700h109l-98 -700h-85l69 493l-9 -35l-151 -365h-76l-49 365v34q-3 -28 -7 -57l-8 -58l-53 -377h-85l98 700h110l44 -332q4 -32 5 -65t3 -65l22 66t24 64z" />
    <glyph glyph-name="N" unicode="N" horiz-adv-x="515" 
d="M240 456l-12 80q-3 -40 -7.5 -79.5l-9.5 -79.5l-53 -377h-85l98 700h98l113 -456l11 -80l8.5 79t9.5 80l53 377h85l-98 -700h-98z" />
    <glyph glyph-name="O" unicode="O" 
d="M440 521q5 52 -16 77t-65 25h-28q-94 0 -110 -111l-46 -324q-8 -57 13 -84t67 -27h28q94 0 110 111l41 295l90 34l-46 -329q-13 -93 -65.5 -143t-140.5 -50h-30q-88 0 -126.5 50t-25.5 143l46 324q13 93 65.5 143t140.5 50h30q39 0 70.5 -11.5t52.5 -33t29.5 -53.5
t2.5 -73l-2 -13h-85z" />
    <glyph glyph-name="P" unicode="P" horiz-adv-x="449" 
d="M73 0l98 700h161q44 0 75.5 -14.5t51 -39t26.5 -57t2 -69.5l-13 -90q-5 -36 -21.5 -68.5t-42.5 -57t-61.5 -39t-79.5 -14.5h-40l-23 81l-47 -332h-86zM281 332q47 0 74.5 29t33.5 69l13 90q6 40 -14 69.5t-67 29.5h-75l-40 -287h75z" />
    <glyph glyph-name="Q" unicode="Q" 
d="M195 -150l21 146q-74 9 -105.5 58t-19.5 134l45 324q14 93 66 143t140 50h30q88 0 127 -50t25 -143l-45 -324q-12 -85 -57.5 -134t-120.5 -58l-21 -146h-85zM332 623q-46 0 -74.5 -27t-36.5 -84l-45 -324q-13 -92 51 -109l15 104l90 33l-20 -137q69 15 82 109l45 324
q16 111 -79 111h-28z" />
    <glyph glyph-name="R" unicode="R" horiz-adv-x="465" 
d="M155 586l90 33h-85l11 81h160q44 0 75.5 -14.5t51 -39t26.5 -57t2 -69.5l-13 -90q-8 -52 -36 -94t-77 -65l64 -271h-91l-63 251h-42l-23 81l-47 -332h-85zM205 332h75q47 0 74.5 29t33.5 69l13 90q6 40 -14 69.5t-67 29.5h-75z" />
    <glyph glyph-name="S" unicode="S" horiz-adv-x="453" 
d="M442 220q0 -103 -54.5 -161.5t-155.5 -58.5h-173l11 81h173q55 0 84 32t29 94q0 26 -8 43t-21.5 28t-32 18.5t-39.5 14.5q-26 9 -51.5 20.5t-45 30t-30.5 47.5t-8 74l89 34l-1 -5q-6 -33 0 -54t20.5 -34t34.5 -21t42 -15q27 -9 51.5 -21.5t43.5 -31.5t30.5 -47t11.5 -68z
M318 619q-91 0 -109 -98h-85q14 87 66.5 133t137.5 46h162l-11 -81h-161z" />
    <glyph glyph-name="T" unicode="T" horiz-adv-x="417" 
d="M338 619l-87 -619h-85l82 585l90 34h-222l11 81h359l-11 -81h-137z" />
    <glyph glyph-name="U" unicode="U" horiz-adv-x="488" 
d="M456 161q-5 -34 -21 -64t-42.5 -52.5t-63 -36t-81.5 -13.5t-78 13.5t-53 36t-27.5 52.5t-2.5 64l76 539h85l-76 -539q-5 -35 17 -59.5t71 -24.5q48 0 77 24.5t34 59.5l76 539h85z" />
    <glyph glyph-name="V" unicode="V" horiz-adv-x="509" 
d="M500 700h87l-290 -700h-75l-95 700h88l62 -475q3 -24 1.5 -48.5t-2.5 -49.5q8 25 13 49.5t15 48.5z" />
    <glyph glyph-name="W" unicode="W" horiz-adv-x="712" 
d="M258 0h-79l-52 700h86l32 -429q2 -25 0 -50t-2 -50q6 25 11 50t14 50l152 429h79l32 -429q2 -25 -0.5 -50t-2.5 -50l11.5 50t14.5 50l151 429h86l-247 -700h-80l-31 430q-2 23 -1 45l2 45q-7 -23 -11.5 -45t-12.5 -45z" />
    <glyph glyph-name="X" unicode="X" horiz-adv-x="489" 
d="M119 0h-90l225 359l-117 341h90l55 -159q9 -26 15 -53t14 -54l27 54t30 53l100 159h90l-215 -341l126 -359h-90l-55 161q-11 32 -18.5 64.5l-15.5 64.5l-33.5 -64.5t-36.5 -64.5z" />
    <glyph glyph-name="Y" unicode="Y" horiz-adv-x="475" 
d="M463 700h91l-231 -426l-38 -274h-86l38 275l-110 425h92l65 -255q5 -19 6 -38.5t3 -39.5q8 20 15 40t17 39z" />
    <glyph glyph-name="Z" unicode="Z" horiz-adv-x="395" 
d="M141 81h242l-11 -81h-340l8 59l321 560h-242l11 81h340l-8 -59z" />
    <glyph glyph-name="bracketleft" unicode="[" horiz-adv-x="354" 
d="M268 -155l-11 -81h-217l138 983h217l-11 -81h-132l-116 -821h132z" />
    <glyph glyph-name="backslash" unicode="\" horiz-adv-x="557" 
d="M270 747l202 -889h-90l-202 889h90z" />
    <glyph glyph-name="bracketright" unicode="]" horiz-adv-x="354" 
d="M183 -155l116 821h-132l11 81h217l-138 -983h-217l11 81h132z" />
    <glyph glyph-name="asciicircum" unicode="^" horiz-adv-x="457" 
d="M357 750l121 -366h-50l-34 100q-6 18 -14.5 48.5l-17 63.5l-16 63.5t-11.5 48.5h-2l-26 -48.5l-34 -63.5l-35 -63.5t-29 -48.5l-62 -100h-50l225 366h35z" />
    <glyph glyph-name="underscore" unicode="_" horiz-adv-x="509" 
d="M44 -165v40h510v-40h-510z" />
    <glyph glyph-name="grave" unicode="`" horiz-adv-x="266" 
d="M141 700h110l61 -135h-60z" />
    <glyph glyph-name="a" unicode="a" horiz-adv-x="424" 
d="M316 37q-22 -20 -50.5 -31t-63.5 -11q-44 0 -71.5 10.5t-42.5 29.5t-19 45.5t1 58.5l30 213q4 30 18 57t37 47.5t53.5 32t67.5 11.5h15q37 0 64 -11.5t43.5 -32t23 -47.5t2.5 -57l-50 -352h-53zM149 138q-2 -14 -1 -25.5t8 -20t21.5 -13.5t39.5 -5q45 0 71.5 29.5
t32.5 72.5l25 176q4 29 -13 50t-53 21h-15q-36 0 -59 -21t-27 -50z" />
    <glyph glyph-name="b" unicode="b" horiz-adv-x="454" 
d="M308 500q41 0 70 -13.5t46.5 -36t23.5 -53t1 -64.5l-24 -166q-5 -34 -19 -64.5t-38 -53t-56.5 -36t-73.5 -13.5h-169l105 750h79l-94 -673h90q43 0 67.5 26.5t29.5 63.5l24 166q5 37 -12.5 63.5t-60.5 26.5h-54l-25 77h90z" />
    <glyph glyph-name="c" unicode="c" horiz-adv-x="363" 
d="M190 355q-2 -3 -2 -6t-1 -6l-26 -186q-5 -33 13.5 -56.5t60.5 -23.5h119l-11 -77h-119q-41 0 -69.5 12.5t-46.5 34t-24.5 50t-1.5 60.5l23 163zM110 356q6 30 21 56t38.5 45.5t54.5 31t70 11.5h119l-11 -77h-119q-38 0 -61.5 -19t-31.5 -48h-80z" />
    <glyph glyph-name="d" unicode="d" horiz-adv-x="453" 
d="M375 423h-91q-42 0 -67.5 -26.5t-30.5 -63.5l-23 -166q-5 -37 12.5 -63.5t59.5 -26.5h91l95 673h79l-106 -750h-170q-41 0 -69.5 13.5t-46 36t-23.5 53t-1 64.5l23 166q5 34 19.5 64.5t38.5 53t56.5 36t73.5 13.5h55z" />
    <glyph glyph-name="e" unicode="e" horiz-adv-x="432" 
d="M178 277h81q43 0 66.5 20.5t28.5 50.5l3 22q3 24 -15 41t-58 17q-43 0 -66.5 -20t-28.5 -47l-29 -213q-5 -30 13.5 -50.5t61.5 -20.5h146l-11 -77h-146q-41 0 -70 11.5t-46.5 31.5t-24.5 47t-2 58l29 213q4 30 18.5 56t38 45.5t55.5 31t73 11.5q39 0 67.5 -10.5t46 -29
t24.5 -43t3 -52.5l-3 -22q-4 -31 -18 -58t-37.5 -47t-56 -31.5t-73.5 -11.5h-45z" />
    <glyph glyph-name="f" unicode="f" horiz-adv-x="325" 
d="M104 -250h-79l115 818q5 35 19.5 65.5t38.5 53t56 35.5t73 13h81l-10 -75h-81q-25 0 -42 -8t-28.5 -20.5t-18 -29t-9.5 -34.5zM366 495l-11 -74h-120l-26 74h157z" />
    <glyph glyph-name="g" unicode="g" horiz-adv-x="454" 
d="M375 423h-91q-42 0 -67.5 -26.5t-30.5 -63.5l-23 -166q-5 -37 12.5 -63.5t59.5 -26.5h91l59 423h80l-85 -602q-5 -31 -19 -58t-37.5 -47t-56 -31.5t-72.5 -11.5h-147l11 76h147q42 0 66 21t29 51l14 102h-91q-41 0 -69.5 13.5t-46 36t-23.5 53t-1 64.5l23 166
q5 34 19.5 64.5t38.5 53t56 36t73 13.5h55z" />
    <glyph glyph-name="h" unicode="h" horiz-adv-x="455" 
d="M147 0h-78l103 731h78zM242 423l-25 77h94q36 0 63 -11t44 -30t23.5 -44.5t2.5 -53.5l-51 -361h-79l51 361q4 25 -11.5 43.5t-61.5 18.5h-50z" />
    <glyph glyph-name="i" unicode="i" horiz-adv-x="206" 
d="M139 500h78l-70 -500h-78zM165 680h78l-15 -102h-78z" />
    <glyph glyph-name="j" unicode="j" horiz-adv-x="197" 
d="M29 -250l105 750h79l-100 -715zM160 680h79l-15 -102h-79z" />
    <glyph glyph-name="k" unicode="k" horiz-adv-x="429" 
d="M267 256l32 -62l34 -67l33.5 -66.5l31.5 -60.5h-92l-112 219h-16l-31 -219h-78l102 723l81 27l-64 -455h19l85 103l85 102h91z" />
    <glyph glyph-name="l" unicode="l" horiz-adv-x="206" 
d="M252 750l-105 -750h-78l104 737z" />
    <glyph glyph-name="m" unicode="m" horiz-adv-x="649" 
d="M429 423l-59 -423h-79l55 388zM206 423l-59 -423h-78l55 388zM139 500h371q36 0 62.5 -12t43 -32t23 -47t2.5 -57l-49 -352h-79l49 352q4 29 -10.5 50t-59.5 21h-364z" />
    <glyph glyph-name="n" unicode="n" horiz-adv-x="450" 
d="M139 500h172q36 0 63 -11t44 -30t23.5 -44.5t2.5 -53.5l-51 -361h-79l51 361q4 25 -11.5 43.5t-61.5 18.5h-164zM206 423l-59 -423h-78l55 388z" />
    <glyph glyph-name="o" unicode="o" horiz-adv-x="445" 
d="M237 72q43 0 68.5 21.5t29.5 50.5l25 176l84 35l-30 -211q-4 -30 -19 -57.5t-39 -47.5t-57 -32t-73 -12q-41 0 -70 12t-47.5 32t-25.5 47.5t-3 57.5l30 212q4 30 19 57.5t39 47.5t56.5 32t73.5 12q40 0 70 -12t48 -32t25 -47.5t3 -57.5h-79q5 29 -14.5 50.5t-63.5 21.5
t-68.5 -21.5t-29.5 -50.5l-30 -212q-4 -29 15 -50.5t63 -21.5z" />
    <glyph glyph-name="p" unicode="p" horiz-adv-x="453" 
d="M159 77h90q43 0 66.5 21t28.5 50l29 204q4 29 -14 50t-61 21h-90l-95 -673h-79l105 750h169q41 0 70 -11.5t47 -32t24.5 -47.5t2.5 -57l-29 -204q-4 -30 -18 -57t-37.5 -47.5t-56 -32t-73.5 -11.5h-54z" />
    <glyph glyph-name="q" unicode="q" horiz-adv-x="454" 
d="M464 500l-106 -750h-79l36 250h-91q-41 0 -70 11.5t-47 32t-24.5 47.5t-2.5 57l29 204q4 30 18.5 57t38 47.5t55.5 32t73 11.5h55l25 -77h-91q-42 0 -66 -21t-29 -50l-29 -204q-4 -29 14.5 -50t60.5 -21h91l60 423h79z" />
    <glyph glyph-name="r" unicode="r" horiz-adv-x="280" 
d="M117 343q4 32 18.5 60.5t38.5 50t56 34t73 12.5h42l-11 -77h-42q-42 0 -66.5 -23.5t-29.5 -56.5l-48 -343h-79z" />
    <glyph glyph-name="s" unicode="s" horiz-adv-x="405" 
d="M97 357l1 7q8 60 55 98t123 38h136l-11 -77h-136q-38 0 -61.5 -16t-26.5 -41l-1 -9h-79zM176 355q0 -15 6.5 -25.5t17.5 -17t25 -11.5t28 -9q34 -11 60 -21t43.5 -24t26.5 -33.5t9 -48.5q0 -79 -49.5 -122t-132.5 -43h-163l11 77h162q42 0 66.5 18.5t24.5 51.5
q0 30 -23 44t-65 25l-39 11t-39.5 17.5t-32 30t-16.5 47.5z" />
    <glyph glyph-name="t" unicode="t" horiz-adv-x="325" 
d="M208 495h157l-10 -74h-120l-27 74l-43 -310q-3 -21 -2 -40.5t8.5 -34.5t22.5 -24t40 -9h81l-10 -77h-81q-41 0 -69.5 14.5t-45.5 39t-23 58.5t0 73l60 425h78z" />
    <glyph glyph-name="u" unicode="u" horiz-adv-x="449" 
d="M458 500l-50 -356q-4 -30 -18.5 -57.5t-37.5 -47.5t-55 -32t-71 -12q-40 0 -68.5 12t-45.5 32t-23.5 47.5t-2.5 57.5l50 356h78l-50 -356q-4 -29 13.5 -50.5t59.5 -21.5q41 0 64.5 21.5t27.5 50.5l50 356h79z" />
    <glyph glyph-name="v" unicode="v" horiz-adv-x="420" 
d="M394 500h80l-225 -500h-69l-85 500h80l47 -281q5 -27 4.5 -60.5t0.5 -63.5q10 31 18.5 63.5t21.5 60.5z" />
    <glyph glyph-name="w" unicode="w" horiz-adv-x="651" 
d="M665 500l-50 -356q-4 -30 -18 -57.5t-36 -47.5t-52 -32t-67 -12q-38 0 -64.5 14.5t-40.5 37.5q-22 -23 -52 -37.5t-68 -14.5q-37 0 -63.5 12t-43 32t-22.5 47.5t-2 57.5l50 356h79l-50 -356q-4 -29 11.5 -50.5t51.5 -21.5t57.5 21.5t25.5 50.5l50 356h79l-50 -356
q-4 -29 11.5 -50.5t51.5 -21.5t57.5 21.5t25.5 50.5l50 356h79z" />
    <glyph glyph-name="x" unicode="x" horiz-adv-x="424" 
d="M107 0h-91l191 262l-105 238h89l63 -137l9 -26q3 6 8 12.5l10 13.5l100 137h89l-172 -237l119 -263h-92l-62 140q-6 12 -11 24t-9 25l-17.5 -25l-16.5 -24z" />
    <glyph glyph-name="y" unicode="y" horiz-adv-x="426" 
d="M218 189q5 -31 4 -63t1 -64q11 32 20 63.5t22 62.5l130 312h77l-310 -750h-78l85 208l-39 271.5l-39 270.5h81z" />
    <glyph glyph-name="z" unicode="z" horiz-adv-x="371" 
d="M147 77h207l-11 -77h-306l8 56l259 367h-208l11 77h306l-8 -56z" />
    <glyph glyph-name="braceleft" unicode="{" horiz-adv-x="367" 
d="M129 395q37 0 54.5 23t22.5 53l15 109q5 36 18 67t35.5 54t55.5 36t78 13h26l-12 -85h-26q-42 0 -63.5 -24.5t-26.5 -60.5l-15 -109q-5 -35 -28 -67t-66 -51q39 -20 52 -51t8 -67l-15 -108q-5 -37 9.5 -61t56.5 -24h26l-12 -86h-26q-45 0 -74 13t-45 36.5t-20.5 54.5
t0.5 67l15 108q5 29 -6.5 52t-48.5 23h-24l12 85h24z" />
    <glyph glyph-name="bar" unicode="|" horiz-adv-x="213" 
d="M42 -236l138 983h73l-138 -983h-73z" />
    <glyph glyph-name="braceright" unicode="}" horiz-adv-x="367" 
d="M384 395l-12 -85h-23q-38 0 -55.5 -23t-22.5 -52l-15 -108q-5 -36 -18 -67t-35.5 -54.5t-55 -36.5t-77.5 -13h-27l12 86h27q42 0 63 24t26 61l15 108q5 34 30 66t64 52q-38 20 -52 51.5t-9 66.5l16 109q4 36 -10 60.5t-55 24.5h-27l12 85h27q45 0 74 -13t44.5 -36t20 -54
t-0.5 -67l-16 -109q-2 -15 -0.5 -29t8 -24.5t18.5 -16.5t31 -6h23z" />
    <glyph glyph-name="exclamdown" unicode="&#xa1;" horiz-adv-x="223" 
d="M40 -200l88 511h65l-56 -511h-97zM126 372l18 128h85l-18 -128h-85z" />
    <glyph glyph-name="dieresis" unicode="&#xa8;" horiz-adv-x="255" 
d="M127 655h75l-13 -90h-75zM247 655h75l-13 -90h-75z" />
    <glyph glyph-name="copyright" unicode="&#xa9;" horiz-adv-x="568" 
d="M218 410q4 31 16.5 59t32 49t45.5 33t58 12q30 0 52 -12.5t35 -34t17 -50t0 -60.5h-73q5 37 -3.5 61.5t-37.5 24.5q-32 0 -48.5 -25t-20.5 -57l-17 -125q-5 -33 4 -58t41 -25q29 0 44.5 24.5t20.5 62.5h73q-5 -33 -17 -61.5t-31 -50t-44.5 -34t-55.5 -12.5
q-32 0 -54.5 12t-36 33t-18 49t0.5 60zM131 480q7 46 27.5 88t53 73.5t77 50t99.5 18.5t94.5 -18.5t63.5 -50t33 -73.5t2 -88l-37 -260q-6 -47 -26.5 -88.5t-53.5 -73t-77.5 -50t-99.5 -18.5t-94.5 18.5t-63.5 50t-32.5 73t-2.5 88.5zM134 220q-5 -39 2 -73.5t26.5 -61
t52 -42t77.5 -15.5t82 15.5t64 42t44 61t22 73.5l37 260q5 39 -2 73.5t-26.5 61t-52 42t-77.5 15.5t-82 -15.5t-64 -42t-44 -61t-22 -73.5z" />
    <glyph glyph-name="guillemotleft" unicode="&#xab;" horiz-adv-x="470" 
d="M68 272l190 228h92l-202 -244l132 -256h-92l-124 243zM228 272l190 228h92l-202 -244l132 -256h-92l-124 243z" />
    <glyph glyph-name="registered" unicode="&#xae;" horiz-adv-x="568" 
d="M390 142l-61 136h-48l-20 -136h-73l59 416h129q53 0 82.5 -31.5t29.5 -84.5q0 -57 -23 -94t-61 -56l64 -150h-78zM291 354h56q30 0 49 21.5t19 56.5q0 25 -13 39.5t-36 14.5h-56zM131 480q7 46 27.5 88t53 73.5t77 50t99.5 18.5t94.5 -18.5t63.5 -50t33 -73.5t2 -88
l-37 -260q-6 -47 -26.5 -88.5t-53.5 -73t-77.5 -50t-99.5 -18.5t-94.5 18.5t-63.5 50t-32.5 73t-2.5 88.5zM134 220q-5 -39 2 -73.5t26.5 -61t52 -42t77.5 -15.5t82 15.5t64 42t44 61t22 73.5l37 260q5 39 -2 73.5t-26.5 61t-52 42t-77.5 15.5t-82 -15.5t-64 -42t-44 -61
t-22 -73.5z" />
    <glyph glyph-name="macron" unicode="&#xaf;" horiz-adv-x="405" 
d="M144 631h305l-6 -42h-305z" />
    <glyph glyph-name="degree" unicode="&#xb0;" horiz-adv-x="346" 
d="M243 464q-28 0 -47.5 9.5t-31.5 25.5t-16.5 37.5t-1.5 45.5l1 10q3 24 13 45.5t27 37.5t40 25.5t51 9.5t47.5 -9.5t31.5 -25.5t16.5 -37.5t1.5 -45.5l-1 -10q-3 -24 -13 -45.5t-27 -37.5t-40 -25.5t-51 -9.5zM250 509q35 0 54.5 22t22.5 51l1 10q3 29 -9 51t-47 22
t-55 -21t-23 -52l-1 -10q-3 -31 9.5 -52t47.5 -21z" />
    <glyph glyph-name="plusminus" unicode="&#xb1;" horiz-adv-x="592" 
d="M108 434h190v191h85v-191h189v-81h-189v-191h-85v191h-190v81zM108 81h464v-81h-464v81z" />
    <glyph glyph-name="acute" unicode="&#xb4;" horiz-adv-x="266" 
d="M182 565h-60l99 135h110z" />
    <glyph glyph-name="periodcentered" unicode="&#xb7;" horiz-adv-x="181" 
d="M82 209l12 83h85l-12 -83h-85z" />
    <glyph glyph-name="cedilla" unicode="&#xb8;" horiz-adv-x="271" 
d="M128 16q8 -1 15.5 -1.5t15.5 -0.5l-28 -61q21 -1 34.5 -7.5t21.5 -15.5t11 -19.5t3 -19.5q0 -12 -5 -25t-16 -24t-28 -18t-40 -7q-10 0 -31 1.5t-41 12.5l14 27q16 -7 31 -9t26 -2q17 0 33 10t16 31q0 17 -13 26t-35 9h-6l-14 13z" />
    <glyph glyph-name="guillemotright" unicode="&#xbb;" horiz-adv-x="470" 
d="M474 243l-192 -243h-92l204 256l-134 244h92l126 -228zM314 243l-192 -243h-92l204 256l-134 244h92l126 -228z" />
    <glyph glyph-name="questiondown" unicode="&#xbf;" horiz-adv-x="445" 
d="M140 -44q0 -41 18.5 -56.5t50.5 -15.5h171l-12 -83h-172q-68 0 -105 31.5t-37 110.5q0 39 6 65.5t18 47t29.5 38.5l40.5 40l37 36q15 19 25 35t17 32.5t11 34t7 40.5h85q-5 -32 -9.5 -54.5t-13 -43t-23 -42t-39.5 -51.5l-26 -25l-33 -31.5t-25 -30t-15.5 -34t-5.5 -44.5z
M253 373l18 128h85l-18 -128h-85z" />
    <glyph glyph-name="Agrave" unicode="&#xc0;" 
d="M222 257h143l-27 218q-4 29 -1 58t3 58q-7 -29 -12.5 -58t-16.5 -58l-196 -475h-87l290 700h75l94 -700h-87l-23 176h-131zM251 900h110l61 -135h-60z" />
    <glyph glyph-name="Aacute" unicode="&#xc1;" 
d="M222 257h143l-27 218q-4 29 -1 58t3 58q-7 -29 -12.5 -58t-16.5 -58l-196 -475h-87l290 700h75l94 -700h-87l-23 176h-131zM373 765h-60l99 135h110z" />
    <glyph glyph-name="Acircumflex" unicode="&#xc2;" 
d="M222 257h143l-27 218q-4 29 -1 58t3 58q-7 -29 -12.5 -58t-16.5 -58l-196 -475h-87l290 700h75l94 -700h-87l-23 176h-131zM502 765h-70l-58 69l-79 -69h-70l128 135h60z" />
    <glyph glyph-name="Atilde" unicode="&#xc3;" 
d="M222 257h143l-27 218q-4 29 -1 58t3 58q-7 -29 -12.5 -58t-16.5 -58l-196 -475h-87l290 700h75l94 -700h-87l-23 176h-131zM426 809q23 0 64 33l18 -42q-27 -21 -49 -32.5t-39 -11.5q-25 0 -69 25t-58 25q-27 0 -67 -31l-16 42q50 43 90 43q25 0 66 -26q21 -14 36 -19.5
t24 -5.5z" />
    <glyph glyph-name="Adieresis" unicode="&#xc4;" 
d="M222 257h143l-27 218q-4 29 -1 58t3 58q-7 -29 -12.5 -58t-16.5 -58l-196 -475h-87l290 700h75l94 -700h-87l-23 176h-131zM269 855h75l-13 -90h-75zM389 855h75l-13 -90h-75z" />
    <glyph glyph-name="Aring" unicode="&#xc5;" 
d="M222 257h143l-27 218q-4 29 -1 58t3 58q-7 -29 -12.5 -58t-16.5 -58l-196 -475h-87l290 700h75l94 -700h-87l-23 176h-131zM268 799q0 21 8.5 39t22.5 32t33 22t39 8q35 0 57 -23t22 -56q0 -21 -8.5 -39t-23 -32t-33.5 -22t-39 -8q-35 0 -56.5 23t-21.5 56zM308 804
q0 -19 12 -31.5t32 -12.5q23 0 40 16.5t17 39.5q0 19 -11.5 31.5t-31.5 12.5q-23 0 -40.5 -16.5t-17.5 -39.5z" />
    <glyph glyph-name="AE" unicode="&#xc6;" horiz-adv-x="618" 
d="M589 81l-11 -81h-283l25 176h-133l-36 -88.5l-36 -87.5h-87l290 700h358l-11 -81h-198l-32 -228h151l-12 -82h-151l-32 -228h198zM221 257h110l51 363h-22q-4 -11 -7 -20.5t-6 -20.5l-16.5 -52.5t-19.5 -51.5z" />
    <glyph glyph-name="Ccedilla" unicode="&#xc7;" horiz-adv-x="424" 
d="M176 188q-15 -107 79 -107h161l-12 -81h-111l-20 -47q21 -1 34.5 -7.5t21.5 -15.5t11 -19.5t3 -19.5q0 -12 -5 -25t-16 -24t-28 -18t-40 -7q-10 0 -31 1.5t-41 12.5l13 27q16 -7 31.5 -9t26.5 -2q17 0 33 10t16 31q0 17 -13.5 26t-34.5 9h-6l-15 13l29 64h-20
q-88 0 -126 48.5t-25 139.5l41 295l90 34zM330 619q-91 0 -107 -98h-85q14 86 66 132.5t137 46.5h162l-12 -81h-161z" />
    <glyph glyph-name="Egrave" unicode="&#xc8;" horiz-adv-x="443" 
d="M186 188q-13 -107 79 -107h151l-12 -81h-152q-88 0 -126.5 48.5t-25.5 139.5l72 512h331l-12 -81h-246zM213 391h199l-11 -82h-164zM222 900h110l61 -135h-60z" />
    <glyph glyph-name="Eacute" unicode="&#xc9;" horiz-adv-x="443" 
d="M186 188q-13 -107 79 -107h151l-12 -81h-152q-88 0 -126.5 48.5t-25.5 139.5l72 512h331l-12 -81h-246zM213 391h199l-11 -82h-164zM344 765h-60l99 135h110z" />
    <glyph glyph-name="Ecircumflex" unicode="&#xca;" horiz-adv-x="443" 
d="M186 188q-13 -107 79 -107h151l-12 -81h-152q-88 0 -126.5 48.5t-25.5 139.5l72 512h331l-12 -81h-246zM213 391h199l-11 -82h-164zM472 765h-70l-58 69l-79 -69h-70l128 135h60z" />
    <glyph glyph-name="Edieresis" unicode="&#xcb;" horiz-adv-x="443" 
d="M186 188q-13 -107 79 -107h151l-12 -81h-152q-88 0 -126.5 48.5t-25.5 139.5l72 512h331l-12 -81h-246zM213 391h199l-11 -82h-164zM250 855h75l-13 -90h-75zM370 855h75l-13 -90h-75z" />
    <glyph glyph-name="Igrave" unicode="&#xcc;" horiz-adv-x="216" 
d="M256 700l-98 -700h-85l98 700h85zM105 900h110l61 -135h-60z" />
    <glyph glyph-name="Iacute" unicode="&#xcd;" horiz-adv-x="216" 
d="M256 700l-98 -700h-85l98 700h85zM236 765h-60l99 135h110z" />
    <glyph glyph-name="Icircumflex" unicode="&#xce;" horiz-adv-x="221" 
d="M256 700l-98 -700h-85l98 700h85zM358 765h-70l-58 69l-79 -69h-70l128 135h60z" />
    <glyph glyph-name="Idieresis" unicode="&#xcf;" horiz-adv-x="221" 
d="M256 700l-98 -700h-85l98 700h85zM134 855h75l-13 -90h-75zM254 855h75l-13 -90h-75z" />
    <glyph glyph-name="Eth" unicode="&#xd0;" horiz-adv-x="476" 
d="M67 0l43 309h-59l12 83h59l43 308h175q43 0 74.5 -14.5t51 -39t26.5 -57t2 -69.5l-48 -340q-5 -37 -21.5 -69.5t-42.5 -57t-61.5 -39t-78.5 -14.5h-48l-24 81h83q46 0 74 29.5t34 69.5l48 340q5 40 -14.5 69.5t-65.5 29.5h-90l-32 -227h101l-12 -83h-101l-43 -309h-85z
" />
    <glyph glyph-name="Ntilde" unicode="&#xd1;" horiz-adv-x="515" 
d="M240 456l-12 80q-3 -40 -7.5 -79.5l-9.5 -79.5l-53 -377h-85l98 700h98l113 -456l11 -80l8.5 79t9.5 80l53 377h85l-98 -700h-98zM434 809q23 0 64 33l18 -42q-27 -21 -49 -32.5t-39 -11.5q-25 0 -69 25t-58 25q-27 0 -67 -31l-16 42q50 43 90 43q25 0 66 -26
q21 -14 36 -19.5t24 -5.5z" />
    <glyph glyph-name="Ograve" unicode="&#xd2;" 
d="M440 521q5 52 -16 77t-65 25h-28q-94 0 -110 -111l-46 -324q-8 -57 13 -84t67 -27h28q94 0 110 111l41 295l90 34l-46 -329q-13 -93 -65.5 -143t-140.5 -50h-30q-88 0 -126.5 50t-25.5 143l46 324q13 93 65.5 143t140.5 50h30q39 0 70.5 -11.5t52.5 -33t29.5 -53.5
t2.5 -73l-2 -13h-85zM245 900h110l61 -135h-60z" />
    <glyph glyph-name="Oacute" unicode="&#xd3;" 
d="M440 521q5 52 -16 77t-65 25h-28q-94 0 -110 -111l-46 -324q-8 -57 13 -84t67 -27h28q94 0 110 111l41 295l90 34l-46 -329q-13 -93 -65.5 -143t-140.5 -50h-30q-88 0 -126.5 50t-25.5 143l46 324q13 93 65.5 143t140.5 50h30q39 0 70.5 -11.5t52.5 -33t29.5 -53.5
t2.5 -73l-2 -13h-85zM367 765h-60l99 135h110z" />
    <glyph glyph-name="Ocircumflex" unicode="&#xd4;" 
d="M440 521q5 52 -16 77t-65 25h-28q-94 0 -110 -111l-46 -324q-8 -57 13 -84t67 -27h28q94 0 110 111l41 295l90 34l-46 -329q-13 -93 -65.5 -143t-140.5 -50h-30q-88 0 -126.5 50t-25.5 143l46 324q13 93 65.5 143t140.5 50h30q39 0 70.5 -11.5t52.5 -33t29.5 -53.5
t2.5 -73l-2 -13h-85zM496 765h-70l-58 69l-79 -69h-70l128 135h60z" />
    <glyph glyph-name="Otilde" unicode="&#xd5;" 
d="M440 521q5 52 -16 77t-65 25h-28q-94 0 -110 -111l-46 -324q-8 -57 13 -84t67 -27h28q94 0 110 111l41 295l90 34l-46 -329q-13 -93 -65.5 -143t-140.5 -50h-30q-88 0 -126.5 50t-25.5 143l46 324q13 93 65.5 143t140.5 50h30q39 0 70.5 -11.5t52.5 -33t29.5 -53.5
t2.5 -73l-2 -13h-85zM420 809q23 0 64 33l18 -42q-27 -21 -49 -32.5t-39 -11.5q-25 0 -69 25t-58 25q-27 0 -67 -31l-16 42q50 43 90 43q25 0 66 -26q21 -14 36 -19.5t24 -5.5z" />
    <glyph glyph-name="Odieresis" unicode="&#xd6;" 
d="M440 521q5 52 -16 77t-65 25h-28q-94 0 -110 -111l-46 -324q-8 -57 13 -84t67 -27h28q94 0 110 111l41 295l90 34l-46 -329q-13 -93 -65.5 -143t-140.5 -50h-30q-88 0 -126.5 50t-25.5 143l46 324q13 93 65.5 143t140.5 50h30q39 0 70.5 -11.5t52.5 -33t29.5 -53.5
t2.5 -73l-2 -13h-85zM263 855h75l-13 -90h-75zM383 855h75l-13 -90h-75z" />
    <glyph glyph-name="multiply" unicode="&#xd7;" horiz-adv-x="578" 
d="M158 207l141 141l-143 143l36 36l143 -143l141 141l32 -32l-141 -141l143 -143l-36 -36l-143 143l-141 -141z" />
    <glyph glyph-name="Oslash" unicode="&#xd8;" horiz-adv-x="488" 
d="M274 77q46 0 74.5 27t36.5 84l40 282l89 34l-44 -316q-13 -93 -65.5 -143t-140.5 -50h-30q-72 0 -111 33l-45 -76l-32 16l54 89q-30 48 -18 131l45 324q13 93 66 143t141 50h30q67 0 109 -34l47 77l31 -16l-53 -87q30 -44 21 -111l-3 -22h-86q2 6 2 12.5v11.5l-258 -424
q19 -35 72 -35h28zM167 188q-1 -7 -1.5 -13t-1.5 -12l258 425q-20 35 -71 35h-28q-46 0 -74.5 -27t-36.5 -84z" />
    <glyph glyph-name="Ugrave" unicode="&#xd9;" horiz-adv-x="488" 
d="M456 161q-5 -34 -21 -64t-42.5 -52.5t-63 -36t-81.5 -13.5t-78 13.5t-53 36t-27.5 52.5t-2.5 64l76 539h85l-76 -539q-5 -35 17 -59.5t71 -24.5q48 0 77 24.5t34 59.5l76 539h85zM245 900h110l61 -135h-60z" />
    <glyph glyph-name="Uacute" unicode="&#xda;" horiz-adv-x="488" 
d="M456 161q-5 -34 -21 -64t-42.5 -52.5t-63 -36t-81.5 -13.5t-78 13.5t-53 36t-27.5 52.5t-2.5 64l76 539h85l-76 -539q-5 -35 17 -59.5t71 -24.5q48 0 77 24.5t34 59.5l76 539h85zM367 765h-60l99 135h110z" />
    <glyph glyph-name="Ucircumflex" unicode="&#xdb;" horiz-adv-x="488" 
d="M456 161q-5 -34 -21 -64t-42.5 -52.5t-63 -36t-81.5 -13.5t-78 13.5t-53 36t-27.5 52.5t-2.5 64l76 539h85l-76 -539q-5 -35 17 -59.5t71 -24.5q48 0 77 24.5t34 59.5l76 539h85zM496 765h-70l-58 69l-79 -69h-70l128 135h60z" />
    <glyph glyph-name="Udieresis" unicode="&#xdc;" horiz-adv-x="488" 
d="M456 161q-5 -34 -21 -64t-42.5 -52.5t-63 -36t-81.5 -13.5t-78 13.5t-53 36t-27.5 52.5t-2.5 64l76 539h85l-76 -539q-5 -35 17 -59.5t71 -24.5q48 0 77 24.5t34 59.5l76 539h85zM263 855h75l-13 -90h-75zM383 855h75l-13 -90h-75z" />
    <glyph glyph-name="Yacute" unicode="&#xdd;" horiz-adv-x="475" 
d="M463 700h91l-231 -426l-38 -274h-86l38 275l-110 425h92l65 -255q5 -19 6 -38.5t3 -39.5q8 20 15 40t17 39zM352 765h-60l99 135h110z" />
    <glyph glyph-name="Thorn" unicode="&#xde;" horiz-adv-x="449" 
d="M187 202h75q47 0 75.5 29.5t33.5 69.5l14 99q6 40 -14 69.5t-67 29.5h-75l-70 -499h-86l98 700h86l-16 -120h75q44 0 75.5 -14.5t50.5 -39t26 -57t2 -69.5l-14 -99q-5 -37 -21 -69.5t-42.5 -57t-62 -39t-79.5 -14.5h-40z" />
    <glyph glyph-name="germandbls" unicode="&#xdf;" horiz-adv-x="450" 
d="M252 80q38 0 61.5 22.5t28.5 54.5l12 88q2 14 -1 29.5t-13 28t-28.5 20.5t-46.5 8h-7l-22 79h40q25 0 43.5 8t31.5 20.5t20 27.5t9 29l7 51q4 26 -13.5 45t-55.5 19q-42 0 -65.5 -19t-27.5 -45l-77 -546h-83l59 423h-48l11 77h48l7 46q4 30 18.5 56t38.5 45.5t56.5 31
t73.5 11.5q39 0 68 -11.5t46.5 -31t24.5 -45.5t3 -56l-7 -51q-5 -35 -31 -68t-71 -55q48 -20 64.5 -54t10.5 -73l-12 -88q-5 -32 -19.5 -60.5t-38 -50t-55.5 -34t-71 -12.5h-56l11 80h56z" />
    <glyph glyph-name="agrave" unicode="&#xe0;" horiz-adv-x="429" 
d="M316 37q-22 -20 -50.5 -31t-63.5 -11q-44 0 -71.5 10.5t-42.5 29.5t-19 45.5t1 58.5l30 213q4 30 18 57t37 47.5t53.5 32t67.5 11.5h15q37 0 64 -11.5t43.5 -32t23 -47.5t2.5 -57l-50 -352h-53zM149 138q-2 -14 -1 -25.5t8 -20t21.5 -13.5t39.5 -5q45 0 71.5 29.5
t32.5 72.5l25 176q4 29 -13 50t-53 21h-15q-36 0 -59 -21t-27 -50zM190 700h110l61 -135h-60z" />
    <glyph glyph-name="aacute" unicode="&#xe1;" horiz-adv-x="429" 
d="M316 37q-22 -20 -50.5 -31t-63.5 -11q-44 0 -71.5 10.5t-42.5 29.5t-19 45.5t1 58.5l30 213q4 30 18 57t37 47.5t53.5 32t67.5 11.5h15q37 0 64 -11.5t43.5 -32t23 -47.5t2.5 -57l-50 -352h-53zM149 138q-2 -14 -1 -25.5t8 -20t21.5 -13.5t39.5 -5q45 0 71.5 29.5
t32.5 72.5l25 176q4 29 -13 50t-53 21h-15q-36 0 -59 -21t-27 -50zM311 565h-60l99 135h110z" />
    <glyph glyph-name="acircumflex" unicode="&#xe2;" horiz-adv-x="429" 
d="M316 37q-22 -20 -50.5 -31t-63.5 -11q-44 0 -71.5 10.5t-42.5 29.5t-19 45.5t1 58.5l30 213q4 30 18 57t37 47.5t53.5 32t67.5 11.5h15q37 0 64 -11.5t43.5 -32t23 -47.5t2.5 -57l-50 -352h-53zM149 138q-2 -14 -1 -25.5t8 -20t21.5 -13.5t39.5 -5q45 0 71.5 29.5
t32.5 72.5l25 176q4 29 -13 50t-53 21h-15q-36 0 -59 -21t-27 -50zM440 565h-70l-58 69l-79 -69h-70l128 135h60z" />
    <glyph glyph-name="atilde" unicode="&#xe3;" horiz-adv-x="426" 
d="M316 37q-22 -20 -50.5 -31t-63.5 -11q-44 0 -71.5 10.5t-42.5 29.5t-19 45.5t1 58.5l30 213q4 30 18 57t37 47.5t53.5 32t67.5 11.5h15q37 0 64 -11.5t43.5 -32t23 -47.5t2.5 -57l-50 -352h-53zM149 138q-2 -14 -1 -25.5t8 -20t21.5 -13.5t39.5 -5q45 0 71.5 29.5
t32.5 72.5l25 176q4 29 -13 50t-53 21h-15q-36 0 -59 -21t-27 -50zM365 609q23 0 64 33l18 -42q-27 -21 -49 -32.5t-39 -11.5q-25 0 -69 25t-58 25q-27 0 -67 -31l-16 42q50 43 90 43q25 0 66 -26q21 -14 36 -19.5t24 -5.5z" />
    <glyph glyph-name="adieresis" unicode="&#xe4;" horiz-adv-x="429" 
d="M316 37q-22 -20 -50.5 -31t-63.5 -11q-44 0 -71.5 10.5t-42.5 29.5t-19 45.5t1 58.5l30 213q4 30 18 57t37 47.5t53.5 32t67.5 11.5h15q37 0 64 -11.5t43.5 -32t23 -47.5t2.5 -57l-50 -352h-53zM149 138q-2 -14 -1 -25.5t8 -20t21.5 -13.5t39.5 -5q45 0 71.5 29.5
t32.5 72.5l25 176q4 29 -13 50t-53 21h-15q-36 0 -59 -21t-27 -50zM207 655h75l-13 -90h-75zM327 655h75l-13 -90h-75z" />
    <glyph glyph-name="aring" unicode="&#xe5;" horiz-adv-x="429" 
d="M316 37q-22 -20 -50.5 -31t-63.5 -11q-44 0 -71.5 10.5t-42.5 29.5t-19 45.5t1 58.5l30 213q4 30 18 57t37 47.5t53.5 32t67.5 11.5h15q37 0 64 -11.5t43.5 -32t23 -47.5t2.5 -57l-50 -352h-53zM149 138q-2 -14 -1 -25.5t8 -20t21.5 -13.5t39.5 -5q45 0 71.5 29.5
t32.5 72.5l25 176q4 29 -13 50t-53 21h-15q-36 0 -59 -21t-27 -50zM207 599q0 21 8.5 39t22.5 32t33 22t39 8q35 0 57 -23t22 -56q0 -21 -8.5 -39t-23 -32t-33.5 -22t-39 -8q-35 0 -56.5 23t-21.5 56zM247 604q0 -19 12 -31.5t32 -12.5q23 0 40 16.5t17 39.5
q0 19 -11.5 31.5t-31.5 12.5q-23 0 -40.5 -16.5t-17.5 -39.5z" />
    <glyph glyph-name="ae" unicode="&#xe6;" horiz-adv-x="667" 
d="M459 0q-45 0 -73.5 18t-42.5 47q-23 -33 -57 -51.5t-85 -18.5q-75 0 -104.5 32t-29.5 84q0 45 15 77t40 54t57 34.5t67 17.5l93 15l7 43q4 29 -13 50t-53 21h-137l10 77h137q39 0 65 -16t39 -43q21 31 55.5 49.5t81.5 18.5q39 0 67 -11t45.5 -30t24.5 -44.5t3 -53.5
l-21 -151h-246l-10 -71q-5 -30 14 -50.5t62 -20.5h146l-11 -77h-146zM415 295h167l10 75q4 26 -14.5 44t-57.5 18q-43 0 -67.5 -21t-28.5 -50zM216 74q45 0 71 24t31 59l11 74l-81 -14q-20 -3 -38 -9.5t-32 -17t-22.5 -27t-8.5 -39.5q0 -22 14 -36t55 -14z" />
    <glyph glyph-name="ccedilla" unicode="&#xe7;" horiz-adv-x="363" 
d="M189 355q-2 -8 -2 -12l-26 -186q-5 -33 13 -56.5t60 -23.5h119l-10 -77h-98l-21 -47q21 -1 34.5 -7.5t21.5 -15.5t11 -19.5t3 -19.5q0 -12 -5 -25t-16 -24t-28 -18t-40 -7q-10 0 -31 1.5t-41 12.5l14 27q15 -7 30.5 -9t26.5 -2q17 0 33 10t16 31q0 17 -13.5 26t-34.5 9
h-6l-14 13l28 64q-38 1 -65 14.5t-43 34.5t-22 49t-1 59l23 163zM110 356q6 30 21 56t38.5 45.5t54.5 31t70 11.5h119l-11 -77h-119q-38 0 -61.5 -19t-31.5 -48h-80z" />
    <glyph glyph-name="egrave" unicode="&#xe8;" horiz-adv-x="432" 
d="M178 277h81q43 0 66.5 20.5t28.5 50.5l3 22q3 24 -15 41t-58 17q-43 0 -66.5 -20t-28.5 -47l-29 -213q-5 -30 13.5 -50.5t61.5 -20.5h146l-11 -77h-146q-41 0 -70 11.5t-46.5 31.5t-24.5 47t-2 58l29 213q4 30 18.5 56t38 45.5t55.5 31t73 11.5q39 0 67.5 -10.5t46 -29
t24.5 -43t3 -52.5l-3 -22q-4 -31 -18 -58t-37.5 -47t-56 -31.5t-73.5 -11.5h-45zM192 700h110l61 -135h-60z" />
    <glyph glyph-name="eacute" unicode="&#xe9;" horiz-adv-x="432" 
d="M178 277h81q43 0 66.5 20.5t28.5 50.5l3 22q3 24 -15 41t-58 17q-43 0 -66.5 -20t-28.5 -47l-29 -213q-5 -30 13.5 -50.5t61.5 -20.5h146l-11 -77h-146q-41 0 -70 11.5t-46.5 31.5t-24.5 47t-2 58l29 213q4 30 18.5 56t38 45.5t55.5 31t73 11.5q39 0 67.5 -10.5t46 -29
t24.5 -43t3 -52.5l-3 -22q-4 -31 -18 -58t-37.5 -47t-56 -31.5t-73.5 -11.5h-45zM313 565h-60l99 135h110z" />
    <glyph glyph-name="ecircumflex" unicode="&#xea;" horiz-adv-x="432" 
d="M178 277h81q43 0 66.5 20.5t28.5 50.5l3 22q3 24 -15 41t-58 17q-43 0 -66.5 -20t-28.5 -47l-29 -213q-5 -30 13.5 -50.5t61.5 -20.5h146l-11 -77h-146q-41 0 -70 11.5t-46.5 31.5t-24.5 47t-2 58l29 213q4 30 18.5 56t38 45.5t55.5 31t73 11.5q39 0 67.5 -10.5t46 -29
t24.5 -43t3 -52.5l-3 -22q-4 -31 -18 -58t-37.5 -47t-56 -31.5t-73.5 -11.5h-45zM441 565h-70l-58 69l-79 -69h-70l128 135h60z" />
    <glyph glyph-name="edieresis" unicode="&#xeb;" horiz-adv-x="432" 
d="M178 277h81q43 0 66.5 20.5t28.5 50.5l3 22q3 24 -15 41t-58 17q-43 0 -66.5 -20t-28.5 -47l-29 -213q-5 -30 13.5 -50.5t61.5 -20.5h146l-11 -77h-146q-41 0 -70 11.5t-46.5 31.5t-24.5 47t-2 58l29 213q4 30 18.5 56t38 45.5t55.5 31t73 11.5q39 0 67.5 -10.5t46 -29
t24.5 -43t3 -52.5l-3 -22q-4 -31 -18 -58t-37.5 -47t-56 -31.5t-73.5 -11.5h-45zM208 655h75l-13 -90h-75zM328 655h75l-13 -90h-75z" />
    <glyph glyph-name="igrave" unicode="&#xec;" horiz-adv-x="206" 
d="M139 500h78l-70 -500h-78zM71 700h110l61 -135h-60z" />
    <glyph glyph-name="iacute" unicode="&#xed;" horiz-adv-x="206" 
d="M139 500h78l-70 -500h-78zM193 565h-60l99 135h110z" />
    <glyph glyph-name="icircumflex" unicode="&#xee;" horiz-adv-x="206" 
d="M139 500h78l-70 -500h-78zM322 565h-70l-58 69l-79 -69h-70l128 135h60z" />
    <glyph glyph-name="idieresis" unicode="&#xef;" horiz-adv-x="206" 
d="M139 500h78l-70 -500h-78zM99 655h75l-13 -90h-75zM219 655h75l-13 -90h-75z" />
    <glyph glyph-name="eth" unicode="&#xf0;" horiz-adv-x="445" 
d="M348 500l27 -75h-91q-41 0 -65.5 -20t-29.5 -49l-30 -212q-4 -29 15 -50.5t63 -21.5q43 0 68.5 21.5t29.5 50.5l54 385q6 40 -9 62t-35 33l-43 -90l-69 25l41 87q-25 6 -53.5 14.5t-50.5 14.5l29 73l111 -28l34 69l70 -25l-33 -65q18 -8 36 -20.5t31.5 -32.5t19.5 -48
t1 -67l-55 -387q-4 -30 -19 -57.5t-39 -47.5t-57 -32t-73 -12q-41 0 -70 12t-47.5 32t-25.5 47.5t-3 57.5l30 212q4 29 18.5 55.5t38 46t56 31t71.5 11.5h54z" />
    <glyph glyph-name="ntilde" unicode="&#xf1;" horiz-adv-x="450" 
d="M145 500h172q36 0 63 -11t44 -30t23.5 -44.5t2.5 -53.5l-51 -361h-79l51 361q4 25 -11.5 43.5t-61.5 18.5h-164zM212 423l-59 -423h-78l55 388zM382 609q23 0 64 33l18 -42q-27 -21 -49 -32.5t-39 -11.5q-25 0 -69 25t-58 25q-27 0 -67 -31l-16 42q50 43 90 43
q25 0 66 -26q21 -14 36 -19.5t24 -5.5z" />
    <glyph glyph-name="ograve" unicode="&#xf2;" horiz-adv-x="445" 
d="M237 72q43 0 68.5 21.5t29.5 50.5l25 176l84 35l-30 -211q-4 -30 -19 -57.5t-39 -47.5t-57 -32t-73 -12q-41 0 -70 12t-47.5 32t-25.5 47.5t-3 57.5l30 212q4 30 19 57.5t39 47.5t56.5 32t73.5 12q40 0 70 -12t48 -32t25 -47.5t3 -57.5h-79q5 29 -14.5 50.5t-63.5 21.5
t-68.5 -21.5t-29.5 -50.5l-30 -212q-4 -29 15 -50.5t63 -21.5zM198 700h110l61 -135h-60z" />
    <glyph glyph-name="oacute" unicode="&#xf3;" horiz-adv-x="445" 
d="M237 72q43 0 68.5 21.5t29.5 50.5l25 176l84 35l-30 -211q-4 -30 -19 -57.5t-39 -47.5t-57 -32t-73 -12q-41 0 -70 12t-47.5 32t-25.5 47.5t-3 57.5l30 212q4 30 19 57.5t39 47.5t56.5 32t73.5 12q40 0 70 -12t48 -32t25 -47.5t3 -57.5h-79q5 29 -14.5 50.5t-63.5 21.5
t-68.5 -21.5t-29.5 -50.5l-30 -212q-4 -29 15 -50.5t63 -21.5zM319 565h-60l99 135h110z" />
    <glyph glyph-name="ocircumflex" unicode="&#xf4;" horiz-adv-x="445" 
d="M237 72q43 0 68.5 21.5t29.5 50.5l25 176l84 35l-30 -211q-4 -30 -19 -57.5t-39 -47.5t-57 -32t-73 -12q-41 0 -70 12t-47.5 32t-25.5 47.5t-3 57.5l30 212q4 30 19 57.5t39 47.5t56.5 32t73.5 12q40 0 70 -12t48 -32t25 -47.5t3 -57.5h-79q5 29 -14.5 50.5t-63.5 21.5
t-68.5 -21.5t-29.5 -50.5l-30 -212q-4 -29 15 -50.5t63 -21.5zM448 565h-70l-58 69l-79 -69h-70l128 135h60z" />
    <glyph glyph-name="otilde" unicode="&#xf5;" horiz-adv-x="445" 
d="M237 72q43 0 68.5 21.5t29.5 50.5l25 176l84 35l-30 -211q-4 -30 -19 -57.5t-39 -47.5t-57 -32t-73 -12q-41 0 -70 12t-47.5 32t-25.5 47.5t-3 57.5l30 212q4 30 19 57.5t39 47.5t56.5 32t73.5 12q40 0 70 -12t48 -32t25 -47.5t3 -57.5h-79q5 29 -14.5 50.5t-63.5 21.5
t-68.5 -21.5t-29.5 -50.5l-30 -212q-4 -29 15 -50.5t63 -21.5zM373 609q23 0 64 33l18 -42q-27 -21 -49 -32.5t-39 -11.5q-25 0 -69 25t-58 25q-27 0 -67 -31l-16 42q50 43 90 43q25 0 66 -26q21 -14 36 -19.5t24 -5.5z" />
    <glyph glyph-name="odieresis" unicode="&#xf6;" horiz-adv-x="445" 
d="M237 72q43 0 68.5 21.5t29.5 50.5l25 176l84 35l-30 -211q-4 -30 -19 -57.5t-39 -47.5t-57 -32t-73 -12q-41 0 -70 12t-47.5 32t-25.5 47.5t-3 57.5l30 212q4 30 19 57.5t39 47.5t56.5 32t73.5 12q40 0 70 -12t48 -32t25 -47.5t3 -57.5h-79q5 29 -14.5 50.5t-63.5 21.5
t-68.5 -21.5t-29.5 -50.5l-30 -212q-4 -29 15 -50.5t63 -21.5zM215 655h75l-13 -90h-75zM335 655h75l-13 -90h-75z" />
    <glyph glyph-name="oslash" unicode="&#xf8;" horiz-adv-x="431" 
d="M230 72q43 0 68.5 21.5t29.5 50.5l25 176l84 35l-30 -211q-4 -30 -19 -57.5t-39 -47.5t-57 -32t-73 -12q-42 0 -70.5 12t-47.5 32l-53 -63l-28 23l61 73q-14 33 -8 72l30 212q4 30 19 57.5t39 47.5t56.5 32t73.5 12t70 -12t48 -32l54 64l28 -23l-63 -73q7 -17 9.5 -35
t-0.5 -38h-70l-210 -249q8 -16 26 -25.5t47 -9.5zM154 159l199 235q-9 15 -27 24.5t-46 9.5q-44 0 -69 -21.5t-29 -50.5z" />
    <glyph glyph-name="ugrave" unicode="&#xf9;" horiz-adv-x="449" 
d="M458 500l-50 -356q-4 -30 -18.5 -57.5t-37.5 -47.5t-55 -32t-71 -12q-40 0 -68.5 12t-45.5 32t-23.5 47.5t-2.5 57.5l50 356h78l-50 -356q-4 -29 13.5 -50.5t59.5 -21.5q41 0 64.5 21.5t27.5 50.5l50 356h79zM200 700h110l61 -135h-60z" />
    <glyph glyph-name="uacute" unicode="&#xfa;" horiz-adv-x="449" 
d="M458 500l-50 -356q-4 -30 -18.5 -57.5t-37.5 -47.5t-55 -32t-71 -12q-40 0 -68.5 12t-45.5 32t-23.5 47.5t-2.5 57.5l50 356h78l-50 -356q-4 -29 13.5 -50.5t59.5 -21.5q41 0 64.5 21.5t27.5 50.5l50 356h79zM321 565h-60l99 135h110z" />
    <glyph glyph-name="ucircumflex" unicode="&#xfb;" horiz-adv-x="449" 
d="M458 500l-50 -356q-4 -30 -18.5 -57.5t-37.5 -47.5t-55 -32t-71 -12q-40 0 -68.5 12t-45.5 32t-23.5 47.5t-2.5 57.5l50 356h78l-50 -356q-4 -29 13.5 -50.5t59.5 -21.5q41 0 64.5 21.5t27.5 50.5l50 356h79zM450 565h-70l-58 69l-79 -69h-70l128 135h60z" />
    <glyph glyph-name="udieresis" unicode="&#xfc;" horiz-adv-x="449" 
d="M458 500l-50 -356q-4 -30 -18.5 -57.5t-37.5 -47.5t-55 -32t-71 -12q-40 0 -68.5 12t-45.5 32t-23.5 47.5t-2.5 57.5l50 356h78l-50 -356q-4 -29 13.5 -50.5t59.5 -21.5q41 0 64.5 21.5t27.5 50.5l50 356h79zM217 655h75l-13 -90h-75zM337 655h75l-13 -90h-75z" />
    <glyph glyph-name="yacute" unicode="&#xfd;" horiz-adv-x="426" 
d="M218 189q5 -31 4 -63t1 -64q11 32 20 63.5t22 62.5l130 312h77l-310 -750h-78l85 208l-39 271.5l-39 270.5h81zM306 565h-60l99 135h110z" />
    <glyph glyph-name="thorn" unicode="&#xfe;" horiz-adv-x="453" 
d="M159 77h90q43 0 66.5 21t28.5 50l29 204q4 29 -14 50t-61 21h-90l-95 -673h-79l136 966l84 34l-36 -250h90q41 0 70 -11.5t47 -32t24.5 -47.5t2.5 -57l-29 -204q-4 -30 -18 -57t-37.5 -47.5t-56 -32t-73.5 -11.5h-52z" />
    <glyph glyph-name="ydieresis" unicode="&#xff;" horiz-adv-x="426" 
d="M218 189q5 -31 4 -63t1 -64q11 32 20 63.5t22 62.5l130 312h77l-310 -750h-78l85 208l-39 271.5l-39 270.5h81zM202 655h75l-13 -90h-75zM322 655h75l-13 -90h-75z" />
    <glyph glyph-name="Amacron" unicode="&#x100;" 
d="M222 257h143l-27 218q-4 29 -1 58t3 58q-7 -29 -12.5 -58t-16.5 -58l-196 -475h-87l290 700h75l94 -700h-87l-23 176h-131zM210 831h305l-6 -42h-305z" />
    <glyph glyph-name="amacron" unicode="&#x101;" horiz-adv-x="423" 
d="M316 37q-22 -20 -50.5 -31t-63.5 -11q-44 0 -71.5 10.5t-42.5 29.5t-19 45.5t1 58.5l30 213q4 30 18 57t37 47.5t53.5 32t67.5 11.5h15q37 0 64 -11.5t43.5 -32t23 -47.5t2.5 -57l-50 -352h-53zM149 138q-2 -14 -1 -25.5t8 -20t21.5 -13.5t39.5 -5q45 0 71.5 29.5
t32.5 72.5l25 176q4 29 -13 50t-53 21h-15q-36 0 -59 -21t-27 -50zM149 631h305l-6 -42h-305z" />
    <glyph glyph-name="Abreve" unicode="&#x102;" 
d="M222 257h143l-27 218q-4 29 -1 58t3 58q-7 -29 -12.5 -58t-16.5 -58l-196 -475h-87l290 700h75l94 -700h-87l-23 176h-131zM491 873q-8 -61 -43.5 -88t-95.5 -27q-61 0 -88.5 27t-19.5 88h63q-5 -38 8.5 -51t43.5 -13q29 0 46.5 13t22.5 51h63z" />
    <glyph glyph-name="abreve" unicode="&#x103;" horiz-adv-x="429" 
d="M316 37q-22 -20 -50.5 -31t-63.5 -11q-44 0 -71.5 10.5t-42.5 29.5t-19 45.5t1 58.5l30 213q4 30 18 57t37 47.5t53.5 32t67.5 11.5h15q37 0 64 -11.5t43.5 -32t23 -47.5t2.5 -57l-50 -352h-53zM149 138q-2 -14 -1 -25.5t8 -20t21.5 -13.5t39.5 -5q45 0 71.5 29.5
t32.5 72.5l25 176q4 29 -13 50t-53 21h-15q-36 0 -59 -21t-27 -50zM430 673q-8 -61 -43.5 -88t-95.5 -27q-61 0 -88.5 27t-19.5 88h63q-5 -38 8.5 -51t43.5 -13q29 0 46.5 13t22.5 51h63z" />
    <glyph glyph-name="Aogonek" unicode="&#x104;" horiz-adv-x="481" 
d="M222 257h143l-27 218q-4 29 -1 58t3 58q-7 -29 -12.5 -58t-16.5 -58l-196 -475h-87l290 700h75l94 -700h-87l-23 176h-131zM371 -94q0 25 16.5 53t55.5 63l19 -22q-21 -24 -32.5 -44.5t-11.5 -37.5q0 -36 40 -36q20 0 51 14l10 -36q-17 -9 -37 -15t-41 -6q-33 0 -51.5 19
t-18.5 48z" />
    <glyph glyph-name="aogonek" unicode="&#x105;" horiz-adv-x="429" 
d="M316 37q-22 -20 -50.5 -31t-63.5 -11q-44 0 -71.5 10.5t-42.5 29.5t-19 45.5t1 58.5l30 213q4 30 18 57t37 47.5t53.5 32t67.5 11.5h15q37 0 64 -11.5t43.5 -32t23 -47.5t2.5 -57l-49 -352q-44 -49 -44 -82q0 -36 40 -36q19 0 51 14l10 -36q-17 -9 -37 -15t-41 -6
q-33 0 -51.5 19t-18.5 48q0 21 11 43.5t37 50.5zM149 138q-2 -14 -1 -25.5t8 -20t21.5 -13.5t39.5 -5q45 0 71.5 29.5t32.5 72.5l25 176q4 29 -13 50t-53 21h-15q-36 0 -59 -21t-27 -50z" />
    <glyph glyph-name="Cacute" unicode="&#x106;" horiz-adv-x="424" 
d="M176 188q-15 -107 79 -107h161l-12 -81h-162q-88 0 -126 48.5t-25 139.5l41 295l90 34l-1 -5zM330 619q-91 0 -107 -98h-85q14 86 66 132.5t137 46.5h162l-12 -81h-161zM375 765h-60l99 135h110z" />
    <glyph glyph-name="cacute" unicode="&#x107;" horiz-adv-x="375" 
d="M190 355q-2 -3 -2 -6t-1 -6l-26 -186q-5 -33 13.5 -56.5t60.5 -23.5h119l-11 -77h-119q-41 0 -69.5 12.5t-46.5 34t-24.5 50t-1.5 60.5l23 163zM110 356q6 30 21 56t38.5 45.5t54.5 31t70 11.5h119l-11 -77h-119q-38 0 -61.5 -19t-31.5 -48h-80zM304 565h-60l99 135h110z
" />
    <glyph glyph-name="Ccircumflex" unicode="&#x108;" horiz-adv-x="424" 
d="M176 188q-15 -107 79 -107h161l-12 -81h-162q-88 0 -126 48.5t-25 139.5l41 295l90 34l-1 -5zM330 619q-91 0 -107 -98h-85q14 86 66 132.5t137 46.5h162l-12 -81h-161zM510 765h-70l-58 69l-79 -69h-70l128 135h60z" />
    <glyph glyph-name="ccircumflex" unicode="&#x109;" horiz-adv-x="365" 
d="M190 355q-2 -3 -2 -6t-1 -6l-26 -186q-5 -33 13.5 -56.5t60.5 -23.5h119l-11 -77h-119q-41 0 -69.5 12.5t-46.5 34t-24.5 50t-1.5 60.5l23 163zM110 356q6 30 21 56t38.5 45.5t54.5 31t70 11.5h119l-11 -77h-119q-38 0 -61.5 -19t-31.5 -48h-80zM452 565h-70l-58 69
l-79 -69h-70l128 135h60z" />
    <glyph glyph-name="Cdotaccent" unicode="&#x10a;" horiz-adv-x="424" 
d="M176 188q-15 -107 79 -107h161l-12 -81h-162q-88 0 -126 48.5t-25 139.5l41 295l90 34l-1 -5zM330 619q-91 0 -107 -98h-85q14 86 66 132.5t137 46.5h162l-12 -81h-161zM362 855h75l-13 -90h-75z" />
    <glyph glyph-name="cdotaccent" unicode="&#x10b;" horiz-adv-x="363" 
d="M190 355q-2 -3 -2 -6t-1 -6l-26 -186q-5 -33 13.5 -56.5t60.5 -23.5h119l-11 -77h-119q-41 0 -69.5 12.5t-46.5 34t-24.5 50t-1.5 60.5l23 163zM110 356q6 30 21 56t38.5 45.5t54.5 31t70 11.5h119l-11 -77h-119q-38 0 -61.5 -19t-31.5 -48h-80zM294 655h75l-13 -90h-75z
" />
    <glyph glyph-name="Ccaron" unicode="&#x10c;" horiz-adv-x="424" 
d="M176 188q-15 -107 79 -107h161l-12 -81h-162q-88 0 -126 48.5t-25 139.5l41 295l90 34l-1 -5zM330 619q-91 0 -107 -98h-85q14 86 66 132.5t137 46.5h162l-12 -81h-161zM406 765h-60l-90 135h70l59 -69l78 69h70z" />
    <glyph glyph-name="ccaron" unicode="&#x10d;" horiz-adv-x="365" 
d="M190 355q-2 -3 -2 -6t-1 -6l-26 -186q-5 -33 13.5 -56.5t60.5 -23.5h119l-11 -77h-119q-41 0 -69.5 12.5t-46.5 34t-24.5 50t-1.5 60.5l23 163zM110 356q6 30 21 56t38.5 45.5t54.5 31t70 11.5h119l-11 -77h-119q-38 0 -61.5 -19t-31.5 -48h-80zM347 565h-60l-90 135h70
l59 -69l78 69h70z" />
    <glyph glyph-name="Dcaron" unicode="&#x10e;" horiz-adv-x="482" 
d="M73 0l98 700h175q43 0 74.5 -14.5t51 -39t26.5 -57t2 -69.5l-48 -340q-5 -37 -21.5 -69.5t-42.5 -57t-61.5 -39t-78.5 -14.5h-48l-24 81h83q46 0 74.5 29.5t33.5 69.5l48 340q5 40 -14.5 69.5t-65.5 29.5h-90l-87 -619h-85zM384 765h-60l-90 135h70l59 -69l78 69h70z" />
    <glyph glyph-name="dcaron" unicode="&#x10f;" horiz-adv-x="497" 
d="M375 423h-91q-42 0 -67.5 -26.5t-30.5 -63.5l-23 -166q-5 -37 12.5 -63.5t59.5 -26.5h91l95 673h79l-106 -750h-170q-41 0 -69.5 13.5t-46 36t-23.5 53t-1 64.5l23 166q5 34 19.5 64.5t38.5 53t56.5 36t73.5 13.5h55zM520 644l8 56h78l-8 -56q-5 -37 -26.5 -60.5
t-59.5 -23.5h-4l5 36h4q20 0 29.5 14.5t12.5 33.5h-39z" />
    <glyph glyph-name="Dcroat" unicode="&#x110;" horiz-adv-x="476" 
d="M67 0l43 309h-59l12 83h59l43 308h175q43 0 74.5 -14.5t51 -39t26.5 -57t2 -69.5l-48 -340q-5 -37 -21.5 -69.5t-42.5 -57t-61.5 -39t-78.5 -14.5h-48l-24 81h83q46 0 74 29.5t34 69.5l48 340q5 40 -14.5 69.5t-65.5 29.5h-90l-32 -227h101l-12 -83h-101l-43 -309h-85z
" />
    <glyph glyph-name="dcroat" unicode="&#x111;" horiz-adv-x="443" 
d="M385 600h-167l8 60h147zM365 423h-91q-42 0 -67.5 -26.5t-30.5 -63.5l-23 -166q-5 -37 12.5 -63.5t59.5 -26.5h91l95 673h79l-106 -750h-170q-41 0 -69.5 13.5t-46 36t-23.5 53t-1 64.5l23 166q5 34 19.5 64.5t38.5 53t56.5 36t73.5 13.5h55z" />
    <glyph glyph-name="Emacron" unicode="&#x112;" horiz-adv-x="443" 
d="M186 188q-13 -107 79 -107h151l-12 -81h-152q-88 0 -126.5 48.5t-25.5 139.5l72 512h331l-12 -81h-246zM213 391h199l-11 -82h-164zM180 831h305l-6 -42h-305z" />
    <glyph glyph-name="emacron" unicode="&#x113;" horiz-adv-x="432" 
d="M178 277h81q43 0 66.5 20.5t28.5 50.5l3 22q3 24 -15 41t-58 17q-43 0 -66.5 -20t-28.5 -47l-29 -213q-5 -30 13.5 -50.5t61.5 -20.5h146l-11 -77h-146q-41 0 -70 11.5t-46.5 31.5t-24.5 47t-2 58l29 213q4 30 18.5 56t38 45.5t55.5 31t73 11.5q39 0 67.5 -10.5t46 -29
t24.5 -43t3 -52.5l-3 -22q-4 -31 -18 -58t-37.5 -47t-56 -31.5t-73.5 -11.5h-45zM150 631h305l-6 -42h-305z" />
    <glyph glyph-name="Ebreve" unicode="&#x114;" horiz-adv-x="443" 
d="M186 188q-13 -107 79 -107h151l-12 -81h-152q-88 0 -126.5 48.5t-25.5 139.5l72 512h331l-12 -81h-246zM213 391h199l-11 -82h-164zM461 873q-8 -61 -43.5 -88t-95.5 -27q-61 0 -88.5 27t-19.5 88h63q-5 -38 8.5 -51t43.5 -13q29 0 46.5 13t22.5 51h63z" />
    <glyph glyph-name="ebreve" unicode="&#x115;" horiz-adv-x="432" 
d="M178 277h81q43 0 66.5 20.5t28.5 50.5l3 22q3 24 -15 41t-58 17q-43 0 -66.5 -20t-28.5 -47l-29 -213q-5 -30 13.5 -50.5t61.5 -20.5h146l-11 -77h-146q-41 0 -70 11.5t-46.5 31.5t-24.5 47t-2 58l29 213q4 30 18.5 56t38 45.5t55.5 31t73 11.5q39 0 67.5 -10.5t46 -29
t24.5 -43t3 -52.5l-3 -22q-4 -31 -18 -58t-37.5 -47t-56 -31.5t-73.5 -11.5h-45zM431 673q-8 -61 -43.5 -88t-95.5 -27q-61 0 -88.5 27t-19.5 88h63q-5 -38 8.5 -51t43.5 -13q29 0 46.5 13t22.5 51h63z" />
    <glyph glyph-name="Edotaccent" unicode="&#x116;" horiz-adv-x="443" 
d="M186 188q-13 -107 79 -107h151l-12 -81h-152q-88 0 -126.5 48.5t-25.5 139.5l72 512h331l-12 -81h-246zM213 391h199l-11 -82h-164zM280 855h75l-13 -90h-75z" />
    <glyph glyph-name="edotaccent" unicode="&#x117;" horiz-adv-x="432" 
d="M178 277h81q43 0 66.5 20.5t28.5 50.5l3 22q3 24 -15 41t-58 17q-43 0 -66.5 -20t-28.5 -47l-29 -213q-5 -30 13.5 -50.5t61.5 -20.5h146l-11 -77h-146q-41 0 -70 11.5t-46.5 31.5t-24.5 47t-2 58l29 213q4 30 18.5 56t38 45.5t55.5 31t73 11.5q39 0 67.5 -10.5t46 -29
t24.5 -43t3 -52.5l-3 -22q-4 -31 -18 -58t-37.5 -47t-56 -31.5t-73.5 -11.5h-45zM283 655h75l-13 -90h-75z" />
    <glyph glyph-name="Eogonek" unicode="&#x118;" horiz-adv-x="422" 
d="M293 -94q0 21 11 43.5t37 50.5h-89q-88 0 -126.5 48.5t-25.5 139.5l72 512h331l-12 -81h-246l-32 -228h199l-11 -82h-164l-24 82l-28 -203q-5 -54 14 -80.5t66 -26.5h151l-12 -81h-21q-43 -49 -43 -82q0 -36 40 -36q19 0 51 14l10 -36q-17 -9 -37 -15t-41 -6
q-33 0 -51.5 19t-18.5 48z" />
    <glyph glyph-name="eogonek" unicode="&#x119;" horiz-adv-x="423" 
d="M178 277l-18 -129q-5 -30 13.5 -50.5t61.5 -20.5h146l-11 -77h-59q-20 -21 -31.5 -42.5t-11.5 -39.5q0 -36 39 -36q20 0 51 14l10 -36q-17 -9 -37 -15t-41 -6q-32 0 -51 19t-19 48q0 21 11 43.5t38 50.5h-45q-41 0 -70 11.5t-47 31.5t-24.5 47t-2.5 58l30 213
q4 30 18.5 56t38 45.5t55.5 31t73 11.5q39 0 67.5 -10.5t46 -29t24.5 -43t3 -52.5l-3 -22q-4 -31 -18 -58t-37.5 -47t-56 -31.5t-73.5 -11.5h-45zM177 277h82q43 0 66.5 20.5t28.5 50.5l3 22q3 24 -15 41t-58 17q-43 0 -67 -20t-28 -47z" />
    <glyph glyph-name="Ecaron" unicode="&#x11a;" horiz-adv-x="443" 
d="M186 188q-13 -107 79 -107h151l-12 -81h-152q-88 0 -126.5 48.5t-25.5 139.5l72 512h331l-12 -81h-246zM213 391h199l-11 -82h-164zM363 765h-60l-90 135h70l59 -69l78 69h70z" />
    <glyph glyph-name="ecaron" unicode="&#x11b;" horiz-adv-x="432" 
d="M178 277h81q43 0 66.5 20.5t28.5 50.5l3 22q3 24 -15 41t-58 17q-43 0 -66.5 -20t-28.5 -47l-29 -213q-5 -30 13.5 -50.5t61.5 -20.5h146l-11 -77h-146q-41 0 -70 11.5t-46.5 31.5t-24.5 47t-2 58l29 213q4 30 18.5 56t38 45.5t55.5 31t73 11.5q39 0 67.5 -10.5t46 -29
t24.5 -43t3 -52.5l-3 -22q-4 -31 -18 -58t-37.5 -47t-56 -31.5t-73.5 -11.5h-45zM333 565h-60l-90 135h70l59 -69l78 69h70z" />
    <glyph glyph-name="Gcircumflex" unicode="&#x11c;" horiz-adv-x="488" 
d="M392 309h-94l-23 82h213l-55 -391h-85zM243 0q-88 0 -126.5 48.5t-25.5 139.5l45 324q13 91 65.5 139.5t140.5 48.5h162l-12 -81h-161q-95 0 -110 -107l-45 -324q-15 -107 80 -107h69l23 -81h-105zM496 765h-70l-58 69l-79 -69h-70l128 135h60z" />
    <glyph glyph-name="gcircumflex" unicode="&#x11d;" horiz-adv-x="444" 
d="M375 423h-91q-42 0 -67.5 -26.5t-30.5 -63.5l-23 -166q-5 -37 12.5 -63.5t59.5 -26.5h91l59 423h80l-85 -602q-5 -31 -19 -58t-37.5 -47t-56 -31.5t-72.5 -11.5h-147l11 76h147q42 0 66 21t29 51l14 102h-91q-41 0 -69.5 13.5t-46 36t-23.5 53t-1 64.5l23 166
q5 34 19.5 64.5t38.5 53t56 36t73 13.5h55zM447 565h-70l-58 69l-79 -69h-70l128 135h60z" />
    <glyph glyph-name="Gbreve" unicode="&#x11e;" horiz-adv-x="488" 
d="M392 309h-94l-23 82h213l-55 -391h-85zM243 0q-88 0 -126.5 48.5t-25.5 139.5l45 324q13 91 65.5 139.5t140.5 48.5h162l-12 -81h-161q-95 0 -110 -107l-45 -324q-15 -107 80 -107h69l23 -81h-105zM485 873q-8 -61 -43.5 -88t-95.5 -27q-61 0 -88.5 27t-19.5 88h63
q-5 -38 8.5 -51t43.5 -13q29 0 46.5 13t22.5 51h63z" />
    <glyph glyph-name="gbreve" unicode="&#x11f;" horiz-adv-x="444" 
d="M375 423h-91q-42 0 -67.5 -26.5t-30.5 -63.5l-23 -166q-5 -37 12.5 -63.5t59.5 -26.5h91l59 423h80l-85 -602q-5 -31 -19 -58t-37.5 -47t-56 -31.5t-72.5 -11.5h-147l11 76h147q42 0 66 21t29 51l14 102h-91q-41 0 -69.5 13.5t-46 36t-23.5 53t-1 64.5l23 166
q5 34 19.5 64.5t38.5 53t56 36t73 13.5h55zM437 673q-8 -61 -43.5 -88t-95.5 -27q-61 0 -88.5 27t-19.5 88h63q-5 -38 8.5 -51t43.5 -13q29 0 46.5 13t22.5 51h63z" />
    <glyph glyph-name="Gdotaccent" unicode="&#x120;" horiz-adv-x="488" 
d="M392 309h-94l-23 82h213l-55 -391h-85zM243 0q-88 0 -126.5 48.5t-25.5 139.5l45 324q13 91 65.5 139.5t140.5 48.5h162l-12 -81h-161q-95 0 -110 -107l-45 -324q-15 -107 80 -107h69l23 -81h-105zM304 855h75l-13 -90h-75z" />
    <glyph glyph-name="gdotaccent" unicode="&#x121;" horiz-adv-x="444" 
d="M375 423h-91q-42 0 -67.5 -26.5t-30.5 -63.5l-23 -166q-5 -37 12.5 -63.5t59.5 -26.5h91l59 423h80l-85 -602q-5 -31 -19 -58t-37.5 -47t-56 -31.5t-72.5 -11.5h-147l11 76h147q42 0 66 21t29 51l14 102h-91q-41 0 -69.5 13.5t-46 36t-23.5 53t-1 64.5l23 166
q5 34 19.5 64.5t38.5 53t56 36t73 13.5h55zM289 655h75l-13 -90h-75z" />
    <glyph glyph-name="uni0122" unicode="&#x122;" horiz-adv-x="464" 
d="M392 309h-94l-23 82h213l-55 -391h-85zM243 0q-88 0 -126.5 48.5t-25.5 139.5l45 324q13 91 65.5 139.5t140.5 48.5h162l-12 -81h-161q-95 0 -110 -107l-45 -324q-15 -107 80 -107h69l23 -81h-105zM232 -115l9 60h72l-9 -60q-4 -29 -21 -48t-46 -19h-14l5 33h14
q13 0 18.5 10t7.5 24h-36z" />
    <glyph glyph-name="uni0123" unicode="&#x123;" horiz-adv-x="454" 
d="M375 423h-91q-42 0 -67.5 -26.5t-30.5 -63.5l-23 -166q-5 -37 12.5 -63.5t59.5 -26.5h91l59 423h80l-85 -602q-5 -31 -19 -58t-37.5 -47t-56 -31.5t-72.5 -11.5h-147l11 76h147q42 0 66 21t29 51l14 102h-91q-41 0 -69.5 13.5t-46 36t-23.5 53t-1 64.5l23 166
q5 34 19.5 64.5t38.5 53t56 36t73 13.5h55zM354.002 632.993l-8.99902 -59.9961h-71.9961l9 59.9961q4 28.998 20.999 47.9971q16.998 18.999 45.9971 18.999h13.999l-5 -32.998h-13.999q-12.999 0 -18.499 -10q-5.5 -9.99902 -7.49902 -23.998h35.9971z" />
    <glyph glyph-name="Hcircumflex" unicode="&#x124;" horiz-adv-x="505" 
d="M158 0h-85l98 700h85zM213 392h199l43 308h85l-98 -700h-85l43 308h-164zM504 765h-70l-58 69l-79 -69h-70l128 135h60z" />
    <glyph glyph-name="hcircumflex" unicode="&#x125;" horiz-adv-x="461" 
d="M147 0h-78l103 731h78zM242 423l-25 77h94q36 0 63 -11t44 -30t23.5 -44.5t2.5 -53.5l-51 -361h-79l51 361q4 25 -11.5 43.5t-61.5 18.5h-50zM525 565h-70l-58 69l-79 -69h-70l128 135h60z" />
    <glyph glyph-name="Itilde" unicode="&#x128;" horiz-adv-x="221" 
d="M256 700l-98 -700h-85l98 700h85zM292 809q23 0 64 33l18 -42q-27 -21 -49 -32.5t-39 -11.5q-25 0 -69 25t-58 25q-27 0 -67 -31l-16 42q50 43 90 43q25 0 66 -26q21 -14 36 -19.5t24 -5.5z" />
    <glyph glyph-name="itilde" unicode="&#x129;" horiz-adv-x="206" 
d="M139 500h78l-70 -500h-78zM257 609q23 0 64 33l18 -42q-27 -21 -49 -32.5t-39 -11.5q-25 0 -69 25t-58 25q-27 0 -67 -31l-16 42q50 43 90 43q25 0 66 -26q21 -14 36 -19.5t24 -5.5z" />
    <glyph glyph-name="Imacron" unicode="&#x12a;" horiz-adv-x="221" 
d="M256 700l-98 -700h-85l98 700h85zM76 831h305l-6 -42h-305z" />
    <glyph glyph-name="imacron" unicode="&#x12b;" horiz-adv-x="206" 
d="M139 500h78l-70 -500h-78zM41 631h305l-6 -42h-305z" />
    <glyph glyph-name="Ibreve" unicode="&#x12c;" horiz-adv-x="221" 
d="M256 700l-98 -700h-85l98 700h85zM357 873q-8 -61 -43.5 -88t-95.5 -27q-61 0 -88.5 27t-19.5 88h63q-5 -38 8.5 -51t43.5 -13q29 0 46.5 13t22.5 51h63z" />
    <glyph glyph-name="ibreve" unicode="&#x12d;" horiz-adv-x="206" 
d="M139 500h78l-70 -500h-78zM322 673q-8 -61 -43.5 -88t-95.5 -27q-61 0 -88.5 27t-19.5 88h63q-5 -38 8.5 -51t43.5 -13q29 0 46.5 13t22.5 51h63z" />
    <glyph glyph-name="Iogonek" unicode="&#x12e;" horiz-adv-x="221" 
d="M52 -94q0 21 11 43.5t38 50.5h-28l98 700h85l-98 -700h-15q-20 -23 -32 -43.5t-12 -38.5q0 -36 40 -36q20 0 51 14l10 -36q-17 -9 -37 -15t-41 -6q-33 0 -51.5 19t-18.5 48z" />
    <glyph glyph-name="iogonek" unicode="&#x12f;" horiz-adv-x="206" 
d="M139 500h78l-70 -500h-14q-20 -23 -32 -43.5t-12 -38.5q0 -36 40 -36q20 0 51 14l10 -36q-17 -9 -37 -15t-41 -6q-33 0 -51.5 19t-18.5 48q0 21 11 43.5t38 50.5h-22zM164 680h78l-14 -102h-78z" />
    <glyph glyph-name="Idotaccent" unicode="&#x130;" horiz-adv-x="221" 
d="M256 700l-98 -700h-85l98 700h85zM194 855h75l-13 -90h-75z" />
    <glyph glyph-name="dotlessi" unicode="&#x131;" horiz-adv-x="206" 
d="M139 500h78l-70 -500h-78z" />
    <glyph glyph-name="ij" unicode="&#x133;" horiz-adv-x="352" 
d="M139 500h78l-70 -500h-78zM165 680h78l-15 -102h-78zM179 -250l105 750h79l-100 -715zM310 680h79l-15 -102h-79z" />
    <glyph glyph-name="Jcircumflex" unicode="&#x134;" horiz-adv-x="318" 
d="M283 700h85l-72 -512q-12 -91 -64 -139.5t-140 -48.5h-68l11 81h67q94 0 109 107zM478 765h-70l-58 69l-79 -69h-70l128 135h60z" />
    <glyph glyph-name="jcircumflex" unicode="&#x135;" horiz-adv-x="183" 
d="M40 -241l104 741h79l-99 -706zM325 565h-70l-58 69l-79 -69h-70l128 135h60z" />
    <glyph glyph-name="uni0136" unicode="&#x136;" horiz-adv-x="480" 
d="M158 0h-85l98 700h85zM205 391h26l226 309h94l-249 -341l161 -359h-95l-139 309zM203 -115l9 60h72l-9 -60q-4 -29 -21 -48t-46 -19h-14l5 33h14q13 0 18.5 10t7.5 24h-36z" />
    <glyph glyph-name="uni0137" unicode="&#x137;" horiz-adv-x="429" 
d="M267 256l32 -62l34 -67l33.5 -66.5l31.5 -60.5h-92l-112 219h-16l-31 -219h-78l102 723l81 27l-64 -455h19l85 103l85 102h91zM159 -115l9 60h72l-9 -60q-4 -29 -21 -48t-46 -19h-14l5 33h14q13 0 18.5 10t7.5 24h-36z" />
    <glyph glyph-name="kgreenlandic" unicode="&#x138;" horiz-adv-x="428" 
d="M139 500h79l-30 -213l187 213h96l-194 -221l33 -68l36 -72.5l35 -72l32 -66.5h-90l-105 213l-47 -47l-23 -166h-79z" />
    <glyph glyph-name="Lacute" unicode="&#x139;" horiz-adv-x="415" 
d="M256 700l-87 -619h246l-11 -81h-331l98 700h85zM250 765h-60l99 135h110z" />
    <glyph glyph-name="lacute" unicode="&#x13a;" horiz-adv-x="203" 
d="M252 750l-105 -750h-78l104 737zM226 794h-60l99 135h110z" />
    <glyph glyph-name="uni013B" unicode="&#x13b;" horiz-adv-x="415" 
d="M256 700l-87 -619h246l-11 -81h-331l98 700h85zM197 -115l9 60h72l-9 -60q-4 -29 -21 -48t-46 -19h-14l5 33h14q13 0 18.5 10t7.5 24h-36z" />
    <glyph glyph-name="uni013C" unicode="&#x13c;" horiz-adv-x="203" 
d="M262 750l-105 -750h-78l104 737zM58 -115l9 60h72l-9 -60q-4 -29 -21 -48t-46 -19h-14l5 33h14q13 0 18.5 10t7.5 24h-36z" />
    <glyph glyph-name="Lcaron" unicode="&#x13d;" horiz-adv-x="415" 
d="M266 700l-87 -619h246l-11 -81h-331l98 700h85zM258 765h-60l-90 135h70l59 -69l78 69h70z" />
    <glyph glyph-name="lcaron" unicode="&#x13e;" horiz-adv-x="240" 
d="M252 750l-105 -750h-78l104 737zM253 644l8 56h78l-8 -56q-5 -37 -26.5 -60.5t-59.5 -23.5h-4l5 36h4q20 0 29.5 14.5t12.5 33.5h-39z" />
    <glyph glyph-name="Lslash" unicode="&#x141;" horiz-adv-x="415" 
d="M266 700l-87 -619h246l-11 -81h-331l98 700h85zM48 266l-13 39l323 142l12 -39z" />
    <glyph glyph-name="lslash" unicode="&#x142;" horiz-adv-x="275" 
d="M312 750l-105 -750h-78l104 737zM48 266l-13 39l323 142l12 -39z" />
    <glyph glyph-name="Nacute" unicode="&#x143;" horiz-adv-x="515" 
d="M240 456l-12 80q-3 -40 -7.5 -79.5l-9.5 -79.5l-53 -377h-85l98 700h98l113 -456l11 -80l8.5 79t9.5 80l53 377h85l-98 -700h-98zM381 765h-60l99 135h110z" />
    <glyph glyph-name="nacute" unicode="&#x144;" horiz-adv-x="450" 
d="M139 500h172q36 0 63 -11t44 -30t23.5 -44.5t2.5 -53.5l-51 -361h-79l51 361q4 25 -11.5 43.5t-61.5 18.5h-164zM206 423l-59 -423h-78l55 388zM282 565h-60l99 135h110z" />
    <glyph glyph-name="uni0145" unicode="&#x145;" horiz-adv-x="515" 
d="M240 456l-12 80q-3 -40 -7.5 -79.5l-9.5 -79.5l-53 -377h-85l98 700h98l113 -456l11 -80l8.5 79t9.5 80l53 377h85l-98 -700h-98zM210 -115l9 60h72l-9 -60q-4 -29 -21 -48t-46 -19h-14l5 33h14q13 0 18.5 10t7.5 24h-36z" />
    <glyph glyph-name="uni0146" unicode="&#x146;" horiz-adv-x="450" 
d="M139 500h172q36 0 63 -11t44 -30t23.5 -44.5t2.5 -53.5l-51 -361h-79l51 361q4 25 -11.5 43.5t-61.5 18.5h-164zM206 423l-59 -423h-78l55 388zM180 -115l9 60h72l-9 -60q-4 -29 -21 -48t-46 -19h-14l5 33h14q13 0 18.5 10t7.5 24h-36z" />
    <glyph glyph-name="Ncaron" unicode="&#x147;" horiz-adv-x="515" 
d="M240 456l-12 80q-3 -40 -7.5 -79.5l-9.5 -79.5l-53 -377h-85l98 700h98l113 -456l11 -80l8.5 79t9.5 80l53 377h85l-98 -700h-98zM401 765h-60l-90 135h70l59 -69l78 69h70z" />
    <glyph glyph-name="ncaron" unicode="&#x148;" horiz-adv-x="450" 
d="M139 500h172q36 0 63 -11t44 -30t23.5 -44.5t2.5 -53.5l-51 -361h-79l51 361q4 25 -11.5 43.5t-61.5 18.5h-164zM206 423l-59 -423h-78l55 388zM342 565h-60l-90 135h70l59 -69l78 69h70z" />
    <glyph glyph-name="Eng" unicode="&#x14a;" horiz-adv-x="543" 
d="M240 456l-14 60q-3 -35 -6.5 -69.5t-8.5 -69.5l-53 -377h-85l98 700h98l113 -456l14 -60q6 67 15 139l53 377h85l-86 -624l-22 -152q-5 -34 -15.5 -63t-29 -50.5t-44.5 -34t-62 -12.5h-36l11 78h36q28 0 41.5 25t18.5 57l11 76h-19z" />
    <glyph glyph-name="eng" unicode="&#x14b;" horiz-adv-x="450" 
d="M139 500h172q36 0 63 -11t44 -30t23.5 -44.5t2.5 -53.5l-67 -472q-3 -25 -13 -47t-27 -38t-42.5 -25.5t-60.5 -9.5h-35l10 76h35q28 0 40 13.5t14 30.5l67 472q3 25 -12 43.5t-61 18.5h-86l-59 -423h-78z" />
    <glyph glyph-name="Omacron" unicode="&#x14c;" 
d="M440 521q5 52 -16 77t-65 25h-28q-94 0 -110 -111l-46 -324q-8 -57 13 -84t67 -27h28q94 0 110 111l41 295l90 34l-46 -329q-13 -93 -65.5 -143t-140.5 -50h-30q-88 0 -126.5 50t-25.5 143l46 324q13 93 65.5 143t140.5 50h30q39 0 70.5 -11.5t52.5 -33t29.5 -53.5
t2.5 -73l-2 -13h-85zM214 831h305l-6 -42h-305z" />
    <glyph glyph-name="omacron" unicode="&#x14d;" horiz-adv-x="445" 
d="M237 72q43 0 68.5 21.5t29.5 50.5l25 176l84 35l-30 -211q-4 -30 -19 -57.5t-39 -47.5t-57 -32t-73 -12q-41 0 -70 12t-47.5 32t-25.5 47.5t-3 57.5l30 212q4 30 19 57.5t39 47.5t56.5 32t73.5 12q40 0 70 -12t48 -32t25 -47.5t3 -57.5h-79q5 29 -14.5 50.5t-63.5 21.5
t-68.5 -21.5t-29.5 -50.5l-30 -212q-4 -29 15 -50.5t63 -21.5zM157 631h305l-6 -42h-305z" />
    <glyph glyph-name="Obreve" unicode="&#x14e;" 
d="M440 521q5 52 -16 77t-65 25h-28q-94 0 -110 -111l-46 -324q-8 -57 13 -84t67 -27h28q94 0 110 111l41 295l90 34l-46 -329q-13 -93 -65.5 -143t-140.5 -50h-30q-88 0 -126.5 50t-25.5 143l46 324q13 93 65.5 143t140.5 50h30q39 0 70.5 -11.5t52.5 -33t29.5 -53.5
t2.5 -73l-2 -13h-85zM495 873q-8 -61 -43.5 -88t-95.5 -27q-61 0 -88.5 27t-19.5 88h63q-5 -38 8.5 -51t43.5 -13q29 0 46.5 13t22.5 51h63z" />
    <glyph glyph-name="obreve" unicode="&#x14f;" horiz-adv-x="445" 
d="M237 72q43 0 68.5 21.5t29.5 50.5l25 176l84 35l-30 -211q-4 -30 -19 -57.5t-39 -47.5t-57 -32t-73 -12q-41 0 -70 12t-47.5 32t-25.5 47.5t-3 57.5l30 212q4 30 19 57.5t39 47.5t56.5 32t73.5 12q40 0 70 -12t48 -32t25 -47.5t3 -57.5h-79q5 29 -14.5 50.5t-63.5 21.5
t-68.5 -21.5t-29.5 -50.5l-30 -212q-4 -29 15 -50.5t63 -21.5zM438 673q-8 -61 -43.5 -88t-95.5 -27q-61 0 -88.5 27t-19.5 88h63q-5 -38 8.5 -51t43.5 -13q29 0 46.5 13t22.5 51h63z" />
    <glyph glyph-name="Ohungarumlaut" unicode="&#x150;" 
d="M440 521q5 52 -16 77t-65 25h-28q-94 0 -110 -111l-46 -324q-8 -57 13 -84t67 -27h28q94 0 110 111l41 295l90 34l-46 -329q-13 -93 -65.5 -143t-140.5 -50h-30q-88 0 -126.5 50t-25.5 143l46 324q13 93 65.5 143t140.5 50h30q39 0 70.5 -11.5t52.5 -33t29.5 -53.5
t2.5 -73l-2 -13h-85zM294 765h-40l99 135h70zM410 765h-40l99 135h70z" />
    <glyph glyph-name="ohungarumlaut" unicode="&#x151;" horiz-adv-x="432" 
d="M237 72q43 0 68.5 21.5t29.5 50.5l25 176l84 35l-30 -211q-4 -30 -19 -57.5t-39 -47.5t-57 -32t-73 -12q-41 0 -70 12t-47.5 32t-25.5 47.5t-3 57.5l30 212q4 30 19 57.5t39 47.5t56.5 32t73.5 12q40 0 70 -12t48 -32t25 -47.5t3 -57.5h-79q5 29 -14.5 50.5t-63.5 21.5
t-68.5 -21.5t-29.5 -50.5l-30 -212q-4 -29 15 -50.5t63 -21.5zM246 565h-40l99 135h70zM362 565h-40l99 135h70z" />
    <glyph glyph-name="OE" unicode="&#x152;" horiz-adv-x="737" 
d="M507 391l-29 -203q-5 -54 14 -80.5t66 -26.5h151l-11 -81h-152q-103 0 -123 97q-23 -50 -61 -76t-90 -26h-30q-88 0 -126.5 50t-25.5 143l46 324q13 93 65.5 143t140.5 50h30q54 0 89 -33l4 28h331l-11 -81h-246l-32 -228h199l-12 -82h-164zM283 77q94 0 110 111l47 333
q5 52 -16 77t-65 25h-28q-94 0 -110 -111l-46 -324q-8 -57 13 -84t67 -27h28z" />
    <glyph glyph-name="oe" unicode="&#x153;" horiz-adv-x="687" 
d="M460 219l-24 76l-21 -147q-5 -30 13.5 -50.5t61.5 -20.5h146l-11 -77h-146q-45 0 -73 18t-42 48q-21 -32 -56 -51.5t-82 -19.5q-41 0 -70 12t-47.5 32t-25.5 47.5t-3 57.5l30 212q4 30 19 57.5t39 47.5t56.5 32t73.5 12q45 0 74 -18.5t43 -49.5q21 31 55 49.5t80 18.5
q39 0 67.5 -10.5t46 -29t24.5 -43t3 -52.5l-21 -151h-210zM365 356q5 29 -14.5 50.5t-63.5 21.5t-68.5 -21.5t-29.5 -50.5l-30 -212q-4 -29 15 -50.5t63 -21.5q43 0 68.5 21.5t29.5 50.5zM436 295h165l11 75q4 24 -14.5 41t-58.5 17q-43 0 -66.5 -20t-27.5 -47z" />
    <glyph glyph-name="Racute" unicode="&#x154;" horiz-adv-x="465" 
d="M155 586l90 33h-85l11 81h160q44 0 75.5 -14.5t51 -39t26.5 -57t2 -69.5l-13 -90q-8 -52 -36 -94t-77 -65l64 -271h-91l-63 251h-42l-23 81l-47 -332h-85zM205 332h75q47 0 74.5 29t33.5 69l13 90q6 40 -14 69.5t-67 29.5h-75zM351 765h-60l99 135h110z" />
    <glyph glyph-name="racute" unicode="&#x155;" horiz-adv-x="286" 
d="M117 343q4 32 18.5 60.5t38.5 50t56 34t73 12.5h42l-11 -77h-42q-42 0 -66.5 -23.5t-29.5 -56.5l-48 -343h-79zM232 565h-60l99 135h110z" />
    <glyph glyph-name="Rcommaaccent" unicode="&#x156;" horiz-adv-x="465" 
d="M155 586l90 33h-85l11 81h160q44 0 75.5 -14.5t51 -39t26.5 -57t2 -69.5l-13 -90q-8 -52 -36 -94t-77 -65l64 -271h-91l-63 251h-42l-23 81l-47 -332h-85zM205 332h75q47 0 74.5 29t33.5 69l13 90q6 40 -14 69.5t-67 29.5h-75zM180 -115l9 60h72l-9 -60q-4 -29 -21 -48
t-46 -19h-14l5 33h14q13 0 18.5 10t7.5 24h-36z" />
    <glyph glyph-name="rcommaaccent" unicode="&#x157;" horiz-adv-x="280" 
d="M127 343q4 32 18.5 60.5t38.5 50t56 34t73 12.5h42l-11 -77h-42q-42 0 -66.5 -23.5t-29.5 -56.5l-48 -343h-79zM58 -115l9 60h72l-9 -60q-4 -29 -21 -48t-46 -19h-14l5 33h14q13 0 18.5 10t7.5 24h-36z" />
    <glyph glyph-name="Rcaron" unicode="&#x158;" horiz-adv-x="465" 
d="M155 586l90 33h-85l11 81h160q44 0 75.5 -14.5t51 -39t26.5 -57t2 -69.5l-13 -90q-8 -52 -36 -94t-77 -65l64 -271h-91l-63 251h-42l-23 81l-47 -332h-85zM205 332h75q47 0 74.5 29t33.5 69l13 90q6 40 -14 69.5t-67 29.5h-75zM370 765h-60l-90 135h70l59 -69l78 69h70z
" />
    <glyph glyph-name="rcaron" unicode="&#x159;" horiz-adv-x="276" 
d="M127 343q4 32 18.5 60.5t38.5 50t56 34t73 12.5h42l-11 -77h-42q-42 0 -66.5 -23.5t-29.5 -56.5l-48 -343h-79zM295 565h-60l-90 135h70l59 -69l78 69h70z" />
    <glyph glyph-name="Sacute" unicode="&#x15a;" horiz-adv-x="453" 
d="M442 220q0 -103 -54.5 -161.5t-155.5 -58.5h-173l11 81h173q55 0 84 32t29 94q0 26 -8 43t-21.5 28t-32 18.5t-39.5 14.5q-26 9 -51.5 20.5t-45 30t-30.5 47.5t-8 74l89 34l-1 -5q-6 -33 0 -54t20.5 -34t34.5 -21t42 -15q27 -9 51.5 -21.5t43.5 -31.5t30.5 -47t11.5 -68z
M318 619q-91 0 -109 -98h-85q14 87 66.5 133t137.5 46h162l-11 -81h-161zM349 765h-60l99 135h110z" />
    <glyph glyph-name="sacute" unicode="&#x15b;" horiz-adv-x="405" 
d="M97 357l1 7q8 60 55 98t123 38h136l-11 -77h-136q-38 0 -61.5 -16t-26.5 -41l-1 -9h-79zM176 355q0 -15 6.5 -25.5t17.5 -17t25 -11.5t28 -9q34 -11 60 -21t43.5 -24t26.5 -33.5t9 -48.5q0 -79 -49.5 -122t-132.5 -43h-163l11 77h162q42 0 66.5 18.5t24.5 51.5
q0 30 -23 44t-65 25l-39 11t-39.5 17.5t-32 30t-16.5 47.5zM299 565h-60l99 135h110z" />
    <glyph glyph-name="Scircumflex" unicode="&#x15c;" horiz-adv-x="453" 
d="M442 220q0 -103 -54.5 -161.5t-155.5 -58.5h-173l11 81h173q55 0 84 32t29 94q0 26 -8 43t-21.5 28t-32 18.5t-39.5 14.5q-26 9 -51.5 20.5t-45 30t-30.5 47.5t-8 74l89 34l-1 -5q-6 -33 0 -54t20.5 -34t34.5 -21t42 -15q27 -9 51.5 -21.5t43.5 -31.5t30.5 -47t11.5 -68z
M318 619q-91 0 -109 -98h-85q14 87 66.5 133t137.5 46h162l-11 -81h-161zM478 765h-70l-58 69l-79 -69h-70l128 135h60z" />
    <glyph glyph-name="scircumflex" unicode="&#x15d;" horiz-adv-x="405" 
d="M97 357l1 7q8 60 55 98t123 38h136l-11 -77h-136q-38 0 -61.5 -16t-26.5 -41l-1 -9h-79zM176 355q0 -15 6.5 -25.5t17.5 -17t25 -11.5t28 -9q34 -11 60 -21t43.5 -24t26.5 -33.5t9 -48.5q0 -79 -49.5 -122t-132.5 -43h-163l11 77h162q42 0 66.5 18.5t24.5 51.5
q0 30 -23 44t-65 25l-39 11t-39.5 17.5t-32 30t-16.5 47.5zM427 565h-70l-58 69l-79 -69h-70l128 135h60z" />
    <glyph glyph-name="Scedilla" unicode="&#x15e;" horiz-adv-x="453" 
d="M442 220q0 -97 -50 -155.5t-143 -64.5l-21 -47q21 -1 34.5 -7.5t21.5 -15.5t11 -19.5t3 -19.5q0 -12 -5 -25t-16 -24t-28 -18t-40 -7q-10 0 -31 1.5t-41 12.5l14 27q16 -7 31 -9t26 -2q17 0 33 10t16 31q0 17 -13 26t-35 9h-6l-14 13l29 64h-159l11 81h173q55 0 84 32
t29 94q0 26 -8 43t-21.5 28t-32 18.5t-39.5 14.5q-26 9 -51.5 20.5t-45 30t-30.5 47.5t-8 74l89 34l-1 -5q-6 -33 0 -54t20.5 -34t34.5 -21t42 -15q27 -9 51.5 -21.5t43.5 -31.5t30.5 -47t11.5 -68zM318 619q-91 0 -109 -98h-85q14 87 66.5 133t137.5 46h162l-11 -81h-161z
" />
    <glyph glyph-name="scedilla" unicode="&#x15f;" horiz-adv-x="405" 
d="M176 355q0 -15 6.5 -25.5t17.5 -17t25 -11.5t28 -9q34 -11 60 -21t43.5 -24t26.5 -33.5t9 -48.5q0 -75 -45.5 -117.5t-120.5 -47.5l-21 -47q21 -1 34.5 -7.5t21.5 -15.5t11 -19.5t3 -19.5q0 -12 -5 -25t-16 -24t-28 -18t-40 -7q-10 0 -31 1.5t-41 12.5l14 27q16 -7 31 -9
t26 -2q17 0 33 10t16 31q0 17 -13 26t-35 9h-6l-14 13l29 64h-148l11 77h162q42 0 66.5 18.5t24.5 51.5q0 30 -23 44t-65 25l-39 11t-39.5 17.5t-32 30t-16.5 47.5zM97 357l1 7q8 60 55 98t123 38h136l-11 -77h-136q-38 0 -61.5 -16t-26.5 -41l-1 -9h-79z" />
    <glyph glyph-name="Scaron" unicode="&#x160;" horiz-adv-x="453" 
d="M442 220q0 -103 -54.5 -161.5t-155.5 -58.5h-173l11 81h173q55 0 84 32t29 94q0 26 -8 43t-21.5 28t-32 18.5t-39.5 14.5q-26 9 -51.5 20.5t-45 30t-30.5 47.5t-8 74l89 34l-1 -5q-6 -33 0 -54t20.5 -34t34.5 -21t42 -15q27 -9 51.5 -21.5t43.5 -31.5t30.5 -47t11.5 -68z
M318 619q-91 0 -109 -98h-85q14 87 66.5 133t137.5 46h162l-11 -81h-161zM369 765h-60l-90 135h70l59 -69l78 69h70z" />
    <glyph glyph-name="scaron" unicode="&#x161;" horiz-adv-x="405" 
d="M97 357l1 7q8 60 55 98t123 38h136l-11 -77h-136q-38 0 -61.5 -16t-26.5 -41l-1 -9h-79zM176 355q0 -15 6.5 -25.5t17.5 -17t25 -11.5t28 -9q34 -11 60 -21t43.5 -24t26.5 -33.5t9 -48.5q0 -79 -49.5 -122t-132.5 -43h-163l11 77h162q42 0 66.5 18.5t24.5 51.5
q0 30 -23 44t-65 25l-39 11t-39.5 17.5t-32 30t-16.5 47.5zM319 565h-60l-90 135h70l59 -69l78 69h70z" />
    <glyph glyph-name="uni0162" unicode="&#x162;" horiz-adv-x="417" 
d="M338 619l-87 -619h-23l-21 -47q21 -1 34.5 -7.5t21.5 -15.5t11 -19.5t3 -19.5q0 -12 -5 -25t-16 -24t-28 -18t-40 -7q-10 0 -31 1.5t-41 12.5l14 27q16 -7 31.5 -9t26.5 -2q17 0 32.5 10t15.5 31q0 17 -13 26t-35 9h-6l-14 13l29 64h-31l82 585l90 34h-222l11 81h359
l-11 -81h-137z" />
    <glyph glyph-name="uni0163" unicode="&#x163;" horiz-adv-x="325" 
d="M209 495h157l-11 -74h-120l-26 74l-44 -310q-3 -21 -1.5 -40.5t9 -34.5t22.5 -24t40 -9h81l-11 -77h-81l-20 -47q21 -1 34.5 -7.5t21.5 -15.5t11 -19.5t3 -19.5q0 -12 -5 -25t-16 -24t-28 -18t-41 -7q-10 0 -31 1.5t-41 12.5l14 27q16 -7 31.5 -9t26.5 -2q17 0 32.5 10
t15.5 31q0 17 -13 26t-35 9h-6l-14 13l29 66q-65 11 -91 61.5t-16 121.5l60 425h79z" />
    <glyph glyph-name="Tcaron" unicode="&#x164;" horiz-adv-x="417" 
d="M338 619l-87 -619h-85l82 585l90 34h-222l11 81h359l-11 -81h-137zM346 765h-60l-90 135h70l59 -69l78 69h70z" />
    <glyph glyph-name="tcaron" unicode="&#x165;" horiz-adv-x="304" 
d="M208 495h157l-10 -74h-120l-27 74l-43 -310q-3 -21 -2 -40.5t8.5 -34.5t22.5 -24t40 -9h81l-10 -77h-81q-41 0 -69.5 14.5t-45.5 39t-23 58.5t0 73l60 425h78zM327 644l8 56h78l-8 -56q-5 -37 -26.5 -60.5t-59.5 -23.5h-4l5 36h4q20 0 29.5 14.5t12.5 33.5h-39z" />
    <glyph glyph-name="Tbar" unicode="&#x166;" horiz-adv-x="417" 
d="M338 619l-17 -119h121l-8 -58h-121l-62 -442h-85l62 442h-120l8 58h120l12 85l90 34h-222l11 81h359l-11 -81h-137z" />
    <glyph glyph-name="tbar" unicode="&#x167;" horiz-adv-x="325" 
d="M165 185q-3 -21 -2 -40.5t8.5 -34.5t22.5 -24t40 -9h81l-10 -77h-81q-41 0 -69.5 14.5t-45.5 39t-23 58.5t0 73l60 425h78l-16 -115h157l-10 -74h-120l-27 74l-15 -110h157l-11 -74h-120l-26 74z" />
    <glyph glyph-name="Utilde" unicode="&#x168;" horiz-adv-x="488" 
d="M456 161q-5 -34 -21 -64t-42.5 -52.5t-63 -36t-81.5 -13.5t-78 13.5t-53 36t-27.5 52.5t-2.5 64l76 539h85l-76 -539q-5 -35 17 -59.5t71 -24.5q48 0 77 24.5t34 59.5l76 539h85zM420 809q23 0 64 33l18 -42q-27 -21 -49 -32.5t-39 -11.5q-25 0 -69 25t-58 25
q-27 0 -67 -31l-16 42q50 43 90 43q25 0 66 -26q21 -14 36 -19.5t24 -5.5z" />
    <glyph glyph-name="utilde" unicode="&#x169;" horiz-adv-x="449" 
d="M462 500l-50 -356q-4 -30 -18.5 -57.5t-37.5 -47.5t-55 -32t-71 -12q-40 0 -68.5 12t-45.5 32t-23.5 47.5t-2.5 57.5l50 356h78l-50 -356q-4 -29 13.5 -50.5t59.5 -21.5q41 0 64.5 21.5t27.5 50.5l50 356h79zM379 609q23 0 64 33l18 -42q-27 -21 -49 -32.5t-39 -11.5
q-25 0 -69 25t-58 25q-27 0 -67 -31l-16 42q50 43 90 43q25 0 66 -26q21 -14 36 -19.5t24 -5.5z" />
    <glyph glyph-name="Umacron" unicode="&#x16a;" horiz-adv-x="488" 
d="M456 161q-5 -34 -21 -64t-42.5 -52.5t-63 -36t-81.5 -13.5t-78 13.5t-53 36t-27.5 52.5t-2.5 64l76 539h85l-76 -539q-5 -35 17 -59.5t71 -24.5q48 0 77 24.5t34 59.5l76 539h85zM204 831h305l-6 -42h-305z" />
    <glyph glyph-name="umacron" unicode="&#x16b;" horiz-adv-x="448" 
d="M458 500l-50 -356q-4 -30 -18.5 -57.5t-37.5 -47.5t-55 -32t-71 -12q-40 0 -68.5 12t-45.5 32t-23.5 47.5t-2.5 57.5l50 356h78l-50 -356q-4 -29 13.5 -50.5t59.5 -21.5q41 0 64.5 21.5t27.5 50.5l50 356h79zM159 631h305l-6 -42h-305z" />
    <glyph glyph-name="Ubreve" unicode="&#x16c;" horiz-adv-x="488" 
d="M456 161q-5 -34 -21 -64t-42.5 -52.5t-63 -36t-81.5 -13.5t-78 13.5t-53 36t-27.5 52.5t-2.5 64l76 539h85l-76 -539q-5 -35 17 -59.5t71 -24.5q48 0 77 24.5t34 59.5l76 539h85zM485 873q-8 -61 -43.5 -88t-95.5 -27q-61 0 -88.5 27t-19.5 88h63q-5 -38 8.5 -51
t43.5 -13q29 0 46.5 13t22.5 51h63z" />
    <glyph glyph-name="ubreve" unicode="&#x16d;" horiz-adv-x="449" 
d="M458 500l-50 -356q-4 -30 -18.5 -57.5t-37.5 -47.5t-55 -32t-71 -12q-40 0 -68.5 12t-45.5 32t-23.5 47.5t-2.5 57.5l50 356h78l-50 -356q-4 -29 13.5 -50.5t59.5 -21.5q41 0 64.5 21.5t27.5 50.5l50 356h79zM440 673q-8 -61 -43.5 -88t-95.5 -27q-61 0 -88.5 27
t-19.5 88h63q-5 -38 8.5 -51t43.5 -13q29 0 46.5 13t22.5 51h63z" />
    <glyph glyph-name="Uring" unicode="&#x16e;" horiz-adv-x="488" 
d="M456 161q-5 -34 -21 -64t-42.5 -52.5t-63 -36t-81.5 -13.5t-78 13.5t-53 36t-27.5 52.5t-2.5 64l76 539h85l-76 -539q-5 -35 17 -59.5t71 -24.5q48 0 77 24.5t34 59.5l76 539h85zM262 799q0 21 8.5 39t22.5 32t33 22t39 8q35 0 57 -23t22 -56q0 -21 -8.5 -39t-23 -32
t-33.5 -22t-39 -8q-35 0 -56.5 23t-21.5 56zM302 804q0 -19 12 -31.5t32 -12.5q23 0 40 16.5t17 39.5q0 19 -11.5 31.5t-31.5 12.5q-23 0 -40.5 -16.5t-17.5 -39.5z" />
    <glyph glyph-name="uring" unicode="&#x16f;" horiz-adv-x="449" 
d="M458 500l-50 -356q-4 -30 -18.5 -57.5t-37.5 -47.5t-55 -32t-71 -12q-40 0 -68.5 12t-45.5 32t-23.5 47.5t-2.5 57.5l50 356h78l-50 -356q-4 -29 13.5 -50.5t59.5 -21.5q41 0 64.5 21.5t27.5 50.5l50 356h79zM217 599q0 21 8.5 39t22.5 32t33 22t39 8q35 0 57 -23t22 -56
q0 -21 -8.5 -39t-23 -32t-33.5 -22t-39 -8q-35 0 -56.5 23t-21.5 56zM257 604q0 -19 12 -31.5t32 -12.5q23 0 40 16.5t17 39.5q0 19 -11.5 31.5t-31.5 12.5q-23 0 -40.5 -16.5t-17.5 -39.5z" />
    <glyph glyph-name="Uhungarumlaut" unicode="&#x170;" horiz-adv-x="488" 
d="M456 161q-5 -34 -21 -64t-42.5 -52.5t-63 -36t-81.5 -13.5t-78 13.5t-53 36t-27.5 52.5t-2.5 64l76 539h85l-76 -539q-5 -35 17 -59.5t71 -24.5q48 0 77 24.5t34 59.5l76 539h85zM294 765h-40l99 135h70zM410 765h-40l99 135h70z" />
    <glyph glyph-name="uhungarumlaut" unicode="&#x171;" horiz-adv-x="435" 
d="M458 500l-50 -356q-4 -30 -18.5 -57.5t-37.5 -47.5t-55 -32t-71 -12q-40 0 -68.5 12t-45.5 32t-23.5 47.5t-2.5 57.5l50 356h78l-50 -356q-4 -29 13.5 -50.5t59.5 -21.5q41 0 64.5 21.5t27.5 50.5l50 356h79zM248 565h-40l99 135h70zM364 565h-40l99 135h70z" />
    <glyph glyph-name="Uogonek" unicode="&#x172;" horiz-adv-x="488" 
d="M248 -10q-45 0 -78 14t-53 37.5t-27.5 54.5t-2.5 65l76 539h85l-76 -539q-5 -35 17 -59.5t71 -24.5q48 0 77 24.5t34 59.5l76 539h84l-74 -530q-7 -47 -31 -87t-63 -64q-28 -23 -46 -51t-18 -50q0 -36 39 -36q20 0 51 14l10 -36q-16 -9 -36.5 -15t-41.5 -6q-32 0 -51 19
t-19 48q0 20 10 41t33 47q-11 -2 -22 -3t-24 -1z" />
    <glyph glyph-name="uogonek" unicode="&#x173;" horiz-adv-x="449" 
d="M226 -5q-40 0 -68.5 12t-45.5 32t-23.5 47.5t-2.5 57.5l50 356h78l-50 -356q-4 -29 13.5 -50.5t59.5 -21.5q41 0 64.5 21.5t27.5 50.5l50 356h79l-51 -365q-5 -37 -25.5 -68t-55.5 -50q-27 -23 -44.5 -50t-17.5 -49q0 -36 40 -36q19 0 51 14l9 -36q-16 -9 -36 -15t-41 -6
q-33 0 -51.5 19t-18.5 48q0 20 10.5 42.5t35.5 48.5q-9 -1 -18 -1.5t-19 -0.5z" />
    <glyph glyph-name="Wcircumflex" unicode="&#x174;" horiz-adv-x="712" 
d="M258 0h-79l-52 700h86l32 -429q2 -25 0 -50t-2 -50q6 25 11 50t14 50l152 429h79l32 -429q2 -25 -0.5 -50t-2.5 -50l11.5 50t14.5 50l151 429h86l-247 -700h-80l-31 430q-2 23 -1 45l2 45q-7 -23 -11.5 -45t-12.5 -45zM611 765h-70l-58 69l-79 -69h-70l128 135h60z" />
    <glyph glyph-name="wcircumflex" unicode="&#x175;" horiz-adv-x="651" 
d="M665 500l-50 -356q-4 -30 -18 -57.5t-36 -47.5t-52 -32t-67 -12q-38 0 -64.5 14.5t-40.5 37.5q-22 -23 -52 -37.5t-68 -14.5q-37 0 -63.5 12t-43 32t-22.5 47.5t-2 57.5l50 356h79l-50 -356q-4 -29 11.5 -50.5t51.5 -21.5t57.5 21.5t25.5 50.5l50 356h79l-50 -356
q-4 -29 11.5 -50.5t51.5 -21.5t57.5 21.5t25.5 50.5l50 356h79zM543 565h-70l-58 69l-79 -69h-70l128 135h60z" />
    <glyph glyph-name="Ycircumflex" unicode="&#x176;" horiz-adv-x="475" 
d="M463 700h91l-231 -426l-38 -274h-86l38 275l-110 425h92l65 -255q5 -19 6 -38.5t3 -39.5q8 20 15 40t17 39zM481 765h-70l-58 69l-79 -69h-70l128 135h60z" />
    <glyph glyph-name="ycircumflex" unicode="&#x177;" horiz-adv-x="426" 
d="M218 189q5 -31 4 -63t1 -64q11 32 20 63.5t22 62.5l130 312h77l-310 -750h-78l85 208l-39 271.5l-39 270.5h81zM435 565h-70l-58 69l-79 -69h-70l128 135h60z" />
    <glyph glyph-name="Ydieresis" unicode="&#x178;" horiz-adv-x="475" 
d="M463 700h91l-231 -426l-38 -274h-86l38 275l-110 425h92l65 -255q5 -19 6 -38.5t3 -39.5q8 20 15 40t17 39zM248 855h75l-13 -90h-75zM368 855h75l-13 -90h-75z" />
    <glyph glyph-name="Zacute" unicode="&#x179;" horiz-adv-x="395" 
d="M141 81h242l-11 -81h-340l8 59l321 560h-242l11 81h340l-8 -59zM320 765h-60l99 135h110z" />
    <glyph glyph-name="zacute" unicode="&#x17a;" horiz-adv-x="371" 
d="M147 77h207l-11 -77h-306l8 56l259 367h-208l11 77h306l-8 -56zM281 565h-60l99 135h110z" />
    <glyph glyph-name="Zdotaccent" unicode="&#x17b;" horiz-adv-x="395" 
d="M141 81h242l-11 -81h-340l8 59l321 560h-242l11 81h340l-8 -59zM291 855h75l-13 -90h-75z" />
    <glyph glyph-name="zdotaccent" unicode="&#x17c;" horiz-adv-x="371" 
d="M147 77h207l-11 -77h-306l8 56l259 367h-208l11 77h306l-8 -56zM252 655h75l-13 -90h-75z" />
    <glyph glyph-name="Zcaron" unicode="&#x17d;" horiz-adv-x="395" 
d="M141 81h242l-11 -81h-340l8 59l321 560h-242l11 81h340l-8 -59zM340 765h-60l-90 135h70l59 -69l78 69h70z" />
    <glyph glyph-name="zcaron" unicode="&#x17e;" horiz-adv-x="371" 
d="M147 77h207l-11 -77h-306l8 56l259 367h-208l11 77h306l-8 -56zM303 565h-60l-90 135h70l59 -69l78 69h70z" />
    <glyph glyph-name="florin" unicode="&#x192;" horiz-adv-x="339" 
d="M165 -41q-4 -29 -19 -54.5t-40.5 -44t-61 -29.5t-80.5 -11l11 75q30 0 51 5.5t34 14.5t19.5 20.5t8.5 23.5l65 462h-75l11 74h74l13 91q4 31 18.5 58t37.5 47.5t55.5 32t73.5 11.5h52l-11 -75h-52q-25 0 -42.5 -6t-29 -16.5t-17 -24t-7.5 -27.5zM398 495l-11 -74h-120
l-26 74h157z" />
    <glyph glyph-name="aeacute" unicode="&#x1fd;" horiz-adv-x="667" 
d="M459 0q-45 0 -73.5 18t-42.5 47q-23 -33 -57 -51.5t-85 -18.5q-75 0 -104.5 32t-29.5 84q0 45 15 77t40 54t57 34.5t67 17.5l93 15l7 43q4 29 -13 50t-53 21h-137l10 77h137q39 0 65 -16t39 -43q21 31 55.5 49.5t81.5 18.5q39 0 67 -11t45.5 -30t24.5 -44.5t3 -53.5
l-21 -151h-246l-10 -71q-5 -30 14 -50.5t62 -20.5h146l-11 -77h-146zM415 295h167l10 75q4 26 -14.5 44t-57.5 18q-43 0 -67.5 -21t-28.5 -50zM216 74q45 0 71 24t31 59l11 74l-81 -14q-20 -3 -38 -9.5t-32 -17t-22.5 -27t-8.5 -39.5q0 -22 14 -36t55 -14zM440 565h-60
l99 135h110z" />
    <glyph glyph-name="oslashacute" unicode="&#x1ff;" horiz-adv-x="431" 
d="M230 72q43 0 68.5 21.5t29.5 50.5l25 176l84 35l-30 -211q-4 -30 -19 -57.5t-39 -47.5t-57 -32t-73 -12q-42 0 -70.5 12t-47.5 32l-53 -63l-28 23l61 73q-14 33 -8 72l30 212q4 30 19 57.5t39 47.5t56.5 32t73.5 12t70 -12t48 -32l54 64l28 -23l-63 -73q7 -17 9.5 -35
t-0.5 -38h-70l-210 -249q8 -16 26 -25.5t47 -9.5zM154 159l199 235q-9 15 -27 24.5t-46 9.5q-44 0 -69 -21.5t-29 -50.5zM322 565h-60l99 135h110z" />
    <glyph glyph-name="uni0218" unicode="&#x218;" horiz-adv-x="453" 
d="M442 220q0 -103 -54.5 -161.5t-155.5 -58.5h-173l11 81h173q55 0 84 32t29 94q0 26 -8 43t-21.5 28t-32 18.5t-39.5 14.5q-26 9 -51.5 20.5t-45 30t-30.5 47.5t-8 74l89 34l-1 -5q-6 -33 0 -54t20.5 -34t34.5 -21t42 -15q27 -9 51.5 -21.5t43.5 -31.5t30.5 -47t11.5 -68z
M318 619q-91 0 -109 -98h-85q14 87 66.5 133t137.5 46h162l-11 -81h-161zM178 -115l9 60h72l-9 -60q-4 -29 -21 -48t-46 -19h-14l5 33h14q13 0 18.5 10t7.5 24h-36z" />
    <glyph glyph-name="uni0219" unicode="&#x219;" horiz-adv-x="405" 
d="M97 357l1 7q8 60 55 98t123 38h136l-11 -77h-136q-38 0 -61.5 -16t-26.5 -41l-1 -9h-79zM176 355q0 -15 6.5 -25.5t17.5 -17t25 -11.5t28 -9q34 -11 60 -21t43.5 -24t26.5 -33.5t9 -48.5q0 -79 -49.5 -122t-132.5 -43h-163l11 77h162q42 0 66.5 18.5t24.5 51.5
q0 30 -23 44t-65 25l-39 11t-39.5 17.5t-32 30t-16.5 47.5zM157 -115l9 60h72l-9 -60q-4 -29 -21 -48t-46 -19h-14l5 33h14q13 0 18.5 10t7.5 24h-36z" />
    <glyph glyph-name="uni021A" unicode="&#x21a;" horiz-adv-x="407" 
d="M338 619l-87 -619h-85l82 585l90 34h-222l11 81h359l-11 -81h-137zM156 -115l9 60h72l-9 -60q-4 -29 -21 -48t-46 -19h-14l5 33h14q13 0 18.5 10t7.5 24h-36z" />
    <glyph glyph-name="uni021B" unicode="&#x21b;" horiz-adv-x="325" 
d="M208 495h157l-10 -74h-120l-27 74l-43 -310q-3 -21 -2 -40.5t8.5 -34.5t22.5 -24t40 -9h81l-10 -77h-81q-41 0 -69.5 14.5t-45.5 39t-23 58.5t0 73l60 425h78zM114 -115l9 60h72l-9 -60q-4 -29 -21 -48t-46 -19h-14l5 33h14q13 0 18.5 10t7.5 24h-36z" />
    <glyph glyph-name="dotlessj" unicode="&#x237;" horiz-adv-x="197" 
d="M30 -241l104 741h79l-99 -706z" />
    <glyph glyph-name="circumflex" unicode="&#x2c6;" horiz-adv-x="397" 
d="M421 565h-70l-58 69l-79 -69h-70l128 135h60z" />
    <glyph glyph-name="caron" unicode="&#x2c7;" horiz-adv-x="397" 
d="M313 565h-60l-90 135h70l59 -69l78 69h70z" />
    <glyph glyph-name="breve" unicode="&#x2d8;" horiz-adv-x="347" 
d="M396 673q-8 -61 -43.5 -88t-95.5 -27q-61 0 -88.5 27t-19.5 88h63q-5 -38 8.5 -51t43.5 -13q29 0 46.5 13t22.5 51h63z" />
    <glyph glyph-name="dotaccent" unicode="&#x2d9;" horiz-adv-x="175" 
d="M147 655h75l-13 -90h-75z" />
    <glyph glyph-name="ring" unicode="&#x2da;" horiz-adv-x="212" 
d="M106 599q0 21 8.5 39t22.5 32t33 22t39 8q35 0 57 -23t22 -56q0 -21 -8.5 -39t-23 -32t-33.5 -22t-39 -8q-35 0 -56.5 23t-21.5 56zM146 604q0 -19 12 -31.5t32 -12.5q23 0 40 16.5t17 39.5q0 19 -11.5 31.5t-31.5 12.5q-23 0 -40.5 -16.5t-17.5 -39.5z" />
    <glyph glyph-name="ogonek" unicode="&#x2db;" horiz-adv-x="273" 
d="M51 -94q0 25 16.5 53t55.5 63l19 -22q-21 -24 -32.5 -44.5t-11.5 -37.5q0 -36 40 -36q20 0 51 14l10 -36q-17 -9 -37 -15t-41 -6q-33 0 -51.5 19t-18.5 48z" />
    <glyph glyph-name="tilde" unicode="&#x2dc;" horiz-adv-x="400" 
d="M358 609q23 0 64 33l18 -42q-27 -21 -49 -32.5t-39 -11.5q-25 0 -69 25t-58 25q-27 0 -67 -31l-16 42q50 43 90 43q25 0 66 -26q21 -14 36 -19.5t24 -5.5z" />
    <glyph glyph-name="hungarumlaut" unicode="&#x2dd;" horiz-adv-x="362" 
d="M172 565h-40l99 135h70zM288 565h-40l99 135h70z" />
    <glyph glyph-name="uni0400" unicode="&#x400;" horiz-adv-x="433" 
d="M186 188q-13 -107 79 -107h151l-12 -81h-152q-88 0 -126.5 48.5t-25.5 139.5l72 512h331l-12 -81h-246zM213 391h199l-11 -82h-164zM251 900h110l61 -135h-60z" />
    <glyph glyph-name="uni0401" unicode="&#x401;" horiz-adv-x="443" 
d="M186 188q-13 -107 79 -107h151l-12 -81h-152q-88 0 -126.5 48.5t-25.5 139.5l72 512h331l-12 -81h-246zM213 391h199l-11 -82h-164zM260 855h75l-13 -90h-75zM380 855h75l-13 -90h-75z" />
    <glyph glyph-name="uni0402" unicode="&#x402;" horiz-adv-x="536" 
d="M442 317q4 27 2 48.5t-12.5 36.5t-29.5 23.5t-50 8.5q-29 0 -54.5 -13t-45.5 -35l-54 -386h-85l87 619h-90l11 81h369l-11 -81h-194l-5 -37q-4 -23 -7.5 -46.5t-8.5 -46.5q23 12 50.5 19.5t59.5 7.5q44 0 75.5 -16t50.5 -43.5t26 -63.5t1 -76l-20 -137q-5 -38 -20.5 -71
t-39.5 -57t-57.5 -38t-74.5 -14h-54l11 81h54q42 0 66 28.5t30 70.5z" />
    <glyph glyph-name="uni0403" unicode="&#x403;" horiz-adv-x="387" 
d="M83 0l98 700h303l-11 -81h-218l-87 -619h-85zM325 765h-60l99 135h110z" />
    <glyph glyph-name="uni0404" unicode="&#x404;" horiz-adv-x="424" 
d="M176 188q-15 -107 79 -107h161l-12 -81h-162q-88 0 -126 48.5t-25 139.5l45 324q13 91 65 139.5t140 48.5h162l-12 -81h-161q-93 0 -109 -107zM204 391h217l-11 -82h-182z" />
    <glyph glyph-name="uni0405" unicode="&#x405;" horiz-adv-x="453" 
d="M442 220q0 -103 -54.5 -161.5t-155.5 -58.5h-173l11 81h173q55 0 84 32t29 94q0 26 -8 43t-21.5 28t-32 18.5t-39.5 14.5q-26 9 -51.5 20.5t-45 30t-30.5 47.5t-8 74l89 34l-1 -5q-6 -33 0 -54t20.5 -34t34.5 -21t42 -15q27 -9 51.5 -21.5t43.5 -31.5t30.5 -47t11.5 -68z
M318 619q-91 0 -109 -98h-85q14 87 66.5 133t137.5 46h162l-11 -81h-161z" />
    <glyph glyph-name="uni0406" unicode="&#x406;" horiz-adv-x="221" 
d="M256 700l-98 -700h-85l98 700h85z" />
    <glyph glyph-name="uni0407" unicode="&#x407;" horiz-adv-x="221" 
d="M134 855h75l-13 -90h-75zM254 855h75l-13 -90h-75zM256 700l-98 -700h-85l98 700h85z" />
    <glyph glyph-name="uni0408" unicode="&#x408;" horiz-adv-x="324" 
d="M283 700h85l-72 -512q-12 -91 -64 -139.5t-140 -48.5h-68l11 81h67q94 0 109 107z" />
    <glyph glyph-name="uni0409" unicode="&#x409;" horiz-adv-x="647" 
d="M320 619h-83l14 81h242l-35 -251h38q43 0 75 -13.5t51.5 -36.5t27 -54t2.5 -66l-15 -109q-5 -35 -21 -65.5t-42.5 -54t-62 -37t-78.5 -13.5h-123l87 619h-77q-27 -164 -51.5 -281t-52.5 -192t-62 -110.5t-79 -35.5h-54l11 81h45q21 0 38 25.5t34.5 84.5t37 155.5
t44.5 239.5zM444 81q45 0 73.5 26.5t33.5 62.5l15 109q5 36 -15 62.5t-66 26.5h-3l-24 81l-52 -368h38z" />
    <glyph glyph-name="uni040A" unicode="&#x40a;" horiz-adv-x="665" 
d="M158 0h-85l98 700h85zM213 391h169l43 309h86l-87 -619h38q45 0 74 26.5t34 62.5l15 109q5 36 -15.5 62.5t-66.5 26.5h-3l-24 81h38q43 0 75 -13.5t51.5 -36.5t27 -54t2.5 -66l-15 -109q-5 -35 -21 -65.5t-42.5 -54t-62 -37t-78.5 -13.5h-124l43 309h-131z" />
    <glyph glyph-name="uni040B" unicode="&#x40b;" horiz-adv-x="495" 
d="M205 0h-85l87 619h-100l11 81h360l-11 -81h-175zM268 449h75q44 0 75.5 -14.5t51 -39t26.5 -57t2 -68.5l-38 -270h-85l38 270q5 40 -14.5 69t-66.5 29h-40z" />
    <glyph glyph-name="uni040C" unicode="&#x40c;" horiz-adv-x="480" 
d="M356 765h-60l99 135h110zM158 0h-85l98 700h85zM205 391h26l226 309h94l-249 -341l161 -359h-95l-139 309z" />
    <glyph glyph-name="uni040D" unicode="&#x40d;" horiz-adv-x="495" 
d="M400 308l35 194l-284 -502h-78l98 700h85l-43 -309l-34 -191l141.5 251l140.5 249h79l-98 -700h-85zM251 900h110l61 -135h-60z" />
    <glyph glyph-name="uni040E" unicode="&#x40e;" horiz-adv-x="469" 
d="M465 700h88l-242 -564l-20 -45t-27.5 -45t-39.5 -34.5t-55 -13.5h-58l11 81h58q11 0 19 7t13.5 18t10 24t9.5 25l-89 547h87l55 -336q4 -25 4.5 -50.5t2.5 -51.5q8 26 13.5 51.5t16.5 50.5zM480 873q-8 -61 -43.5 -88t-95.5 -27q-61 0 -88.5 27t-19.5 88h63
q-5 -38 8.5 -51t43.5 -13q29 0 46.5 13t22.5 51h63z" />
    <glyph glyph-name="uni040F" unicode="&#x40f;" horiz-adv-x="505" 
d="M176 700h85l-87 -619h189l87 619h85l-98 -700h-137l-21 -150h-85l21 150h-137z" />
    <glyph glyph-name="uni0410" unicode="&#x410;" 
d="M222 257h143l-27 218q-4 29 -1 58t3 58q-7 -29 -12.5 -58t-16.5 -58l-196 -475h-87l290 700h75l94 -700h-87l-23 176h-131z" />
    <glyph glyph-name="uni0411" unicode="&#x411;" horiz-adv-x="484" 
d="M219 435h85q43 0 75 -13t52 -34.5t27.5 -51t3.5 -62.5l-16 -113q-5 -33 -21 -62.5t-42 -51t-61.5 -34.5t-78.5 -13h-170l98 700h321l-11 -81h-236l-76 -538h85q52 0 76.5 24t29.5 56l16 113q2 16 -1 30.5t-12.5 25.5t-26.5 17.5t-43 6.5h-50z" />
    <glyph glyph-name="uni0412" unicode="&#x412;" horiz-adv-x="474" 
d="M171 700h160q44 0 76 -13.5t51.5 -37t27 -54.5t2.5 -65l-8 -52q-6 -39 -32.5 -71.5t-75.5 -53.5q42 -22 64.5 -57t17.5 -74l-7 -52q-5 -35 -21 -65.5t-42.5 -54t-62 -37t-78.5 -13.5h-170zM279 391q51 0 81 25.5t35 61.5l7 52q5 36 -15 62.5t-67 26.5h-75l-76 -538h85
q46 0 74 26.5t33 62.5l7 52q5 36 -18 61.5t-74 25.5h-40l-23 82h66z" />
    <glyph glyph-name="uni0413" unicode="&#x413;" horiz-adv-x="387" 
d="M73 0l98 700h303l-11 -81h-218l-87 -619h-85z" />
    <glyph glyph-name="uni0414" unicode="&#x414;" horiz-adv-x="487" 
d="M225 586l90 33h-85l14 81h280l-82 -586l-90 -33l76 538h-113q-35 -209 -68.5 -341t-76.5 -197h315l-32 -231h-81l21 150h-293l-21 -150h-79l32 231q31 0 55.5 25.5t46 85t43.5 156t48 238.5z" />
    <glyph glyph-name="uni0415" unicode="&#x415;" horiz-adv-x="443" 
d="M186 188q-13 -107 79 -107h151l-12 -81h-152q-88 0 -126.5 48.5t-25.5 139.5l72 512h331l-12 -81h-246zM213 391h199l-11 -82h-164z" />
    <glyph glyph-name="uni0416" unicode="&#x416;" horiz-adv-x="744" 
d="M518 700l-43 -309h18l225 309h95l-250 -341l161 -359h-94l-160 354l-50 -354h-85l43 309h-28l-225 -309h-95l260 359l-152 341h94l154 -340l47 340h85z" />
    <glyph glyph-name="uni0417" unicode="&#x417;" horiz-adv-x="432" 
d="M204 81q49 0 79.5 24t35.5 56l8 61q5 36 -18.5 61.5t-72.5 25.5h-109l-22 82h141q47 0 74.5 25.5t32.5 61.5l9 61q5 32 -16 56t-68 24h-161l11 81h161q44 0 76 -13t51.5 -35t27 -51t3.5 -62l-9 -61q-5 -38 -27 -71.5t-59 -55.5q33 -21 49.5 -55t10.5 -74l-8 -61
q-5 -33 -21.5 -62t-43.5 -51t-64 -35t-82 -13h-161l11 81h161z" />
    <glyph glyph-name="uni0418" unicode="&#x418;" horiz-adv-x="505" 
d="M400 308l35 194l-284 -502h-78l98 700h85l-43 -309l-34 -191l141.5 251l140.5 249h79l-98 -700h-85z" />
    <glyph glyph-name="uni0419" unicode="&#x419;" horiz-adv-x="505" 
d="M400 308l35 194l-284 -502h-78l98 700h85l-43 -309l-34 -191l141.5 251l140.5 249h79l-98 -700h-85zM494 873q-8 -61 -43.5 -88t-95.5 -27q-61 0 -88.5 27t-19.5 88h63q-5 -38 8.5 -51t43.5 -13q29 0 46.5 13t22.5 51h63z" />
    <glyph glyph-name="uni041A" unicode="&#x41a;" horiz-adv-x="480" 
d="M158 0h-85l98 700h85zM205 391h26l226 309h94l-249 -341l161 -359h-95l-139 309z" />
    <glyph glyph-name="uni041B" unicode="&#x41b;" horiz-adv-x="486" 
d="M320 619h-84l14 81h271l-98 -700h-85l87 619h-105q-27 -164 -52 -281t-52.5 -192t-61.5 -110.5t-79 -35.5h-54l11 81h44q21 0 38 25.5t34.5 84.5t37 155.5t44.5 239.5z" />
    <glyph glyph-name="uni041C" unicode="&#x41c;" horiz-adv-x="591" 
d="M516 700h109l-98 -700h-85l69 493l-9 -35l-151 -365h-76l-49 365v34q-3 -28 -7 -57l-8 -58l-53 -377h-85l98 700h110l44 -332q4 -32 5 -65t3 -65l22 66t24 64z" />
    <glyph glyph-name="uni041D" unicode="&#x41d;" horiz-adv-x="505" 
d="M158 0h-85l98 700h85zM213 392h199l43 308h85l-98 -700h-85l43 308h-164z" />
    <glyph glyph-name="uni041E" unicode="&#x41e;" 
d="M440 521q5 52 -16 77t-65 25h-28q-94 0 -110 -111l-46 -324q-8 -57 13 -84t67 -27h28q94 0 110 111l41 295l90 34l-46 -329q-13 -93 -65.5 -143t-140.5 -50h-30q-88 0 -126.5 50t-25.5 143l46 324q13 93 65.5 143t140.5 50h30q39 0 70.5 -11.5t52.5 -33t29.5 -53.5
t2.5 -73l-2 -13h-85z" />
    <glyph glyph-name="uni041F" unicode="&#x41f;" horiz-adv-x="495" 
d="M155 586l90 33l-87 -619h-85zM160 619l11 81h359l-98 -700h-85l87 619h-274z" />
    <glyph glyph-name="uni0420" unicode="&#x420;" horiz-adv-x="449" 
d="M73 0l98 700h161q44 0 75.5 -14.5t51 -39t26.5 -57t2 -69.5l-13 -90q-5 -36 -21.5 -68.5t-42.5 -57t-61.5 -39t-79.5 -14.5h-40l-23 81l-47 -332h-86zM281 332q47 0 74.5 29t33.5 69l13 90q6 40 -14 69.5t-67 29.5h-75l-40 -287h75z" />
    <glyph glyph-name="uni0421" unicode="&#x421;" horiz-adv-x="424" 
d="M176 188q-15 -107 79 -107h161l-12 -81h-162q-88 0 -126 48.5t-25 139.5l41 295l90 34l-1 -5zM330 619q-91 0 -107 -98h-85q14 86 66 132.5t137 46.5h162l-12 -81h-161z" />
    <glyph glyph-name="uni0422" unicode="&#x422;" horiz-adv-x="417" 
d="M338 619l-87 -619h-85l82 585l90 34h-222l11 81h359l-11 -81h-137z" />
    <glyph glyph-name="uni0423" unicode="&#x423;" horiz-adv-x="469" 
d="M455 700h88l-242 -564l-20 -45t-27.5 -45t-39.5 -34.5t-55 -13.5h-58l11 81h58q11 0 19 7t13.5 18t10 24t9.5 25l-89 547h87l55 -336q4 -25 4.5 -50.5t2.5 -51.5q8 26 13.5 51.5t16.5 50.5z" />
    <glyph glyph-name="uni0424" unicode="&#x424;" horiz-adv-x="563" 
d="M346 117l-17 -117h-85l12 85h-14q-45 0 -77.5 13.5t-53 37t-28 54t-2.5 65.5l27 190q5 34 21.5 65t43 54.5t63 37t81.5 13.5l9 -33l16 118h85l-11 -85h14q45 0 77.5 -13.5t53 -37t28 -54.5t2.5 -65l-27 -190q-5 -35 -21.5 -65.5t-43.5 -54t-63 -37t-81 -13.5zM267 166
l52 368h-14q-49 0 -78 -26.5t-34 -62.5l-27 -190q-5 -36 16 -62.5t71 -26.5h14zM352 166h14q49 0 78.5 26.5t34.5 62.5l27 190q5 36 -17 62.5t-71 26.5h-14z" />
    <glyph glyph-name="uni0425" unicode="&#x425;" horiz-adv-x="489" 
d="M119 0h-90l225 359l-117 341h90l55 -159q9 -26 15 -53t14 -54l27 54t30 53l100 159h90l-215 -341l126 -359h-90l-55 161q-11 32 -18.5 64.5l-15.5 64.5l-33.5 -64.5t-36.5 -64.5z" />
    <glyph glyph-name="uni0426" unicode="&#x426;" horiz-adv-x="493" 
d="M73 0l98 700h86l-87 -619h321l-31 -223h-80l20 142h-327zM359 81l87 619h85l-82 -586z" />
    <glyph glyph-name="uni0427" unicode="&#x427;" horiz-adv-x="455" 
d="M404 700h86l-99 -700h-86zM317 332l23 -81h-75q-44 0 -75.5 14.5t-50.5 39t-26 57t-2 68.5l38 270h85l-38 -270q-5 -40 14.5 -69t66.5 -29h40z" />
    <glyph glyph-name="uni0428" unicode="&#x428;" horiz-adv-x="647" 
d="M510 81l87 619h85l-98 -700h-511l98 700h85l-87 -619h341zM297 81l87 619h85l-82 -586z" />
    <glyph glyph-name="uni0429" unicode="&#x429;" horiz-adv-x="644" 
d="M73 0l98 700h85l-87 -619h127h213l87 619h85l-87 -619h48l-32 -231h-81l21 150h-477zM296 81l87 619h85l-82 -586z" />
    <glyph glyph-name="uni042A" unicode="&#x42a;" horiz-adv-x="504" 
d="M92 619l11 81h208l-11 -81h-208zM210 586l90 33l-76 -538h76q46 0 74 29.5t34 69.5l13 90q6 40 -14 69t-66 29h-41l-24 81h76q43 0 75 -14.5t51.5 -39t26.5 -57t2 -68.5l-13 -90q-5 -37 -21.5 -69.5t-43 -57t-62 -39t-78.5 -14.5h-161z" />
    <glyph glyph-name="uni042B" unicode="&#x42b;" horiz-adv-x="608" 
d="M642 700l-98 -700h-85l98 700h85zM222 449h76q43 0 75 -14.5t51.5 -39t26.5 -57t2 -68.5l-13 -90q-5 -37 -21.5 -69.5t-42.5 -57t-62 -39t-79 -14.5h-161l98 700h85l-87 -619h76q46 0 74.5 29.5t33.5 69.5l13 90q5 40 -15 69t-65 29h-41z" />
    <glyph glyph-name="uni042C" unicode="&#x42c;" horiz-adv-x="449" 
d="M222 449h75q44 0 75.5 -14.5t51 -39t26.5 -57t2 -68.5l-13 -90q-5 -37 -21 -69.5t-42.5 -57t-62 -39t-79.5 -14.5h-161l98 700h86l-87 -619h75q47 0 75.5 29.5t33.5 69.5l13 90q5 40 -14.5 69t-66.5 29h-40z" />
    <glyph glyph-name="uni042D" unicode="&#x42d;" horiz-adv-x="424" 
d="M357 512q15 107 -80 107h-160l11 81h161q88 0 127 -48.5t26 -139.5l-46 -324q-13 -91 -65 -139.5t-140 -48.5h-161l11 81h160q95 0 110 107zM305 391l23 -82h-218l12 82h183z" />
    <glyph glyph-name="uni042E" unicode="&#x42e;" horiz-adv-x="647" 
d="M158 0h-85l98 700h85zM213 391h76l21 148q5 35 21 66t42 54t61.5 36.5t79.5 13.5q43 0 74.5 -13.5t51 -36.5t27 -54t2.5 -66l-53 -378q-5 -35 -21 -66t-42 -54t-61.5 -36.5t-78.5 -13.5q-44 0 -76 13.5t-51.5 36.5t-26.5 54t-2 66l21 148h-42zM584 539q5 36 -15.5 62.5
t-66.5 26.5q-47 0 -74.5 -26.5t-32.5 -62.5l-53 -378q-5 -36 15 -62.5t67 -26.5q46 0 74 26.5t33 62.5z" />
    <glyph glyph-name="uni042F" unicode="&#x42f;" horiz-adv-x="465" 
d="M489 619h-160q-47 0 -75 -29.5t-34 -69.5l-13 -90q-5 -40 15 -69t67 -29h40l23 -81h-78l-132 -251h-91l140 271q-43 23 -60 65t-9 94l13 90q5 37 21.5 69.5t42.5 57t61.5 39t79.5 14.5h160zM399 586l90 33l-87 -619h-85z" />
    <glyph glyph-name="uni0430" unicode="&#x430;" horiz-adv-x="429" 
d="M316 37q-22 -20 -50.5 -31t-63.5 -11q-44 0 -71.5 10.5t-42.5 29.5t-19 45.5t1 58.5l30 213q4 30 18 57t37 47.5t53.5 32t67.5 11.5h15q37 0 64 -11.5t43.5 -32t23 -47.5t2.5 -57l-50 -352h-53zM149 138q-2 -14 -1 -25.5t8 -20t21.5 -13.5t39.5 -5q45 0 71.5 29.5
t32.5 72.5l25 176q4 29 -13 50t-53 21h-15q-36 0 -59 -21t-27 -50z" />
    <glyph glyph-name="uni0431" unicode="&#x431;" horiz-adv-x="445" 
d="M235 425l-26 75h91q39 0 68 -11.5t47 -31t25.5 -46t3.5 -55.5l-30 -212q-4 -30 -19 -57.5t-39 -47.5t-57 -32t-73 -12q-41 0 -70 12t-47.5 32t-25.5 47.5t-3 57.5l54 381q7 51 29 84.5t49 53.5t54.5 29.5t45.5 13.5l152 36l9 -74l-151 -36q-12 -3 -29 -9t-33.5 -18.5
t-29.5 -32.5t-17 -49l-54 -379q-4 -29 15 -50.5t63 -21.5q43 0 68.5 21.5t29.5 50.5l30 212q5 29 -15 49t-60 20h-55z" />
    <glyph glyph-name="uni0432" unicode="&#x432;" horiz-adv-x="429" 
d="M121 374q8 56 47 91t102 35h33q72 0 106 -35t26 -91l-5 -37q-4 -28 -23 -48t-48 -33q30 -14 46 -36t11 -54l-5 -37q-8 -62 -56 -95.5t-122 -33.5h-33q-63 0 -92.5 35t-21.5 91zM188 291h84q35 0 55.5 10t24.5 35l5 37q3 23 -12 36.5t-53 13.5h-33q-29 0 -43 -13.5
t-17 -36.5l-34 -246q-3 -23 7 -36.5t39 -13.5h35q44 0 63 12.5t23 38.5l5 37q4 28 -14.5 38.5t-61.5 10.5h-48z" />
    <glyph glyph-name="uni0433" unicode="&#x433;" horiz-adv-x="405" 
d="M144 132q0 -27 19.5 -41t54.5 -14h162l-10 -77h-163q-67 0 -104.5 31t-37.5 92q0 41 11 68t33.5 45.5t56.5 31t79 24.5l31 9t31.5 14t24.5 22t10 34q0 24 -18.5 38t-53.5 14h-136l11 77h136q69 0 105 -32t36 -88q0 -48 -18 -78t-44.5 -47.5t-55.5 -25.5t-50 -13
q-57 -13 -83.5 -31t-26.5 -53z" />
    <glyph glyph-name="uni0434" unicode="&#x434;" horiz-adv-x="445" 
d="M350 500l25 -75h-91q-41 0 -65.5 -20t-29.5 -49l-30 -212q-4 -29 15 -50.5t63 -21.5q43 0 68.5 21.5t29.5 50.5l55 387q4 29 -3.5 48.5t-21 32t-29 19t-26.5 9.5l-70 18l-70 18l29 74l143 -36q17 -4 41.5 -13.5t46 -29.5t34 -53.5t5.5 -84.5l-55 -389q-4 -30 -19 -57.5
t-39 -47.5t-57 -32t-73 -12q-41 0 -70 12t-47.5 32t-25.5 47.5t-3 57.5l30 212q4 29 18.5 55.5t38 46t56 31t71.5 11.5h56z" />
    <glyph glyph-name="uni0435" unicode="&#x435;" horiz-adv-x="432" 
d="M178 277h81q43 0 66.5 20.5t28.5 50.5l3 22q3 24 -15 41t-58 17q-43 0 -66.5 -20t-28.5 -47l-29 -213q-5 -30 13.5 -50.5t61.5 -20.5h146l-11 -77h-146q-41 0 -70 11.5t-46.5 31.5t-24.5 47t-2 58l29 213q4 30 18.5 56t38 45.5t55.5 31t73 11.5q39 0 67.5 -10.5t46 -29
t24.5 -43t3 -52.5l-3 -22q-4 -31 -18 -58t-37.5 -47t-56 -31.5t-73.5 -11.5h-45z" />
    <glyph glyph-name="uni0436" unicode="&#x436;" horiz-adv-x="619" 
d="M354 0h-79l70 500h79zM395 295h64l7 48q4 32 20 60.5t42 50t62 34t81 12.5l-11 -77q-52 0 -81 -23.5t-34 -56.5l-26 -186q-5 -33 18 -56.5t75 -23.5l-11 -77q-45 0 -77.5 12.5t-52.5 34t-28 50t-3 60.5l9 62h-29zM281 295l25 -76h-62l-9 -62q-5 -32 -20.5 -60.5t-41 -50
t-61.5 -34t-81 -12.5l11 77q51 0 80 23.5t34 56.5l26 186q5 33 -18 56.5t-74 23.5l11 77q45 0 77.5 -12.5t52 -34t27 -50t3.5 -60.5l-7 -48h27z" />
    <glyph glyph-name="uni0437" unicode="&#x437;" horiz-adv-x="370" 
d="M185 77q42 0 67.5 23t25.5 61q0 53 -76 53h-62l-23 77h96q43 0 68.5 19.5t25.5 55.5q0 28 -20 42.5t-53 14.5h-136l11 77h136q68 0 105 -34t37 -89q0 -46 -24.5 -75.5t-61.5 -47.5q26 -14 41 -37t15 -54q0 -35 -13.5 -65t-37.5 -51.5t-58 -34t-75 -12.5h-136l11 77h137v0
z" />
    <glyph glyph-name="uni0438" unicode="&#x438;" horiz-adv-x="452" 
d="M350 256q4 37 12 75l-219 -331h-74l70 500h78l-36 -256q-2 -19 -5 -38l-6 -38l219 332h74l-70 -500h-79l36 256v0z" />
    <glyph glyph-name="uni0439" unicode="&#x439;" horiz-adv-x="452" 
d="M350 256q4 37 12 75l-219 -331h-74l70 500h78l-36 -256q-2 -19 -5 -38l-6 -38l219 332h74l-70 -500h-79l36 256v0zM442 673q-8 -61 -43.5 -88t-95.5 -27q-61 0 -88.5 27t-19.5 88h63q-5 -38 8.5 -51t43.5 -13q29 0 46.5 13t22.5 51h63z" />
    <glyph glyph-name="uni043A" unicode="&#x43a;" horiz-adv-x="429" 
d="M139 499h78l-29 -204h19l85 103l85 102h91l-201 -244l32 -62l34 -67l33.5 -66.5l31.5 -60.5h-92l-125 244l-34 -244h-78z" />
    <glyph glyph-name="uni043B" unicode="&#x43b;" horiz-adv-x="428" 
d="M261 423h-77l15 77h240l-70 -500h-79l59 423h-88q-20 -111 -39.5 -190.5t-43 -131.5t-51 -76.5t-62.5 -24.5h-46l11 77h44q13 0 25 17t24 54.5t25.5 98t30.5 147.5z" />
    <glyph glyph-name="uni043C" unicode="&#x43c;" horiz-adv-x="534" 
d="M452 500h93l-70 -500h-79l26 184l10 69.5l10 69.5l-16 -31.5l-16 -31.5l1 1l-47.5 -85l-46.5 -85h-63l-47 170l1 -1q-5 16 -9 31.5l-8 31.5l-8 -69.5t-9 -69.5l-26 -184h-79l70 500h93l56 -231l13 -63l15.5 31.5l15.5 31.5z" />
    <glyph glyph-name="uni043D" unicode="&#x43d;" horiz-adv-x="452" 
d="M147 0h-78l70 500h78zM188 289h167l29 211h79l-70 -500h-79l30 212h-132z" />
    <glyph glyph-name="uni043E" unicode="&#x43e;" horiz-adv-x="445" 
d="M237 72q43 0 68.5 21.5t29.5 50.5l25 176l84 35l-30 -211q-4 -30 -19 -57.5t-39 -47.5t-57 -32t-73 -12q-41 0 -70 12t-47.5 32t-25.5 47.5t-3 57.5l30 212q4 30 19 57.5t39 47.5t56.5 32t73.5 12q40 0 70 -12t48 -32t25 -47.5t3 -57.5h-79q5 29 -14.5 50.5t-63.5 21.5
t-68.5 -21.5t-29.5 -50.5l-30 -212q-4 -29 15 -50.5t63 -21.5z" />
    <glyph glyph-name="uni043F" unicode="&#x43f;" horiz-adv-x="452" 
d="M206 423h-78l11 77h324l-70 -500h-79l59 423h-167l-59 -423h-78l55 392z" />
    <glyph glyph-name="uni0440" unicode="&#x440;" horiz-adv-x="453" 
d="M159 77h90q43 0 66.5 21t28.5 50l29 204q4 29 -14 50t-61 21h-90l-95 -673h-79l105 750h169q41 0 70 -11.5t47 -32t24.5 -47.5t2.5 -57l-29 -204q-4 -30 -18 -57t-37.5 -47.5t-56 -32t-73.5 -11.5h-54z" />
    <glyph glyph-name="uni0441" unicode="&#x441;" horiz-adv-x="424" 
d="M190 355q-2 -3 -2 -6t-1 -6l-26 -186q-5 -33 13.5 -56.5t60.5 -23.5h119l-11 -77h-119q-41 0 -69.5 12.5t-46.5 34t-24.5 50t-1.5 60.5l23 163zM110 356q6 30 21 56t38.5 45.5t54.5 31t70 11.5h119l-11 -77h-119q-38 0 -61.5 -19t-31.5 -48h-80z" />
    <glyph glyph-name="uni0442" unicode="&#x442;" horiz-adv-x="649" 
d="M429 423l-59 -423h-79l55 388zM206 423l-59 -423h-78l55 388zM139 500h371q36 0 62.5 -12t43 -32t23 -47t2.5 -57l-49 -352h-79l49 352q4 29 -10.5 50t-59.5 21h-364z" />
    <glyph glyph-name="uni0443" unicode="&#x443;" horiz-adv-x="426" 
d="M218 189q5 -31 4 -63t1 -64q11 32 20 63.5t22 62.5l130 312h77l-310 -750h-78l85 208l-39 271.5l-39 270.5h81z" />
    <glyph glyph-name="uni0444" unicode="&#x444;" horiz-adv-x="568" 
d="M333 30l-37 -261h-79l32 231h-13q-43 0 -74 13.5t-50 36t-26 53t-2 64.5l23 166q5 34 20.5 64.5t41 53t60.5 36t78 13.5l9 -28l34 247l81 12l-32 -231h14q43 0 74 -13.5t50 -36t26 -53t2 -64.5l-23 -166q-5 -34 -20.5 -64.5t-41 -53t-60.5 -36t-78 -13.5zM339 77h14
q48 0 76.5 26.5t33.5 63.5l23 166q5 37 -15.5 63.5t-68.5 26.5h-14zM260 77l49 346h-13q-48 0 -77 -26.5t-34 -63.5l-23 -166q-5 -37 16 -63.5t69 -26.5h13z" />
    <glyph glyph-name="uni0445" unicode="&#x445;" horiz-adv-x="424" 
d="M107 0h-91l191 262l-105 238h89l63 -137l9 -26q3 6 8 12.5l10 13.5l100 137h89l-172 -237l119 -263h-92l-62 140q-6 12 -11 24t-9 25l-17.5 -25l-16.5 -24z" />
    <glyph glyph-name="uni0446" unicode="&#x446;" horiz-adv-x="448" 
d="M448 77l-26 -187h-77l15 110h-291l70 500h78l-59 -423h290zM325 77l59 423h79l-55 -391z" />
    <glyph glyph-name="uni0447" unicode="&#x447;" horiz-adv-x="425" 
d="M357 500h79l-70 -500h-79zM285 244l25 -77h-74q-35 0 -64 8t-48 26t-27 46.5t-2 69.5l26 182h79l-26 -182q-5 -40 16 -56.5t57 -16.5h38z" />
    <glyph glyph-name="uni0448" unicode="&#x448;" horiz-adv-x="587" 
d="M460 77l59 423h79l-70 -500h-459l70 500h79l-59 -423h301zM270 77l59 423h79l-55 -391z" />
    <glyph glyph-name="uni0449" unicode="&#x449;" horiz-adv-x="583" 
d="M69 0l70 500h79l-59 -423h111h190l59 423h79l-59 -423h44l-26 -187h-77l15 110h-426zM270 77l59 423h79l-55 -391z" />
    <glyph glyph-name="uni044A" unicode="&#x44a;" horiz-adv-x="458" 
d="M232 333h74q35 0 63.5 -8t47.5 -26t27.5 -46.5t2.5 -69.5l-5 -37q-9 -68 -57.5 -107t-121.5 -39h-24q-63 0 -93 35t-22 91l42 297h-88l11 77h166l-52 -373q-3 -23 7 -36.5t39 -13.5h24q37 0 61 18.5t29 50.5l5 37q5 40 -15.5 56.5t-56.5 16.5h-38z" />
    <glyph glyph-name="uni044B" unicode="&#x44b;" horiz-adv-x="571" 
d="M508 500h79l-70 -500h-79zM189 333h74q36 0 64.5 -8t47.5 -26t27 -46.5t2 -69.5l-5 -37q-9 -68 -57.5 -107t-121.5 -39h-24q-63 0 -93 35t-22 91l53 374h79l-52 -373q-4 -23 6.5 -36.5t39.5 -13.5h24q37 0 61 18.5t29 50.5l5 37q6 40 -15.5 56.5t-57.5 16.5h-38z" />
    <glyph glyph-name="uni044C" unicode="&#x44c;" horiz-adv-x="420" 
d="M194 333h74q36 0 64.5 -8t47.5 -26t27 -46.5t2 -69.5l-5 -37q-9 -68 -57.5 -107t-121.5 -39h-24q-63 0 -93 35t-22 91l53 374h79l-52 -373q-4 -23 6.5 -36.5t39.5 -13.5h24q37 0 61 18.5t29 50.5l5 37q6 40 -15.5 56.5t-57.5 16.5h-38z" />
    <glyph glyph-name="uni044D" unicode="&#x44d;" horiz-adv-x="363" 
d="M281 333q5 37 -13 63.5t-60 26.5h-119l11 77h119q40 0 69 -13.5t46.5 -36t24 -53t1.5 -64.5l-24 -166q-5 -34 -19.5 -64.5t-38.5 -53t-56.5 -36t-72.5 -13.5h-119l11 77h119q42 0 67.5 26.5t30.5 63.5zM239 289l25 -77h-174l11 77h138z" />
    <glyph glyph-name="uni044E" unicode="&#x44e;" horiz-adv-x="573" 
d="M148 0h-79l70 500h79zM189 289h60l10 72q4 30 18 57t37 47.5t54 32t70 11.5q38 0 65.5 -11.5t44.5 -32t23.5 -47.5t2.5 -57l-31 -222q-4 -30 -18 -57t-37 -47.5t-54 -32t-69 -11.5q-39 0 -66.5 11.5t-44.5 32t-23.5 47.5t-2.5 57l10 73h-24zM376 68q38 0 60.5 21t26.5 50
l32 222q4 29 -13 50t-55 21t-61.5 -21t-27.5 -50l-31 -222q-5 -29 13 -50t56 -21z" />
    <glyph glyph-name="uni044F" unicode="&#x44f;" horiz-adv-x="444" 
d="M305 244l25 -77h-78l-60.5 -84.5l-59.5 -82.5h-86l128 181q-35 16 -51 48.5t-8 87.5l5 37q9 68 57.5 107t122.5 39h155l-70 -500h-78l59 423h-77q-37 0 -61 -18.5t-29 -50.5l-5 -37q-6 -40 15 -56.5t57 -16.5h39z" />
    <glyph glyph-name="uni0450" unicode="&#x450;" horiz-adv-x="422" 
d="M178 277h81q43 0 66.5 20.5t28.5 50.5l3 22q3 24 -15 41t-58 17q-43 0 -66.5 -20t-28.5 -47l-29 -213q-5 -30 13.5 -50.5t61.5 -20.5h146l-11 -77h-146q-41 0 -70 11.5t-46.5 31.5t-24.5 47t-2 58l29 213q4 30 18.5 56t38 45.5t55.5 31t73 11.5q39 0 67.5 -10.5t46 -29
t24.5 -43t3 -52.5l-3 -22q-4 -31 -18 -58t-37.5 -47t-56 -31.5t-73.5 -11.5h-45zM193 700h110l61 -135h-60z" />
    <glyph glyph-name="uni0451" unicode="&#x451;" horiz-adv-x="432" 
d="M178 277h81q43 0 66.5 20.5t28.5 50.5l3 22q3 24 -15 41t-58 17q-43 0 -66.5 -20t-28.5 -47l-29 -213q-5 -30 13.5 -50.5t61.5 -20.5h146l-11 -77h-146q-41 0 -70 11.5t-46.5 31.5t-24.5 47t-2 58l29 213q4 30 18.5 56t38 45.5t55.5 31t73 11.5q39 0 67.5 -10.5t46 -29
t24.5 -43t3 -52.5l-3 -22q-4 -31 -18 -58t-37.5 -47t-56 -31.5t-73.5 -11.5h-45zM209 655h75l-13 -90h-75zM329 655h75l-13 -90h-75z" />
    <glyph glyph-name="uni0452" unicode="&#x452;" horiz-adv-x="475" 
d="M168 0h-79l81 574h-69l10 74h69l12 83h79l-12 -83h156l-10 -74h-156zM238 500h94q36 0 62.5 -11t43.5 -30t23.5 -44.5t2.5 -53.5l-48 -342q-6 -39 -19 -73t-33 -59t-46.5 -39.5t-58.5 -14.5h-53l11 80h53q25 0 43 30t25 76l48 342q4 25 -12 43.5t-61 18.5h-50z" />
    <glyph glyph-name="uni0453" unicode="&#x453;" horiz-adv-x="405" 
d="M144 132q0 -27 19.5 -41t54.5 -14h162l-10 -77h-163q-67 0 -104.5 31t-37.5 92q0 41 11 68t33.5 45.5t56.5 31t79 24.5l31 9t31.5 14t24.5 22t10 34q0 24 -18.5 38t-53.5 14h-136l11 77h136q69 0 105 -32t36 -88q0 -48 -18 -78t-44.5 -47.5t-55.5 -25.5t-50 -13
q-57 -13 -83.5 -31t-26.5 -53zM260 565h-60l99 135h110z" />
    <glyph glyph-name="uni0454" unicode="&#x454;" horiz-adv-x="363" 
d="M163 167q-5 -37 12.5 -63.5t59.5 -26.5h119l-11 -77h-119q-41 0 -69.5 13.5t-46 36t-23.5 53t-1 64.5l23 166q5 34 19.5 64.5t38.5 53t56.5 36t73.5 13.5h119l-11 -77h-119q-42 0 -67.5 -26.5t-30.5 -63.5zM180 289h174l-11 -77h-138z" />
    <glyph glyph-name="uni0455" unicode="&#x455;" horiz-adv-x="405" 
d="M97 357l1 7q8 60 55 98t123 38h136l-11 -77h-136q-38 0 -61.5 -16t-26.5 -41l-1 -9h-79zM176 355q0 -15 6.5 -25.5t17.5 -17t25 -11.5t28 -9q34 -11 60 -21t43.5 -24t26.5 -33.5t9 -48.5q0 -79 -49.5 -122t-132.5 -43h-163l11 77h162q42 0 66.5 18.5t24.5 51.5
q0 30 -23 44t-65 25l-39 11t-39.5 17.5t-32 30t-16.5 47.5z" />
    <glyph glyph-name="uni0456" unicode="&#x456;" horiz-adv-x="206" 
d="M139 500h78l-70 -500h-78zM165 680h78l-15 -102h-78z" />
    <glyph glyph-name="uni0457" unicode="&#x457;" horiz-adv-x="173" 
d="M95 680h70l-13 -90h-70zM210 680h70l-13 -90h-70zM52 0h78l70 500h-78z" />
    <glyph glyph-name="uni0458" unicode="&#x458;" horiz-adv-x="233" 
d="M59 -250l105 750h79l-100 -715zM190 680h79l-15 -102h-79z" />
    <glyph glyph-name="uni0459" unicode="&#x459;" horiz-adv-x="599" 
d="M266 423q-20 -111 -40 -190.5t-43 -131.5t-51 -76.5t-62 -24.5h-51l11 81h49q13 0 24.5 16.5t24 53t26 95t29.5 142.5zM402 333h46q36 0 64.5 -8t47.5 -26t27 -46.5t2 -69.5l-5 -37q-9 -68 -58 -107t-122 -39h-128l59 423h-146l15 77h221l-59 -423h49q37 0 61 18.5
t29 50.5l6 37q6 40 -16 56.5t-58 16.5h-11z" />
    <glyph glyph-name="uni045A" unicode="&#x45a;" horiz-adv-x="615" 
d="M148 0h-79l70 500h79zM189 289h144l29 211h78l-59 -423h49q37 0 61.5 18.5t29.5 50.5l5 37q5 40 -16 56.5t-57 16.5h-12l-24 77h47q35 0 63.5 -8t47.5 -26t27.5 -46.5t2.5 -69.5l-5 -37q-9 -68 -58 -107t-123 -39h-127l30 212h-109z" />
    <glyph glyph-name="uni045B" unicode="&#x45b;" horiz-adv-x="475" 
d="M238 500l-70 -500h-79l83 593h-69l11 74h69l11 83h79l-11 -83h156l-11 -74h-123l-22 74l-24 -167h94q36 0 62.5 -11t43.5 -30t23.5 -44.5t2.5 -53.5l-51 -361h-78l51 361q4 25 -12 43.5t-61 18.5h-51z" />
    <glyph glyph-name="uni045C" unicode="&#x45c;" horiz-adv-x="429" 
d="M139 499h78l-29 -204h19l85 103l85 102h91l-201 -244l32 -62l34 -67l33.5 -66.5l31.5 -60.5h-92l-125 244l-34 -244h-78zM303 565h-60l99 135h110z" />
    <glyph glyph-name="uni045D" unicode="&#x45d;" horiz-adv-x="442" 
d="M350 256q4 37 12 75l-219 -331h-74l70 500h78l-36 -256q-2 -19 -5 -38l-6 -38l219 332h74l-70 -500h-79l36 256v0zM199 700h110l61 -135h-60z" />
    <glyph glyph-name="uni045E" unicode="&#x45e;" horiz-adv-x="426" 
d="M218 189q5 -31 4 -63t1 -64q11 32 20 63.5t22 62.5l130 312h77l-310 -750h-78l85 208l-39 271.5l-39 270.5h81zM425 673q-8 -61 -43.5 -88t-95.5 -27q-61 0 -88.5 27t-19.5 88h63q-5 -38 8.5 -51t43.5 -13q29 0 46.5 13t22.5 51h63z" />
    <glyph glyph-name="uni045F" unicode="&#x45f;" horiz-adv-x="452" 
d="M139 500h78l-59 -423h167l59 423h79l-70 -500h-122l-20 -139h-80l20 139h-122z" />
    <glyph glyph-name="uni0462" unicode="&#x462;" horiz-adv-x="485" 
d="M296 750l-19 -130h180l-11 -81h-175l-13 -90h75q44 0 75.5 -14.5t51 -39t26.5 -57t2 -68.5l-12 -90q-5 -37 -21.5 -69.5t-42.5 -57t-62 -39t-80 -14.5h-160l76 539h-100l11 81h102l15 107zM258 449l-51 -368h75q47 0 75 29.5t33 69.5l13 90q6 40 -14 69t-67 29h-38z" />
    <glyph glyph-name="uni0463" unicode="&#x463;" horiz-adv-x="458" 
d="M196 77h77q37 0 61 18.5t29 50.5l5 37q5 40 -15.5 56.5t-56.5 16.5h-39l-25 77h74q35 0 63.5 -8t47.5 -26t27.5 -46.5t2.5 -69.5l-5 -37q-9 -68 -57.5 -107t-121.5 -39h-156l59 423h-88l11 77h88l30 216l84 34zM256 500h118l-11 -77h-83z" />
    <glyph glyph-name="uni0490" unicode="&#x490;" horiz-adv-x="387" 
d="M413 842h81l-31 -223h-218l-87 -619h-85l98 700h222z" />
    <glyph glyph-name="uni0491" unicode="&#x491;" horiz-adv-x="333" 
d="M323 606h76l-26 -183h-166l-59 -423h-79l70 500h169z" />
    <glyph glyph-name="uni0492" unicode="&#x492;" horiz-adv-x="416" 
d="M93 0l44 312h-82l12 82h82l43 306h303l-12 -81h-218l-31 -225h138l-12 -82h-138l-44 -312h-85z" />
    <glyph glyph-name="uni0493" unicode="&#x493;" horiz-adv-x="357" 
d="M51 282h72l30 218h245l-10 -77h-166l-20 -141h104l-9 -62h-104l-31 -220h-79l31 220h-72z" />
    <glyph glyph-name="uni0498" unicode="&#x498;" horiz-adv-x="422" 
d="M194 81q49 0 79.5 24t35.5 56l8 61q5 36 -18.5 61.5t-72.5 25.5h-109l-22 82h141q47 0 74.5 25.5t32.5 61.5l9 61q5 32 -16 56t-68 24h-161l11 81h161q44 0 76 -13t52 -35t27.5 -51t2.5 -62l-9 -61q-5 -38 -27 -71.5t-59 -55.5q33 -21 49 -55t11 -74l-8 -61
q-4 -28 -17 -54t-34 -47t-49.5 -35.5t-63.5 -20.5q8 -19 11 -38t3 -35q0 -41 -31.5 -66.5t-80.5 -25.5q-21 0 -39.5 6t-32.5 15l22 46q14 -8 25.5 -11t21.5 -3q23 0 37 11.5t14 40.5q0 12 -1 27l-2 29h-155l11 81h161z" />
    <glyph glyph-name="uni0499" unicode="&#x499;" horiz-adv-x="360" 
d="M175 77q42 0 67.5 23t25.5 61q0 53 -76 53h-62l-23 77h96q43 0 68.5 19.5t25.5 55.5q0 28 -20 42.5t-53 14.5h-136l11 77h136q68 0 105 -34t37 -89q0 -46 -24.5 -75.5t-61.5 -47.5q26 -14 41 -37t15 -54q0 -60 -37 -102t-100 -56q8 -19 11.5 -38t3.5 -35q0 -42 -32 -67.5
t-81 -25.5q-21 0 -39.5 6t-32.5 15l22 46q14 -8 25.5 -11t21.5 -3q23 0 37 11.5t14 40.5q0 12 -1 27l-2 29h-130l11 77h137v0z" />
    <glyph glyph-name="uni04A0" unicode="&#x4a0;" horiz-adv-x="528" 
d="M261 391h18l226 309h94l-249 -341l161 -359h-95l-139 309l-19 64l-52 -373h-85l82 586l90 33zM293 619h-208l11 81h208z" />
    <glyph glyph-name="uni04A1" unicode="&#x4a1;" horiz-adv-x="456" 
d="M66 423l11 77h167l-29 -205h19l85 103l85 102h91l-201 -244l31.5 -62l34 -67l34 -66.5l31.5 -60.5h-92l-125 244l-34 -244h-78l59 423h-89z" />
    <glyph glyph-name="uni04A2" unicode="&#x4a2;" horiz-adv-x="495" 
d="M412 0h-65l43 308h-164l-23 84l-55 -392h-85l98 700h85l-43 -308h199l43 308h85l-86 -612h58l-33 -238h-78z" />
    <glyph glyph-name="uni04A3" unicode="&#x4a3;" horiz-adv-x="442" 
d="M363 0h-59l30 212h-132l-24 77l-41 -289h-78l70 500h78l-29 -211h167l29 211h79l-58 -412h58l-33 -238h-78z" />
    <glyph glyph-name="uni04AA" unicode="&#x4aa;" horiz-adv-x="414" 
d="M166 188q-15 -107 79 -107h161l-12 -81h-106q-11 -28 -16.5 -48.5t-5.5 -30.5q0 -29 40 -29q20 0 51 14l9 -46q-17 -9 -37 -15t-41 -6q-42 0 -66 20t-24 49q0 17 8 40t27 52h-1q-88 0 -126 48.5t-25 139.5l41 295l90 34zM320 619q-91 0 -107 -98h-85q14 86 66 132.5
t137 46.5h162l-12 -81h-161z" />
    <glyph glyph-name="uni04AB" unicode="&#x4ab;" horiz-adv-x="353" 
d="M180 355l-3 -12l-26 -186q-5 -33 13.5 -56.5t60.5 -23.5h119l-11 -77h-85q-23 -57 -23 -79q0 -29 41 -29q20 0 51 14l9 -46q-17 -9 -37 -15t-41 -6q-42 0 -66 20t-24 49q0 17 8 40t28 53q-35 3 -60 16.5t-40 34.5t-20.5 48t-1.5 57l23 163zM100 356q7 30 22 56t38.5 45.5
t54.5 31t70 11.5h119l-11 -77h-119q-38 0 -62 -19t-32 -48h-80z" />
    <glyph glyph-name="uni04AE" unicode="&#x4ae;" horiz-adv-x="465" 
d="M453 700h91l-231 -426l-38 -274h-86l38 275l-110 425h92l65 -255q5 -19 6 -38.5t3 -39.5q8 20 15 40t17 39z" />
    <glyph glyph-name="uni04AF" unicode="&#x4af;" horiz-adv-x="410" 
d="M384 500h80l-218 -484l-37 -266h-78l37 263l-83 487h80l47 -281q5 -27 4.5 -60.5t0.5 -63.5q10 31 18.5 63.5t21.5 60.5z" />
    <glyph glyph-name="uni04B0" unicode="&#x4b0;" horiz-adv-x="465" 
d="M454 700h91l-231 -426l-8 -57h110l-9 -62h-110l-22 -155h-86l22 155h-109l9 62h109l8 58l-110 425h92l65 -255q5 -19 5.5 -38.5t3.5 -39.5q8 20 15 40t17 39z" />
    <glyph glyph-name="uni04B1" unicode="&#x4b1;" horiz-adv-x="410" 
d="M385 500h79l-218 -484l-14 -105h113l-9 -62h-113l-14 -99h-78l14 99h-114l9 62h114l14 102l-83 487h81l47 -281q5 -27 4 -60.5t1 -63.5l18 63.5t22 60.5z" />
    <glyph glyph-name="uni04BA" unicode="&#x4ba;" horiz-adv-x="445" 
d="M150 0h-86l98 700h86zM237 368l-24 81h75q44 0 75.5 -14.5t51 -39t26.5 -57t2 -68.5l-38 -270h-85l38 270q5 40 -14.5 69t-66.5 29h-40z" />
    <glyph glyph-name="uni04BB" unicode="&#x4bb;" horiz-adv-x="445" 
d="M137 0h-78l103 731h78zM218 323l-25 77h94q36 0 63 -11t44 -30t23.5 -44.5t2.5 -53.5l-37 -261h-79l37 261q4 25 -11.5 43.5t-61.5 18.5h-50z" />
    <glyph glyph-name="uni04C1" unicode="&#x4c1;" horiz-adv-x="734" 
d="M518 700l-43 -309h18l225 309h95l-250 -341l161 -359h-94l-160 354l-50 -354h-85l43 309h-28l-225 -309h-95l260 359l-152 341h94l154 -340l47 340h85zM623 873q-8 -61 -43.5 -88t-95.5 -27q-61 0 -88.5 27t-19.5 88h63q-5 -38 8.5 -51t43.5 -13q29 0 46.5 13t22.5 51h63
z" />
    <glyph glyph-name="uni04C2" unicode="&#x4c2;" horiz-adv-x="621" 
d="M354 0h-79l70 500h79zM395 295h64l7 48q4 32 20 60.5t42 50t62 34t81 12.5l-11 -77q-52 0 -81 -23.5t-34 -56.5l-26 -186q-5 -33 18 -56.5t75 -23.5l-11 -77q-45 0 -77.5 12.5t-52.5 34t-28 50t-3 60.5l9 62h-29zM281 295l25 -76h-62l-9 -62q-5 -32 -20.5 -60.5t-41 -50
t-61.5 -34t-81 -12.5l11 77q51 0 80 23.5t34 56.5l26 186q5 33 -18 56.5t-74 23.5l11 77q45 0 77.5 -12.5t52 -34t27 -50t3.5 -60.5l-7 -48h27zM538 673q-8 -61 -43.5 -88t-95.5 -27q-61 0 -88.5 27t-19.5 88h63q-5 -38 8.5 -51t43.5 -13q29 0 46.5 13t22.5 51h63z" />
    <glyph glyph-name="uni04D0" unicode="&#x4d0;" horiz-adv-x="496" 
d="M222 257h143l-27 218q-4 29 -1 58t3 58q-7 -29 -12.5 -58t-16.5 -58l-196 -475h-87l290 700h75l94 -700h-87l-23 176h-131zM504 873q-8 -61 -43.5 -88t-95.5 -27q-61 0 -88.5 27t-19.5 88h63q-5 -38 8.5 -51t43.5 -13q29 0 46.5 13t22.5 51h63z" />
    <glyph glyph-name="uni04D1" unicode="&#x4d1;" horiz-adv-x="414" 
d="M316 37q-22 -20 -50.5 -31t-63.5 -11q-44 0 -71.5 10.5t-42.5 29.5t-19 45.5t1 58.5l30 213q4 30 18 57t37 47.5t53.5 32t67.5 11.5h15q37 0 64 -11.5t43.5 -32t23 -47.5t2.5 -57l-50 -352h-53zM149 138q-2 -14 -1 -25.5t8 -20t21.5 -13.5t39.5 -5q45 0 71.5 29.5
t32.5 72.5l25 176q4 29 -13 50t-53 21h-15q-36 0 -59 -21t-27 -50zM435 673q-8 -61 -43.5 -88t-95.5 -27q-61 0 -88.5 27t-19.5 88h63q-5 -38 8.5 -51t43.5 -13q29 0 46.5 13t22.5 51h63z" />
    <glyph glyph-name="uni04D2" unicode="&#x4d2;" horiz-adv-x="496" 
d="M222 257h143l-27 218q-4 29 -1 58t3 58q-7 -29 -12.5 -58t-16.5 -58l-196 -475h-87l290 700h75l94 -700h-87l-23 176h-131zM282 855h75l-13 -90h-75zM402 855h75l-13 -90h-75z" />
    <glyph glyph-name="uni04D3" unicode="&#x4d3;" horiz-adv-x="414" 
d="M316 37q-22 -20 -50.5 -31t-63.5 -11q-44 0 -71.5 10.5t-42.5 29.5t-19 45.5t1 58.5l30 213q4 30 18 57t37 47.5t53.5 32t67.5 11.5h15q37 0 64 -11.5t43.5 -32t23 -47.5t2.5 -57l-50 -352h-53zM149 138q-2 -14 -1 -25.5t8 -20t21.5 -13.5t39.5 -5q45 0 71.5 29.5
t32.5 72.5l25 176q4 29 -13 50t-53 21h-15q-36 0 -59 -21t-27 -50zM212 655h75l-13 -90h-75zM332 655h75l-13 -90h-75z" />
    <glyph glyph-name="uni04D4" unicode="&#x4d4;" horiz-adv-x="608" 
d="M589 81l-11 -81h-283l25 176h-133l-36 -88.5l-36 -87.5h-87l290 700h358l-11 -81h-198l-32 -228h151l-12 -82h-151l-32 -228h198zM221 257h110l51 363h-22q-4 -11 -7 -20.5t-6 -20.5l-16.5 -52.5t-19.5 -51.5z" />
    <glyph glyph-name="uni04D5" unicode="&#x4d5;" horiz-adv-x="657" 
d="M459 0q-45 0 -73.5 18t-42.5 47q-23 -33 -57 -51.5t-85 -18.5q-75 0 -104.5 32t-29.5 84q0 45 15 77t40 54t57 34.5t67 17.5l93 15l7 43q4 29 -13 50t-53 21h-137l10 77h137q39 0 65 -16t39 -43q21 31 55.5 49.5t81.5 18.5q39 0 67 -11t45.5 -30t24.5 -44.5t3 -53.5
l-21 -151h-246l-10 -71q-5 -30 14 -50.5t62 -20.5h146l-11 -77h-146zM415 295h167l10 75q4 26 -14.5 44t-57.5 18q-43 0 -67.5 -21t-28.5 -50zM216 74q45 0 71 24t31 59l11 74l-81 -14q-20 -3 -38 -9.5t-32 -17t-22.5 -27t-8.5 -39.5q0 -22 14 -36t55 -14z" />
    <glyph glyph-name="uni04D6" unicode="&#x4d6;" horiz-adv-x="433" 
d="M186 188q-13 -107 79 -107h151l-12 -81h-152q-88 0 -126.5 48.5t-25.5 139.5l72 512h331l-12 -81h-246zM213 391h199l-11 -82h-164zM484 873q-8 -61 -43.5 -88t-95.5 -27q-61 0 -88.5 27t-19.5 88h63q-5 -38 8.5 -51t43.5 -13q29 0 46.5 13t22.5 51h63z" />
    <glyph glyph-name="uni04D7" unicode="&#x4d7;" horiz-adv-x="422" 
d="M178 277h81q43 0 66.5 20.5t28.5 50.5l3 22q3 24 -15 41t-58 17q-43 0 -66.5 -20t-28.5 -47l-29 -213q-5 -30 13.5 -50.5t61.5 -20.5h146l-11 -77h-146q-41 0 -70 11.5t-46.5 31.5t-24.5 47t-2 58l29 213q4 30 18.5 56t38 45.5t55.5 31t73 11.5q39 0 67.5 -10.5t46 -29
t24.5 -43t3 -52.5l-3 -22q-4 -31 -18 -58t-37.5 -47t-56 -31.5t-73.5 -11.5h-45zM439 673q-8 -61 -43.5 -88t-95.5 -27q-61 0 -88.5 27t-19.5 88h63q-5 -38 8.5 -51t43.5 -13q29 0 46.5 13t22.5 51h63z" />
    <glyph glyph-name="uni04D8" unicode="&#x4d8;" horiz-adv-x="454" 
d="M380 309h-197l-17 -121q-15 -107 80 -107h9q95 0 110 107l45 324q15 107 -80 107h-161l12 81h162q88 0 126.5 -48.5t25.5 -139.5l-45 -324q-13 -91 -65.5 -139.5t-140.5 -48.5h-11q-88 0 -126.5 48.5t-25.5 139.5l29 203h247z" />
    <glyph glyph-name="uni04D9" unicode="&#x4d9;" horiz-adv-x="422" 
d="M345 352q4 30 -14 50.5t-61 20.5h-146l10 77h146q40 0 69.5 -11.5t47.5 -31.5t24.5 -47t2.5 -58l-30 -213q-4 -30 -18.5 -56t-38 -45.5t-56 -31t-72.5 -11.5q-39 0 -67.5 10.5t-46 29t-24.5 43t-3 52.5l21 151h211l24 -76h-166l-11 -75q-4 -24 14.5 -41t58.5 -17
q43 0 67 20t28 47z" />
    <glyph glyph-name="uni04DA" unicode="&#x4da;" horiz-adv-x="454" 
d="M380 309h-197l-17 -121q-15 -107 80 -107h9q95 0 110 107l45 324q15 107 -80 107h-161l12 81h162q88 0 126.5 -48.5t25.5 -139.5l-45 -324q-13 -91 -65.5 -139.5t-140.5 -48.5h-11q-88 0 -126.5 48.5t-25.5 139.5l29 203h247zM260 855h75l-13 -90h-75zM380 855h75
l-13 -90h-75z" />
    <glyph glyph-name="uni04DB" unicode="&#x4db;" horiz-adv-x="422" 
d="M345 352q4 30 -14 50.5t-61 20.5h-146l10 77h146q40 0 69.5 -11.5t47.5 -31.5t24.5 -47t2.5 -58l-30 -213q-4 -30 -18.5 -56t-38 -45.5t-56 -31t-72.5 -11.5q-39 0 -67.5 10.5t-46 29t-24.5 43t-3 52.5l21 151h211l24 -76h-166l-11 -75q-4 -24 14.5 -41t58.5 -17
q43 0 67 20t28 47zM216 655h75l-13 -90h-75zM336 655h75l-13 -90h-75z" />
    <glyph glyph-name="uni04DC" unicode="&#x4dc;" horiz-adv-x="724" 
d="M518 700l-43 -309h18l225 309h95l-250 -341l161 -359h-94l-160 354l-50 -354h-85l43 309h-28l-225 -309h-95l260 359l-152 341h94l154 -340l47 340h85zM386 855h75l-13 -90h-75zM506 855h75l-13 -90h-75z" />
    <glyph glyph-name="uni04DD" unicode="&#x4dd;" horiz-adv-x="619" 
d="M354 0h-79l70 500h79zM395 295h64l7 48q4 32 20 60.5t42 50t62 34t81 12.5l-11 -77q-52 0 -81 -23.5t-34 -56.5l-26 -186q-5 -33 18 -56.5t75 -23.5l-11 -77q-45 0 -77.5 12.5t-52.5 34t-28 50t-3 60.5l9 62h-29zM281 295l25 -76h-62l-9 -62q-5 -32 -20.5 -60.5t-41 -50
t-61.5 -34t-81 -12.5l11 77q51 0 80 23.5t34 56.5l26 186q5 33 -18 56.5t-74 23.5l11 77q45 0 77.5 -12.5t52 -34t27 -50t3.5 -60.5l-7 -48h27zM304 655h75l-13 -90h-75zM424 655h75l-13 -90h-75z" />
    <glyph glyph-name="uni04DE" unicode="&#x4de;" horiz-adv-x="422" 
d="M204 81q49 0 79.5 24t35.5 56l8 61q5 36 -18.5 61.5t-72.5 25.5h-109l-22 82h141q47 0 74.5 25.5t32.5 61.5l9 61q5 32 -16 56t-68 24h-161l11 81h161q44 0 76 -13t51.5 -35t27 -51t3.5 -62l-9 -61q-5 -38 -27 -71.5t-59 -55.5q33 -21 49.5 -55t10.5 -74l-8 -61
q-5 -33 -21.5 -62t-43.5 -51t-64 -35t-82 -13h-161l11 81h161zM203 855h75l-13 -90h-75zM323 855h75l-13 -90h-75z" />
    <glyph glyph-name="uni04DF" unicode="&#x4df;" horiz-adv-x="363" 
d="M185 77q42 0 67.5 23t25.5 61q0 53 -76 53h-62l-23 77h96q43 0 68.5 19.5t25.5 55.5q0 28 -20 42.5t-53 14.5h-136l11 77h136q68 0 105 -34t37 -89q0 -46 -24.5 -75.5t-61.5 -47.5q26 -14 41 -37t15 -54q0 -35 -13.5 -65t-37.5 -51.5t-58 -34t-75 -12.5h-136l11 77h137v0
zM156 655h75l-13 -90h-75zM276 655h75l-13 -90h-75z" />
    <glyph glyph-name="uni04E2" unicode="&#x4e2;" horiz-adv-x="495" 
d="M400 308l35 194l-284 -502h-78l98 700h85l-43 -309l-34 -191l141.5 251l140.5 249h79l-98 -700h-85zM222 831h305l-6 -42h-305z" />
    <glyph glyph-name="uni04E3" unicode="&#x4e3;" horiz-adv-x="442" 
d="M350 256q4 37 12 75l-219 -331h-74l70 500h78l-36 -256q-2 -19 -5 -38l-6 -38l219 332h74l-70 -500h-79l36 256v0zM168 631h305l-6 -42h-305z" />
    <glyph glyph-name="uni04E4" unicode="&#x4e4;" horiz-adv-x="495" 
d="M400 308l35 194l-284 -502h-78l98 700h85l-43 -309l-34 -191l141.5 251l140.5 249h79l-98 -700h-85zM281 855h75l-13 -90h-75zM401 855h75l-13 -90h-75z" />
    <glyph glyph-name="uni04E5" unicode="&#x4e5;" horiz-adv-x="442" 
d="M350 256q4 37 12 75l-219 -331h-74l70 500h78l-36 -256q-2 -19 -5 -38l-6 -38l219 332h74l-70 -500h-79l36 256v0zM226 655h75l-13 -90h-75zM346 655h75l-13 -90h-75z" />
    <glyph glyph-name="uni04E6" unicode="&#x4e6;" horiz-adv-x="496" 
d="M440 521q5 52 -16 77t-65 25h-28q-94 0 -110 -111l-46 -324q-8 -57 13 -84t67 -27h28q94 0 110 111l41 295l90 34l-46 -329q-13 -93 -65.5 -143t-140.5 -50h-30q-88 0 -126.5 50t-25.5 143l46 324q13 93 65.5 143t140.5 50h30q39 0 70.5 -11.5t52.5 -33t29.5 -53.5
t2.5 -73l-2 -13h-85zM282 855h75l-13 -90h-75zM402 855h75l-13 -90h-75z" />
    <glyph glyph-name="uni04E7" unicode="&#x4e7;" horiz-adv-x="435" 
d="M237 72q43 0 68.5 21.5t29.5 50.5l25 176l84 35l-30 -211q-4 -30 -19 -57.5t-39 -47.5t-57 -32t-73 -12q-41 0 -70 12t-47.5 32t-25.5 47.5t-3 57.5l30 212q4 30 19 57.5t39 47.5t56.5 32t73.5 12q40 0 70 -12t48 -32t25 -47.5t3 -57.5h-79q5 29 -14.5 50.5t-63.5 21.5
t-68.5 -21.5t-29.5 -50.5l-30 -212q-4 -29 15 -50.5t63 -21.5zM222 655h75l-13 -90h-75zM342 655h75l-13 -90h-75z" />
    <glyph glyph-name="uni04E8" unicode="&#x4e8;" horiz-adv-x="496" 
d="M203 392h209l13 91l89 34l-46 -329q-13 -93 -65.5 -143t-140.5 -50h-30q-88 0 -126.5 50t-25.5 143l46 324q13 93 65.5 143t140.5 50h30q39 0 70.5 -11.5t52.5 -33t29.5 -53.5t2.5 -73l-2 -13h-85q5 52 -16 77t-65 25h-28q-94 0 -110 -111l-46 -324q-8 -57 13 -84t67 -27
h28q94 0 110 111l17 120h-174z" />
    <glyph glyph-name="uni04E9" unicode="&#x4e9;" horiz-adv-x="435" 
d="M178 289h168l4 31l84 35l-30 -211q-4 -30 -19 -57.5t-39 -47.5t-57 -32t-73 -12q-41 0 -70 12t-47.5 32t-25.5 47.5t-3 57.5l30 212q4 30 19 57.5t39 47.5t56.5 32t73.5 12q40 0 70 -12t48 -32t25 -47.5t3 -57.5h-79q5 29 -14.5 50.5t-63.5 21.5t-68.5 -21.5t-29.5 -50.5
l-30 -212q-4 -29 15 -50.5t63 -21.5q43 0 68 21.5t30 50.5l10 68h-133z" />
    <glyph glyph-name="uni04EA" unicode="&#x4ea;" horiz-adv-x="496" 
d="M203 392h209l13 91l89 34l-46 -329q-13 -93 -65.5 -143t-140.5 -50h-30q-88 0 -126.5 50t-25.5 143l46 324q13 93 65.5 143t140.5 50h30q39 0 70.5 -11.5t52.5 -33t29.5 -53.5t2.5 -73l-2 -13h-85q5 52 -16 77t-65 25h-28q-94 0 -110 -111l-46 -324q-8 -57 13 -84t67 -27
h28q94 0 110 111l17 120h-174zM281 855h75l-13 -90h-75zM401 855h75l-13 -90h-75z" />
    <glyph glyph-name="uni04EB" unicode="&#x4eb;" horiz-adv-x="435" 
d="M178 289h168l4 31l84 35l-30 -211q-4 -30 -19 -57.5t-39 -47.5t-57 -32t-73 -12q-41 0 -70 12t-47.5 32t-25.5 47.5t-3 57.5l30 212q4 30 19 57.5t39 47.5t56.5 32t73.5 12q40 0 70 -12t48 -32t25 -47.5t3 -57.5h-79q5 29 -14.5 50.5t-63.5 21.5t-68.5 -21.5t-29.5 -50.5
l-30 -212q-4 -29 15 -50.5t63 -21.5q43 0 68 21.5t30 50.5l10 68h-133zM222 655h75l-13 -90h-75zM342 655h75l-13 -90h-75z" />
    <glyph glyph-name="uni04EC" unicode="&#x4ec;" horiz-adv-x="414" 
d="M357 512q15 107 -80 107h-160l11 81h161q88 0 127 -48.5t26 -139.5l-46 -324q-13 -91 -65 -139.5t-140 -48.5h-161l11 81h160q95 0 110 107zM305 391l23 -82h-218l12 82h183zM204 855h75l-13 -90h-75zM324 855h75l-13 -90h-75z" />
    <glyph glyph-name="uni04ED" unicode="&#x4ed;" horiz-adv-x="353" 
d="M281 333q5 37 -13 63.5t-60 26.5h-119l11 77h119q40 0 69 -13.5t46.5 -36t24 -53t1.5 -64.5l-24 -166q-5 -34 -19.5 -64.5t-38.5 -53t-56.5 -36t-72.5 -13.5h-119l11 77h119q42 0 67.5 26.5t30.5 63.5zM239 289l25 -77h-174l11 77h138zM149 655h75l-13 -90h-75zM269 655
h75l-13 -90h-75z" />
    <glyph glyph-name="uni04EE" unicode="&#x4ee;" horiz-adv-x="459" 
d="M455 700h88l-242 -564l-20 -45t-27.5 -45t-39.5 -34.5t-55 -13.5h-58l11 81h58q11 0 19 7t13.5 18t10 24t9.5 25l-89 547h87l55 -336q4 -25 4.5 -50.5t2.5 -51.5q8 26 13.5 51.5t16.5 50.5zM204 831h305l-6 -42h-305z" />
    <glyph glyph-name="uni04EF" unicode="&#x4ef;" horiz-adv-x="416" 
d="M218 189q5 -31 4 -63t1 -64q11 32 20 63.5t22 62.5l130 312h77l-310 -750h-78l85 208l-39 271.5l-39 270.5h81zM155 631h305l-6 -42h-305z" />
    <glyph glyph-name="uni04F0" unicode="&#x4f0;" horiz-adv-x="459" 
d="M455 700h88l-242 -564l-20 -45t-27.5 -45t-39.5 -34.5t-55 -13.5h-58l11 81h58q11 0 19 7t13.5 18t10 24t9.5 25l-89 547h87l55 -336q4 -25 4.5 -50.5t2.5 -51.5q8 26 13.5 51.5t16.5 50.5zM263 855h75l-13 -90h-75zM383 855h75l-13 -90h-75z" />
    <glyph glyph-name="uni04F1" unicode="&#x4f1;" horiz-adv-x="416" 
d="M218 189q5 -31 4 -63t1 -64q11 32 20 63.5t22 62.5l130 312h77l-310 -750h-78l85 208l-39 271.5l-39 270.5h81zM213 655h75l-13 -90h-75zM333 655h75l-13 -90h-75z" />
    <glyph glyph-name="uni04F2" unicode="&#x4f2;" horiz-adv-x="459" 
d="M455 700h88l-242 -564l-20 -45t-27.5 -45t-39.5 -34.5t-55 -13.5h-58l11 81h58q11 0 19 7t13.5 18t10 24t9.5 25l-89 547h87l55 -336q4 -25 4.5 -50.5t2.5 -51.5q8 26 13.5 51.5t16.5 50.5zM293 765h-60l99 135h110zM420 765h-60l99 135h110z" />
    <glyph glyph-name="uni04F3" unicode="&#x4f3;" horiz-adv-x="416" 
d="M218 189q5 -31 4 -63t1 -64q11 32 20 63.5t22 62.5l130 312h77l-310 -750h-78l85 208l-39 271.5l-39 270.5h81zM236 565h-60l99 135h110zM363 565h-60l99 135h110z" />
    <glyph glyph-name="uni04F4" unicode="&#x4f4;" horiz-adv-x="445" 
d="M404 700h86l-99 -700h-86zM317 332l23 -81h-75q-44 0 -75.5 14.5t-50.5 39t-26 57t-2 68.5l38 270h85l-38 -270q-5 -40 14.5 -69t66.5 -29h40zM256 855h75l-13 -90h-75zM376 855h75l-13 -90h-75z" />
    <glyph glyph-name="uni04F5" unicode="&#x4f5;" horiz-adv-x="415" 
d="M357 500h79l-70 -500h-79zM285 244l25 -77h-74q-35 0 -64 8t-48 26t-27 46.5t-2 69.5l26 182h79l-26 -182q-5 -40 16 -56.5t57 -16.5h38zM212 655h75l-13 -90h-75zM332 655h75l-13 -90h-75z" />
    <glyph glyph-name="uni04F8" unicode="&#x4f8;" horiz-adv-x="598" 
d="M642 700l-98 -700h-85l98 700h85zM222 449h76q43 0 75 -14.5t51.5 -39t26.5 -57t2 -68.5l-13 -90q-5 -37 -21.5 -69.5t-42.5 -57t-62 -39t-79 -14.5h-161l98 700h85l-87 -619h76q46 0 74.5 29.5t33.5 69.5l13 90q5 40 -15 69t-65 29h-41zM333 855h75l-13 -90h-75z
M453 855h75l-13 -90h-75z" />
    <glyph glyph-name="uni04F9" unicode="&#x4f9;" horiz-adv-x="541" 
d="M508 500h79l-70 -500h-79zM189 333h74q36 0 64.5 -8t47.5 -26t27 -46.5t2 -69.5l-5 -37q-9 -68 -57.5 -107t-121.5 -39h-24q-63 0 -93 35t-22 91l53 374h79l-52 -373q-4 -23 6.5 -36.5t39.5 -13.5h24q37 0 61 18.5t29 50.5l5 37q6 40 -15.5 56.5t-57.5 16.5h-38zM275 655
h75l-13 -90h-75zM395 655h75l-13 -90h-75z" />
    <glyph glyph-name="Wgrave" unicode="&#x1e80;" horiz-adv-x="712" 
d="M258 0h-79l-52 700h86l32 -429q2 -25 0 -50t-2 -50q6 25 11 50t14 50l152 429h79l32 -429q2 -25 -0.5 -50t-2.5 -50l11.5 50t14.5 50l151 429h86l-247 -700h-80l-31 430q-2 23 -1 45l2 45q-7 -23 -11.5 -45t-12.5 -45zM361 900h110l61 -135h-60z" />
    <glyph glyph-name="wgrave" unicode="&#x1e81;" horiz-adv-x="651" 
d="M665 500l-50 -356q-4 -30 -18 -57.5t-36 -47.5t-52 -32t-67 -12q-38 0 -64.5 14.5t-40.5 37.5q-22 -23 -52 -37.5t-68 -14.5q-37 0 -63.5 12t-43 32t-22.5 47.5t-2 57.5l50 356h79l-50 -356q-4 -29 11.5 -50.5t51.5 -21.5t57.5 21.5t25.5 50.5l50 356h79l-50 -356
q-4 -29 11.5 -50.5t51.5 -21.5t57.5 21.5t25.5 50.5l50 356h79zM268 700h110l61 -135h-60z" />
    <glyph glyph-name="Wacute" unicode="&#x1e82;" horiz-adv-x="712" 
d="M258 0h-79l-52 700h86l32 -429q2 -25 0 -50t-2 -50q6 25 11 50t14 50l152 429h79l32 -429q2 -25 -0.5 -50t-2.5 -50l11.5 50t14.5 50l151 429h86l-247 -700h-80l-31 430q-2 23 -1 45l2 45q-7 -23 -11.5 -45t-12.5 -45zM483 765h-60l99 135h110z" />
    <glyph glyph-name="wacute" unicode="&#x1e83;" horiz-adv-x="651" 
d="M665 500l-50 -356q-4 -30 -18 -57.5t-36 -47.5t-52 -32t-67 -12q-38 0 -64.5 14.5t-40.5 37.5q-22 -23 -52 -37.5t-68 -14.5q-37 0 -63.5 12t-43 32t-22.5 47.5t-2 57.5l50 356h79l-50 -356q-4 -29 11.5 -50.5t51.5 -21.5t57.5 21.5t25.5 50.5l50 356h79l-50 -356
q-4 -29 11.5 -50.5t51.5 -21.5t57.5 21.5t25.5 50.5l50 356h79zM389 565h-60l99 135h110z" />
    <glyph glyph-name="Wdieresis" unicode="&#x1e84;" horiz-adv-x="712" 
d="M258 0h-79l-52 700h86l32 -429q2 -25 0 -50t-2 -50q6 25 11 50t14 50l152 429h79l32 -429q2 -25 -0.5 -50t-2.5 -50l11.5 50t14.5 50l151 429h86l-247 -700h-80l-31 430q-2 23 -1 45l2 45q-7 -23 -11.5 -45t-12.5 -45zM378 855h75l-13 -90h-75zM498 855h75l-13 -90h-75z
" />
    <glyph glyph-name="wdieresis" unicode="&#x1e85;" horiz-adv-x="651" 
d="M665 500l-50 -356q-4 -30 -18 -57.5t-36 -47.5t-52 -32t-67 -12q-38 0 -64.5 14.5t-40.5 37.5q-22 -23 -52 -37.5t-68 -14.5q-37 0 -63.5 12t-43 32t-22.5 47.5t-2 57.5l50 356h79l-50 -356q-4 -29 11.5 -50.5t51.5 -21.5t57.5 21.5t25.5 50.5l50 356h79l-50 -356
q-4 -29 11.5 -50.5t51.5 -21.5t57.5 21.5t25.5 50.5l50 356h79zM320 655h75l-13 -90h-75zM440 655h75l-13 -90h-75z" />
    <glyph glyph-name="Ygrave" unicode="&#x1ef2;" horiz-adv-x="475" 
d="M463 700h91l-231 -426l-38 -274h-86l38 275l-110 425h92l65 -255q5 -19 6 -38.5t3 -39.5q8 20 15 40t17 39zM230 900h110l61 -135h-60z" />
    <glyph glyph-name="ygrave" unicode="&#x1ef3;" horiz-adv-x="426" 
d="M218 189q5 -31 4 -63t1 -64q11 32 20 63.5t22 62.5l130 312h77l-310 -750h-78l85 208l-39 271.5l-39 270.5h81zM185 700h110l61 -135h-60z" />
    <glyph glyph-name="endash" unicode="&#x2013;" horiz-adv-x="461" 
d="M103 209v83h335v-83h-335z" />
    <glyph glyph-name="emdash" unicode="&#x2014;" horiz-adv-x="611" 
d="M103 209v83h485v-83h-485z" />
    <glyph glyph-name="quoteleft" unicode="&#x2018;" horiz-adv-x="148" 
d="M200 616l-8 -56h-78l8 56q5 37 26.5 60.5t59.5 23.5h4l-5 -36h-4q-20 0 -30 -14.5t-12 -33.5h39z" />
    <glyph glyph-name="quoteright" unicode="&#x2019;" horiz-adv-x="148" 
d="M126 644l8 56h78l-8 -56q-5 -37 -26.5 -60.5t-59.5 -23.5h-4l5 36h4q20 0 29.5 14.5t12.5 33.5h-39z" />
    <glyph glyph-name="quotesinglbase" unicode="&#x201a;" horiz-adv-x="148" 
d="M35 0l8 56h78l-8 -56q-5 -37 -26.5 -60.5t-59.5 -23.5h-4l5 36h4q20 0 29.5 14.5t12.5 33.5h-39z" />
    <glyph glyph-name="quotedblleft" unicode="&#x201c;" horiz-adv-x="248" 
d="M300 616l-8 -56h-78l8 56q5 37 26.5 60.5t59.5 23.5h4l-5 -36h-4q-20 0 -30 -14.5t-12 -33.5h39zM200 616l-8 -56h-78l8 56q5 37 26.5 60.5t59.5 23.5h4l-5 -36h-4q-20 0 -30 -14.5t-12 -33.5h39z" />
    <glyph glyph-name="quotedblright" unicode="&#x201d;" horiz-adv-x="248" 
d="M126 644l8 56h78l-8 -56q-5 -37 -26.5 -60.5t-59.5 -23.5h-4l5 36h4q20 0 29.5 14.5t12.5 33.5h-39zM226 644l8 56h78l-8 -56q-5 -37 -26.5 -60.5t-59.5 -23.5h-4l5 36h4q20 0 29.5 14.5t12.5 33.5h-39z" />
    <glyph glyph-name="quotedblbase" unicode="&#x201e;" horiz-adv-x="248" 
d="M35 0l8 56h78l-8 -56q-5 -37 -26.5 -60.5t-59.5 -23.5h-4l5 36h4q20 0 29.5 14.5t12.5 33.5h-39zM135 0l8 56h78l-8 -56q-5 -37 -26.5 -60.5t-59.5 -23.5h-4l5 36h4q20 0 29.5 14.5t12.5 33.5h-39z" />
    <glyph glyph-name="bullet" unicode="&#x2022;" horiz-adv-x="296" 
d="M113 330q0 34 23 57t57 23t57 -23t23 -57t-23 -57t-57 -23t-57 23t-23 57z" />
    <glyph glyph-name="ellipsis" unicode="&#x2026;" horiz-adv-x="645" 
d="M70 0l14 97h99l-14 -97h-99zM277 0l14 97h99l-14 -97h-99zM484 0l14 97h99l-14 -97h-99z" />
    <glyph glyph-name="guilsinglleft" unicode="&#x2039;" horiz-adv-x="310" 
d="M68 272l190 228h92l-202 -244l132 -256h-92l-124 243z" />
    <glyph glyph-name="guilsinglright" unicode="&#x203a;" horiz-adv-x="310" 
d="M314 243l-192 -243h-92l204 256l-134 244h92l126 -228z" />
    <glyph glyph-name="Euro" unicode="&#x20ac;" horiz-adv-x="463" 
d="M249 435h190l-26 -44h-170l-12 -82h190l-26 -44h-170l-11 -77q-15 -107 79 -107h161l-11 -81h-162q-88 0 -126.5 48.5t-25.5 139.5l11 77h-80l26 44h60l12 82h-80l26 44h60l11 77q13 91 64.5 139.5t139.5 48.5h162l-11 -81h-161q-94 0 -109 -107z" />
    <glyph glyph-name="uni20B4" unicode="&#x20b4;" horiz-adv-x="457" 
d="M405 566q0 25 -18.5 39t-63.5 14h-180l11 81h179q83 0 120.5 -31.5t37.5 -89.5q0 -39 -12 -69t-34 -61h62l-11 -79h-421l11 79h258q26 23 43.5 55t17.5 62zM232 0q-83 0 -120.5 31.5t-37.5 91.5q0 67 44 128h-60l11 79h421l-11 -79h-257q-26 -23 -43.5 -52.5t-17.5 -61.5
q0 -27 18 -41.5t63 -14.5h180l-11 -81h-179z" />
    <glyph glyph-name="uni20BD" unicode="&#x20bd;" horiz-adv-x="487" 
d="M87 311h68l55 389h161q44 0 75.5 -14.5t50.5 -39t26 -57t2 -69.5l-12 -90q-5 -36 -21.5 -68.5t-42.5 -57t-62 -39t-80 -14.5h-40l-23 81l-21 -147h181l-26 -44h-161l-20 -141h-86l20 141h-88l26 44h68l12 82h-88zM319 332q47 0 75.5 29t33.5 69l12 90q5 40 -14.5 69.5
t-66.5 29.5h-75l-40 -287h75z" />
    <glyph glyph-name="afii61352" unicode="&#x2116;" horiz-adv-x="847" 
d="M699 354q-30 0 -52 10.5t-35 28t-17.5 40.5t-0.5 49l14 100q4 26 15 49t29 40.5t42.5 28t54.5 10.5t52 -10.5t35 -28t18 -40.5t1 -49l-14 -100q-4 -26 -15 -49t-29 -40.5t-43 -28t-55 -10.5zM560 244l6 43h248l-6 -43h-248zM706 397q38 0 61.5 25t28.5 60l15 100
q5 35 -12.5 60t-55.5 25t-61.5 -25t-28.5 -60l-15 -100q-5 -35 12.5 -60t55.5 -25zM240 456l-12 80q-3 -40 -7.5 -79.5l-9.5 -79.5l-53 -377h-85l98 700h98l113 -456l11 -80l8.5 79t9.5 80l53 377h85l-98 -700h-98z" />
    <glyph glyph-name="trademark" unicode="&#x2122;" horiz-adv-x="472" 
d="M150 400l36 257h-72l6 43h190l-6 -43h-73l-36 -257h-45zM383 446l-18 135v15q-1 -14 -3 -29t-4 -28l-19 -139h-45l42 300h58l17 -108q1 -17 1.5 -24.5t0.5 -13t0.5 -13t0.5 -24.5l8.5 24.5t4 13t4 13l8.5 24.5l47 108h58l-42 -300h-46l20 139l4.5 28t4.5 29l-4 -15
l-56 -135h-42z" />
    <glyph glyph-name="estimated" unicode="&#x212e;" horiz-adv-x="883" 
d="M255 317q-5 0 -5 -4v-183q0 -10 9 -21q43 -46 102 -72.5t127 -26.5q72 0 134 30t106 81h55q-51 -60 -128 -95.5t-168 -35.5q-77 0 -145 26.5t-119 72t-80.5 106.5t-29.5 131t29.5 131t80.5 106.5t119 72t145 26.5t145 -26.5t118.5 -72t80 -106.5t29.5 -131v-9h-605z
M724 525q0 12 -10 22q-44 44 -102 69.5t-124 25.5q-68 0 -126 -26.5t-102 -71.5q-10 -10 -10 -23v-180q0 -5 5 -5h464q5 0 5 5v184z" />
    <glyph glyph-name="arrowleft" unicode="&#x2190;" horiz-adv-x="652" 
d="M195 337h447v-74h-445l151 -146l-53 -52l-235 236l235 235l53 -52z" />
    <glyph glyph-name="arrowup" unicode="&#x2191;" horiz-adv-x="541" 
d="M126 317l-52 53l235 235l236 -235l-52 -53l-146 151v-445h-74v447z" />
    <glyph glyph-name="arrowright" unicode="&#x2192;" horiz-adv-x="652" 
d="M384 484l53 52l235 -235l-235 -236l-53 52l151 146h-445v74h447z" />
    <glyph glyph-name="arrowdown" unicode="&#x2193;" horiz-adv-x="541" 
d="M273 129v447h74v-445l146 151l52 -53l-236 -235l-235 235l52 53z" />
    <glyph glyph-name="arrowboth" unicode="&#x2194;" horiz-adv-x="742" 
d="M474 484l53 52l235 -235l-235 -236l-53 52l151 146h-428l151 -146l-53 -52l-235 236l235 235l53 -52l-153 -147h432z" />
    <glyph glyph-name="arrowupdn" unicode="&#x2195;" horiz-adv-x="541" 
d="M127 363l-52 53l235 235l236 -235l-52 -53l-146 151v-428l146 151l52 -53l-236 -235l-235 235l52 53l147 -153v432z" />
    <glyph glyph-name="uni2196" unicode="&#x2196;" horiz-adv-x="500" 
d="M191 455l316 -316l-53 -53l-314 315l4 -209h-74v333h332v-75z" />
    <glyph glyph-name="uni2197" unicode="&#x2197;" horiz-adv-x="500" 
d="M175 450v75h332v-333h-74l4 209l-314 -315l-53 53l316 316z" />
    <glyph glyph-name="uni2198" unicode="&#x2198;" horiz-adv-x="500" 
d="M386 156l-316 316l53 53l314 -315l-4 209h74v-333h-332v75z" />
    <glyph glyph-name="uni2199" unicode="&#x2199;" horiz-adv-x="500" 
d="M402 161v-75h-332v333h74l-4 -209l314 315l53 -53l-316 -316z" />
    <glyph glyph-name="uni21A4" unicode="&#x21a4;" horiz-adv-x="652" 
d="M195 337h373v127h74v-328h-74v127h-371l151 -146l-53 -52l-235 236l235 235l53 -52z" />
    <glyph glyph-name="uni21A5" unicode="&#x21a5;" horiz-adv-x="541" 
d="M127 318l-52 53l235 235l236 -235l-52 -53l-146 151v-371h127v-74h-328v74h127v373z" />
    <glyph glyph-name="uni21A6" unicode="&#x21a6;" horiz-adv-x="652" 
d="M384 484l53 52l235 -235l-235 -236l-53 52l151 146h-371v-127h-74v328h74v-127h373z" />
    <glyph glyph-name="uni21A7" unicode="&#x21a7;" horiz-adv-x="541" 
d="M274 129v373h-127v74h328v-74h-127v-371l146 151l52 -53l-236 -235l-235 235l52 53z" />
    <glyph glyph-name="minus" unicode="&#x2212;" 
d="M113 373h370v-46h-370v46z" />
    <glyph glyph-name="Q.salt" unicode="&#xe051;" 
d="M242 -5q-88 0 -126.5 50t-25.5 143l46 324q13 93 65.5 143t140.5 50h30q88 0 126.5 -50t25.5 -143l-46 -324q-8 -60 -34.5 -103t-68.5 -66l34 -126h-92l-29 102h-46zM323 208l31 -109q30 26 39 89l46 324q15 111 -80 111h-28q-46 0 -74 -27t-36 -84l-46 -324
q-8 -57 13 -84t67 -27h12l-36 131h92z" />
    <glyph glyph-name="registered.sups" unicode="&#xe0ae;" horiz-adv-x="530" 
d="M153 560q5 38 22.5 72.5t46 60.5t67 41.5t86.5 15.5q47 0 81 -15.5t55 -41.5t29 -60.5t3 -72.5l-28 -200q-5 -38 -22.5 -72.5t-46 -60.5t-67 -41.5t-85.5 -15.5q-48 0 -82 15.5t-55 41.5t-29 60.5t-3 72.5zM165 360q-5 -31 1.5 -59t23.5 -49.5t44 -34t65 -12.5
q37 0 67.5 12.5t53 34t36.5 49.5t19 59l28 200q4 31 -2 59t-22.5 49.5t-44 34t-64.5 12.5q-38 0 -68.5 -12.5t-53 -34t-37 -49.5t-18.5 -59zM283 583l45 16h-42l5 41h80q45 0 64 -26.5t14 -63.5l-7 -45q-4 -26 -18 -47.5t-38 -32.5l32 -135h-46l-31 125h-21l-12 41l-23 -166
h-43zM308 456h38q23 0 37 14.5t17 34.5l6 45q3 20 -7 34.5t-33 14.5h-38z" />
    <glyph glyph-name="uni0414.BUL" unicode="&#xe0414;" horiz-adv-x="565" 
d="M32 81h52l258 619h75l83 -619h55l-32 -231h-81l21 150h-363l-21 -150h-79zM172 81h242l-52 394q-3 24 -1.5 48.5t1.5 49.5q-7 -25 -12 -49.5t-15 -48.5z" />
    <glyph glyph-name="uni041B.BUL" unicode="&#xe041b;" horiz-adv-x="499" 
d="M330 475q-3 24 -1.5 48.5t1.5 49.5q-7 -25 -12 -49.5t-15 -48.5l-196 -475h-88l291 700h75l94 -700h-87z" />
    <glyph glyph-name="uni0432.BUL" unicode="&#xe0432;" horiz-adv-x="425" 
d="M149 574q8 56 47 91t102 35h33q72 0 106 -35t26 -91l-19 -137q-4 -28 -23 -48t-48 -33q30 -14 46 -36t11 -54l-19 -137q-8 -62 -56 -95.5t-122 -33.5h-33q-63 0 -92.5 35t-21.5 91zM202 391l-37 -264q-3 -23 7 -36.5t39 -13.5h35q44 0 63 12.5t23 38.5l19 137
q4 28 -14.5 38.5t-61.5 10.5h-48zM201 391h85q35 0 55.5 10t24.5 35l19 137q3 23 -12 36.5t-53 13.5h-33q-29 0 -43 -13.5t-17 -36.5z" />
    <glyph glyph-name="uni0433.BUL" unicode="&#xe0433;" horiz-adv-x="405" 
d="M144 132q0 -27 19.5 -41t54.5 -14h162l-10 -77h-163q-67 0 -104.5 31t-37.5 92q0 41 11 68t33.5 45.5t56.5 31t79 24.5l31 9t31.5 14t24.5 22t10 34q0 24 -18.5 38t-53.5 14h-136l11 77h136q69 0 105 -32t36 -88q0 -48 -18 -78t-44.5 -47.5t-55.5 -25.5t-50 -13
q-57 -13 -83.5 -31t-26.5 -53z" />
    <glyph glyph-name="uni0434.BUL" unicode="&#xe0434;" horiz-adv-x="444" 
d="M365 423h-91q-42 0 -67.5 -26.5t-30.5 -63.5l-23 -166q-5 -37 12.5 -63.5t59.5 -26.5h91l59 423h80l-85 -602q-5 -31 -19 -58t-37.5 -47t-56 -31.5t-72.5 -11.5h-147l11 76h147q42 0 66 21t29 51l14 102h-91q-41 0 -69.5 13.5t-46 36t-23.5 53t-1 64.5l23 166
q5 34 19.5 64.5t38.5 53t56 36t73 13.5h55z" />
    <glyph glyph-name="uni0436.BUL" unicode="&#xe0436;" horiz-adv-x="621" 
d="M456 750l-64 -455h64l7 48q4 32 20 60.5t42 50t62 34t81 12.5l-11 -77q-52 0 -81 -23.5t-34 -56.5l-26 -186q-5 -33 18 -56.5t75 -23.5l-11 -77q-45 0 -77.5 12.5t-52.5 34t-28 50t-3 60.5l9 62h-29l-25 76l-41 -295h-79l104 737zM278 295l25 -76h-62l-9 -62
q-5 -32 -20.5 -60.5t-41 -50t-61.5 -34t-81 -12.5l11 77q51 0 80 23.5t34 56.5l26 186q5 33 -18 56.5t-74 23.5l11 77q45 0 77.5 -12.5t52 -34t27 -50t3.5 -60.5l-7 -48h27z" />
    <glyph glyph-name="uni0437.BUL" unicode="&#xe0437;" horiz-adv-x="360" 
d="M257 77q5 33 -13.5 48t-61.5 15h-62l-23 77h96q39 0 63.5 17t29.5 50l10 74q5 32 -15.5 48.5t-55.5 16.5h-136l10 77h136q75 0 112.5 -39t28.5 -102l-11 -74q-5 -38 -28.5 -63.5t-56.5 -41.5q30 -17 45 -42.5t10 -63.5l-24 -176q-5 -33 -20 -60.5t-39 -47t-55.5 -30
t-68.5 -10.5h-136l11 77h137q38 0 62.5 19.5t29.5 54.5l25 176v0z" />
    <glyph glyph-name="uni0438.BUL" unicode="&#xe0438;" horiz-adv-x="440" 
d="M383 0h-172q-36 0 -62.5 11t-43.5 30t-23.5 44t-2.5 54l51 361h79l-51 -361q-4 -25 11 -43.5t61 -18.5h164zM316 77l59 423h78l-54 -388z" />
    <glyph glyph-name="uni0439.BUL" unicode="&#xe0439;" horiz-adv-x="440" 
d="M394 77h-164q-46 0 -61 18.5t-11 43.5l51 361h-79l-51 -361q-4 -29 2.5 -54t23.5 -44t43.5 -30t62.5 -11h172zM399 112l54 388h-78l-59 -423zM439 673q-9 -61 -44 -88t-95 -27q-61 0 -89 27t-19 88h63q-5 -38 8.5 -51t43.5 -13q29 0 46.5 13t22.5 51h63z" />
    <glyph glyph-name="uni043A.BUL" unicode="&#xe043a;" horiz-adv-x="419" 
d="M257 256l32 -62l34 -67l33.5 -66.5l31.5 -60.5h-92l-125 244l-34 -244h-78l102 723l81 27l-64 -455h19l85 103l85 102h91z" />
    <glyph glyph-name="uni043B.BUL" unicode="&#xe043b;" horiz-adv-x="410" 
d="M266 281q-5 28 -4.5 60.5t-0.5 63.5q-10 -30 -19 -63.5t-21 -60.5l-126 -281h-80l225 500h69l85 -500h-80z" />
    <glyph glyph-name="uni043F.BUL" unicode="&#xe043f;" horiz-adv-x="440" 
d="M129 500h172q36 0 63 -11t44 -30t23.5 -44.5t2.5 -53.5l-51 -361h-79l51 361q4 25 -11.5 43.5t-61.5 18.5h-164zM196 423l-59 -423h-78l55 388z" />
    <glyph glyph-name="uni0442.BUL" unicode="&#xe0442;" horiz-adv-x="639" 
d="M129 500h371q36 0 62.5 -12t43 -32t23 -47t2.5 -57l-49 -352h-79l49 352q4 29 -10.5 50t-59.5 21h-63l-59 -423h-79l55 388l83 35h-223l-59 -423h-78l55 388l82 35h-78z" />
    <glyph glyph-name="uni0446.BUL" unicode="&#xe0446;" horiz-adv-x="446" 
d="M211 0q-36 0 -62.5 11t-43.5 30t-23.5 44t-2.5 54l51 361h79l-51 -361q-4 -25 11 -43.5t61 -18.5h208l-26 -187h-77l15 110h-139zM316 77l59 423h78l-54 -388z" />
    <glyph glyph-name="uni0448.BUL" unicode="&#xe0448;" horiz-adv-x="639" 
d="M582 0h-371q-36 0 -62.5 12t-43 32t-23 47t-2.5 57l49 352h79l-49 -352q-4 -29 10.5 -50t59.5 -21h364zM292 77l60 423h79l-55 -388zM515 77l60 423h78l-55 -388z" />
    <glyph glyph-name="uni0449.BUL" unicode="&#xe0449;" horiz-adv-x="639" 
d="M211 0q-36 0 -62.5 12t-43 32t-23 47t-2.5 57l49 352h79l-49 -352q-4 -29 10.5 -50t59.5 -21h408l-26 -187h-77l15 110h-338zM292 77l60 423h79l-55 -388zM515 77l60 423h78l-55 -388z" />
    <glyph glyph-name="uni044A.BUL" unicode="&#xe044a;" horiz-adv-x="458" 
d="M232 333h74q35 0 63.5 -8t47.5 -26t27.5 -46.5t2.5 -69.5l-5 -37q-9 -68 -57.5 -107t-121.5 -39h-24q-63 0 -93 35t-22 91l42 297h-88l11 77h167zM232 333l-29 -206q-3 -23 7 -36.5t39 -13.5h24q37 0 61 18.5t29 50.5l5 37q5 40 -15.5 56.5t-56.5 16.5h-38z" />
    <glyph glyph-name="uni044C.BUL" unicode="&#xe044c;" horiz-adv-x="420" 
d="M194 333h74q36 0 64.5 -8t47.5 -26t27 -46.5t2 -69.5l-5 -37q-9 -68 -57.5 -107t-121.5 -39h-24q-63 0 -93 35t-22 91l53 374h79zM195 333l-29 -206q-3 -23 7 -36.5t39 -13.5h24q37 0 61 18.5t29 50.5l5 37q5 40 -16 56.5t-57 16.5h-38z" />
    <glyph glyph-name="uni044E.BUL" unicode="&#xe044e;" horiz-adv-x="563" 
d="M242 750l-64 -461h61l10 72q4 30 18 57t37 47.5t54 32t70 11.5q38 0 65.5 -11.5t44.5 -32t23.5 -47.5t2.5 -57l-31 -222q-4 -30 -18 -57t-37 -47.5t-54 -32t-69 -11.5q-39 0 -66.5 11.5t-44.5 32t-23.5 47.5t-2.5 57l10 73h-24l-26 77l-41 -289h-78l104 737zM366 68
q38 0 60.5 21t26.5 50l32 222q4 29 -13 50t-55 21t-61.5 -21t-27.5 -50l-31 -222q-5 -29 13 -50t56 -21z" />
    <glyph glyph-name="uni0434.tri" unicode="&#xf0434;" horiz-adv-x="450" 
d="M451 77l-25 -179h-77l14 102h-276l-14 -102h-77l25 179h50l191 423h69l71 -423h49zM288 281q-5 28 -5 60.5t-1 63.5q-9 -30 -18 -63.5t-21 -60.5l-92 -204h172z" />
    <glyph glyph-name="slash_for_L" horiz-adv-x="275" 
d="M38 266l-13 39l323 142l12 -39z" />
    <glyph glyph-name="commaaccent" horiz-adv-x="172" 
d="M38 -115l9 60h72l-9 -60q-4 -29 -21 -48t-46 -19h-14l5 33h14q13 0 18.5 10t7.5 24h-36z" />
    <glyph glyph-name="ogonek_for_e" horiz-adv-x="418" 
d="M202 -94q0 25 16.5 53t55.5 63l39 -3q-28 -23 -46 -51t-18 -50q0 -36 40 -36q20 0 51 14l10 -36q-17 -9 -37 -15t-41 -6q-33 0 -51.5 19t-18.5 48z" />
    <glyph glyph-name="undercommaaccent" horiz-adv-x="152" 
d="M193 615l-7 -50h-52l7 50q5 29 19 48t38 19h4l-3 -23h-4q-13 0 -19.5 -13.5t-8.5 -30.5h26z" />
    <glyph glyph-name="numbersign" unicode="#" horiz-adv-x="577" 
d="M315 0l56 196h-133l-55 -196h-68l56 196h-99l19 67h98l38 133h-99l20 67h99l54 197h68l-55 -197h133l54 197h68l-55 -197h94l-20 -67h-94l-37 -133h94l-19 -67h-94l-55 -196h-68zM427 396h-133l-37 -133h132z" />
    <glyph glyph-name="exclam" unicode="!" horiz-adv-x="223" 
d="M263 700l-87 -511h-65l55 511h97zM177 128l-18 -128h-85l18 128h85z" />
    <glyph glyph-name="quotedbl" unicode="&#x22;" horiz-adv-x="264" 
d="M225 700l-43 -200h-40l13 200h70zM315 700l-43 -200h-40l13 200h70z" />
    </font>
</defs>
</svg>
